%TF.GenerationSoftware,KiCad,Pcbnew,(6.0.8)*%
%TF.CreationDate,2022-10-11T12:40:35-07:00*%
%TF.ProjectId,Ground-Station-Telemetry,47726f75-6e64-42d5-9374-6174696f6e2d,rev?*%
%TF.SameCoordinates,Original*%
%TF.FileFunction,Copper,L2,Inr*%
%TF.FilePolarity,Positive*%
%FSLAX46Y46*%
G04 Gerber Fmt 4.6, Leading zero omitted, Abs format (unit mm)*
G04 Created by KiCad (PCBNEW (6.0.8)) date 2022-10-11 12:40:35*
%MOMM*%
%LPD*%
G01*
G04 APERTURE LIST*
%TA.AperFunction,ComponentPad*%
%ADD10R,1.008000X1.008000*%
%TD*%
%TA.AperFunction,ComponentPad*%
%ADD11C,1.008000*%
%TD*%
%TA.AperFunction,ComponentPad*%
%ADD12R,1.478000X1.478000*%
%TD*%
%TA.AperFunction,ComponentPad*%
%ADD13C,1.478000*%
%TD*%
%TA.AperFunction,ComponentPad*%
%ADD14C,3.366000*%
%TD*%
%TA.AperFunction,ComponentPad*%
%ADD15C,1.066800*%
%TD*%
%TA.AperFunction,ViaPad*%
%ADD16C,0.500000*%
%TD*%
%TA.AperFunction,ViaPad*%
%ADD17C,1.016000*%
%TD*%
G04 APERTURE END LIST*
D10*
%TO.N,3.3V*%
%TO.C,U5*%
X141237500Y-95560000D03*
D11*
%TO.N,XBEE_TX*%
X143237500Y-95560000D03*
%TO.N,XBEE_RX*%
X145237500Y-95560000D03*
%TO.N,XBEE_MISO*%
X147237500Y-95560000D03*
%TO.N,~{XBEE_RST}*%
X149237500Y-95560000D03*
%TO.N,XBEE_PWM0*%
X151237500Y-95560000D03*
%TO.N,XBEE_PWM1*%
X153237500Y-95560000D03*
%TO.N,unconnected-(U5-Pad8)*%
X155237500Y-95560000D03*
%TO.N,XBEE_DIO8*%
X157237500Y-95560000D03*
%TO.N,Earth*%
X159237500Y-95560000D03*
%TO.N,XBEE_MOSI*%
X159237500Y-73560000D03*
%TO.N,XBEE_DIO7*%
X157237500Y-73560000D03*
%TO.N,~{XBEE_SLEEP}*%
X155237500Y-73560000D03*
%TO.N,unconnected-(U5-Pad14)*%
X153237500Y-73560000D03*
%TO.N,XBEE_DIO5*%
X151237500Y-73560000D03*
%TO.N,XBEE_DIO6*%
X149237500Y-73560000D03*
%TO.N,XBEE_SS*%
X147237500Y-73560000D03*
%TO.N,XBEE_SCK*%
X145237500Y-73560000D03*
%TO.N,XBEE_DIO1*%
X143237500Y-73560000D03*
%TO.N,XBEE_DIO0*%
X141237500Y-73560000D03*
%TD*%
D12*
%TO.N,5V*%
%TO.C,P2*%
X212545500Y-94508000D03*
D13*
%TO.N,/Connectivity/D-*%
X212545500Y-97008000D03*
%TO.N,/Connectivity/D+*%
X214545500Y-97008000D03*
%TO.N,Earth*%
X214545500Y-94508000D03*
D14*
X217255500Y-101778000D03*
X217255500Y-89738000D03*
%TD*%
D15*
%TO.N,3.3V*%
%TO.C,P1*%
X207899000Y-107303950D03*
X207899000Y-108573950D03*
%TO.N,Earth*%
X206629000Y-107303950D03*
X206629000Y-108573950D03*
X205359000Y-107303950D03*
X205359000Y-108573950D03*
%TO.N,SWDIO*%
X204089000Y-107303950D03*
%TO.N,Earth*%
X204089000Y-108573950D03*
%TO.N,SWCLK*%
X202819000Y-107303950D03*
%TO.N,Earth*%
X202819000Y-108573950D03*
%TO.N,unconnected-(P1-Pad11)*%
X201549000Y-107303950D03*
%TO.N,Earth*%
X201549000Y-108573950D03*
%TO.N,SWO*%
X200279000Y-107303950D03*
%TO.N,Earth*%
X200279000Y-108573950D03*
%TO.N,NRST*%
X199009000Y-107303950D03*
%TO.N,Earth*%
X199009000Y-108573950D03*
%TO.N,unconnected-(P1-Pad17)*%
X197739000Y-107303950D03*
%TO.N,Earth*%
X197739000Y-108573950D03*
%TO.N,unconnected-(P1-Pad19)*%
X196469000Y-107303950D03*
%TO.N,Earth*%
X196469000Y-108573950D03*
%TD*%
D16*
%TO.N,USB_RX*%
X197612000Y-105105200D03*
%TO.N,SWDIO*%
X192379600Y-93827600D03*
%TO.N,3.3V*%
X174377800Y-95841000D03*
X175040000Y-103344000D03*
%TO.N,Earth*%
X203694400Y-93333200D03*
X194818000Y-94996000D03*
%TO.N,3.3V*%
X194360800Y-93776800D03*
X186374600Y-90841000D03*
X173532800Y-88595200D03*
%TO.N,XBEE_SS*%
X179527200Y-82854800D03*
%TO.N,XBEE_DIO6*%
X179832000Y-82143600D03*
%TO.N,XBEE_DIO5*%
X180340000Y-81330800D03*
%TO.N,~{XBEE_SLEEP}*%
X180949600Y-80568800D03*
%TO.N,XBEE_DIO0*%
X171399200Y-85140800D03*
%TO.N,XBEE_DIO1*%
X170891200Y-83718400D03*
%TO.N,XBEE_DIO7*%
X182626000Y-81381600D03*
%TO.N,XBEE_PWM1*%
X177596800Y-100482400D03*
%TO.N,XBEE_PWM0*%
X177850800Y-101650800D03*
%TO.N,XBEE_TX*%
X163271200Y-102362000D03*
%TO.N,LORA_MOSI*%
X169113200Y-104648000D03*
%TO.N,LORA_MISO*%
X168452800Y-105359200D03*
%TO.N,LORA_SCK*%
X167182800Y-104495600D03*
%TO.N,3.3V*%
X170929300Y-99936300D03*
%TO.N,Earth*%
X171284900Y-98513900D03*
%TO.N,NRST*%
X171652999Y-105715001D03*
%TO.N,LORA_IO5*%
X166014400Y-99923600D03*
X168148000Y-97790000D03*
%TO.N,LORA_SCK*%
X183134000Y-102108000D03*
%TO.N,LORA_MOSI*%
X184708800Y-101396800D03*
%TO.N,LORA_MISO*%
X184708800Y-102311200D03*
D17*
%TO.N,Earth*%
X157388800Y-112918000D03*
X142443200Y-100939600D03*
%TO.N,3.3V*%
X147640800Y-106918000D03*
%TO.N,Earth*%
X132080000Y-100736400D03*
X196392800Y-80365600D03*
X196884200Y-85683000D03*
X208127600Y-79705200D03*
%TO.N,3.3V*%
X197459600Y-83312000D03*
D16*
%TO.N,SWO*%
X180086000Y-91135200D03*
%TO.N,USB_TX*%
X190500000Y-94742000D03*
%TO.N,USB_RX*%
X189992000Y-95402400D03*
%TO.N,USB_TX*%
X198374000Y-104546400D03*
%TO.N,SWCLK*%
X188010800Y-89509600D03*
%TO.N,3.3V*%
X187274200Y-104521000D03*
%TO.N,Earth*%
X186625600Y-106361600D03*
%TO.N,3.3V*%
X181813200Y-110337600D03*
%TO.N,Earth*%
X177228500Y-87566500D03*
X168402000Y-94107000D03*
X173648000Y-108419000D03*
X192620000Y-90590000D03*
%TO.N,3.3V*%
X205895000Y-102969000D03*
%TO.N,Earth*%
X198628000Y-100584000D03*
X196850000Y-100584000D03*
X198628000Y-98806000D03*
X196850000Y-98806000D03*
%TO.N,5V*%
X209423000Y-101473000D03*
%TO.N,Earth*%
X203835000Y-99314000D03*
%TD*%
%TA.AperFunction,Conductor*%
%TO.N,Earth*%
G36*
X140375261Y-72791502D02*
G01*
X140421754Y-72845158D01*
X140431858Y-72915432D01*
X140405145Y-72975174D01*
X140405472Y-72975398D01*
X140404241Y-72977195D01*
X140403662Y-72978491D01*
X140398030Y-72985203D01*
X140302373Y-73159204D01*
X140242334Y-73348471D01*
X140220200Y-73545795D01*
X140236815Y-73743660D01*
X140253096Y-73800440D01*
X140267217Y-73849683D01*
X140291546Y-73934530D01*
X140382308Y-74111133D01*
X140386134Y-74115960D01*
X140501815Y-74261915D01*
X140501819Y-74261920D01*
X140505644Y-74266745D01*
X140656857Y-74395436D01*
X140704024Y-74421797D01*
X140824807Y-74489302D01*
X140824813Y-74489305D01*
X140830185Y-74492307D01*
X141019028Y-74553665D01*
X141216193Y-74577176D01*
X141222328Y-74576704D01*
X141222330Y-74576704D01*
X141408028Y-74562415D01*
X141408033Y-74562414D01*
X141414169Y-74561942D01*
X141420099Y-74560286D01*
X141420101Y-74560286D01*
X141476840Y-74544444D01*
X141605416Y-74508545D01*
X141672626Y-74474595D01*
X141777149Y-74421797D01*
X141777151Y-74421796D01*
X141782650Y-74419018D01*
X141939118Y-74296772D01*
X142005250Y-74220157D01*
X142064833Y-74151130D01*
X142064834Y-74151128D01*
X142068862Y-74146462D01*
X142071907Y-74141102D01*
X142127857Y-74042612D01*
X142178896Y-73993262D01*
X142248514Y-73979339D01*
X142314608Y-74005265D01*
X142349477Y-74047252D01*
X142382308Y-74111133D01*
X142386134Y-74115960D01*
X142501815Y-74261915D01*
X142501819Y-74261920D01*
X142505644Y-74266745D01*
X142656857Y-74395436D01*
X142704024Y-74421797D01*
X142824807Y-74489302D01*
X142824813Y-74489305D01*
X142830185Y-74492307D01*
X143019028Y-74553665D01*
X143216193Y-74577176D01*
X143222328Y-74576704D01*
X143222330Y-74576704D01*
X143408028Y-74562415D01*
X143408033Y-74562414D01*
X143414169Y-74561942D01*
X143420099Y-74560286D01*
X143420101Y-74560286D01*
X143476840Y-74544444D01*
X143605416Y-74508545D01*
X143672626Y-74474595D01*
X143777149Y-74421797D01*
X143777151Y-74421796D01*
X143782650Y-74419018D01*
X143939118Y-74296772D01*
X144005250Y-74220157D01*
X144064833Y-74151130D01*
X144064834Y-74151128D01*
X144068862Y-74146462D01*
X144071907Y-74141102D01*
X144127857Y-74042612D01*
X144178896Y-73993262D01*
X144248514Y-73979339D01*
X144314608Y-74005265D01*
X144349477Y-74047252D01*
X144382308Y-74111133D01*
X144386134Y-74115960D01*
X144501815Y-74261915D01*
X144501819Y-74261920D01*
X144505644Y-74266745D01*
X144656857Y-74395436D01*
X144704024Y-74421797D01*
X144824807Y-74489302D01*
X144824813Y-74489305D01*
X144830185Y-74492307D01*
X145019028Y-74553665D01*
X145216193Y-74577176D01*
X145222328Y-74576704D01*
X145222330Y-74576704D01*
X145408028Y-74562415D01*
X145408033Y-74562414D01*
X145414169Y-74561942D01*
X145420099Y-74560286D01*
X145420101Y-74560286D01*
X145476840Y-74544444D01*
X145605416Y-74508545D01*
X145672626Y-74474595D01*
X145777149Y-74421797D01*
X145777151Y-74421796D01*
X145782650Y-74419018D01*
X145939118Y-74296772D01*
X146005250Y-74220157D01*
X146064833Y-74151130D01*
X146064834Y-74151128D01*
X146068862Y-74146462D01*
X146071907Y-74141102D01*
X146127857Y-74042612D01*
X146178896Y-73993262D01*
X146248514Y-73979339D01*
X146314608Y-74005265D01*
X146349477Y-74047252D01*
X146382308Y-74111133D01*
X146386134Y-74115960D01*
X146501815Y-74261915D01*
X146501819Y-74261920D01*
X146505644Y-74266745D01*
X146656857Y-74395436D01*
X146704024Y-74421797D01*
X146824807Y-74489302D01*
X146824813Y-74489305D01*
X146830185Y-74492307D01*
X147019028Y-74553665D01*
X147216193Y-74577176D01*
X147222328Y-74576704D01*
X147222330Y-74576704D01*
X147408028Y-74562415D01*
X147408033Y-74562414D01*
X147414169Y-74561942D01*
X147420099Y-74560286D01*
X147420101Y-74560286D01*
X147476840Y-74544444D01*
X147605416Y-74508545D01*
X147672626Y-74474595D01*
X147777149Y-74421797D01*
X147777151Y-74421796D01*
X147782650Y-74419018D01*
X147939118Y-74296772D01*
X148005250Y-74220157D01*
X148064833Y-74151130D01*
X148064834Y-74151128D01*
X148068862Y-74146462D01*
X148071907Y-74141102D01*
X148127857Y-74042612D01*
X148178896Y-73993262D01*
X148248514Y-73979339D01*
X148314608Y-74005265D01*
X148349477Y-74047252D01*
X148382308Y-74111133D01*
X148386134Y-74115960D01*
X148501815Y-74261915D01*
X148501819Y-74261920D01*
X148505644Y-74266745D01*
X148656857Y-74395436D01*
X148704024Y-74421797D01*
X148824807Y-74489302D01*
X148824813Y-74489305D01*
X148830185Y-74492307D01*
X149019028Y-74553665D01*
X149216193Y-74577176D01*
X149222328Y-74576704D01*
X149222330Y-74576704D01*
X149408028Y-74562415D01*
X149408033Y-74562414D01*
X149414169Y-74561942D01*
X149420099Y-74560286D01*
X149420101Y-74560286D01*
X149476840Y-74544444D01*
X149605416Y-74508545D01*
X149672626Y-74474595D01*
X149777149Y-74421797D01*
X149777151Y-74421796D01*
X149782650Y-74419018D01*
X149939118Y-74296772D01*
X150005250Y-74220157D01*
X150064833Y-74151130D01*
X150064834Y-74151128D01*
X150068862Y-74146462D01*
X150071907Y-74141102D01*
X150127857Y-74042612D01*
X150178896Y-73993262D01*
X150248514Y-73979339D01*
X150314608Y-74005265D01*
X150349477Y-74047252D01*
X150382308Y-74111133D01*
X150386134Y-74115960D01*
X150501815Y-74261915D01*
X150501819Y-74261920D01*
X150505644Y-74266745D01*
X150656857Y-74395436D01*
X150704024Y-74421797D01*
X150824807Y-74489302D01*
X150824813Y-74489305D01*
X150830185Y-74492307D01*
X151019028Y-74553665D01*
X151216193Y-74577176D01*
X151222328Y-74576704D01*
X151222330Y-74576704D01*
X151408028Y-74562415D01*
X151408033Y-74562414D01*
X151414169Y-74561942D01*
X151420099Y-74560286D01*
X151420101Y-74560286D01*
X151476840Y-74544444D01*
X151605416Y-74508545D01*
X151672626Y-74474595D01*
X151777149Y-74421797D01*
X151777151Y-74421796D01*
X151782650Y-74419018D01*
X151939118Y-74296772D01*
X152005250Y-74220157D01*
X152064833Y-74151130D01*
X152064834Y-74151128D01*
X152068862Y-74146462D01*
X152071907Y-74141102D01*
X152127857Y-74042612D01*
X152178896Y-73993262D01*
X152248514Y-73979339D01*
X152314608Y-74005265D01*
X152349477Y-74047252D01*
X152382308Y-74111133D01*
X152386134Y-74115960D01*
X152501815Y-74261915D01*
X152501819Y-74261920D01*
X152505644Y-74266745D01*
X152656857Y-74395436D01*
X152704024Y-74421797D01*
X152824807Y-74489302D01*
X152824813Y-74489305D01*
X152830185Y-74492307D01*
X153019028Y-74553665D01*
X153216193Y-74577176D01*
X153222328Y-74576704D01*
X153222330Y-74576704D01*
X153408028Y-74562415D01*
X153408033Y-74562414D01*
X153414169Y-74561942D01*
X153420099Y-74560286D01*
X153420101Y-74560286D01*
X153476840Y-74544444D01*
X153605416Y-74508545D01*
X153672626Y-74474595D01*
X153777149Y-74421797D01*
X153777151Y-74421796D01*
X153782650Y-74419018D01*
X153939118Y-74296772D01*
X154005250Y-74220157D01*
X154064833Y-74151130D01*
X154064834Y-74151128D01*
X154068862Y-74146462D01*
X154071907Y-74141102D01*
X154127857Y-74042612D01*
X154178896Y-73993262D01*
X154248514Y-73979339D01*
X154314608Y-74005265D01*
X154349477Y-74047252D01*
X154382308Y-74111133D01*
X154386134Y-74115960D01*
X154501815Y-74261915D01*
X154501819Y-74261920D01*
X154505644Y-74266745D01*
X154656857Y-74395436D01*
X154704024Y-74421797D01*
X154824807Y-74489302D01*
X154824813Y-74489305D01*
X154830185Y-74492307D01*
X155019028Y-74553665D01*
X155216193Y-74577176D01*
X155222328Y-74576704D01*
X155222330Y-74576704D01*
X155408028Y-74562415D01*
X155408033Y-74562414D01*
X155414169Y-74561942D01*
X155420099Y-74560286D01*
X155420101Y-74560286D01*
X155476840Y-74544444D01*
X155605416Y-74508545D01*
X155672626Y-74474595D01*
X155777149Y-74421797D01*
X155777151Y-74421796D01*
X155782650Y-74419018D01*
X155939118Y-74296772D01*
X156005250Y-74220157D01*
X156064833Y-74151130D01*
X156064834Y-74151128D01*
X156068862Y-74146462D01*
X156071907Y-74141102D01*
X156127857Y-74042612D01*
X156178896Y-73993262D01*
X156248514Y-73979339D01*
X156314608Y-74005265D01*
X156349477Y-74047252D01*
X156382308Y-74111133D01*
X156386134Y-74115960D01*
X156501815Y-74261915D01*
X156501819Y-74261920D01*
X156505644Y-74266745D01*
X156656857Y-74395436D01*
X156704024Y-74421797D01*
X156824807Y-74489302D01*
X156824813Y-74489305D01*
X156830185Y-74492307D01*
X157019028Y-74553665D01*
X157216193Y-74577176D01*
X157222328Y-74576704D01*
X157222330Y-74576704D01*
X157408028Y-74562415D01*
X157408033Y-74562414D01*
X157414169Y-74561942D01*
X157420099Y-74560286D01*
X157420101Y-74560286D01*
X157476840Y-74544444D01*
X157605416Y-74508545D01*
X157672626Y-74474595D01*
X157777149Y-74421797D01*
X157777151Y-74421796D01*
X157782650Y-74419018D01*
X157939118Y-74296772D01*
X158005250Y-74220157D01*
X158064833Y-74151130D01*
X158064834Y-74151128D01*
X158068862Y-74146462D01*
X158071907Y-74141102D01*
X158127857Y-74042612D01*
X158178896Y-73993262D01*
X158248514Y-73979339D01*
X158314608Y-74005265D01*
X158349477Y-74047252D01*
X158382308Y-74111133D01*
X158386134Y-74115960D01*
X158501815Y-74261915D01*
X158501819Y-74261920D01*
X158505644Y-74266745D01*
X158656857Y-74395436D01*
X158704024Y-74421797D01*
X158824807Y-74489302D01*
X158824813Y-74489305D01*
X158830185Y-74492307D01*
X159019028Y-74553665D01*
X159216193Y-74577176D01*
X159222328Y-74576704D01*
X159222330Y-74576704D01*
X159408028Y-74562415D01*
X159408033Y-74562414D01*
X159414169Y-74561942D01*
X159420099Y-74560286D01*
X159420101Y-74560286D01*
X159476840Y-74544444D01*
X159605416Y-74508545D01*
X159672626Y-74474595D01*
X159777149Y-74421797D01*
X159777151Y-74421796D01*
X159782650Y-74419018D01*
X159939118Y-74296772D01*
X160005250Y-74220157D01*
X160064833Y-74151130D01*
X160064834Y-74151128D01*
X160068862Y-74146462D01*
X160086190Y-74115960D01*
X160116892Y-74061914D01*
X160166940Y-73973813D01*
X160229616Y-73785403D01*
X160254502Y-73588407D01*
X160254899Y-73560000D01*
X160235523Y-73362386D01*
X160178132Y-73172299D01*
X160168301Y-73153809D01*
X160087807Y-73002422D01*
X160087805Y-73002419D01*
X160084913Y-72996980D01*
X160068728Y-72977135D01*
X160041174Y-72911703D01*
X160053370Y-72841762D01*
X160101443Y-72789517D01*
X160166371Y-72771500D01*
X225425500Y-72771500D01*
X225493621Y-72791502D01*
X225540114Y-72845158D01*
X225551500Y-72897500D01*
X225551500Y-114808500D01*
X225531498Y-114876621D01*
X225477842Y-114923114D01*
X225425500Y-114934500D01*
X131825500Y-114934500D01*
X131757379Y-114914498D01*
X131710886Y-114860842D01*
X131699500Y-114808500D01*
X131699500Y-111298485D01*
X134877854Y-111298485D01*
X134878156Y-111302320D01*
X134901652Y-111600861D01*
X134903370Y-111622695D01*
X134968206Y-111941378D01*
X135071398Y-112249784D01*
X135211405Y-112543316D01*
X135213467Y-112546553D01*
X135213470Y-112546558D01*
X135224325Y-112563597D01*
X135386141Y-112817597D01*
X135388584Y-112820560D01*
X135388585Y-112820562D01*
X135565973Y-113035750D01*
X135593001Y-113068538D01*
X135828902Y-113292399D01*
X136090326Y-113485843D01*
X136146223Y-113517468D01*
X136370019Y-113644086D01*
X136370023Y-113644088D01*
X136373376Y-113645985D01*
X136376937Y-113647460D01*
X136376939Y-113647461D01*
X136398761Y-113656500D01*
X136673832Y-113770438D01*
X136777288Y-113799129D01*
X136983500Y-113856317D01*
X136983508Y-113856319D01*
X136987216Y-113857347D01*
X137308856Y-113905416D01*
X137312154Y-113905560D01*
X137423918Y-113910440D01*
X137423922Y-113910440D01*
X137425294Y-113910500D01*
X137623598Y-113910500D01*
X137865605Y-113895698D01*
X137869388Y-113894997D01*
X137869395Y-113894996D01*
X138069459Y-113857916D01*
X138185372Y-113836433D01*
X138394682Y-113770438D01*
X138491860Y-113739798D01*
X138491863Y-113739797D01*
X138495532Y-113738640D01*
X138499029Y-113737046D01*
X138499035Y-113737044D01*
X138787954Y-113605376D01*
X138787958Y-113605374D01*
X138791462Y-113603777D01*
X138825147Y-113583135D01*
X139065473Y-113435863D01*
X139065476Y-113435861D01*
X139068751Y-113433854D01*
X139071755Y-113431464D01*
X139071760Y-113431461D01*
X139196007Y-113332630D01*
X139323264Y-113231405D01*
X139325958Y-113228664D01*
X139325962Y-113228660D01*
X139548513Y-113002190D01*
X139548517Y-113002185D01*
X139551208Y-112999447D01*
X139749185Y-112741439D01*
X139914242Y-112461227D01*
X140043920Y-112162988D01*
X140136285Y-111851169D01*
X140189961Y-111530417D01*
X140204146Y-111205515D01*
X140189156Y-111015052D01*
X140178932Y-110885140D01*
X140178932Y-110885137D01*
X140178630Y-110881305D01*
X140113794Y-110562622D01*
X140034936Y-110326943D01*
X181049975Y-110326943D01*
X181066581Y-110496299D01*
X181120294Y-110657767D01*
X181123941Y-110663789D01*
X181123942Y-110663791D01*
X181137697Y-110686502D01*
X181208446Y-110803323D01*
X181326655Y-110925732D01*
X181469046Y-111018910D01*
X181475650Y-111021366D01*
X181475652Y-111021367D01*
X181512044Y-111034901D01*
X181628541Y-111078226D01*
X181797215Y-111100732D01*
X181804226Y-111100094D01*
X181804230Y-111100094D01*
X181959662Y-111085948D01*
X181966683Y-111085309D01*
X181973385Y-111083131D01*
X181973387Y-111083131D01*
X182092327Y-111044485D01*
X218189854Y-111044485D01*
X218194231Y-111100094D01*
X218209542Y-111294638D01*
X218215370Y-111368695D01*
X218280206Y-111687378D01*
X218383398Y-111995784D01*
X218523405Y-112289316D01*
X218698141Y-112563597D01*
X218700584Y-112566560D01*
X218700585Y-112566562D01*
X218850308Y-112748190D01*
X218905001Y-112814538D01*
X219140902Y-113038399D01*
X219402326Y-113231843D01*
X219543851Y-113311914D01*
X219682019Y-113390086D01*
X219682023Y-113390088D01*
X219685376Y-113391985D01*
X219985832Y-113516438D01*
X220089288Y-113545129D01*
X220295500Y-113602317D01*
X220295508Y-113602319D01*
X220299216Y-113603347D01*
X220620856Y-113651416D01*
X220624154Y-113651560D01*
X220735918Y-113656440D01*
X220735922Y-113656440D01*
X220737294Y-113656500D01*
X220935598Y-113656500D01*
X221177605Y-113641698D01*
X221181388Y-113640997D01*
X221181395Y-113640996D01*
X221337489Y-113612065D01*
X221497372Y-113582433D01*
X221706682Y-113516438D01*
X221803860Y-113485798D01*
X221803863Y-113485797D01*
X221807532Y-113484640D01*
X221811029Y-113483046D01*
X221811035Y-113483044D01*
X222099954Y-113351376D01*
X222099958Y-113351374D01*
X222103462Y-113349777D01*
X222193361Y-113294687D01*
X222377473Y-113181863D01*
X222377476Y-113181861D01*
X222380751Y-113179854D01*
X222383755Y-113177464D01*
X222383760Y-113177461D01*
X222524419Y-113065575D01*
X222635264Y-112977405D01*
X222637958Y-112974664D01*
X222637962Y-112974660D01*
X222860513Y-112748190D01*
X222860517Y-112748185D01*
X222863208Y-112745447D01*
X223061185Y-112487439D01*
X223226242Y-112207227D01*
X223355920Y-111908988D01*
X223448285Y-111597169D01*
X223501961Y-111276417D01*
X223516146Y-110951515D01*
X223503388Y-110789410D01*
X223490932Y-110631140D01*
X223490932Y-110631137D01*
X223490630Y-110627305D01*
X223425794Y-110308622D01*
X223322602Y-110000216D01*
X223182595Y-109706684D01*
X223171742Y-109689647D01*
X223110574Y-109593634D01*
X223007859Y-109432403D01*
X223005415Y-109429438D01*
X222803442Y-109184425D01*
X222803438Y-109184420D01*
X222800999Y-109181462D01*
X222565098Y-108957601D01*
X222303674Y-108764157D01*
X222097807Y-108647683D01*
X222023981Y-108605914D01*
X222023977Y-108605912D01*
X222020624Y-108604015D01*
X222010106Y-108599658D01*
X221794139Y-108510202D01*
X221720168Y-108479562D01*
X221616712Y-108450871D01*
X221410500Y-108393683D01*
X221410492Y-108393681D01*
X221406784Y-108392653D01*
X221085144Y-108344584D01*
X221081846Y-108344440D01*
X220970082Y-108339560D01*
X220970078Y-108339560D01*
X220968706Y-108339500D01*
X220770402Y-108339500D01*
X220528395Y-108354302D01*
X220524612Y-108355003D01*
X220524605Y-108355004D01*
X220368512Y-108383934D01*
X220208628Y-108413567D01*
X220088431Y-108451465D01*
X219902140Y-108510202D01*
X219902137Y-108510203D01*
X219898468Y-108511360D01*
X219894971Y-108512954D01*
X219894965Y-108512956D01*
X219606046Y-108644624D01*
X219606042Y-108644626D01*
X219602538Y-108646223D01*
X219599259Y-108648233D01*
X219599256Y-108648234D01*
X219332423Y-108811750D01*
X219325249Y-108816146D01*
X219322245Y-108818536D01*
X219322240Y-108818539D01*
X219270225Y-108859914D01*
X219070736Y-109018595D01*
X219068042Y-109021336D01*
X219068038Y-109021340D01*
X218845487Y-109247810D01*
X218845483Y-109247815D01*
X218842792Y-109250553D01*
X218780207Y-109332115D01*
X218685724Y-109455248D01*
X218644815Y-109508561D01*
X218578783Y-109620661D01*
X218510778Y-109736112D01*
X218479758Y-109788773D01*
X218350080Y-110087012D01*
X218348986Y-110090706D01*
X218348984Y-110090711D01*
X218323871Y-110175491D01*
X218257715Y-110398831D01*
X218204039Y-110719583D01*
X218189854Y-111044485D01*
X182092327Y-111044485D01*
X182121823Y-111034901D01*
X182121826Y-111034900D01*
X182128522Y-111032724D01*
X182274690Y-110945590D01*
X182279784Y-110940739D01*
X182279788Y-110940736D01*
X182347033Y-110876699D01*
X182397921Y-110828239D01*
X182492091Y-110686502D01*
X182552519Y-110527425D01*
X182576201Y-110358913D01*
X182576499Y-110337600D01*
X182557531Y-110168492D01*
X182501568Y-110007789D01*
X182495583Y-109998210D01*
X182470107Y-109957442D01*
X182411392Y-109863479D01*
X182291486Y-109742732D01*
X182275239Y-109732421D01*
X182229575Y-109703442D01*
X182147808Y-109651551D01*
X181987500Y-109594468D01*
X181818529Y-109574320D01*
X181811526Y-109575056D01*
X181811525Y-109575056D01*
X181656301Y-109591370D01*
X181656297Y-109591371D01*
X181649293Y-109592107D01*
X181642622Y-109594378D01*
X181494873Y-109644675D01*
X181494870Y-109644676D01*
X181488203Y-109646946D01*
X181482205Y-109650636D01*
X181482203Y-109650637D01*
X181349265Y-109732421D01*
X181349263Y-109732423D01*
X181343266Y-109736112D01*
X181221686Y-109855173D01*
X181129504Y-109998210D01*
X181071303Y-110158116D01*
X181049975Y-110326943D01*
X140034936Y-110326943D01*
X140010602Y-110254216D01*
X139870595Y-109960684D01*
X139695859Y-109686403D01*
X139693415Y-109683438D01*
X139515515Y-109467628D01*
X195940152Y-109467628D01*
X195945062Y-109474186D01*
X196044681Y-109529863D01*
X196055919Y-109534772D01*
X196238434Y-109594074D01*
X196250408Y-109596707D01*
X196440973Y-109619430D01*
X196453222Y-109619687D01*
X196644572Y-109604963D01*
X196656642Y-109602835D01*
X196841486Y-109551226D01*
X196852918Y-109546792D01*
X196989368Y-109477866D01*
X197001901Y-109466112D01*
X197001636Y-109465796D01*
X197000321Y-109464481D01*
X197207679Y-109464481D01*
X197207955Y-109464694D01*
X197215061Y-109474186D01*
X197314681Y-109529863D01*
X197325919Y-109534772D01*
X197508434Y-109594074D01*
X197520408Y-109596707D01*
X197710973Y-109619430D01*
X197723222Y-109619687D01*
X197914572Y-109604963D01*
X197926642Y-109602835D01*
X198111486Y-109551226D01*
X198122918Y-109546792D01*
X198259368Y-109477866D01*
X198271901Y-109466112D01*
X198271636Y-109465796D01*
X198270321Y-109464481D01*
X198477679Y-109464481D01*
X198477955Y-109464694D01*
X198485061Y-109474186D01*
X198584681Y-109529863D01*
X198595919Y-109534772D01*
X198778434Y-109594074D01*
X198790408Y-109596707D01*
X198980973Y-109619430D01*
X198993222Y-109619687D01*
X199184572Y-109604963D01*
X199196642Y-109602835D01*
X199381486Y-109551226D01*
X199392918Y-109546792D01*
X199529368Y-109477866D01*
X199541901Y-109466112D01*
X199541636Y-109465796D01*
X199540321Y-109464481D01*
X199747679Y-109464481D01*
X199747955Y-109464694D01*
X199755061Y-109474186D01*
X199854681Y-109529863D01*
X199865919Y-109534772D01*
X200048434Y-109594074D01*
X200060408Y-109596707D01*
X200250973Y-109619430D01*
X200263222Y-109619687D01*
X200454572Y-109604963D01*
X200466642Y-109602835D01*
X200651486Y-109551226D01*
X200662918Y-109546792D01*
X200799368Y-109477866D01*
X200811901Y-109466112D01*
X200811636Y-109465796D01*
X200810321Y-109464481D01*
X201017679Y-109464481D01*
X201017955Y-109464694D01*
X201025061Y-109474186D01*
X201124681Y-109529863D01*
X201135919Y-109534772D01*
X201318434Y-109594074D01*
X201330408Y-109596707D01*
X201520973Y-109619430D01*
X201533222Y-109619687D01*
X201724572Y-109604963D01*
X201736642Y-109602835D01*
X201921486Y-109551226D01*
X201932918Y-109546792D01*
X202069368Y-109477866D01*
X202081901Y-109466112D01*
X202081636Y-109465796D01*
X202080321Y-109464481D01*
X202287679Y-109464481D01*
X202287955Y-109464694D01*
X202295061Y-109474186D01*
X202394681Y-109529863D01*
X202405919Y-109534772D01*
X202588434Y-109594074D01*
X202600408Y-109596707D01*
X202790973Y-109619430D01*
X202803222Y-109619687D01*
X202994572Y-109604963D01*
X203006642Y-109602835D01*
X203191486Y-109551226D01*
X203202918Y-109546792D01*
X203339368Y-109477866D01*
X203351901Y-109466112D01*
X203351636Y-109465796D01*
X203350321Y-109464481D01*
X203557679Y-109464481D01*
X203557955Y-109464694D01*
X203565061Y-109474186D01*
X203664681Y-109529863D01*
X203675919Y-109534772D01*
X203858434Y-109594074D01*
X203870408Y-109596707D01*
X204060973Y-109619430D01*
X204073222Y-109619687D01*
X204264572Y-109604963D01*
X204276642Y-109602835D01*
X204461486Y-109551226D01*
X204472918Y-109546792D01*
X204609368Y-109477866D01*
X204621901Y-109466112D01*
X204621636Y-109465796D01*
X204620321Y-109464481D01*
X204827679Y-109464481D01*
X204827955Y-109464694D01*
X204835061Y-109474186D01*
X204934681Y-109529863D01*
X204945919Y-109534772D01*
X205128434Y-109594074D01*
X205140408Y-109596707D01*
X205330973Y-109619430D01*
X205343222Y-109619687D01*
X205534572Y-109604963D01*
X205546642Y-109602835D01*
X205731486Y-109551226D01*
X205742918Y-109546792D01*
X205879368Y-109477866D01*
X205891901Y-109466112D01*
X205891636Y-109465796D01*
X205371812Y-108945972D01*
X205357868Y-108938358D01*
X205356035Y-108938489D01*
X205349420Y-108942740D01*
X204827679Y-109464481D01*
X204620321Y-109464481D01*
X204101812Y-108945972D01*
X204087868Y-108938358D01*
X204086035Y-108938489D01*
X204079420Y-108942740D01*
X203557679Y-109464481D01*
X203350321Y-109464481D01*
X202831812Y-108945972D01*
X202817868Y-108938358D01*
X202816035Y-108938489D01*
X202809420Y-108942740D01*
X202287679Y-109464481D01*
X202080321Y-109464481D01*
X201561812Y-108945972D01*
X201547868Y-108938358D01*
X201546035Y-108938489D01*
X201539420Y-108942740D01*
X201017679Y-109464481D01*
X200810321Y-109464481D01*
X200291812Y-108945972D01*
X200277868Y-108938358D01*
X200276035Y-108938489D01*
X200269420Y-108942740D01*
X199747679Y-109464481D01*
X199540321Y-109464481D01*
X199021812Y-108945972D01*
X199007868Y-108938358D01*
X199006035Y-108938489D01*
X198999420Y-108942740D01*
X198477679Y-109464481D01*
X198270321Y-109464481D01*
X197751812Y-108945972D01*
X197737868Y-108938358D01*
X197736035Y-108938489D01*
X197729420Y-108942740D01*
X197207679Y-109464481D01*
X197000321Y-109464481D01*
X196481812Y-108945972D01*
X196467868Y-108938358D01*
X196466035Y-108938489D01*
X196459420Y-108942740D01*
X195946912Y-109455248D01*
X195940152Y-109467628D01*
X139515515Y-109467628D01*
X139491442Y-109438425D01*
X139491438Y-109438420D01*
X139488999Y-109435462D01*
X139253098Y-109211601D01*
X138991674Y-109018157D01*
X138786781Y-108902234D01*
X138711981Y-108859914D01*
X138711977Y-108859912D01*
X138708624Y-108858015D01*
X138676098Y-108844542D01*
X138582802Y-108805898D01*
X138408168Y-108733562D01*
X138304712Y-108704871D01*
X138098500Y-108647683D01*
X138098492Y-108647681D01*
X138094784Y-108646653D01*
X137773144Y-108598584D01*
X137769846Y-108598440D01*
X137658082Y-108593560D01*
X137658078Y-108593560D01*
X137656706Y-108593500D01*
X137458402Y-108593500D01*
X137216395Y-108608302D01*
X137212612Y-108609003D01*
X137212605Y-108609004D01*
X137056512Y-108637934D01*
X136896628Y-108667567D01*
X136763313Y-108709601D01*
X136590140Y-108764202D01*
X136590137Y-108764203D01*
X136586468Y-108765360D01*
X136582971Y-108766954D01*
X136582965Y-108766956D01*
X136294046Y-108898624D01*
X136294042Y-108898626D01*
X136290538Y-108900223D01*
X136287259Y-108902233D01*
X136287256Y-108902234D01*
X136097373Y-109018595D01*
X136013249Y-109070146D01*
X136010245Y-109072536D01*
X136010240Y-109072539D01*
X135973354Y-109101880D01*
X135758736Y-109272595D01*
X135756042Y-109275336D01*
X135756038Y-109275340D01*
X135533487Y-109501810D01*
X135533483Y-109501815D01*
X135530792Y-109504553D01*
X135332815Y-109762561D01*
X135221255Y-109951953D01*
X135194008Y-109998210D01*
X135167758Y-110042773D01*
X135038080Y-110341012D01*
X135036986Y-110344706D01*
X135036984Y-110344711D01*
X135032777Y-110358913D01*
X134945715Y-110652831D01*
X134892039Y-110973583D01*
X134877854Y-111298485D01*
X131699500Y-111298485D01*
X131699500Y-106903739D01*
X146619482Y-106903739D01*
X146636162Y-107102386D01*
X146648179Y-107144294D01*
X146688013Y-107283207D01*
X146691110Y-107294009D01*
X146782230Y-107471311D01*
X146906053Y-107627537D01*
X147057863Y-107756737D01*
X147063241Y-107759743D01*
X147063243Y-107759744D01*
X147105197Y-107783191D01*
X147231876Y-107853989D01*
X147237735Y-107855893D01*
X147237738Y-107855894D01*
X147287147Y-107871948D01*
X147421465Y-107915591D01*
X147427575Y-107916320D01*
X147427577Y-107916320D01*
X147495114Y-107924373D01*
X147619409Y-107939194D01*
X147625544Y-107938722D01*
X147625546Y-107938722D01*
X147812026Y-107924373D01*
X147812031Y-107924372D01*
X147818167Y-107923900D01*
X147824097Y-107922244D01*
X147824099Y-107922244D01*
X147914169Y-107897096D01*
X148010170Y-107870292D01*
X148019437Y-107865611D01*
X148182602Y-107783191D01*
X148182604Y-107783190D01*
X148188103Y-107780412D01*
X148345190Y-107657682D01*
X148367762Y-107631532D01*
X148471418Y-107511446D01*
X148471419Y-107511444D01*
X148475447Y-107506778D01*
X148479941Y-107498868D01*
X148570865Y-107338811D01*
X148573912Y-107333448D01*
X148588587Y-107289332D01*
X195422161Y-107289332D01*
X195425374Y-107327595D01*
X195436983Y-107465834D01*
X195439259Y-107492943D01*
X195440958Y-107498868D01*
X195491742Y-107675972D01*
X195495579Y-107689355D01*
X195498394Y-107694832D01*
X195498395Y-107694835D01*
X195531715Y-107759668D01*
X195588976Y-107871087D01*
X195590984Y-107873621D01*
X195610786Y-107940745D01*
X195595201Y-108001605D01*
X195510147Y-108156319D01*
X195505319Y-108167583D01*
X195447290Y-108350514D01*
X195444742Y-108362502D01*
X195423350Y-108553214D01*
X195423179Y-108565483D01*
X195439237Y-108756713D01*
X195441450Y-108768772D01*
X195494348Y-108953250D01*
X195498861Y-108964647D01*
X195565342Y-109094006D01*
X195575059Y-109104224D01*
X195581860Y-109101880D01*
X196301961Y-108381779D01*
X196364273Y-108347753D01*
X196405974Y-108345760D01*
X196447075Y-108350661D01*
X196453210Y-108350189D01*
X196453212Y-108350189D01*
X196644658Y-108335459D01*
X196644663Y-108335458D01*
X196650799Y-108334986D01*
X196656731Y-108333330D01*
X196656735Y-108333329D01*
X196736807Y-108310972D01*
X196765872Y-108302857D01*
X196836861Y-108303803D01*
X196896070Y-108342979D01*
X196924700Y-108407947D01*
X196913661Y-108478080D01*
X196888850Y-108513310D01*
X196841022Y-108561138D01*
X196833408Y-108575082D01*
X196833539Y-108576915D01*
X196837790Y-108583530D01*
X197091188Y-108836928D01*
X197105132Y-108844542D01*
X197106965Y-108844411D01*
X197113580Y-108840160D01*
X197366978Y-108586762D01*
X197374592Y-108572818D01*
X197374461Y-108570985D01*
X197370210Y-108564370D01*
X197319617Y-108513777D01*
X197285591Y-108451465D01*
X197290656Y-108380650D01*
X197333203Y-108323814D01*
X197399723Y-108299003D01*
X197447648Y-108304849D01*
X197514185Y-108326468D01*
X197717075Y-108350661D01*
X197723210Y-108350189D01*
X197723212Y-108350189D01*
X197914658Y-108335459D01*
X197914663Y-108335458D01*
X197920799Y-108334986D01*
X197926731Y-108333330D01*
X197926735Y-108333329D01*
X198006807Y-108310972D01*
X198035872Y-108302857D01*
X198106861Y-108303803D01*
X198166070Y-108342979D01*
X198194700Y-108407947D01*
X198183661Y-108478080D01*
X198158850Y-108513310D01*
X198111022Y-108561138D01*
X198103408Y-108575082D01*
X198103539Y-108576915D01*
X198107790Y-108583530D01*
X198361188Y-108836928D01*
X198375132Y-108844542D01*
X198376965Y-108844411D01*
X198383580Y-108840160D01*
X198636978Y-108586762D01*
X198644592Y-108572818D01*
X198644461Y-108570985D01*
X198640210Y-108564370D01*
X198589617Y-108513777D01*
X198555591Y-108451465D01*
X198560656Y-108380650D01*
X198603203Y-108323814D01*
X198669723Y-108299003D01*
X198717648Y-108304849D01*
X198784185Y-108326468D01*
X198987075Y-108350661D01*
X198993210Y-108350189D01*
X198993212Y-108350189D01*
X199184658Y-108335459D01*
X199184663Y-108335458D01*
X199190799Y-108334986D01*
X199196731Y-108333330D01*
X199196735Y-108333329D01*
X199276807Y-108310972D01*
X199305872Y-108302857D01*
X199376861Y-108303803D01*
X199436070Y-108342979D01*
X199464700Y-108407947D01*
X199453661Y-108478080D01*
X199428850Y-108513310D01*
X199381022Y-108561138D01*
X199373408Y-108575082D01*
X199373539Y-108576915D01*
X199377790Y-108583530D01*
X199631188Y-108836928D01*
X199645132Y-108844542D01*
X199646965Y-108844411D01*
X199653580Y-108840160D01*
X199906978Y-108586762D01*
X199914592Y-108572818D01*
X199914461Y-108570985D01*
X199910210Y-108564370D01*
X199859617Y-108513777D01*
X199825591Y-108451465D01*
X199830656Y-108380650D01*
X199873203Y-108323814D01*
X199939723Y-108299003D01*
X199987648Y-108304849D01*
X200054185Y-108326468D01*
X200257075Y-108350661D01*
X200263210Y-108350189D01*
X200263212Y-108350189D01*
X200454658Y-108335459D01*
X200454663Y-108335458D01*
X200460799Y-108334986D01*
X200466731Y-108333330D01*
X200466735Y-108333329D01*
X200546807Y-108310972D01*
X200575872Y-108302857D01*
X200646861Y-108303803D01*
X200706070Y-108342979D01*
X200734700Y-108407947D01*
X200723661Y-108478080D01*
X200698850Y-108513310D01*
X200651022Y-108561138D01*
X200643408Y-108575082D01*
X200643539Y-108576915D01*
X200647790Y-108583530D01*
X200901188Y-108836928D01*
X200915132Y-108844542D01*
X200916965Y-108844411D01*
X200923580Y-108840160D01*
X201176978Y-108586762D01*
X201184592Y-108572818D01*
X201184461Y-108570985D01*
X201180210Y-108564370D01*
X201129617Y-108513777D01*
X201095591Y-108451465D01*
X201100656Y-108380650D01*
X201143203Y-108323814D01*
X201209723Y-108299003D01*
X201257648Y-108304849D01*
X201324185Y-108326468D01*
X201527075Y-108350661D01*
X201533210Y-108350189D01*
X201533212Y-108350189D01*
X201724658Y-108335459D01*
X201724663Y-108335458D01*
X201730799Y-108334986D01*
X201736731Y-108333330D01*
X201736735Y-108333329D01*
X201816807Y-108310972D01*
X201845872Y-108302857D01*
X201916861Y-108303803D01*
X201976070Y-108342979D01*
X202004700Y-108407947D01*
X201993661Y-108478080D01*
X201968850Y-108513310D01*
X201921022Y-108561138D01*
X201913408Y-108575082D01*
X201913539Y-108576915D01*
X201917790Y-108583530D01*
X202171188Y-108836928D01*
X202185132Y-108844542D01*
X202186965Y-108844411D01*
X202193580Y-108840160D01*
X202446978Y-108586762D01*
X202454592Y-108572818D01*
X202454461Y-108570985D01*
X202450210Y-108564370D01*
X202399617Y-108513777D01*
X202365591Y-108451465D01*
X202370656Y-108380650D01*
X202413203Y-108323814D01*
X202479723Y-108299003D01*
X202527648Y-108304849D01*
X202594185Y-108326468D01*
X202797075Y-108350661D01*
X202803210Y-108350189D01*
X202803212Y-108350189D01*
X202994658Y-108335459D01*
X202994663Y-108335458D01*
X203000799Y-108334986D01*
X203006731Y-108333330D01*
X203006735Y-108333329D01*
X203086807Y-108310972D01*
X203115872Y-108302857D01*
X203186861Y-108303803D01*
X203246070Y-108342979D01*
X203274700Y-108407947D01*
X203263661Y-108478080D01*
X203238850Y-108513310D01*
X203191022Y-108561138D01*
X203183408Y-108575082D01*
X203183539Y-108576915D01*
X203187790Y-108583530D01*
X203441188Y-108836928D01*
X203455132Y-108844542D01*
X203456965Y-108844411D01*
X203463580Y-108840160D01*
X203716978Y-108586762D01*
X203724592Y-108572818D01*
X203724461Y-108570985D01*
X203720210Y-108564370D01*
X203669617Y-108513777D01*
X203635591Y-108451465D01*
X203640656Y-108380650D01*
X203683203Y-108323814D01*
X203749723Y-108299003D01*
X203797648Y-108304849D01*
X203864185Y-108326468D01*
X204067075Y-108350661D01*
X204073210Y-108350189D01*
X204073212Y-108350189D01*
X204264658Y-108335459D01*
X204264663Y-108335458D01*
X204270799Y-108334986D01*
X204276731Y-108333330D01*
X204276735Y-108333329D01*
X204356807Y-108310972D01*
X204385872Y-108302857D01*
X204456861Y-108303803D01*
X204516070Y-108342979D01*
X204544700Y-108407947D01*
X204533661Y-108478080D01*
X204508850Y-108513310D01*
X204461022Y-108561138D01*
X204453408Y-108575082D01*
X204453539Y-108576915D01*
X204457790Y-108583530D01*
X204711188Y-108836928D01*
X204725132Y-108844542D01*
X204726965Y-108844411D01*
X204733580Y-108840160D01*
X204986978Y-108586762D01*
X204993356Y-108575082D01*
X205723408Y-108575082D01*
X205723539Y-108576915D01*
X205727790Y-108583530D01*
X205981188Y-108836928D01*
X205995132Y-108844542D01*
X205996965Y-108844411D01*
X206003580Y-108840160D01*
X206256978Y-108586762D01*
X206264592Y-108572818D01*
X206264461Y-108570985D01*
X206260210Y-108564370D01*
X206006812Y-108310972D01*
X205992868Y-108303358D01*
X205991035Y-108303489D01*
X205984420Y-108307740D01*
X205731022Y-108561138D01*
X205723408Y-108575082D01*
X204993356Y-108575082D01*
X204994592Y-108572818D01*
X204994461Y-108570985D01*
X204990210Y-108564370D01*
X204730345Y-108304505D01*
X204696319Y-108242193D01*
X204701384Y-108171378D01*
X204741866Y-108116122D01*
X204810991Y-108062115D01*
X204905569Y-107952545D01*
X204965219Y-107914050D01*
X205036216Y-107913914D01*
X205090043Y-107945783D01*
X205346188Y-108201928D01*
X205360132Y-108209542D01*
X205361965Y-108209411D01*
X205368580Y-108205160D01*
X205621978Y-107951762D01*
X205629592Y-107937818D01*
X205629461Y-107935985D01*
X205625210Y-107929370D01*
X205371812Y-107675972D01*
X205357868Y-107668358D01*
X205356035Y-107668489D01*
X205349420Y-107672740D01*
X205299227Y-107722933D01*
X205236915Y-107756959D01*
X205166100Y-107751894D01*
X205109264Y-107709347D01*
X205084453Y-107642827D01*
X205090574Y-107594066D01*
X205098526Y-107570160D01*
X205109924Y-107535898D01*
X205134822Y-107338811D01*
X205135091Y-107336685D01*
X205135092Y-107336676D01*
X205135533Y-107333182D01*
X205135925Y-107305082D01*
X205723408Y-107305082D01*
X205723539Y-107306915D01*
X205727790Y-107313530D01*
X205981188Y-107566928D01*
X205995132Y-107574542D01*
X205996965Y-107574411D01*
X206003580Y-107570160D01*
X206256978Y-107316762D01*
X206264592Y-107302818D01*
X206264461Y-107300985D01*
X206260210Y-107294370D01*
X206006812Y-107040972D01*
X205992868Y-107033358D01*
X205991035Y-107033489D01*
X205984420Y-107037740D01*
X205731022Y-107291138D01*
X205723408Y-107305082D01*
X205135925Y-107305082D01*
X205135941Y-107303950D01*
X205129595Y-107239231D01*
X205142854Y-107169485D01*
X205165899Y-107137841D01*
X205890646Y-106413094D01*
X205890211Y-106412513D01*
X206096773Y-106412513D01*
X206821529Y-107137269D01*
X206855555Y-107199581D01*
X206857649Y-107240407D01*
X206852161Y-107289332D01*
X206855374Y-107327595D01*
X206866983Y-107465834D01*
X206869259Y-107492943D01*
X206870958Y-107498868D01*
X206899988Y-107600109D01*
X206899537Y-107671104D01*
X206860775Y-107730585D01*
X206796008Y-107759668D01*
X206725800Y-107749118D01*
X206689774Y-107723934D01*
X206641812Y-107675972D01*
X206627868Y-107668358D01*
X206626035Y-107668489D01*
X206619420Y-107672740D01*
X206366022Y-107926138D01*
X206358408Y-107940082D01*
X206358539Y-107941915D01*
X206362790Y-107948530D01*
X206616188Y-108201928D01*
X206630132Y-108209542D01*
X206631965Y-108209411D01*
X206638580Y-108205160D01*
X206689474Y-108154266D01*
X206751786Y-108120240D01*
X206822601Y-108125305D01*
X206879437Y-108167852D01*
X206904248Y-108234372D01*
X206898671Y-108281460D01*
X206878647Y-108344584D01*
X206874937Y-108356279D01*
X206852161Y-108559332D01*
X206856254Y-108608067D01*
X206858939Y-108640045D01*
X206844708Y-108709601D01*
X206822476Y-108739684D01*
X206097679Y-109464481D01*
X206097955Y-109464694D01*
X206105061Y-109474186D01*
X206204681Y-109529863D01*
X206215919Y-109534772D01*
X206398434Y-109594074D01*
X206410408Y-109596707D01*
X206600973Y-109619430D01*
X206613222Y-109619687D01*
X206804572Y-109604963D01*
X206816642Y-109602835D01*
X207001486Y-109551226D01*
X207012918Y-109546792D01*
X207184212Y-109460265D01*
X207198019Y-109451503D01*
X207266253Y-109431890D01*
X207327003Y-109447900D01*
X207479858Y-109533328D01*
X207674185Y-109596468D01*
X207877075Y-109620661D01*
X207883210Y-109620189D01*
X207883212Y-109620189D01*
X208074658Y-109605459D01*
X208074663Y-109605458D01*
X208080799Y-109604986D01*
X208086731Y-109603330D01*
X208086735Y-109603329D01*
X208156834Y-109583757D01*
X208277600Y-109550038D01*
X208283104Y-109547258D01*
X208283106Y-109547257D01*
X208454478Y-109460691D01*
X208454480Y-109460690D01*
X208459979Y-109457912D01*
X208620991Y-109332115D01*
X208625017Y-109327451D01*
X208625020Y-109327448D01*
X208750473Y-109182109D01*
X208750474Y-109182107D01*
X208754502Y-109177441D01*
X208855428Y-108999779D01*
X208919924Y-108805898D01*
X208937253Y-108668727D01*
X208945091Y-108606685D01*
X208945092Y-108606676D01*
X208945533Y-108603182D01*
X208945941Y-108573950D01*
X208926002Y-108370598D01*
X208918105Y-108344440D01*
X208877376Y-108209542D01*
X208866945Y-108174992D01*
X208771621Y-107995714D01*
X208757301Y-107926176D01*
X208773316Y-107874324D01*
X208852379Y-107735147D01*
X208852381Y-107735143D01*
X208855428Y-107729779D01*
X208919924Y-107535898D01*
X208944822Y-107338811D01*
X208945091Y-107336685D01*
X208945092Y-107336676D01*
X208945533Y-107333182D01*
X208945941Y-107303950D01*
X208926002Y-107100598D01*
X208866945Y-106904992D01*
X208771019Y-106724582D01*
X208641879Y-106566240D01*
X208514100Y-106460532D01*
X208489192Y-106439926D01*
X208489188Y-106439924D01*
X208484442Y-106435997D01*
X208304706Y-106338814D01*
X208173067Y-106298065D01*
X208115404Y-106280215D01*
X208115401Y-106280214D01*
X208109517Y-106278393D01*
X208103392Y-106277749D01*
X208103391Y-106277749D01*
X207912437Y-106257679D01*
X207912436Y-106257679D01*
X207906309Y-106257035D01*
X207831119Y-106263878D01*
X207708961Y-106274994D01*
X207708957Y-106274995D01*
X207702823Y-106275553D01*
X207506809Y-106333243D01*
X207325734Y-106427907D01*
X207325128Y-106426748D01*
X207263639Y-106445358D01*
X207202667Y-106430198D01*
X207039929Y-106342206D01*
X207028624Y-106337454D01*
X206845301Y-106280706D01*
X206833291Y-106278240D01*
X206642434Y-106258181D01*
X206630165Y-106258096D01*
X206439058Y-106275487D01*
X206427002Y-106277787D01*
X206242916Y-106331967D01*
X206231532Y-106336566D01*
X206109218Y-106400510D01*
X206096773Y-106412513D01*
X205890211Y-106412513D01*
X205883580Y-106403656D01*
X205769931Y-106342206D01*
X205758625Y-106337454D01*
X205575301Y-106280706D01*
X205563291Y-106278240D01*
X205372434Y-106258181D01*
X205360165Y-106258096D01*
X205169058Y-106275487D01*
X205157002Y-106277787D01*
X204972916Y-106331967D01*
X204961532Y-106336566D01*
X204786008Y-106428327D01*
X204785292Y-106426958D01*
X204724602Y-106445318D01*
X204663643Y-106430158D01*
X204626593Y-106410125D01*
X204494706Y-106338814D01*
X204363067Y-106298065D01*
X204305404Y-106280215D01*
X204305401Y-106280214D01*
X204299517Y-106278393D01*
X204293392Y-106277749D01*
X204293391Y-106277749D01*
X204102437Y-106257679D01*
X204102436Y-106257679D01*
X204096309Y-106257035D01*
X204021119Y-106263878D01*
X203898961Y-106274994D01*
X203898957Y-106274995D01*
X203892823Y-106275553D01*
X203696809Y-106333243D01*
X203515734Y-106427907D01*
X203515053Y-106426605D01*
X203454111Y-106445047D01*
X203393142Y-106429887D01*
X203323909Y-106392453D01*
X203224706Y-106338814D01*
X203093067Y-106298065D01*
X203035404Y-106280215D01*
X203035401Y-106280214D01*
X203029517Y-106278393D01*
X203023392Y-106277749D01*
X203023391Y-106277749D01*
X202832437Y-106257679D01*
X202832436Y-106257679D01*
X202826309Y-106257035D01*
X202751119Y-106263878D01*
X202628961Y-106274994D01*
X202628957Y-106274995D01*
X202622823Y-106275553D01*
X202426809Y-106333243D01*
X202245734Y-106427907D01*
X202245053Y-106426605D01*
X202184111Y-106445047D01*
X202123142Y-106429887D01*
X202053909Y-106392453D01*
X201954706Y-106338814D01*
X201823067Y-106298065D01*
X201765404Y-106280215D01*
X201765401Y-106280214D01*
X201759517Y-106278393D01*
X201753392Y-106277749D01*
X201753391Y-106277749D01*
X201562437Y-106257679D01*
X201562436Y-106257679D01*
X201556309Y-106257035D01*
X201481119Y-106263878D01*
X201358961Y-106274994D01*
X201358957Y-106274995D01*
X201352823Y-106275553D01*
X201156809Y-106333243D01*
X200975734Y-106427907D01*
X200975053Y-106426605D01*
X200914111Y-106445047D01*
X200853142Y-106429887D01*
X200783909Y-106392453D01*
X200684706Y-106338814D01*
X200553067Y-106298065D01*
X200495404Y-106280215D01*
X200495401Y-106280214D01*
X200489517Y-106278393D01*
X200483392Y-106277749D01*
X200483391Y-106277749D01*
X200292437Y-106257679D01*
X200292436Y-106257679D01*
X200286309Y-106257035D01*
X200211119Y-106263878D01*
X200088961Y-106274994D01*
X200088957Y-106274995D01*
X200082823Y-106275553D01*
X199886809Y-106333243D01*
X199705734Y-106427907D01*
X199705053Y-106426605D01*
X199644111Y-106445047D01*
X199583142Y-106429887D01*
X199513909Y-106392453D01*
X199414706Y-106338814D01*
X199283067Y-106298065D01*
X199225404Y-106280215D01*
X199225401Y-106280214D01*
X199219517Y-106278393D01*
X199213392Y-106277749D01*
X199213391Y-106277749D01*
X199022437Y-106257679D01*
X199022436Y-106257679D01*
X199016309Y-106257035D01*
X198941119Y-106263878D01*
X198818961Y-106274994D01*
X198818957Y-106274995D01*
X198812823Y-106275553D01*
X198616809Y-106333243D01*
X198435734Y-106427907D01*
X198435053Y-106426605D01*
X198374111Y-106445047D01*
X198313142Y-106429887D01*
X198243909Y-106392453D01*
X198144706Y-106338814D01*
X198013067Y-106298065D01*
X197955404Y-106280215D01*
X197955401Y-106280214D01*
X197949517Y-106278393D01*
X197943392Y-106277749D01*
X197943391Y-106277749D01*
X197752437Y-106257679D01*
X197752436Y-106257679D01*
X197746309Y-106257035D01*
X197671119Y-106263878D01*
X197548961Y-106274994D01*
X197548957Y-106274995D01*
X197542823Y-106275553D01*
X197346809Y-106333243D01*
X197165734Y-106427907D01*
X197165053Y-106426605D01*
X197104111Y-106445047D01*
X197043142Y-106429887D01*
X196973909Y-106392453D01*
X196874706Y-106338814D01*
X196743067Y-106298065D01*
X196685404Y-106280215D01*
X196685401Y-106280214D01*
X196679517Y-106278393D01*
X196673392Y-106277749D01*
X196673391Y-106277749D01*
X196482437Y-106257679D01*
X196482436Y-106257679D01*
X196476309Y-106257035D01*
X196401119Y-106263878D01*
X196278961Y-106274994D01*
X196278957Y-106274995D01*
X196272823Y-106275553D01*
X196076809Y-106333243D01*
X196051778Y-106346329D01*
X195901194Y-106425052D01*
X195901190Y-106425055D01*
X195895734Y-106427907D01*
X195736494Y-106555939D01*
X195605155Y-106712463D01*
X195602191Y-106717855D01*
X195602188Y-106717859D01*
X195521843Y-106864007D01*
X195506720Y-106891516D01*
X195504859Y-106897383D01*
X195504858Y-106897385D01*
X195488160Y-106950023D01*
X195444937Y-107086279D01*
X195422161Y-107289332D01*
X148588587Y-107289332D01*
X148636835Y-107144294D01*
X148650850Y-107033358D01*
X148661378Y-106950023D01*
X148661379Y-106950013D01*
X148661820Y-106946520D01*
X148662218Y-106918000D01*
X148642765Y-106719606D01*
X148640984Y-106713707D01*
X148640983Y-106713702D01*
X148586929Y-106534667D01*
X148585148Y-106528768D01*
X148535821Y-106435997D01*
X148494455Y-106358198D01*
X148494453Y-106358195D01*
X148491561Y-106352756D01*
X148487671Y-106347986D01*
X148487668Y-106347982D01*
X148369463Y-106203049D01*
X148369460Y-106203046D01*
X148365568Y-106198274D01*
X148337074Y-106174701D01*
X148255127Y-106106909D01*
X148211970Y-106071206D01*
X148036615Y-105976392D01*
X147846185Y-105917444D01*
X147840060Y-105916800D01*
X147840059Y-105916800D01*
X147654060Y-105897251D01*
X147654058Y-105897251D01*
X147647931Y-105896607D01*
X147525052Y-105907790D01*
X147455546Y-105914115D01*
X147455545Y-105914115D01*
X147449405Y-105914674D01*
X147443491Y-105916415D01*
X147443489Y-105916415D01*
X147325335Y-105951190D01*
X147258170Y-105970958D01*
X147081509Y-106063314D01*
X147076709Y-106067174D01*
X147076708Y-106067174D01*
X147073474Y-106069774D01*
X146926151Y-106188225D01*
X146798014Y-106340933D01*
X146701979Y-106515621D01*
X146700118Y-106521488D01*
X146700117Y-106521490D01*
X146685921Y-106566240D01*
X146641702Y-106705635D01*
X146619482Y-106903739D01*
X131699500Y-106903739D01*
X131699500Y-104484943D01*
X166419575Y-104484943D01*
X166436181Y-104654299D01*
X166438405Y-104660984D01*
X166438405Y-104660985D01*
X166452663Y-104703845D01*
X166489894Y-104815767D01*
X166493541Y-104821789D01*
X166493542Y-104821791D01*
X166572677Y-104952457D01*
X166578046Y-104961323D01*
X166696255Y-105083732D01*
X166838646Y-105176910D01*
X166845250Y-105179366D01*
X166845252Y-105179367D01*
X166877374Y-105191313D01*
X166998141Y-105236226D01*
X167166815Y-105258732D01*
X167173826Y-105258094D01*
X167173830Y-105258094D01*
X167329262Y-105243948D01*
X167336283Y-105243309D01*
X167342985Y-105241131D01*
X167342987Y-105241131D01*
X167491423Y-105192901D01*
X167491426Y-105192900D01*
X167498122Y-105190724D01*
X167504173Y-105187117D01*
X167504831Y-105186725D01*
X167505309Y-105186602D01*
X167510591Y-105184206D01*
X167511012Y-105185134D01*
X167573587Y-105169028D01*
X167640995Y-105191313D01*
X167685655Y-105246504D01*
X167694350Y-105310748D01*
X167689575Y-105348543D01*
X167706181Y-105517899D01*
X167708405Y-105524584D01*
X167708405Y-105524585D01*
X167718725Y-105555607D01*
X167759894Y-105679367D01*
X167763541Y-105685389D01*
X167763542Y-105685391D01*
X167834467Y-105802501D01*
X167848046Y-105824923D01*
X167966255Y-105947332D01*
X168015141Y-105979322D01*
X168100483Y-106035168D01*
X168108646Y-106040510D01*
X168115250Y-106042966D01*
X168115252Y-106042967D01*
X168180343Y-106067174D01*
X168268141Y-106099826D01*
X168436815Y-106122332D01*
X168443826Y-106121694D01*
X168443830Y-106121694D01*
X168599262Y-106107548D01*
X168606283Y-106106909D01*
X168612985Y-106104731D01*
X168612987Y-106104731D01*
X168761423Y-106056501D01*
X168761426Y-106056500D01*
X168768122Y-106054324D01*
X168914290Y-105967190D01*
X168919384Y-105962339D01*
X168919388Y-105962336D01*
X169019080Y-105867400D01*
X169037521Y-105849839D01*
X169131691Y-105708102D01*
X169133119Y-105704344D01*
X170889774Y-105704344D01*
X170906380Y-105873700D01*
X170960093Y-106035168D01*
X170963740Y-106041190D01*
X170963741Y-106041192D01*
X170999816Y-106100758D01*
X171048245Y-106180724D01*
X171166454Y-106303133D01*
X171308845Y-106396311D01*
X171315449Y-106398767D01*
X171315451Y-106398768D01*
X171353973Y-106413094D01*
X171468340Y-106455627D01*
X171637014Y-106478133D01*
X171644025Y-106477495D01*
X171644029Y-106477495D01*
X171799461Y-106463349D01*
X171806482Y-106462710D01*
X171813184Y-106460532D01*
X171813186Y-106460532D01*
X171961622Y-106412302D01*
X171961625Y-106412301D01*
X171968321Y-106410125D01*
X172114489Y-106322991D01*
X172119583Y-106318140D01*
X172119587Y-106318137D01*
X172186832Y-106254100D01*
X172237720Y-106205640D01*
X172245225Y-106194345D01*
X172304764Y-106104731D01*
X172331890Y-106063903D01*
X172392318Y-105904826D01*
X172416000Y-105736314D01*
X172416298Y-105715001D01*
X172397330Y-105545893D01*
X172387582Y-105517899D01*
X172343685Y-105391847D01*
X172341367Y-105385190D01*
X172335382Y-105375611D01*
X172312828Y-105339518D01*
X172251191Y-105240880D01*
X172226608Y-105216124D01*
X172136247Y-105125130D01*
X172131285Y-105120133D01*
X172120030Y-105112990D01*
X172065940Y-105078664D01*
X171987607Y-105028952D01*
X171827299Y-104971869D01*
X171658328Y-104951721D01*
X171651325Y-104952457D01*
X171651324Y-104952457D01*
X171496100Y-104968771D01*
X171496096Y-104968772D01*
X171489092Y-104969508D01*
X171482421Y-104971779D01*
X171334672Y-105022076D01*
X171334669Y-105022077D01*
X171328002Y-105024347D01*
X171322004Y-105028037D01*
X171322002Y-105028038D01*
X171189064Y-105109822D01*
X171189062Y-105109824D01*
X171183065Y-105113513D01*
X171061485Y-105232574D01*
X171057674Y-105238488D01*
X171057672Y-105238490D01*
X170986747Y-105348543D01*
X170969303Y-105375611D01*
X170911102Y-105535517D01*
X170889774Y-105704344D01*
X169133119Y-105704344D01*
X169192119Y-105549025D01*
X169193494Y-105539239D01*
X169200172Y-105491726D01*
X169229460Y-105427052D01*
X169286009Y-105389429D01*
X169390264Y-105355555D01*
X169421823Y-105345301D01*
X169421826Y-105345300D01*
X169428522Y-105343124D01*
X169574690Y-105255990D01*
X169579784Y-105251139D01*
X169579788Y-105251136D01*
X169677596Y-105157994D01*
X169697921Y-105138639D01*
X169701938Y-105132594D01*
X169772368Y-105026587D01*
X169792091Y-104996902D01*
X169852519Y-104837825D01*
X169876201Y-104669313D01*
X169876499Y-104648000D01*
X169861059Y-104510343D01*
X186510975Y-104510343D01*
X186527581Y-104679699D01*
X186581294Y-104841167D01*
X186584941Y-104847189D01*
X186584942Y-104847191D01*
X186660396Y-104971779D01*
X186669446Y-104986723D01*
X186787655Y-105109132D01*
X186840172Y-105143498D01*
X186915668Y-105192901D01*
X186930046Y-105202310D01*
X186936650Y-105204766D01*
X186936652Y-105204767D01*
X186973044Y-105218301D01*
X187089541Y-105261626D01*
X187258215Y-105284132D01*
X187265226Y-105283494D01*
X187265230Y-105283494D01*
X187420662Y-105269348D01*
X187427683Y-105268709D01*
X187434385Y-105266531D01*
X187434387Y-105266531D01*
X187582823Y-105218301D01*
X187582826Y-105218300D01*
X187589522Y-105216124D01*
X187735690Y-105128990D01*
X187740784Y-105124139D01*
X187740788Y-105124136D01*
X187771863Y-105094543D01*
X196848775Y-105094543D01*
X196865381Y-105263899D01*
X196867605Y-105270584D01*
X196867605Y-105270585D01*
X196886607Y-105327706D01*
X196919094Y-105425367D01*
X196922741Y-105431389D01*
X196922742Y-105431391D01*
X196990037Y-105542507D01*
X197007246Y-105570923D01*
X197125455Y-105693332D01*
X197267846Y-105786510D01*
X197274450Y-105788966D01*
X197274452Y-105788967D01*
X197310844Y-105802501D01*
X197427341Y-105845826D01*
X197596015Y-105868332D01*
X197603026Y-105867694D01*
X197603030Y-105867694D01*
X197758462Y-105853548D01*
X197765483Y-105852909D01*
X197772185Y-105850731D01*
X197772187Y-105850731D01*
X197920623Y-105802501D01*
X197920626Y-105802500D01*
X197927322Y-105800324D01*
X198073490Y-105713190D01*
X198078584Y-105708339D01*
X198078588Y-105708336D01*
X198145833Y-105644299D01*
X198196721Y-105595839D01*
X198290891Y-105454102D01*
X198293394Y-105447514D01*
X198317413Y-105384284D01*
X198360302Y-105327706D01*
X198423781Y-105303547D01*
X198501859Y-105296441D01*
X198527483Y-105294109D01*
X198534185Y-105291931D01*
X198534187Y-105291931D01*
X198682623Y-105243701D01*
X198682626Y-105243700D01*
X198689322Y-105241524D01*
X198835490Y-105154390D01*
X198840584Y-105149539D01*
X198840588Y-105149536D01*
X198915010Y-105078664D01*
X198958721Y-105037039D01*
X198964702Y-105028038D01*
X199032684Y-104925716D01*
X199052891Y-104895302D01*
X199113319Y-104736225D01*
X199137001Y-104567713D01*
X199137299Y-104546400D01*
X199118331Y-104377292D01*
X199105873Y-104341516D01*
X199064686Y-104223246D01*
X199062368Y-104216589D01*
X199056383Y-104207010D01*
X199026890Y-104159813D01*
X198972192Y-104072279D01*
X198946605Y-104046512D01*
X198860284Y-103959586D01*
X198852286Y-103951532D01*
X198836039Y-103941221D01*
X198778755Y-103904868D01*
X198708608Y-103860351D01*
X198548300Y-103803268D01*
X198379329Y-103783120D01*
X198372326Y-103783856D01*
X198372325Y-103783856D01*
X198217101Y-103800170D01*
X198217097Y-103800171D01*
X198210093Y-103800907D01*
X198203422Y-103803178D01*
X198055673Y-103853475D01*
X198055670Y-103853476D01*
X198049003Y-103855746D01*
X198043005Y-103859436D01*
X198043003Y-103859437D01*
X197910065Y-103941221D01*
X197910063Y-103941223D01*
X197904066Y-103944912D01*
X197893688Y-103955075D01*
X197788454Y-104058129D01*
X197782486Y-104063973D01*
X197778675Y-104069887D01*
X197778673Y-104069889D01*
X197726860Y-104150287D01*
X197690304Y-104207010D01*
X197687894Y-104213632D01*
X197669079Y-104265326D01*
X197626985Y-104322497D01*
X197563848Y-104347541D01*
X197554666Y-104348506D01*
X197455101Y-104358970D01*
X197455097Y-104358971D01*
X197448093Y-104359707D01*
X197441422Y-104361978D01*
X197293673Y-104412275D01*
X197293670Y-104412276D01*
X197287003Y-104414546D01*
X197281005Y-104418236D01*
X197281003Y-104418237D01*
X197148065Y-104500021D01*
X197148063Y-104500023D01*
X197142066Y-104503712D01*
X197106679Y-104538366D01*
X197048267Y-104595568D01*
X197020486Y-104622773D01*
X197016675Y-104628687D01*
X197016673Y-104628689D01*
X196980109Y-104685425D01*
X196928304Y-104765810D01*
X196870103Y-104925716D01*
X196848775Y-105094543D01*
X187771863Y-105094543D01*
X187838413Y-105031168D01*
X187858921Y-105011639D01*
X187868713Y-104996902D01*
X187920406Y-104919097D01*
X187953091Y-104869902D01*
X188013519Y-104710825D01*
X188037201Y-104542313D01*
X188037499Y-104521000D01*
X188018531Y-104351892D01*
X188016009Y-104344648D01*
X187971413Y-104216589D01*
X187962568Y-104191189D01*
X187956583Y-104181610D01*
X187934620Y-104146464D01*
X187872392Y-104046879D01*
X187752486Y-103926132D01*
X187745785Y-103921879D01*
X187687231Y-103884720D01*
X187608808Y-103834951D01*
X187448500Y-103777868D01*
X187279529Y-103757720D01*
X187272526Y-103758456D01*
X187272525Y-103758456D01*
X187117301Y-103774770D01*
X187117297Y-103774771D01*
X187110293Y-103775507D01*
X187103622Y-103777778D01*
X186955873Y-103828075D01*
X186955870Y-103828076D01*
X186949203Y-103830346D01*
X186943205Y-103834036D01*
X186943203Y-103834037D01*
X186810265Y-103915821D01*
X186810263Y-103915823D01*
X186804266Y-103919512D01*
X186760929Y-103961951D01*
X186693721Y-104027767D01*
X186682686Y-104038573D01*
X186678875Y-104044487D01*
X186678873Y-104044489D01*
X186596410Y-104172446D01*
X186590504Y-104181610D01*
X186532303Y-104341516D01*
X186510975Y-104510343D01*
X169861059Y-104510343D01*
X169857531Y-104478892D01*
X169801568Y-104318189D01*
X169795583Y-104308610D01*
X169738080Y-104216589D01*
X169711392Y-104173879D01*
X169703359Y-104165789D01*
X169616433Y-104078254D01*
X169591486Y-104053132D01*
X169575239Y-104042821D01*
X169520760Y-104008248D01*
X169447808Y-103961951D01*
X169287500Y-103904868D01*
X169118529Y-103884720D01*
X169111526Y-103885456D01*
X169111525Y-103885456D01*
X168956301Y-103901770D01*
X168956297Y-103901771D01*
X168949293Y-103902507D01*
X168942622Y-103904778D01*
X168794873Y-103955075D01*
X168794870Y-103955076D01*
X168788203Y-103957346D01*
X168782205Y-103961036D01*
X168782203Y-103961037D01*
X168649265Y-104042821D01*
X168649263Y-104042823D01*
X168643266Y-104046512D01*
X168521686Y-104165573D01*
X168517875Y-104171487D01*
X168517873Y-104171489D01*
X168488808Y-104216589D01*
X168429504Y-104308610D01*
X168371303Y-104468516D01*
X168370420Y-104475504D01*
X168370420Y-104475505D01*
X168365708Y-104512804D01*
X168337326Y-104577880D01*
X168281307Y-104616289D01*
X168199725Y-104644062D01*
X168127803Y-104668546D01*
X168121807Y-104672235D01*
X168120814Y-104672702D01*
X168050660Y-104683607D01*
X167985747Y-104654852D01*
X167946685Y-104595568D01*
X167942394Y-104541159D01*
X167945251Y-104520826D01*
X167945801Y-104516913D01*
X167945991Y-104503349D01*
X167946044Y-104499561D01*
X167946044Y-104499555D01*
X167946099Y-104495600D01*
X167927131Y-104326492D01*
X167922159Y-104312213D01*
X167891177Y-104223246D01*
X167871168Y-104165789D01*
X167865183Y-104156210D01*
X167843220Y-104121064D01*
X167780992Y-104021479D01*
X167661086Y-103900732D01*
X167644839Y-103890421D01*
X167593729Y-103857986D01*
X167517408Y-103809551D01*
X167357100Y-103752468D01*
X167188129Y-103732320D01*
X167181126Y-103733056D01*
X167181125Y-103733056D01*
X167025901Y-103749370D01*
X167025897Y-103749371D01*
X167018893Y-103750107D01*
X167012222Y-103752378D01*
X166864473Y-103802675D01*
X166864470Y-103802676D01*
X166857803Y-103804946D01*
X166851805Y-103808636D01*
X166851803Y-103808637D01*
X166718865Y-103890421D01*
X166718863Y-103890423D01*
X166712866Y-103894112D01*
X166591286Y-104013173D01*
X166587475Y-104019087D01*
X166587473Y-104019089D01*
X166531144Y-104106494D01*
X166499104Y-104156210D01*
X166440903Y-104316116D01*
X166419575Y-104484943D01*
X131699500Y-104484943D01*
X131699500Y-103333343D01*
X174276775Y-103333343D01*
X174293381Y-103502699D01*
X174295605Y-103509384D01*
X174295605Y-103509385D01*
X174318094Y-103576990D01*
X174347094Y-103664167D01*
X174350741Y-103670189D01*
X174350742Y-103670191D01*
X174431337Y-103803268D01*
X174435246Y-103809723D01*
X174553455Y-103932132D01*
X174599023Y-103961951D01*
X174677299Y-104013173D01*
X174695846Y-104025310D01*
X174702450Y-104027766D01*
X174702452Y-104027767D01*
X174738844Y-104041301D01*
X174855341Y-104084626D01*
X175024015Y-104107132D01*
X175031026Y-104106494D01*
X175031030Y-104106494D01*
X175186462Y-104092348D01*
X175193483Y-104091709D01*
X175200185Y-104089531D01*
X175200187Y-104089531D01*
X175348623Y-104041301D01*
X175348626Y-104041300D01*
X175355322Y-104039124D01*
X175501490Y-103951990D01*
X175506584Y-103947139D01*
X175506588Y-103947136D01*
X175597564Y-103860500D01*
X175624721Y-103834639D01*
X175641390Y-103809551D01*
X175685654Y-103742927D01*
X175718891Y-103692902D01*
X175779319Y-103533825D01*
X175803001Y-103365313D01*
X175803299Y-103344000D01*
X175784331Y-103174892D01*
X175781031Y-103165414D01*
X175749090Y-103073694D01*
X175728368Y-103014189D01*
X175723454Y-103006324D01*
X175689101Y-102951349D01*
X175638192Y-102869879D01*
X175518286Y-102749132D01*
X175502039Y-102738821D01*
X175440851Y-102699990D01*
X175374608Y-102657951D01*
X175214300Y-102600868D01*
X175045329Y-102580720D01*
X175038326Y-102581456D01*
X175038325Y-102581456D01*
X174883101Y-102597770D01*
X174883097Y-102597771D01*
X174876093Y-102598507D01*
X174869422Y-102600778D01*
X174721673Y-102651075D01*
X174721670Y-102651076D01*
X174715003Y-102653346D01*
X174709005Y-102657036D01*
X174709003Y-102657037D01*
X174576065Y-102738821D01*
X174576063Y-102738823D01*
X174570066Y-102742512D01*
X174534927Y-102776923D01*
X174453822Y-102856348D01*
X174448486Y-102861573D01*
X174444675Y-102867487D01*
X174444673Y-102867489D01*
X174360121Y-102998687D01*
X174356304Y-103004610D01*
X174298103Y-103164516D01*
X174276775Y-103333343D01*
X131699500Y-103333343D01*
X131699500Y-102351343D01*
X162507975Y-102351343D01*
X162524581Y-102520699D01*
X162578294Y-102682167D01*
X162581939Y-102688185D01*
X162581942Y-102688191D01*
X162653830Y-102806891D01*
X162666446Y-102827723D01*
X162784655Y-102950132D01*
X162927046Y-103043310D01*
X162933650Y-103045766D01*
X162933652Y-103045767D01*
X162968990Y-103058909D01*
X163086541Y-103102626D01*
X163255215Y-103125132D01*
X163262226Y-103124494D01*
X163262230Y-103124494D01*
X163417662Y-103110348D01*
X163424683Y-103109709D01*
X163431385Y-103107531D01*
X163431387Y-103107531D01*
X163579823Y-103059301D01*
X163579826Y-103059300D01*
X163586522Y-103057124D01*
X163732690Y-102969990D01*
X163737784Y-102965139D01*
X163737788Y-102965136D01*
X163812210Y-102894264D01*
X163855921Y-102852639D01*
X163889673Y-102801839D01*
X163924691Y-102749132D01*
X163950091Y-102710902D01*
X164010519Y-102551825D01*
X164034201Y-102383313D01*
X164034499Y-102362000D01*
X164015531Y-102192892D01*
X163997841Y-102142092D01*
X163982257Y-102097343D01*
X163959568Y-102032189D01*
X163953583Y-102022610D01*
X163924089Y-101975411D01*
X163869392Y-101887879D01*
X163749486Y-101767132D01*
X163733239Y-101756821D01*
X163627353Y-101689624D01*
X163605808Y-101675951D01*
X163445500Y-101618868D01*
X163276529Y-101598720D01*
X163269526Y-101599456D01*
X163269525Y-101599456D01*
X163114301Y-101615770D01*
X163114297Y-101615771D01*
X163107293Y-101616507D01*
X163100622Y-101618778D01*
X162952873Y-101669075D01*
X162952870Y-101669076D01*
X162946203Y-101671346D01*
X162940205Y-101675036D01*
X162940203Y-101675037D01*
X162807265Y-101756821D01*
X162807263Y-101756823D01*
X162801266Y-101760512D01*
X162770325Y-101790812D01*
X162706743Y-101853077D01*
X162679686Y-101879573D01*
X162675875Y-101885487D01*
X162675873Y-101885489D01*
X162617922Y-101975411D01*
X162587504Y-102022610D01*
X162529303Y-102182516D01*
X162507975Y-102351343D01*
X131699500Y-102351343D01*
X131699500Y-99912943D01*
X165251175Y-99912943D01*
X165267781Y-100082299D01*
X165321494Y-100243767D01*
X165325141Y-100249789D01*
X165325142Y-100249791D01*
X165367839Y-100320291D01*
X165409646Y-100389323D01*
X165527855Y-100511732D01*
X165670246Y-100604910D01*
X165676850Y-100607366D01*
X165676852Y-100607367D01*
X165713244Y-100620901D01*
X165829741Y-100664226D01*
X165998415Y-100686732D01*
X166005426Y-100686094D01*
X166005430Y-100686094D01*
X166160862Y-100671948D01*
X166167883Y-100671309D01*
X166174585Y-100669131D01*
X166174587Y-100669131D01*
X166323023Y-100620901D01*
X166323026Y-100620900D01*
X166329722Y-100618724D01*
X166475890Y-100531590D01*
X166480984Y-100526739D01*
X166480988Y-100526736D01*
X166548233Y-100462699D01*
X166599121Y-100414239D01*
X166607238Y-100402023D01*
X166673084Y-100302916D01*
X166693291Y-100272502D01*
X166753719Y-100113425D01*
X166777401Y-99944913D01*
X166777521Y-99936300D01*
X166777644Y-99927561D01*
X166777644Y-99927555D01*
X166777671Y-99925643D01*
X170166075Y-99925643D01*
X170182681Y-100094999D01*
X170184905Y-100101684D01*
X170184905Y-100101685D01*
X170188810Y-100113425D01*
X170236394Y-100256467D01*
X170240041Y-100262489D01*
X170240042Y-100262491D01*
X170316855Y-100389323D01*
X170324546Y-100402023D01*
X170442755Y-100524432D01*
X170448651Y-100528290D01*
X170559843Y-100601052D01*
X170585146Y-100617610D01*
X170591750Y-100620066D01*
X170591752Y-100620067D01*
X170627926Y-100633520D01*
X170744641Y-100676926D01*
X170913315Y-100699432D01*
X170920326Y-100698794D01*
X170920330Y-100698794D01*
X171075762Y-100684648D01*
X171082783Y-100684009D01*
X171089485Y-100681831D01*
X171089487Y-100681831D01*
X171237923Y-100633601D01*
X171237926Y-100633600D01*
X171244622Y-100631424D01*
X171390790Y-100544290D01*
X171395884Y-100539439D01*
X171395888Y-100539436D01*
X171466972Y-100471743D01*
X176833575Y-100471743D01*
X176850181Y-100641099D01*
X176852405Y-100647784D01*
X176852405Y-100647785D01*
X176853577Y-100651307D01*
X176903894Y-100802567D01*
X176907541Y-100808589D01*
X176907542Y-100808591D01*
X176976637Y-100922679D01*
X176992046Y-100948123D01*
X177110255Y-101070532D01*
X177154733Y-101099638D01*
X177200779Y-101153673D01*
X177210303Y-101224028D01*
X177191649Y-101273324D01*
X177167104Y-101311410D01*
X177147680Y-101364778D01*
X177114715Y-101455349D01*
X177108903Y-101471316D01*
X177087575Y-101640143D01*
X177104181Y-101809499D01*
X177157894Y-101970967D01*
X177161541Y-101976989D01*
X177161542Y-101976991D01*
X177238677Y-102104355D01*
X177246046Y-102116523D01*
X177364255Y-102238932D01*
X177424486Y-102278346D01*
X177458407Y-102300543D01*
X177506646Y-102332110D01*
X177513250Y-102334566D01*
X177513252Y-102334567D01*
X177576428Y-102358062D01*
X177666141Y-102391426D01*
X177834815Y-102413932D01*
X177841826Y-102413294D01*
X177841830Y-102413294D01*
X177997262Y-102399148D01*
X178004283Y-102398509D01*
X178010985Y-102396331D01*
X178010987Y-102396331D01*
X178159423Y-102348101D01*
X178159426Y-102348100D01*
X178166122Y-102345924D01*
X178312290Y-102258790D01*
X178317384Y-102253939D01*
X178317388Y-102253936D01*
X178407499Y-102168124D01*
X178435521Y-102141439D01*
X178464818Y-102097343D01*
X182370775Y-102097343D01*
X182387381Y-102266699D01*
X182389605Y-102273384D01*
X182389605Y-102273385D01*
X182392483Y-102282037D01*
X182441094Y-102428167D01*
X182444741Y-102434189D01*
X182444742Y-102434191D01*
X182519975Y-102558414D01*
X182529246Y-102573723D01*
X182647455Y-102696132D01*
X182670026Y-102710902D01*
X182770917Y-102776923D01*
X182789846Y-102789310D01*
X182796450Y-102791766D01*
X182796452Y-102791767D01*
X182869594Y-102818968D01*
X182949341Y-102848626D01*
X183118015Y-102871132D01*
X183125026Y-102870494D01*
X183125030Y-102870494D01*
X183280462Y-102856348D01*
X183287483Y-102855709D01*
X183294185Y-102853531D01*
X183294187Y-102853531D01*
X183442623Y-102805301D01*
X183442626Y-102805300D01*
X183449322Y-102803124D01*
X183595490Y-102715990D01*
X183600584Y-102711139D01*
X183600588Y-102711136D01*
X183679244Y-102636232D01*
X183718721Y-102598639D01*
X183766529Y-102526682D01*
X183820886Y-102481011D01*
X183891306Y-102471979D01*
X183955430Y-102502452D01*
X183991034Y-102556635D01*
X184015894Y-102631367D01*
X184019541Y-102637389D01*
X184019542Y-102637391D01*
X184080971Y-102738821D01*
X184104046Y-102776923D01*
X184222255Y-102899332D01*
X184364646Y-102992510D01*
X184371250Y-102994966D01*
X184371252Y-102994967D01*
X184422939Y-103014189D01*
X184524141Y-103051826D01*
X184692815Y-103074332D01*
X184699826Y-103073694D01*
X184699830Y-103073694D01*
X184855262Y-103059548D01*
X184862283Y-103058909D01*
X184868985Y-103056731D01*
X184868987Y-103056731D01*
X185017423Y-103008501D01*
X185017426Y-103008500D01*
X185024122Y-103006324D01*
X185104611Y-102958343D01*
X205131775Y-102958343D01*
X205148381Y-103127699D01*
X205202094Y-103289167D01*
X205205741Y-103295189D01*
X205205742Y-103295191D01*
X205250578Y-103369223D01*
X205290246Y-103434723D01*
X205408455Y-103557132D01*
X205550846Y-103650310D01*
X205557450Y-103652766D01*
X205557452Y-103652767D01*
X205588106Y-103664167D01*
X205710341Y-103709626D01*
X205879015Y-103732132D01*
X205886026Y-103731494D01*
X205886030Y-103731494D01*
X206041462Y-103717348D01*
X206048483Y-103716709D01*
X206055185Y-103714531D01*
X206055187Y-103714531D01*
X206203623Y-103666301D01*
X206203626Y-103666300D01*
X206210322Y-103664124D01*
X206356490Y-103576990D01*
X206361584Y-103572139D01*
X206361588Y-103572136D01*
X206439889Y-103497571D01*
X215901201Y-103497571D01*
X215908256Y-103507544D01*
X215961357Y-103551942D01*
X215968294Y-103556982D01*
X216214082Y-103711165D01*
X216221634Y-103715214D01*
X216486082Y-103834618D01*
X216494113Y-103837604D01*
X216772318Y-103920012D01*
X216780670Y-103921879D01*
X217067492Y-103965769D01*
X217076025Y-103966485D01*
X217366145Y-103971043D01*
X217374696Y-103970594D01*
X217662754Y-103935736D01*
X217671154Y-103934134D01*
X217951830Y-103860500D01*
X217959932Y-103857773D01*
X218228007Y-103746733D01*
X218235675Y-103742927D01*
X218486200Y-103596532D01*
X218493281Y-103591719D01*
X218600502Y-103507648D01*
X218608972Y-103495789D01*
X218602455Y-103484165D01*
X217268312Y-102150022D01*
X217254368Y-102142408D01*
X217252535Y-102142539D01*
X217245920Y-102146790D01*
X215908493Y-103484217D01*
X215901201Y-103497571D01*
X206439889Y-103497571D01*
X206441760Y-103495789D01*
X206479721Y-103459639D01*
X206573891Y-103317902D01*
X206634319Y-103158825D01*
X206658001Y-102990313D01*
X206658299Y-102969000D01*
X206639331Y-102799892D01*
X206634303Y-102785452D01*
X206600430Y-102688185D01*
X206583368Y-102639189D01*
X206579415Y-102632862D01*
X206538696Y-102567700D01*
X206493192Y-102494879D01*
X206470452Y-102471979D01*
X206391385Y-102392358D01*
X206373286Y-102374132D01*
X206357039Y-102363821D01*
X206307070Y-102332110D01*
X206229608Y-102282951D01*
X206069300Y-102225868D01*
X205900329Y-102205720D01*
X205893326Y-102206456D01*
X205893325Y-102206456D01*
X205738101Y-102222770D01*
X205738097Y-102222771D01*
X205731093Y-102223507D01*
X205724422Y-102225778D01*
X205576673Y-102276075D01*
X205576670Y-102276076D01*
X205570003Y-102278346D01*
X205564005Y-102282036D01*
X205564003Y-102282037D01*
X205431065Y-102363821D01*
X205431063Y-102363823D01*
X205425066Y-102367512D01*
X205395637Y-102396331D01*
X205309166Y-102481011D01*
X205303486Y-102486573D01*
X205299675Y-102492487D01*
X205299673Y-102492489D01*
X205229885Y-102600778D01*
X205211304Y-102629610D01*
X205153103Y-102789516D01*
X205131775Y-102958343D01*
X185104611Y-102958343D01*
X185170290Y-102919190D01*
X185175384Y-102914339D01*
X185175388Y-102914336D01*
X185266340Y-102827723D01*
X185293521Y-102801839D01*
X185301709Y-102789516D01*
X185340606Y-102730970D01*
X185387691Y-102660102D01*
X185448119Y-102501025D01*
X185471801Y-102332513D01*
X185472099Y-102311200D01*
X185453131Y-102142092D01*
X185445991Y-102121587D01*
X185417177Y-102038846D01*
X185397168Y-101981389D01*
X185391183Y-101971810D01*
X185368497Y-101935506D01*
X185359711Y-101921445D01*
X185340574Y-101853077D01*
X185361616Y-101784948D01*
X185374576Y-101765441D01*
X185387691Y-101745702D01*
X185448119Y-101586625D01*
X185465585Y-101462343D01*
X208659775Y-101462343D01*
X208676381Y-101631699D01*
X208678605Y-101638384D01*
X208678605Y-101638385D01*
X208682735Y-101650800D01*
X208730094Y-101793167D01*
X208733741Y-101799189D01*
X208733742Y-101799191D01*
X208808056Y-101921897D01*
X208818246Y-101938723D01*
X208936455Y-102061132D01*
X208942351Y-102064990D01*
X209070871Y-102149091D01*
X209078846Y-102154310D01*
X209085450Y-102156766D01*
X209085452Y-102156767D01*
X209121844Y-102170301D01*
X209238341Y-102213626D01*
X209407015Y-102236132D01*
X209414026Y-102235494D01*
X209414030Y-102235494D01*
X209569462Y-102221348D01*
X209576483Y-102220709D01*
X209583185Y-102218531D01*
X209583187Y-102218531D01*
X209731623Y-102170301D01*
X209731626Y-102170300D01*
X209738322Y-102168124D01*
X209884490Y-102080990D01*
X209889584Y-102076139D01*
X209889588Y-102076136D01*
X209982091Y-101988046D01*
X210007721Y-101963639D01*
X210035455Y-101921897D01*
X210063574Y-101879573D01*
X210101891Y-101821902D01*
X210125678Y-101759283D01*
X215059747Y-101759283D01*
X215076450Y-102048960D01*
X215077523Y-102057460D01*
X215133386Y-102342191D01*
X215135599Y-102350453D01*
X215229589Y-102624975D01*
X215232905Y-102632862D01*
X215363280Y-102892085D01*
X215367636Y-102899451D01*
X215523241Y-103125855D01*
X215533496Y-103134200D01*
X215547235Y-103127055D01*
X216883478Y-101790812D01*
X216889856Y-101779132D01*
X217619908Y-101779132D01*
X217620039Y-101780965D01*
X217624290Y-101787580D01*
X218962139Y-103125429D01*
X218974348Y-103132096D01*
X218985848Y-103123406D01*
X219107204Y-102958199D01*
X219111792Y-102950971D01*
X219250242Y-102695978D01*
X219253810Y-102688185D01*
X219356372Y-102416761D01*
X219358845Y-102408569D01*
X219423625Y-102125729D01*
X219424963Y-102117275D01*
X219450918Y-101826457D01*
X219451164Y-101821518D01*
X219451594Y-101780484D01*
X219451451Y-101775520D01*
X219431593Y-101484229D01*
X219430432Y-101475755D01*
X219371590Y-101191617D01*
X219369291Y-101183382D01*
X219272430Y-100909857D01*
X219269033Y-100902006D01*
X219135948Y-100644158D01*
X219131520Y-100636846D01*
X218986890Y-100431058D01*
X218976368Y-100422678D01*
X218962980Y-100429730D01*
X217627522Y-101765188D01*
X217619908Y-101779132D01*
X216889856Y-101779132D01*
X216891092Y-101776868D01*
X216890961Y-101775035D01*
X216886710Y-101768420D01*
X215548187Y-100429897D01*
X215536177Y-100423338D01*
X215524438Y-100432306D01*
X215391534Y-100617263D01*
X215387030Y-100624527D01*
X215251250Y-100880971D01*
X215247771Y-100888785D01*
X215148055Y-101161271D01*
X215145666Y-101169494D01*
X215083852Y-101452998D01*
X215082603Y-101461454D01*
X215059836Y-101750733D01*
X215059747Y-101759283D01*
X210125678Y-101759283D01*
X210162319Y-101662825D01*
X210186001Y-101494313D01*
X210186142Y-101484229D01*
X210186244Y-101476961D01*
X210186244Y-101476955D01*
X210186299Y-101473000D01*
X210167331Y-101303892D01*
X210111368Y-101143189D01*
X210105383Y-101133610D01*
X210083420Y-101098464D01*
X210021192Y-100998879D01*
X209901286Y-100878132D01*
X209885039Y-100867821D01*
X209789088Y-100806929D01*
X209757608Y-100786951D01*
X209597300Y-100729868D01*
X209428329Y-100709720D01*
X209421326Y-100710456D01*
X209421325Y-100710456D01*
X209266101Y-100726770D01*
X209266097Y-100726771D01*
X209259093Y-100727507D01*
X209252422Y-100729778D01*
X209104673Y-100780075D01*
X209104670Y-100780076D01*
X209098003Y-100782346D01*
X209092005Y-100786036D01*
X209092003Y-100786037D01*
X208959065Y-100867821D01*
X208959063Y-100867823D01*
X208953066Y-100871512D01*
X208831486Y-100990573D01*
X208827675Y-100996487D01*
X208827673Y-100996489D01*
X208743121Y-101127687D01*
X208739304Y-101133610D01*
X208681103Y-101293516D01*
X208659775Y-101462343D01*
X185465585Y-101462343D01*
X185471801Y-101418113D01*
X185471918Y-101409764D01*
X185472044Y-101400761D01*
X185472044Y-101400755D01*
X185472099Y-101396800D01*
X185453131Y-101227692D01*
X185397168Y-101066989D01*
X185393382Y-101060929D01*
X185358341Y-101004854D01*
X185306992Y-100922679D01*
X185267718Y-100883129D01*
X185243066Y-100858305D01*
X185187086Y-100801932D01*
X185170839Y-100791621D01*
X185077258Y-100732233D01*
X185043408Y-100710751D01*
X184883100Y-100653668D01*
X184714129Y-100633520D01*
X184707126Y-100634256D01*
X184707125Y-100634256D01*
X184551901Y-100650570D01*
X184551897Y-100650571D01*
X184544893Y-100651307D01*
X184538222Y-100653578D01*
X184390473Y-100703875D01*
X184390470Y-100703876D01*
X184383803Y-100706146D01*
X184377805Y-100709836D01*
X184377803Y-100709837D01*
X184244865Y-100791621D01*
X184244863Y-100791623D01*
X184238866Y-100795312D01*
X184233833Y-100800241D01*
X184129915Y-100902006D01*
X184117286Y-100914373D01*
X184113475Y-100920287D01*
X184113473Y-100920289D01*
X184064365Y-100996489D01*
X184025104Y-101057410D01*
X183996058Y-101137213D01*
X183985296Y-101166783D01*
X183966903Y-101217316D01*
X183945575Y-101386143D01*
X183956565Y-101498223D01*
X183961785Y-101551456D01*
X183948526Y-101621203D01*
X183899663Y-101672711D01*
X183830711Y-101689624D01*
X183763560Y-101666574D01*
X183737642Y-101642019D01*
X183735924Y-101639852D01*
X183732192Y-101633879D01*
X183612286Y-101513132D01*
X183596039Y-101502821D01*
X183546395Y-101471316D01*
X183468608Y-101421951D01*
X183308300Y-101364868D01*
X183139329Y-101344720D01*
X183132326Y-101345456D01*
X183132325Y-101345456D01*
X182977101Y-101361770D01*
X182977097Y-101361771D01*
X182970093Y-101362507D01*
X182963422Y-101364778D01*
X182815673Y-101415075D01*
X182815670Y-101415076D01*
X182809003Y-101417346D01*
X182803005Y-101421036D01*
X182803003Y-101421037D01*
X182670065Y-101502821D01*
X182670063Y-101502823D01*
X182664066Y-101506512D01*
X182659033Y-101511441D01*
X182550185Y-101618034D01*
X182542486Y-101625573D01*
X182538675Y-101631487D01*
X182538673Y-101631489D01*
X182456315Y-101759283D01*
X182450304Y-101768610D01*
X182392103Y-101928516D01*
X182370775Y-102097343D01*
X178464818Y-102097343D01*
X178529691Y-101999702D01*
X178590119Y-101840625D01*
X178613801Y-101672113D01*
X178613931Y-101662825D01*
X178614044Y-101654761D01*
X178614044Y-101654755D01*
X178614099Y-101650800D01*
X178595131Y-101481692D01*
X178539168Y-101320989D01*
X178533183Y-101311410D01*
X178458326Y-101191617D01*
X178448992Y-101176679D01*
X178329086Y-101055932D01*
X178319256Y-101049694D01*
X178295183Y-101034416D01*
X178248385Y-100981026D01*
X178237881Y-100910811D01*
X178257751Y-100858305D01*
X178271790Y-100837175D01*
X178271794Y-100837168D01*
X178275691Y-100831302D01*
X178284950Y-100806929D01*
X178333616Y-100678814D01*
X178336119Y-100672225D01*
X178359801Y-100503713D01*
X178360099Y-100482400D01*
X178341131Y-100313292D01*
X178333394Y-100291073D01*
X178287486Y-100159246D01*
X178285168Y-100152589D01*
X178279183Y-100143010D01*
X178245423Y-100088985D01*
X178227505Y-100060311D01*
X215901895Y-100060311D01*
X215908291Y-100071581D01*
X217242688Y-101405978D01*
X217256632Y-101413592D01*
X217258465Y-101413461D01*
X217265080Y-101409210D01*
X218602150Y-100072140D01*
X218609341Y-100058971D01*
X218602018Y-100048733D01*
X218530986Y-99990595D01*
X218524024Y-99985647D01*
X218276611Y-99834032D01*
X218269020Y-99830064D01*
X218003341Y-99713439D01*
X217995281Y-99710537D01*
X217716227Y-99631046D01*
X217707852Y-99629266D01*
X217420592Y-99588383D01*
X217412044Y-99587756D01*
X217121890Y-99586236D01*
X217113356Y-99586773D01*
X216825677Y-99624647D01*
X216817279Y-99626340D01*
X216537408Y-99702904D01*
X216529321Y-99705720D01*
X216262434Y-99819557D01*
X216254795Y-99823450D01*
X216005829Y-99972453D01*
X215998797Y-99977340D01*
X215910364Y-100048188D01*
X215901895Y-100060311D01*
X178227505Y-100060311D01*
X178194992Y-100008279D01*
X178164269Y-99977340D01*
X178114836Y-99927561D01*
X178075086Y-99887532D01*
X178058839Y-99877221D01*
X178020206Y-99852704D01*
X177931408Y-99796351D01*
X177771100Y-99739268D01*
X177602129Y-99719120D01*
X177595126Y-99719856D01*
X177595125Y-99719856D01*
X177439901Y-99736170D01*
X177439897Y-99736171D01*
X177432893Y-99736907D01*
X177426222Y-99739178D01*
X177278473Y-99789475D01*
X177278470Y-99789476D01*
X177271803Y-99791746D01*
X177265805Y-99795436D01*
X177265803Y-99795437D01*
X177132865Y-99877221D01*
X177132863Y-99877223D01*
X177126866Y-99880912D01*
X177005286Y-99999973D01*
X176913104Y-100143010D01*
X176854903Y-100302916D01*
X176833575Y-100471743D01*
X171466972Y-100471743D01*
X171508385Y-100432306D01*
X171514021Y-100426939D01*
X171608191Y-100285202D01*
X171668619Y-100126125D01*
X171692301Y-99957613D01*
X171692599Y-99936300D01*
X171673631Y-99767192D01*
X171669209Y-99754492D01*
X171619986Y-99613146D01*
X171617668Y-99606489D01*
X171611683Y-99596910D01*
X171589720Y-99561764D01*
X171527492Y-99462179D01*
X171514881Y-99449479D01*
X171412548Y-99346429D01*
X171407586Y-99341432D01*
X171391339Y-99331121D01*
X171352706Y-99306604D01*
X171263908Y-99250251D01*
X171103600Y-99193168D01*
X170934629Y-99173020D01*
X170927626Y-99173756D01*
X170927625Y-99173756D01*
X170772401Y-99190070D01*
X170772397Y-99190071D01*
X170765393Y-99190807D01*
X170758722Y-99193078D01*
X170610973Y-99243375D01*
X170610970Y-99243376D01*
X170604303Y-99245646D01*
X170598305Y-99249336D01*
X170598303Y-99249337D01*
X170465365Y-99331121D01*
X170465363Y-99331123D01*
X170459366Y-99334812D01*
X170454333Y-99339741D01*
X170344714Y-99447089D01*
X170337786Y-99453873D01*
X170245604Y-99596910D01*
X170233180Y-99631046D01*
X170194435Y-99737497D01*
X170187403Y-99756816D01*
X170166075Y-99925643D01*
X166777671Y-99925643D01*
X166777699Y-99923600D01*
X166758731Y-99754492D01*
X166753430Y-99739268D01*
X166715122Y-99629266D01*
X166702768Y-99593789D01*
X166698049Y-99586236D01*
X166674820Y-99549064D01*
X166612592Y-99449479D01*
X166492686Y-99328732D01*
X166476439Y-99318421D01*
X166437806Y-99293904D01*
X166349008Y-99237551D01*
X166188700Y-99180468D01*
X166019729Y-99160320D01*
X166012726Y-99161056D01*
X166012725Y-99161056D01*
X165857501Y-99177370D01*
X165857497Y-99177371D01*
X165850493Y-99178107D01*
X165843822Y-99180378D01*
X165696073Y-99230675D01*
X165696070Y-99230676D01*
X165689403Y-99232946D01*
X165683405Y-99236636D01*
X165683403Y-99236637D01*
X165550465Y-99318421D01*
X165550463Y-99318423D01*
X165544466Y-99322112D01*
X165422886Y-99441173D01*
X165419075Y-99447087D01*
X165419073Y-99447089D01*
X165334521Y-99578287D01*
X165330704Y-99584210D01*
X165322595Y-99606489D01*
X165283669Y-99713439D01*
X165272503Y-99744116D01*
X165251175Y-99912943D01*
X131699500Y-99912943D01*
X131699500Y-97779343D01*
X167384775Y-97779343D01*
X167401381Y-97948699D01*
X167403605Y-97955384D01*
X167403605Y-97955385D01*
X167409413Y-97972845D01*
X167455094Y-98110167D01*
X167458741Y-98116189D01*
X167458742Y-98116191D01*
X167534475Y-98241240D01*
X167543246Y-98255723D01*
X167661455Y-98378132D01*
X167803846Y-98471310D01*
X167810450Y-98473766D01*
X167810452Y-98473767D01*
X167846844Y-98487301D01*
X167963341Y-98530626D01*
X168132015Y-98553132D01*
X168139026Y-98552494D01*
X168139030Y-98552494D01*
X168294462Y-98538348D01*
X168301483Y-98537709D01*
X168308185Y-98535531D01*
X168308187Y-98535531D01*
X168456623Y-98487301D01*
X168456626Y-98487300D01*
X168463322Y-98485124D01*
X168609490Y-98397990D01*
X168614584Y-98393139D01*
X168614588Y-98393136D01*
X168681833Y-98329099D01*
X168732721Y-98280639D01*
X168746258Y-98260265D01*
X168795488Y-98186167D01*
X168826891Y-98138902D01*
X168887319Y-97979825D01*
X168889081Y-97967291D01*
X168908754Y-97827300D01*
X168911001Y-97811313D01*
X168911299Y-97790000D01*
X168892331Y-97620892D01*
X168836368Y-97460189D01*
X168830383Y-97450610D01*
X168808420Y-97415464D01*
X168746192Y-97315879D01*
X168626286Y-97195132D01*
X168610039Y-97184821D01*
X168571406Y-97160304D01*
X168482608Y-97103951D01*
X168322300Y-97046868D01*
X168153329Y-97026720D01*
X168146326Y-97027456D01*
X168146325Y-97027456D01*
X167991101Y-97043770D01*
X167991097Y-97043771D01*
X167984093Y-97044507D01*
X167977422Y-97046778D01*
X167829673Y-97097075D01*
X167829670Y-97097076D01*
X167823003Y-97099346D01*
X167817005Y-97103036D01*
X167817003Y-97103037D01*
X167684065Y-97184821D01*
X167684063Y-97184823D01*
X167678066Y-97188512D01*
X167556486Y-97307573D01*
X167552675Y-97313487D01*
X167552673Y-97313489D01*
X167468121Y-97444687D01*
X167464304Y-97450610D01*
X167406103Y-97610516D01*
X167384775Y-97779343D01*
X131699500Y-97779343D01*
X131699500Y-97008000D01*
X211293235Y-97008000D01*
X211312260Y-97225454D01*
X211368756Y-97436300D01*
X211371078Y-97441280D01*
X211371079Y-97441282D01*
X211458097Y-97627891D01*
X211461007Y-97634132D01*
X211586209Y-97812940D01*
X211740560Y-97967291D01*
X211745068Y-97970448D01*
X211745071Y-97970450D01*
X211758460Y-97979825D01*
X211919367Y-98092493D01*
X211924349Y-98094816D01*
X211924354Y-98094819D01*
X212112218Y-98182421D01*
X212117200Y-98184744D01*
X212122508Y-98186166D01*
X212122510Y-98186167D01*
X212322731Y-98239816D01*
X212322733Y-98239816D01*
X212328046Y-98241240D01*
X212545500Y-98260265D01*
X212762954Y-98241240D01*
X212768267Y-98239816D01*
X212768269Y-98239816D01*
X212968490Y-98186167D01*
X212968492Y-98186166D01*
X212973800Y-98184744D01*
X212978782Y-98182421D01*
X213166646Y-98094819D01*
X213166651Y-98094816D01*
X213171633Y-98092493D01*
X213332540Y-97979825D01*
X213345929Y-97970450D01*
X213345932Y-97970448D01*
X213350440Y-97967291D01*
X213456405Y-97861326D01*
X213518717Y-97827300D01*
X213589532Y-97832365D01*
X213634595Y-97861326D01*
X213740560Y-97967291D01*
X213745068Y-97970448D01*
X213745071Y-97970450D01*
X213758460Y-97979825D01*
X213919367Y-98092493D01*
X213924349Y-98094816D01*
X213924354Y-98094819D01*
X214112218Y-98182421D01*
X214117200Y-98184744D01*
X214122508Y-98186166D01*
X214122510Y-98186167D01*
X214322731Y-98239816D01*
X214322733Y-98239816D01*
X214328046Y-98241240D01*
X214545500Y-98260265D01*
X214762954Y-98241240D01*
X214768267Y-98239816D01*
X214768269Y-98239816D01*
X214968490Y-98186167D01*
X214968492Y-98186166D01*
X214973800Y-98184744D01*
X214978782Y-98182421D01*
X215166646Y-98094819D01*
X215166651Y-98094816D01*
X215171633Y-98092493D01*
X215332540Y-97979825D01*
X215345929Y-97970450D01*
X215345932Y-97970448D01*
X215350440Y-97967291D01*
X215504791Y-97812940D01*
X215629993Y-97634132D01*
X215632904Y-97627891D01*
X215719921Y-97441282D01*
X215719922Y-97441280D01*
X215722244Y-97436300D01*
X215778740Y-97225454D01*
X215797765Y-97008000D01*
X215778740Y-96790546D01*
X215724658Y-96588709D01*
X215723667Y-96585010D01*
X215723666Y-96585008D01*
X215722244Y-96579700D01*
X215718715Y-96572131D01*
X215632316Y-96386849D01*
X215632314Y-96386846D01*
X215629993Y-96381868D01*
X215504791Y-96203060D01*
X215350440Y-96048709D01*
X215345932Y-96045552D01*
X215345929Y-96045550D01*
X215176142Y-95926664D01*
X215176139Y-95926662D01*
X215171633Y-95923507D01*
X215166651Y-95921184D01*
X215166646Y-95921181D01*
X215061002Y-95871919D01*
X215007717Y-95825002D01*
X214988256Y-95756724D01*
X215008798Y-95688765D01*
X215061003Y-95643529D01*
X215166398Y-95594383D01*
X215175886Y-95588906D01*
X215214750Y-95561692D01*
X215223125Y-95551215D01*
X215216058Y-95537770D01*
X214275384Y-94597095D01*
X214241359Y-94534783D01*
X214243194Y-94509132D01*
X214909908Y-94509132D01*
X214910039Y-94510966D01*
X214914290Y-94517580D01*
X215575993Y-95179282D01*
X215587763Y-95185709D01*
X215599777Y-95176414D01*
X215626404Y-95138386D01*
X215631882Y-95128900D01*
X215719449Y-94941111D01*
X215723195Y-94930818D01*
X215776822Y-94730681D01*
X215778725Y-94719886D01*
X215796784Y-94513475D01*
X215796784Y-94502525D01*
X215778725Y-94296114D01*
X215776822Y-94285319D01*
X215723195Y-94085182D01*
X215719449Y-94074889D01*
X215631882Y-93887100D01*
X215626404Y-93877614D01*
X215599192Y-93838751D01*
X215588714Y-93830375D01*
X215575270Y-93837441D01*
X214917521Y-94495189D01*
X214909908Y-94509132D01*
X214243194Y-94509132D01*
X214246424Y-94463967D01*
X214275385Y-94418905D01*
X214545500Y-94148790D01*
X215216778Y-93477511D01*
X215223208Y-93465736D01*
X215213912Y-93453721D01*
X215175886Y-93427094D01*
X215166398Y-93421617D01*
X214978617Y-93334054D01*
X214968313Y-93330304D01*
X214768181Y-93276678D01*
X214757386Y-93274775D01*
X214550975Y-93256716D01*
X214540025Y-93256716D01*
X214333614Y-93274775D01*
X214322819Y-93276678D01*
X214122682Y-93330305D01*
X214112389Y-93334051D01*
X213924606Y-93421616D01*
X213915105Y-93427101D01*
X213850204Y-93472545D01*
X213782930Y-93495233D01*
X213714070Y-93477948D01*
X213677111Y-93444901D01*
X213647761Y-93405739D01*
X213531205Y-93318385D01*
X213394816Y-93267255D01*
X213332634Y-93260500D01*
X211758366Y-93260500D01*
X211696184Y-93267255D01*
X211559795Y-93318385D01*
X211443239Y-93405739D01*
X211355885Y-93522295D01*
X211304755Y-93658684D01*
X211298000Y-93720866D01*
X211298000Y-95295134D01*
X211304755Y-95357316D01*
X211355885Y-95493705D01*
X211443239Y-95610261D01*
X211559795Y-95697615D01*
X211696184Y-95748745D01*
X211758366Y-95755500D01*
X211761782Y-95755500D01*
X211765180Y-95755684D01*
X211765104Y-95757091D01*
X211827807Y-95775502D01*
X211874300Y-95829158D01*
X211884404Y-95899432D01*
X211854910Y-95964012D01*
X211831960Y-95984711D01*
X211740560Y-96048709D01*
X211586209Y-96203060D01*
X211461007Y-96381868D01*
X211458686Y-96386846D01*
X211458684Y-96386849D01*
X211372285Y-96572131D01*
X211368756Y-96579700D01*
X211367334Y-96585008D01*
X211367333Y-96585010D01*
X211366342Y-96588709D01*
X211312260Y-96790546D01*
X211293235Y-97008000D01*
X131699500Y-97008000D01*
X131699500Y-96112134D01*
X140225000Y-96112134D01*
X140231755Y-96174316D01*
X140282885Y-96310705D01*
X140370239Y-96427261D01*
X140486795Y-96514615D01*
X140623184Y-96565745D01*
X140685366Y-96572500D01*
X141789634Y-96572500D01*
X141851816Y-96565745D01*
X141988205Y-96514615D01*
X142104761Y-96427261D01*
X142192115Y-96310705D01*
X142225725Y-96221051D01*
X142268367Y-96164287D01*
X142334928Y-96139587D01*
X142404277Y-96154795D01*
X142442452Y-96187016D01*
X142505644Y-96266745D01*
X142510337Y-96270739D01*
X142510338Y-96270740D01*
X142574997Y-96325768D01*
X142656857Y-96395436D01*
X142724051Y-96432990D01*
X142824807Y-96489302D01*
X142824813Y-96489305D01*
X142830185Y-96492307D01*
X143019028Y-96553665D01*
X143216193Y-96577176D01*
X143222328Y-96576704D01*
X143222330Y-96576704D01*
X143408028Y-96562415D01*
X143408033Y-96562414D01*
X143414169Y-96561942D01*
X143420099Y-96560286D01*
X143420101Y-96560286D01*
X143476840Y-96544444D01*
X143605416Y-96508545D01*
X143633793Y-96494211D01*
X143777149Y-96421797D01*
X143777151Y-96421796D01*
X143782650Y-96419018D01*
X143939118Y-96296772D01*
X144004479Y-96221051D01*
X144064833Y-96151130D01*
X144064834Y-96151128D01*
X144068862Y-96146462D01*
X144071907Y-96141102D01*
X144127857Y-96042612D01*
X144178896Y-95993262D01*
X144248514Y-95979339D01*
X144314608Y-96005265D01*
X144349477Y-96047252D01*
X144382308Y-96111133D01*
X144386134Y-96115960D01*
X144501815Y-96261915D01*
X144501819Y-96261920D01*
X144505644Y-96266745D01*
X144510337Y-96270739D01*
X144510338Y-96270740D01*
X144574997Y-96325768D01*
X144656857Y-96395436D01*
X144724051Y-96432990D01*
X144824807Y-96489302D01*
X144824813Y-96489305D01*
X144830185Y-96492307D01*
X145019028Y-96553665D01*
X145216193Y-96577176D01*
X145222328Y-96576704D01*
X145222330Y-96576704D01*
X145408028Y-96562415D01*
X145408033Y-96562414D01*
X145414169Y-96561942D01*
X145420099Y-96560286D01*
X145420101Y-96560286D01*
X145476840Y-96544444D01*
X145605416Y-96508545D01*
X145633793Y-96494211D01*
X145777149Y-96421797D01*
X145777151Y-96421796D01*
X145782650Y-96419018D01*
X145939118Y-96296772D01*
X146004479Y-96221051D01*
X146064833Y-96151130D01*
X146064834Y-96151128D01*
X146068862Y-96146462D01*
X146071907Y-96141102D01*
X146127857Y-96042612D01*
X146178896Y-95993262D01*
X146248514Y-95979339D01*
X146314608Y-96005265D01*
X146349477Y-96047252D01*
X146382308Y-96111133D01*
X146386134Y-96115960D01*
X146501815Y-96261915D01*
X146501819Y-96261920D01*
X146505644Y-96266745D01*
X146510337Y-96270739D01*
X146510338Y-96270740D01*
X146574997Y-96325768D01*
X146656857Y-96395436D01*
X146724051Y-96432990D01*
X146824807Y-96489302D01*
X146824813Y-96489305D01*
X146830185Y-96492307D01*
X147019028Y-96553665D01*
X147216193Y-96577176D01*
X147222328Y-96576704D01*
X147222330Y-96576704D01*
X147408028Y-96562415D01*
X147408033Y-96562414D01*
X147414169Y-96561942D01*
X147420099Y-96560286D01*
X147420101Y-96560286D01*
X147476840Y-96544444D01*
X147605416Y-96508545D01*
X147633793Y-96494211D01*
X147777149Y-96421797D01*
X147777151Y-96421796D01*
X147782650Y-96419018D01*
X147939118Y-96296772D01*
X148004479Y-96221051D01*
X148064833Y-96151130D01*
X148064834Y-96151128D01*
X148068862Y-96146462D01*
X148071907Y-96141102D01*
X148127857Y-96042612D01*
X148178896Y-95993262D01*
X148248514Y-95979339D01*
X148314608Y-96005265D01*
X148349477Y-96047252D01*
X148382308Y-96111133D01*
X148386134Y-96115960D01*
X148501815Y-96261915D01*
X148501819Y-96261920D01*
X148505644Y-96266745D01*
X148510337Y-96270739D01*
X148510338Y-96270740D01*
X148574997Y-96325768D01*
X148656857Y-96395436D01*
X148724051Y-96432990D01*
X148824807Y-96489302D01*
X148824813Y-96489305D01*
X148830185Y-96492307D01*
X149019028Y-96553665D01*
X149216193Y-96577176D01*
X149222328Y-96576704D01*
X149222330Y-96576704D01*
X149408028Y-96562415D01*
X149408033Y-96562414D01*
X149414169Y-96561942D01*
X149420099Y-96560286D01*
X149420101Y-96560286D01*
X149476840Y-96544444D01*
X149605416Y-96508545D01*
X149633793Y-96494211D01*
X149777149Y-96421797D01*
X149777151Y-96421796D01*
X149782650Y-96419018D01*
X149939118Y-96296772D01*
X150004479Y-96221051D01*
X150064833Y-96151130D01*
X150064834Y-96151128D01*
X150068862Y-96146462D01*
X150071907Y-96141102D01*
X150127857Y-96042612D01*
X150178896Y-95993262D01*
X150248514Y-95979339D01*
X150314608Y-96005265D01*
X150349477Y-96047252D01*
X150382308Y-96111133D01*
X150386134Y-96115960D01*
X150501815Y-96261915D01*
X150501819Y-96261920D01*
X150505644Y-96266745D01*
X150510337Y-96270739D01*
X150510338Y-96270740D01*
X150574997Y-96325768D01*
X150656857Y-96395436D01*
X150724051Y-96432990D01*
X150824807Y-96489302D01*
X150824813Y-96489305D01*
X150830185Y-96492307D01*
X151019028Y-96553665D01*
X151216193Y-96577176D01*
X151222328Y-96576704D01*
X151222330Y-96576704D01*
X151408028Y-96562415D01*
X151408033Y-96562414D01*
X151414169Y-96561942D01*
X151420099Y-96560286D01*
X151420101Y-96560286D01*
X151476840Y-96544444D01*
X151605416Y-96508545D01*
X151633793Y-96494211D01*
X151777149Y-96421797D01*
X151777151Y-96421796D01*
X151782650Y-96419018D01*
X151939118Y-96296772D01*
X152004479Y-96221051D01*
X152064833Y-96151130D01*
X152064834Y-96151128D01*
X152068862Y-96146462D01*
X152071907Y-96141102D01*
X152127857Y-96042612D01*
X152178896Y-95993262D01*
X152248514Y-95979339D01*
X152314608Y-96005265D01*
X152349477Y-96047252D01*
X152382308Y-96111133D01*
X152386134Y-96115960D01*
X152501815Y-96261915D01*
X152501819Y-96261920D01*
X152505644Y-96266745D01*
X152510337Y-96270739D01*
X152510338Y-96270740D01*
X152574997Y-96325768D01*
X152656857Y-96395436D01*
X152724051Y-96432990D01*
X152824807Y-96489302D01*
X152824813Y-96489305D01*
X152830185Y-96492307D01*
X153019028Y-96553665D01*
X153216193Y-96577176D01*
X153222328Y-96576704D01*
X153222330Y-96576704D01*
X153408028Y-96562415D01*
X153408033Y-96562414D01*
X153414169Y-96561942D01*
X153420099Y-96560286D01*
X153420101Y-96560286D01*
X153476840Y-96544444D01*
X153605416Y-96508545D01*
X153633793Y-96494211D01*
X153777149Y-96421797D01*
X153777151Y-96421796D01*
X153782650Y-96419018D01*
X153939118Y-96296772D01*
X154004479Y-96221051D01*
X154064833Y-96151130D01*
X154064834Y-96151128D01*
X154068862Y-96146462D01*
X154071907Y-96141102D01*
X154127857Y-96042612D01*
X154178896Y-95993262D01*
X154248514Y-95979339D01*
X154314608Y-96005265D01*
X154349477Y-96047252D01*
X154382308Y-96111133D01*
X154386134Y-96115960D01*
X154501815Y-96261915D01*
X154501819Y-96261920D01*
X154505644Y-96266745D01*
X154510337Y-96270739D01*
X154510338Y-96270740D01*
X154574997Y-96325768D01*
X154656857Y-96395436D01*
X154724051Y-96432990D01*
X154824807Y-96489302D01*
X154824813Y-96489305D01*
X154830185Y-96492307D01*
X155019028Y-96553665D01*
X155216193Y-96577176D01*
X155222328Y-96576704D01*
X155222330Y-96576704D01*
X155408028Y-96562415D01*
X155408033Y-96562414D01*
X155414169Y-96561942D01*
X155420099Y-96560286D01*
X155420101Y-96560286D01*
X155476840Y-96544444D01*
X155605416Y-96508545D01*
X155633793Y-96494211D01*
X155777149Y-96421797D01*
X155777151Y-96421796D01*
X155782650Y-96419018D01*
X155939118Y-96296772D01*
X156004479Y-96221051D01*
X156064833Y-96151130D01*
X156064834Y-96151128D01*
X156068862Y-96146462D01*
X156071907Y-96141102D01*
X156127857Y-96042612D01*
X156178896Y-95993262D01*
X156248514Y-95979339D01*
X156314608Y-96005265D01*
X156349477Y-96047252D01*
X156382308Y-96111133D01*
X156386134Y-96115960D01*
X156501815Y-96261915D01*
X156501819Y-96261920D01*
X156505644Y-96266745D01*
X156510337Y-96270739D01*
X156510338Y-96270740D01*
X156574997Y-96325768D01*
X156656857Y-96395436D01*
X156724051Y-96432990D01*
X156824807Y-96489302D01*
X156824813Y-96489305D01*
X156830185Y-96492307D01*
X157019028Y-96553665D01*
X157216193Y-96577176D01*
X157222328Y-96576704D01*
X157222330Y-96576704D01*
X157408028Y-96562415D01*
X157408033Y-96562414D01*
X157414169Y-96561942D01*
X157420099Y-96560286D01*
X157420101Y-96560286D01*
X157476840Y-96544444D01*
X157605416Y-96508545D01*
X157633793Y-96494211D01*
X157756808Y-96432072D01*
X158730258Y-96432072D01*
X158735168Y-96438630D01*
X158825009Y-96488842D01*
X158836246Y-96493751D01*
X159013277Y-96551271D01*
X159025251Y-96553904D01*
X159210092Y-96575945D01*
X159222341Y-96576202D01*
X159407940Y-96561921D01*
X159420020Y-96559790D01*
X159599291Y-96509736D01*
X159610742Y-96505295D01*
X159735984Y-96442032D01*
X159746270Y-96432385D01*
X159744032Y-96425742D01*
X159250312Y-95932022D01*
X159236368Y-95924408D01*
X159234535Y-95924539D01*
X159227920Y-95928790D01*
X158737018Y-96419692D01*
X158730258Y-96432072D01*
X157756808Y-96432072D01*
X157777149Y-96421797D01*
X157777151Y-96421796D01*
X157782650Y-96419018D01*
X157939118Y-96296772D01*
X158004479Y-96221051D01*
X158064833Y-96151130D01*
X158064834Y-96151128D01*
X158068862Y-96146462D01*
X158118991Y-96058219D01*
X158128152Y-96042093D01*
X158179191Y-95992742D01*
X158248809Y-95978820D01*
X158314903Y-96004746D01*
X158349774Y-96046735D01*
X158355676Y-96058219D01*
X158365396Y-96068439D01*
X158372195Y-96066095D01*
X158865478Y-95572812D01*
X158871856Y-95561132D01*
X159601908Y-95561132D01*
X159602039Y-95562965D01*
X159606290Y-95569580D01*
X160097096Y-96060386D01*
X160109476Y-96067146D01*
X160116209Y-96062105D01*
X160163438Y-95978968D01*
X160168427Y-95967761D01*
X160214139Y-95830343D01*
X173614575Y-95830343D01*
X173631181Y-95999699D01*
X173633405Y-96006384D01*
X173633405Y-96006385D01*
X173646435Y-96045554D01*
X173684894Y-96161167D01*
X173688541Y-96167189D01*
X173688542Y-96167191D01*
X173764195Y-96292108D01*
X173773046Y-96306723D01*
X173891255Y-96429132D01*
X173914184Y-96444136D01*
X174026704Y-96517767D01*
X174033646Y-96522310D01*
X174040250Y-96524766D01*
X174040252Y-96524767D01*
X174076644Y-96538301D01*
X174193141Y-96581626D01*
X174361815Y-96604132D01*
X174368826Y-96603494D01*
X174368830Y-96603494D01*
X174524262Y-96589348D01*
X174531283Y-96588709D01*
X174537985Y-96586531D01*
X174537987Y-96586531D01*
X174686423Y-96538301D01*
X174686426Y-96538300D01*
X174693122Y-96536124D01*
X174839290Y-96448990D01*
X174844384Y-96444139D01*
X174844388Y-96444136D01*
X174914506Y-96377363D01*
X174962521Y-96331639D01*
X174988786Y-96292108D01*
X175009606Y-96260770D01*
X175056691Y-96189902D01*
X175117119Y-96030825D01*
X175140801Y-95862313D01*
X175141099Y-95841000D01*
X175122131Y-95671892D01*
X175066168Y-95511189D01*
X175060183Y-95501610D01*
X175017634Y-95433519D01*
X174991529Y-95391743D01*
X189228775Y-95391743D01*
X189245381Y-95561099D01*
X189247605Y-95567784D01*
X189247605Y-95567785D01*
X189253413Y-95585245D01*
X189299094Y-95722567D01*
X189302741Y-95728589D01*
X189302742Y-95728591D01*
X189373219Y-95844961D01*
X189387246Y-95868123D01*
X189505455Y-95990532D01*
X189528384Y-96005536D01*
X189622534Y-96067146D01*
X189647846Y-96083710D01*
X189654450Y-96086166D01*
X189654452Y-96086167D01*
X189690844Y-96099701D01*
X189807341Y-96143026D01*
X189976015Y-96165532D01*
X189983026Y-96164894D01*
X189983030Y-96164894D01*
X190138462Y-96150748D01*
X190145483Y-96150109D01*
X190152185Y-96147931D01*
X190152187Y-96147931D01*
X190300623Y-96099701D01*
X190300626Y-96099700D01*
X190307322Y-96097524D01*
X190453490Y-96010390D01*
X190458584Y-96005539D01*
X190458588Y-96005536D01*
X190541413Y-95926662D01*
X190576721Y-95893039D01*
X190597136Y-95862313D01*
X190648234Y-95785403D01*
X190670891Y-95751302D01*
X190731319Y-95592225D01*
X190734287Y-95571103D01*
X190739370Y-95534938D01*
X190768658Y-95470263D01*
X190811041Y-95438515D01*
X190815322Y-95437124D01*
X190961490Y-95349990D01*
X190966584Y-95345139D01*
X190966588Y-95345136D01*
X191033833Y-95281099D01*
X191084721Y-95232639D01*
X191112247Y-95191210D01*
X191161687Y-95116796D01*
X191178891Y-95090902D01*
X191239319Y-94931825D01*
X191263001Y-94763313D01*
X191263299Y-94742000D01*
X191244331Y-94572892D01*
X191241851Y-94565769D01*
X191190686Y-94418846D01*
X191188368Y-94412189D01*
X191182383Y-94402610D01*
X191132697Y-94323098D01*
X191098192Y-94267879D01*
X190978286Y-94147132D01*
X190962039Y-94136821D01*
X190888708Y-94090284D01*
X190834608Y-94055951D01*
X190674300Y-93998868D01*
X190505329Y-93978720D01*
X190498326Y-93979456D01*
X190498325Y-93979456D01*
X190343101Y-93995770D01*
X190343097Y-93995771D01*
X190336093Y-93996507D01*
X190329422Y-93998778D01*
X190181673Y-94049075D01*
X190181670Y-94049076D01*
X190175003Y-94051346D01*
X190169005Y-94055036D01*
X190169003Y-94055037D01*
X190036065Y-94136821D01*
X190036063Y-94136823D01*
X190030066Y-94140512D01*
X190025033Y-94145441D01*
X189920726Y-94247587D01*
X189908486Y-94259573D01*
X189904675Y-94265487D01*
X189904673Y-94265489D01*
X189827788Y-94384790D01*
X189816304Y-94402610D01*
X189758103Y-94562516D01*
X189757220Y-94569507D01*
X189752365Y-94607934D01*
X189723983Y-94673010D01*
X189678855Y-94703948D01*
X189680045Y-94706477D01*
X189673672Y-94709476D01*
X189667003Y-94711746D01*
X189661005Y-94715436D01*
X189661003Y-94715437D01*
X189528065Y-94797221D01*
X189528063Y-94797223D01*
X189522066Y-94800912D01*
X189400486Y-94919973D01*
X189396675Y-94925887D01*
X189396673Y-94925889D01*
X189347348Y-95002426D01*
X189308304Y-95063010D01*
X189250103Y-95222916D01*
X189228775Y-95391743D01*
X174991529Y-95391743D01*
X174975992Y-95366879D01*
X174954401Y-95345136D01*
X174904747Y-95295134D01*
X174856086Y-95246132D01*
X174839839Y-95235821D01*
X174764450Y-95187978D01*
X174712408Y-95154951D01*
X174552100Y-95097868D01*
X174383129Y-95077720D01*
X174376126Y-95078456D01*
X174376125Y-95078456D01*
X174220901Y-95094770D01*
X174220897Y-95094771D01*
X174213893Y-95095507D01*
X174207222Y-95097778D01*
X174059473Y-95148075D01*
X174059470Y-95148076D01*
X174052803Y-95150346D01*
X174046805Y-95154036D01*
X174046803Y-95154037D01*
X173913865Y-95235821D01*
X173913863Y-95235823D01*
X173907866Y-95239512D01*
X173851067Y-95295134D01*
X173795051Y-95349990D01*
X173786286Y-95358573D01*
X173782475Y-95364487D01*
X173782473Y-95364489D01*
X173767734Y-95387360D01*
X173694104Y-95501610D01*
X173635903Y-95661516D01*
X173614575Y-95830343D01*
X160214139Y-95830343D01*
X160227180Y-95791141D01*
X160229899Y-95779173D01*
X160253559Y-95591894D01*
X160254050Y-95584870D01*
X160254348Y-95563505D01*
X160254055Y-95556513D01*
X160235631Y-95368618D01*
X160233248Y-95356580D01*
X160179449Y-95178391D01*
X160174775Y-95167050D01*
X160119020Y-95062190D01*
X160109160Y-95052109D01*
X160102033Y-95054677D01*
X159609522Y-95547188D01*
X159601908Y-95561132D01*
X158871856Y-95561132D01*
X158873092Y-95558868D01*
X158872961Y-95557035D01*
X158868710Y-95550420D01*
X158377675Y-95059385D01*
X158365295Y-95052625D01*
X158358907Y-95057407D01*
X158348220Y-95076846D01*
X158297875Y-95126904D01*
X158228457Y-95141797D01*
X158162009Y-95116796D01*
X158126557Y-95075300D01*
X158084913Y-94996980D01*
X158026933Y-94925889D01*
X157963311Y-94847880D01*
X157963309Y-94847878D01*
X157959417Y-94843106D01*
X157867690Y-94767223D01*
X157811172Y-94720467D01*
X157811169Y-94720465D01*
X157806422Y-94716538D01*
X157753894Y-94688136D01*
X158729354Y-94688136D01*
X158731807Y-94695097D01*
X159224688Y-95187978D01*
X159238632Y-95195592D01*
X159240465Y-95195461D01*
X159247080Y-95191210D01*
X159738286Y-94700004D01*
X159745046Y-94687624D01*
X159740387Y-94681401D01*
X159636983Y-94625490D01*
X159625677Y-94620738D01*
X159447861Y-94565695D01*
X159435850Y-94563229D01*
X159250727Y-94543772D01*
X159238459Y-94543687D01*
X159053094Y-94560556D01*
X159041037Y-94562856D01*
X158862483Y-94615408D01*
X158851099Y-94620007D01*
X158739503Y-94678348D01*
X158729354Y-94688136D01*
X157753894Y-94688136D01*
X157631758Y-94622097D01*
X157442076Y-94563381D01*
X157435951Y-94562737D01*
X157435950Y-94562737D01*
X157250732Y-94543270D01*
X157250730Y-94543270D01*
X157244603Y-94542626D01*
X157161470Y-94550192D01*
X157052997Y-94560063D01*
X157052994Y-94560064D01*
X157046858Y-94560622D01*
X157040952Y-94562360D01*
X157040948Y-94562361D01*
X156905476Y-94602233D01*
X156856376Y-94616684D01*
X156680410Y-94708677D01*
X156525663Y-94833096D01*
X156521705Y-94837813D01*
X156521703Y-94837815D01*
X156470869Y-94898397D01*
X156398030Y-94985203D01*
X156395066Y-94990595D01*
X156395063Y-94990599D01*
X156347940Y-95076316D01*
X156297594Y-95126375D01*
X156228177Y-95141268D01*
X156161728Y-95116267D01*
X156126274Y-95074768D01*
X156087809Y-95002426D01*
X156087807Y-95002424D01*
X156084913Y-94996980D01*
X156026933Y-94925889D01*
X155963311Y-94847880D01*
X155963309Y-94847878D01*
X155959417Y-94843106D01*
X155867690Y-94767223D01*
X155811172Y-94720467D01*
X155811169Y-94720465D01*
X155806422Y-94716538D01*
X155631758Y-94622097D01*
X155442076Y-94563381D01*
X155435951Y-94562737D01*
X155435950Y-94562737D01*
X155250732Y-94543270D01*
X155250730Y-94543270D01*
X155244603Y-94542626D01*
X155161470Y-94550192D01*
X155052997Y-94560063D01*
X155052994Y-94560064D01*
X155046858Y-94560622D01*
X155040952Y-94562360D01*
X155040948Y-94562361D01*
X154905476Y-94602233D01*
X154856376Y-94616684D01*
X154680410Y-94708677D01*
X154525663Y-94833096D01*
X154521705Y-94837813D01*
X154521703Y-94837815D01*
X154470869Y-94898397D01*
X154398030Y-94985203D01*
X154395066Y-94990595D01*
X154395063Y-94990599D01*
X154347940Y-95076316D01*
X154297594Y-95126375D01*
X154228177Y-95141268D01*
X154161728Y-95116267D01*
X154126274Y-95074768D01*
X154087809Y-95002426D01*
X154087807Y-95002424D01*
X154084913Y-94996980D01*
X154026933Y-94925889D01*
X153963311Y-94847880D01*
X153963309Y-94847878D01*
X153959417Y-94843106D01*
X153867690Y-94767223D01*
X153811172Y-94720467D01*
X153811169Y-94720465D01*
X153806422Y-94716538D01*
X153631758Y-94622097D01*
X153442076Y-94563381D01*
X153435951Y-94562737D01*
X153435950Y-94562737D01*
X153250732Y-94543270D01*
X153250730Y-94543270D01*
X153244603Y-94542626D01*
X153161470Y-94550192D01*
X153052997Y-94560063D01*
X153052994Y-94560064D01*
X153046858Y-94560622D01*
X153040952Y-94562360D01*
X153040948Y-94562361D01*
X152905476Y-94602233D01*
X152856376Y-94616684D01*
X152680410Y-94708677D01*
X152525663Y-94833096D01*
X152521705Y-94837813D01*
X152521703Y-94837815D01*
X152470869Y-94898397D01*
X152398030Y-94985203D01*
X152395066Y-94990595D01*
X152395063Y-94990599D01*
X152347940Y-95076316D01*
X152297594Y-95126375D01*
X152228177Y-95141268D01*
X152161728Y-95116267D01*
X152126274Y-95074768D01*
X152087809Y-95002426D01*
X152087807Y-95002424D01*
X152084913Y-94996980D01*
X152026933Y-94925889D01*
X151963311Y-94847880D01*
X151963309Y-94847878D01*
X151959417Y-94843106D01*
X151867690Y-94767223D01*
X151811172Y-94720467D01*
X151811169Y-94720465D01*
X151806422Y-94716538D01*
X151631758Y-94622097D01*
X151442076Y-94563381D01*
X151435951Y-94562737D01*
X151435950Y-94562737D01*
X151250732Y-94543270D01*
X151250730Y-94543270D01*
X151244603Y-94542626D01*
X151161470Y-94550192D01*
X151052997Y-94560063D01*
X151052994Y-94560064D01*
X151046858Y-94560622D01*
X151040952Y-94562360D01*
X151040948Y-94562361D01*
X150905476Y-94602233D01*
X150856376Y-94616684D01*
X150680410Y-94708677D01*
X150525663Y-94833096D01*
X150521705Y-94837813D01*
X150521703Y-94837815D01*
X150470869Y-94898397D01*
X150398030Y-94985203D01*
X150395066Y-94990595D01*
X150395063Y-94990599D01*
X150347940Y-95076316D01*
X150297594Y-95126375D01*
X150228177Y-95141268D01*
X150161728Y-95116267D01*
X150126274Y-95074768D01*
X150087809Y-95002426D01*
X150087807Y-95002424D01*
X150084913Y-94996980D01*
X150026933Y-94925889D01*
X149963311Y-94847880D01*
X149963309Y-94847878D01*
X149959417Y-94843106D01*
X149867690Y-94767223D01*
X149811172Y-94720467D01*
X149811169Y-94720465D01*
X149806422Y-94716538D01*
X149631758Y-94622097D01*
X149442076Y-94563381D01*
X149435951Y-94562737D01*
X149435950Y-94562737D01*
X149250732Y-94543270D01*
X149250730Y-94543270D01*
X149244603Y-94542626D01*
X149161470Y-94550192D01*
X149052997Y-94560063D01*
X149052994Y-94560064D01*
X149046858Y-94560622D01*
X149040952Y-94562360D01*
X149040948Y-94562361D01*
X148905476Y-94602233D01*
X148856376Y-94616684D01*
X148680410Y-94708677D01*
X148525663Y-94833096D01*
X148521705Y-94837813D01*
X148521703Y-94837815D01*
X148470869Y-94898397D01*
X148398030Y-94985203D01*
X148395066Y-94990595D01*
X148395063Y-94990599D01*
X148347940Y-95076316D01*
X148297594Y-95126375D01*
X148228177Y-95141268D01*
X148161728Y-95116267D01*
X148126274Y-95074768D01*
X148087809Y-95002426D01*
X148087807Y-95002424D01*
X148084913Y-94996980D01*
X148026933Y-94925889D01*
X147963311Y-94847880D01*
X147963309Y-94847878D01*
X147959417Y-94843106D01*
X147867690Y-94767223D01*
X147811172Y-94720467D01*
X147811169Y-94720465D01*
X147806422Y-94716538D01*
X147631758Y-94622097D01*
X147442076Y-94563381D01*
X147435951Y-94562737D01*
X147435950Y-94562737D01*
X147250732Y-94543270D01*
X147250730Y-94543270D01*
X147244603Y-94542626D01*
X147161470Y-94550192D01*
X147052997Y-94560063D01*
X147052994Y-94560064D01*
X147046858Y-94560622D01*
X147040952Y-94562360D01*
X147040948Y-94562361D01*
X146905476Y-94602233D01*
X146856376Y-94616684D01*
X146680410Y-94708677D01*
X146525663Y-94833096D01*
X146521705Y-94837813D01*
X146521703Y-94837815D01*
X146470869Y-94898397D01*
X146398030Y-94985203D01*
X146395066Y-94990595D01*
X146395063Y-94990599D01*
X146347940Y-95076316D01*
X146297594Y-95126375D01*
X146228177Y-95141268D01*
X146161728Y-95116267D01*
X146126274Y-95074768D01*
X146087809Y-95002426D01*
X146087807Y-95002424D01*
X146084913Y-94996980D01*
X146026933Y-94925889D01*
X145963311Y-94847880D01*
X145963309Y-94847878D01*
X145959417Y-94843106D01*
X145867690Y-94767223D01*
X145811172Y-94720467D01*
X145811169Y-94720465D01*
X145806422Y-94716538D01*
X145631758Y-94622097D01*
X145442076Y-94563381D01*
X145435951Y-94562737D01*
X145435950Y-94562737D01*
X145250732Y-94543270D01*
X145250730Y-94543270D01*
X145244603Y-94542626D01*
X145161470Y-94550192D01*
X145052997Y-94560063D01*
X145052994Y-94560064D01*
X145046858Y-94560622D01*
X145040952Y-94562360D01*
X145040948Y-94562361D01*
X144905476Y-94602233D01*
X144856376Y-94616684D01*
X144680410Y-94708677D01*
X144525663Y-94833096D01*
X144521705Y-94837813D01*
X144521703Y-94837815D01*
X144470869Y-94898397D01*
X144398030Y-94985203D01*
X144395066Y-94990595D01*
X144395063Y-94990599D01*
X144347940Y-95076316D01*
X144297594Y-95126375D01*
X144228177Y-95141268D01*
X144161728Y-95116267D01*
X144126274Y-95074768D01*
X144087809Y-95002426D01*
X144087807Y-95002424D01*
X144084913Y-94996980D01*
X144026933Y-94925889D01*
X143963311Y-94847880D01*
X143963309Y-94847878D01*
X143959417Y-94843106D01*
X143867690Y-94767223D01*
X143811172Y-94720467D01*
X143811169Y-94720465D01*
X143806422Y-94716538D01*
X143631758Y-94622097D01*
X143442076Y-94563381D01*
X143435951Y-94562737D01*
X143435950Y-94562737D01*
X143250732Y-94543270D01*
X143250730Y-94543270D01*
X143244603Y-94542626D01*
X143161470Y-94550192D01*
X143052997Y-94560063D01*
X143052994Y-94560064D01*
X143046858Y-94560622D01*
X143040952Y-94562360D01*
X143040948Y-94562361D01*
X142905476Y-94602233D01*
X142856376Y-94616684D01*
X142680410Y-94708677D01*
X142525663Y-94833096D01*
X142440022Y-94935159D01*
X142380912Y-94974486D01*
X142309924Y-94975612D01*
X142249597Y-94938181D01*
X142225518Y-94898397D01*
X142195268Y-94817705D01*
X142195267Y-94817703D01*
X142192115Y-94809295D01*
X142104761Y-94692739D01*
X141988205Y-94605385D01*
X141851816Y-94554255D01*
X141789634Y-94547500D01*
X140685366Y-94547500D01*
X140623184Y-94554255D01*
X140486795Y-94605385D01*
X140370239Y-94692739D01*
X140282885Y-94809295D01*
X140231755Y-94945684D01*
X140225000Y-95007866D01*
X140225000Y-96112134D01*
X131699500Y-96112134D01*
X131699500Y-93816943D01*
X191616375Y-93816943D01*
X191632981Y-93986299D01*
X191635205Y-93992984D01*
X191635205Y-93992985D01*
X191636377Y-93996507D01*
X191686694Y-94147767D01*
X191690341Y-94153789D01*
X191690342Y-94153791D01*
X191769999Y-94285319D01*
X191774846Y-94293323D01*
X191893055Y-94415732D01*
X191898951Y-94419590D01*
X192025689Y-94502525D01*
X192035446Y-94508910D01*
X192042050Y-94511366D01*
X192042052Y-94511367D01*
X192077390Y-94524509D01*
X192194941Y-94568226D01*
X192363615Y-94590732D01*
X192370626Y-94590094D01*
X192370630Y-94590094D01*
X192526062Y-94575948D01*
X192533083Y-94575309D01*
X192539785Y-94573131D01*
X192539787Y-94573131D01*
X192688223Y-94524901D01*
X192688226Y-94524900D01*
X192694922Y-94522724D01*
X192841090Y-94435590D01*
X192846184Y-94430739D01*
X192846188Y-94430736D01*
X192920610Y-94359864D01*
X192964321Y-94318239D01*
X192993811Y-94273854D01*
X193054590Y-94182373D01*
X193058491Y-94176502D01*
X193118919Y-94017425D01*
X193142601Y-93848913D01*
X193142743Y-93838751D01*
X193142844Y-93831561D01*
X193142844Y-93831555D01*
X193142899Y-93827600D01*
X193136006Y-93766143D01*
X193597575Y-93766143D01*
X193614181Y-93935499D01*
X193616405Y-93942184D01*
X193616405Y-93942185D01*
X193635231Y-93998778D01*
X193667894Y-94096967D01*
X193671541Y-94102989D01*
X193671542Y-94102991D01*
X193719618Y-94182373D01*
X193756046Y-94242523D01*
X193874255Y-94364932D01*
X194016646Y-94458110D01*
X194023250Y-94460566D01*
X194023252Y-94460567D01*
X194059644Y-94474101D01*
X194176141Y-94517426D01*
X194344815Y-94539932D01*
X194351826Y-94539294D01*
X194351830Y-94539294D01*
X194507262Y-94525148D01*
X194514283Y-94524509D01*
X194520985Y-94522331D01*
X194520987Y-94522331D01*
X194669423Y-94474101D01*
X194669426Y-94474100D01*
X194676122Y-94471924D01*
X194822290Y-94384790D01*
X194827384Y-94379939D01*
X194827388Y-94379936D01*
X194918340Y-94293323D01*
X194945521Y-94267439D01*
X194954020Y-94254648D01*
X195002039Y-94182373D01*
X195039691Y-94125702D01*
X195100119Y-93966625D01*
X195123801Y-93798113D01*
X195124099Y-93776800D01*
X195105131Y-93607692D01*
X195049168Y-93446989D01*
X195043183Y-93437410D01*
X194994469Y-93359454D01*
X194958992Y-93302679D01*
X194839086Y-93181932D01*
X194822839Y-93171621D01*
X194771729Y-93139186D01*
X194695408Y-93090751D01*
X194535100Y-93033668D01*
X194366129Y-93013520D01*
X194359126Y-93014256D01*
X194359125Y-93014256D01*
X194203901Y-93030570D01*
X194203897Y-93030571D01*
X194196893Y-93031307D01*
X194190222Y-93033578D01*
X194042473Y-93083875D01*
X194042470Y-93083876D01*
X194035803Y-93086146D01*
X194029805Y-93089836D01*
X194029803Y-93089837D01*
X193896865Y-93171621D01*
X193896863Y-93171623D01*
X193890866Y-93175312D01*
X193769286Y-93294373D01*
X193765475Y-93300287D01*
X193765473Y-93300289D01*
X193687282Y-93421617D01*
X193677104Y-93437410D01*
X193618903Y-93597316D01*
X193597575Y-93766143D01*
X193136006Y-93766143D01*
X193123931Y-93658492D01*
X193106241Y-93607692D01*
X193070286Y-93504446D01*
X193067968Y-93497789D01*
X193061983Y-93488210D01*
X193032490Y-93441013D01*
X192977792Y-93353479D01*
X192954780Y-93330305D01*
X192894923Y-93270029D01*
X192857886Y-93232732D01*
X192841639Y-93222421D01*
X192777838Y-93181932D01*
X192714208Y-93141551D01*
X192553900Y-93084468D01*
X192384929Y-93064320D01*
X192377926Y-93065056D01*
X192377925Y-93065056D01*
X192222701Y-93081370D01*
X192222697Y-93081371D01*
X192215693Y-93082107D01*
X192209022Y-93084378D01*
X192061273Y-93134675D01*
X192061270Y-93134676D01*
X192054603Y-93136946D01*
X192048605Y-93140636D01*
X192048603Y-93140637D01*
X191915665Y-93222421D01*
X191915663Y-93222423D01*
X191909666Y-93226112D01*
X191858030Y-93276678D01*
X191803269Y-93330305D01*
X191788086Y-93345173D01*
X191784275Y-93351087D01*
X191784273Y-93351089D01*
X191702799Y-93477511D01*
X191695904Y-93488210D01*
X191693494Y-93494832D01*
X191653649Y-93604306D01*
X191637703Y-93648116D01*
X191616375Y-93816943D01*
X131699500Y-93816943D01*
X131699500Y-91124543D01*
X179322775Y-91124543D01*
X179339381Y-91293899D01*
X179341605Y-91300584D01*
X179341605Y-91300585D01*
X179347413Y-91318045D01*
X179393094Y-91455367D01*
X179396741Y-91461389D01*
X179396742Y-91461391D01*
X179470124Y-91582558D01*
X179481246Y-91600923D01*
X179599455Y-91723332D01*
X179605351Y-91727190D01*
X179712955Y-91797604D01*
X179741846Y-91816510D01*
X179748450Y-91818966D01*
X179748452Y-91818967D01*
X179784844Y-91832501D01*
X179901341Y-91875826D01*
X180070015Y-91898332D01*
X180077026Y-91897694D01*
X180077030Y-91897694D01*
X180232462Y-91883548D01*
X180239483Y-91882909D01*
X180246185Y-91880731D01*
X180246187Y-91880731D01*
X180394623Y-91832501D01*
X180394626Y-91832500D01*
X180401322Y-91830324D01*
X180547490Y-91743190D01*
X180552584Y-91738339D01*
X180552588Y-91738336D01*
X180623124Y-91671165D01*
X180670721Y-91625839D01*
X180685763Y-91603200D01*
X180737873Y-91524767D01*
X180764891Y-91484102D01*
X180825319Y-91325025D01*
X180849001Y-91156513D01*
X180849299Y-91135200D01*
X180830331Y-90966092D01*
X180783058Y-90830343D01*
X185611375Y-90830343D01*
X185627981Y-90999699D01*
X185681694Y-91161167D01*
X185685341Y-91167189D01*
X185685342Y-91167191D01*
X185766129Y-91300585D01*
X185769846Y-91306723D01*
X185888055Y-91429132D01*
X186030446Y-91522310D01*
X186037050Y-91524766D01*
X186037052Y-91524767D01*
X186073444Y-91538301D01*
X186189941Y-91581626D01*
X186358615Y-91604132D01*
X186365626Y-91603494D01*
X186365630Y-91603494D01*
X186521062Y-91589348D01*
X186528083Y-91588709D01*
X186534785Y-91586531D01*
X186534787Y-91586531D01*
X186683223Y-91538301D01*
X186683226Y-91538300D01*
X186689922Y-91536124D01*
X186821695Y-91457571D01*
X215901201Y-91457571D01*
X215908256Y-91467544D01*
X215961357Y-91511942D01*
X215968294Y-91516982D01*
X216214082Y-91671165D01*
X216221634Y-91675214D01*
X216486082Y-91794618D01*
X216494113Y-91797604D01*
X216772318Y-91880012D01*
X216780670Y-91881879D01*
X217067492Y-91925769D01*
X217076025Y-91926485D01*
X217366145Y-91931043D01*
X217374696Y-91930594D01*
X217662754Y-91895736D01*
X217671154Y-91894134D01*
X217951830Y-91820500D01*
X217959932Y-91817773D01*
X218228007Y-91706733D01*
X218235675Y-91702927D01*
X218486200Y-91556532D01*
X218493281Y-91551719D01*
X218600502Y-91467648D01*
X218608972Y-91455789D01*
X218602455Y-91444165D01*
X217268312Y-90110022D01*
X217254368Y-90102408D01*
X217252535Y-90102539D01*
X217245920Y-90106790D01*
X215908493Y-91444217D01*
X215901201Y-91457571D01*
X186821695Y-91457571D01*
X186836090Y-91448990D01*
X186841184Y-91444139D01*
X186841188Y-91444136D01*
X186908433Y-91380099D01*
X186959321Y-91331639D01*
X186963716Y-91325025D01*
X187049590Y-91195773D01*
X187053491Y-91189902D01*
X187113919Y-91030825D01*
X187137601Y-90862313D01*
X187137899Y-90841000D01*
X187118931Y-90671892D01*
X187115166Y-90661079D01*
X187065286Y-90517846D01*
X187062968Y-90511189D01*
X187056983Y-90501610D01*
X187019905Y-90442275D01*
X186972792Y-90366879D01*
X186852886Y-90246132D01*
X186836639Y-90235821D01*
X186791068Y-90206901D01*
X186709208Y-90154951D01*
X186548900Y-90097868D01*
X186379929Y-90077720D01*
X186372926Y-90078456D01*
X186372925Y-90078456D01*
X186217701Y-90094770D01*
X186217697Y-90094771D01*
X186210693Y-90095507D01*
X186204022Y-90097778D01*
X186056273Y-90148075D01*
X186056270Y-90148076D01*
X186049603Y-90150346D01*
X186043605Y-90154036D01*
X186043603Y-90154037D01*
X185910665Y-90235821D01*
X185910663Y-90235823D01*
X185904666Y-90239512D01*
X185783086Y-90358573D01*
X185779275Y-90364487D01*
X185779273Y-90364489D01*
X185726236Y-90446786D01*
X185690904Y-90501610D01*
X185632703Y-90661516D01*
X185611375Y-90830343D01*
X180783058Y-90830343D01*
X180774368Y-90805389D01*
X180768383Y-90795810D01*
X180695322Y-90678891D01*
X180684192Y-90661079D01*
X180564286Y-90540332D01*
X180548039Y-90530021D01*
X180493937Y-90495687D01*
X180420608Y-90449151D01*
X180260300Y-90392068D01*
X180091329Y-90371920D01*
X180084326Y-90372656D01*
X180084325Y-90372656D01*
X179929101Y-90388970D01*
X179929097Y-90388971D01*
X179922093Y-90389707D01*
X179915422Y-90391978D01*
X179767673Y-90442275D01*
X179767670Y-90442276D01*
X179761003Y-90444546D01*
X179755005Y-90448236D01*
X179755003Y-90448237D01*
X179622065Y-90530021D01*
X179622063Y-90530023D01*
X179616066Y-90533712D01*
X179494486Y-90652773D01*
X179490675Y-90658687D01*
X179490673Y-90658689D01*
X179477654Y-90678891D01*
X179402304Y-90795810D01*
X179344103Y-90955716D01*
X179322775Y-91124543D01*
X131699500Y-91124543D01*
X131699500Y-89498943D01*
X187247575Y-89498943D01*
X187264181Y-89668299D01*
X187266405Y-89674984D01*
X187266405Y-89674985D01*
X187286381Y-89735035D01*
X187317894Y-89829767D01*
X187321541Y-89835789D01*
X187321542Y-89835791D01*
X187335297Y-89858502D01*
X187406046Y-89975323D01*
X187524255Y-90097732D01*
X187666646Y-90190910D01*
X187673250Y-90193366D01*
X187673252Y-90193367D01*
X187709644Y-90206901D01*
X187826141Y-90250226D01*
X187994815Y-90272732D01*
X188001826Y-90272094D01*
X188001830Y-90272094D01*
X188157262Y-90257948D01*
X188164283Y-90257309D01*
X188170985Y-90255131D01*
X188170987Y-90255131D01*
X188319423Y-90206901D01*
X188319426Y-90206900D01*
X188326122Y-90204724D01*
X188472290Y-90117590D01*
X188477384Y-90112739D01*
X188477388Y-90112736D01*
X188586363Y-90008960D01*
X188595521Y-90000239D01*
X188689691Y-89858502D01*
X188742576Y-89719283D01*
X215059747Y-89719283D01*
X215076450Y-90008960D01*
X215077523Y-90017460D01*
X215133386Y-90302191D01*
X215135599Y-90310453D01*
X215229589Y-90584975D01*
X215232905Y-90592862D01*
X215363280Y-90852085D01*
X215367636Y-90859451D01*
X215523241Y-91085855D01*
X215533496Y-91094200D01*
X215547235Y-91087055D01*
X216883478Y-89750812D01*
X216889856Y-89739132D01*
X217619908Y-89739132D01*
X217620039Y-89740965D01*
X217624290Y-89747580D01*
X218962139Y-91085429D01*
X218974348Y-91092096D01*
X218985848Y-91083406D01*
X219107204Y-90918199D01*
X219111792Y-90910971D01*
X219250242Y-90655978D01*
X219253810Y-90648185D01*
X219356372Y-90376761D01*
X219358845Y-90368569D01*
X219423625Y-90085729D01*
X219424963Y-90077275D01*
X219450918Y-89786457D01*
X219451164Y-89781518D01*
X219451594Y-89740484D01*
X219451451Y-89735520D01*
X219431593Y-89444229D01*
X219430432Y-89435755D01*
X219371590Y-89151617D01*
X219369291Y-89143382D01*
X219272430Y-88869857D01*
X219269033Y-88862006D01*
X219135948Y-88604158D01*
X219131515Y-88596839D01*
X218986890Y-88391058D01*
X218976368Y-88382678D01*
X218962980Y-88389730D01*
X217627522Y-89725188D01*
X217619908Y-89739132D01*
X216889856Y-89739132D01*
X216891092Y-89736868D01*
X216890961Y-89735035D01*
X216886710Y-89728420D01*
X215548187Y-88389897D01*
X215536177Y-88383338D01*
X215524438Y-88392306D01*
X215391534Y-88577263D01*
X215387030Y-88584527D01*
X215251250Y-88840971D01*
X215247771Y-88848785D01*
X215148055Y-89121271D01*
X215145666Y-89129494D01*
X215083852Y-89412998D01*
X215082603Y-89421454D01*
X215059836Y-89710733D01*
X215059747Y-89719283D01*
X188742576Y-89719283D01*
X188750119Y-89699425D01*
X188773801Y-89530913D01*
X188774099Y-89509600D01*
X188755131Y-89340492D01*
X188752651Y-89333369D01*
X188701486Y-89186446D01*
X188699168Y-89179789D01*
X188693183Y-89170210D01*
X188643497Y-89090698D01*
X188608992Y-89035479D01*
X188489086Y-88914732D01*
X188472839Y-88904421D01*
X188372857Y-88840971D01*
X188345408Y-88823551D01*
X188185100Y-88766468D01*
X188016129Y-88746320D01*
X188009126Y-88747056D01*
X188009125Y-88747056D01*
X187853901Y-88763370D01*
X187853897Y-88763371D01*
X187846893Y-88764107D01*
X187840222Y-88766378D01*
X187692473Y-88816675D01*
X187692470Y-88816676D01*
X187685803Y-88818946D01*
X187679805Y-88822636D01*
X187679803Y-88822637D01*
X187546865Y-88904421D01*
X187546863Y-88904423D01*
X187540866Y-88908112D01*
X187419286Y-89027173D01*
X187415475Y-89033087D01*
X187415473Y-89033089D01*
X187339086Y-89151617D01*
X187327104Y-89170210D01*
X187268903Y-89330116D01*
X187247575Y-89498943D01*
X131699500Y-89498943D01*
X131699500Y-88584543D01*
X172769575Y-88584543D01*
X172786181Y-88753899D01*
X172788405Y-88760584D01*
X172788405Y-88760585D01*
X172789577Y-88764107D01*
X172839894Y-88915367D01*
X172843541Y-88921389D01*
X172843542Y-88921391D01*
X172912637Y-89035479D01*
X172928046Y-89060923D01*
X173046255Y-89183332D01*
X173188646Y-89276510D01*
X173195250Y-89278966D01*
X173195252Y-89278967D01*
X173231644Y-89292501D01*
X173348141Y-89335826D01*
X173516815Y-89358332D01*
X173523826Y-89357694D01*
X173523830Y-89357694D01*
X173679262Y-89343548D01*
X173686283Y-89342909D01*
X173692985Y-89340731D01*
X173692987Y-89340731D01*
X173841423Y-89292501D01*
X173841426Y-89292500D01*
X173848122Y-89290324D01*
X173994290Y-89203190D01*
X173999384Y-89198339D01*
X173999388Y-89198336D01*
X174071679Y-89129494D01*
X174117521Y-89085839D01*
X174147011Y-89041454D01*
X174207790Y-88949973D01*
X174211691Y-88944102D01*
X174272119Y-88785025D01*
X174295801Y-88616513D01*
X174296099Y-88595200D01*
X174277131Y-88426092D01*
X174265366Y-88392306D01*
X174223486Y-88272046D01*
X174221168Y-88265389D01*
X174215183Y-88255810D01*
X174193220Y-88220664D01*
X174130992Y-88121079D01*
X174030926Y-88020311D01*
X215901895Y-88020311D01*
X215908291Y-88031581D01*
X217242688Y-89365978D01*
X217256632Y-89373592D01*
X217258465Y-89373461D01*
X217265080Y-89369210D01*
X218602150Y-88032140D01*
X218609341Y-88018971D01*
X218602018Y-88008733D01*
X218530986Y-87950595D01*
X218524024Y-87945647D01*
X218276611Y-87794032D01*
X218269020Y-87790064D01*
X218003341Y-87673439D01*
X217995281Y-87670537D01*
X217716227Y-87591046D01*
X217707852Y-87589266D01*
X217420592Y-87548383D01*
X217412044Y-87547756D01*
X217121890Y-87546236D01*
X217113356Y-87546773D01*
X216825677Y-87584647D01*
X216817279Y-87586340D01*
X216537408Y-87662904D01*
X216529321Y-87665720D01*
X216262434Y-87779557D01*
X216254795Y-87783450D01*
X216005829Y-87932453D01*
X215998797Y-87937340D01*
X215910364Y-88008188D01*
X215901895Y-88020311D01*
X174030926Y-88020311D01*
X174011086Y-88000332D01*
X173994839Y-87990021D01*
X173924916Y-87945647D01*
X173867408Y-87909151D01*
X173707100Y-87852068D01*
X173538129Y-87831920D01*
X173531126Y-87832656D01*
X173531125Y-87832656D01*
X173375901Y-87848970D01*
X173375897Y-87848971D01*
X173368893Y-87849707D01*
X173362222Y-87851978D01*
X173214473Y-87902275D01*
X173214470Y-87902276D01*
X173207803Y-87904546D01*
X173201805Y-87908236D01*
X173201803Y-87908237D01*
X173068865Y-87990021D01*
X173068863Y-87990023D01*
X173062866Y-87993712D01*
X172941286Y-88112773D01*
X172849104Y-88255810D01*
X172846694Y-88262432D01*
X172799424Y-88392306D01*
X172790903Y-88415716D01*
X172769575Y-88584543D01*
X131699500Y-88584543D01*
X131699500Y-83707743D01*
X170127975Y-83707743D01*
X170144581Y-83877099D01*
X170198294Y-84038567D01*
X170201941Y-84044589D01*
X170201942Y-84044591D01*
X170282248Y-84177191D01*
X170286446Y-84184123D01*
X170404655Y-84306532D01*
X170410551Y-84310390D01*
X170536710Y-84392946D01*
X170547046Y-84399710D01*
X170553650Y-84402166D01*
X170553652Y-84402167D01*
X170626793Y-84429368D01*
X170706541Y-84459026D01*
X170713526Y-84459958D01*
X170721830Y-84461066D01*
X170786707Y-84489902D01*
X170825695Y-84549235D01*
X170826416Y-84620228D01*
X170806848Y-84657833D01*
X170807686Y-84658373D01*
X170715504Y-84801410D01*
X170657303Y-84961316D01*
X170635975Y-85130143D01*
X170652581Y-85299499D01*
X170706294Y-85460967D01*
X170709941Y-85466989D01*
X170709942Y-85466991D01*
X170723697Y-85489702D01*
X170794446Y-85606523D01*
X170912655Y-85728932D01*
X171055046Y-85822110D01*
X171061650Y-85824566D01*
X171061652Y-85824567D01*
X171098044Y-85838101D01*
X171214541Y-85881426D01*
X171383215Y-85903932D01*
X171390226Y-85903294D01*
X171390230Y-85903294D01*
X171545662Y-85889148D01*
X171552683Y-85888509D01*
X171559385Y-85886331D01*
X171559387Y-85886331D01*
X171707823Y-85838101D01*
X171707826Y-85838100D01*
X171714522Y-85835924D01*
X171860690Y-85748790D01*
X171865784Y-85743939D01*
X171865788Y-85743936D01*
X171933033Y-85679899D01*
X171983921Y-85631439D01*
X172078091Y-85489702D01*
X172138519Y-85330625D01*
X172162201Y-85162113D01*
X172162499Y-85140800D01*
X172143531Y-84971692D01*
X172087568Y-84810989D01*
X172081583Y-84801410D01*
X172059620Y-84766264D01*
X171997392Y-84666679D01*
X171877486Y-84545932D01*
X171733808Y-84454751D01*
X171573500Y-84397668D01*
X171566501Y-84396833D01*
X171559644Y-84395225D01*
X171560179Y-84392946D01*
X171505058Y-84369366D01*
X171465244Y-84310584D01*
X171463529Y-84239608D01*
X171480297Y-84202453D01*
X171570091Y-84067302D01*
X171630519Y-83908225D01*
X171654201Y-83739713D01*
X171654318Y-83731364D01*
X171654444Y-83722361D01*
X171654444Y-83722355D01*
X171654499Y-83718400D01*
X171635531Y-83549292D01*
X171579568Y-83388589D01*
X171573583Y-83379010D01*
X171522798Y-83297739D01*
X171489392Y-83244279D01*
X171369486Y-83123532D01*
X171353846Y-83113606D01*
X171255531Y-83051214D01*
X171225808Y-83032351D01*
X171065500Y-82975268D01*
X170896529Y-82955120D01*
X170889526Y-82955856D01*
X170889525Y-82955856D01*
X170734301Y-82972170D01*
X170734297Y-82972171D01*
X170727293Y-82972907D01*
X170720622Y-82975178D01*
X170572873Y-83025475D01*
X170572870Y-83025476D01*
X170566203Y-83027746D01*
X170560205Y-83031436D01*
X170560203Y-83031437D01*
X170427265Y-83113221D01*
X170427263Y-83113223D01*
X170421266Y-83116912D01*
X170416233Y-83121841D01*
X170326645Y-83209573D01*
X170299686Y-83235973D01*
X170295875Y-83241887D01*
X170295873Y-83241889D01*
X170241933Y-83325587D01*
X170207504Y-83379010D01*
X170149303Y-83538916D01*
X170127975Y-83707743D01*
X131699500Y-83707743D01*
X131699500Y-82844143D01*
X178763975Y-82844143D01*
X178780581Y-83013499D01*
X178834294Y-83174967D01*
X178837941Y-83180989D01*
X178837942Y-83180991D01*
X178879890Y-83250254D01*
X178922446Y-83320523D01*
X179040655Y-83442932D01*
X179183046Y-83536110D01*
X179189650Y-83538566D01*
X179189652Y-83538567D01*
X179226044Y-83552101D01*
X179342541Y-83595426D01*
X179511215Y-83617932D01*
X179518226Y-83617294D01*
X179518230Y-83617294D01*
X179673662Y-83603148D01*
X179680683Y-83602509D01*
X179687385Y-83600331D01*
X179687387Y-83600331D01*
X179835823Y-83552101D01*
X179835826Y-83552100D01*
X179842522Y-83549924D01*
X179988690Y-83462790D01*
X179993784Y-83457939D01*
X179993788Y-83457936D01*
X180076668Y-83379010D01*
X180111921Y-83345439D01*
X180143613Y-83297739D01*
X196438282Y-83297739D01*
X196454962Y-83496386D01*
X196509910Y-83688009D01*
X196601030Y-83865311D01*
X196724853Y-84021537D01*
X196876663Y-84150737D01*
X196882041Y-84153743D01*
X196882043Y-84153744D01*
X196969189Y-84202448D01*
X197050676Y-84247989D01*
X197056535Y-84249893D01*
X197056538Y-84249894D01*
X197092301Y-84261514D01*
X197240265Y-84309591D01*
X197246375Y-84310320D01*
X197246377Y-84310320D01*
X197313914Y-84318373D01*
X197438209Y-84333194D01*
X197444344Y-84332722D01*
X197444346Y-84332722D01*
X197630826Y-84318373D01*
X197630831Y-84318372D01*
X197636967Y-84317900D01*
X197642897Y-84316244D01*
X197642899Y-84316244D01*
X197732968Y-84291096D01*
X197828970Y-84264292D01*
X197834470Y-84261514D01*
X198001402Y-84177191D01*
X198001404Y-84177190D01*
X198006903Y-84174412D01*
X198163990Y-84051682D01*
X198186562Y-84025532D01*
X198290218Y-83905446D01*
X198290219Y-83905444D01*
X198294247Y-83900778D01*
X198392712Y-83727448D01*
X198455635Y-83538294D01*
X198467682Y-83442932D01*
X198480178Y-83344023D01*
X198480179Y-83344013D01*
X198480620Y-83340520D01*
X198481018Y-83312000D01*
X198461565Y-83113606D01*
X198459784Y-83107707D01*
X198459783Y-83107702D01*
X198405729Y-82928667D01*
X198403948Y-82922768D01*
X198352645Y-82826281D01*
X198313255Y-82752198D01*
X198313253Y-82752195D01*
X198310361Y-82746756D01*
X198306471Y-82741986D01*
X198306468Y-82741982D01*
X198188263Y-82597049D01*
X198188260Y-82597046D01*
X198184368Y-82592274D01*
X198030770Y-82465206D01*
X197855415Y-82370392D01*
X197664985Y-82311444D01*
X197658860Y-82310800D01*
X197658859Y-82310800D01*
X197472860Y-82291251D01*
X197472858Y-82291251D01*
X197466731Y-82290607D01*
X197343852Y-82301790D01*
X197274346Y-82308115D01*
X197274345Y-82308115D01*
X197268205Y-82308674D01*
X197262291Y-82310415D01*
X197262289Y-82310415D01*
X197184109Y-82333425D01*
X197076970Y-82364958D01*
X196900309Y-82457314D01*
X196895509Y-82461174D01*
X196895508Y-82461174D01*
X196890493Y-82465206D01*
X196744951Y-82582225D01*
X196616814Y-82734933D01*
X196520779Y-82909621D01*
X196460502Y-83099635D01*
X196438282Y-83297739D01*
X180143613Y-83297739D01*
X180206091Y-83203702D01*
X180266519Y-83044625D01*
X180290201Y-82876113D01*
X180290499Y-82854800D01*
X180287300Y-82826281D01*
X180299584Y-82756356D01*
X180325623Y-82720990D01*
X180416721Y-82634239D01*
X180510891Y-82492502D01*
X180571319Y-82333425D01*
X180595001Y-82164913D01*
X180595299Y-82143600D01*
X180594869Y-82139768D01*
X180611512Y-82070773D01*
X180656196Y-82025403D01*
X180795441Y-81942397D01*
X180795447Y-81942392D01*
X180801490Y-81938790D01*
X180806584Y-81933939D01*
X180806588Y-81933936D01*
X180897540Y-81847323D01*
X180924721Y-81821439D01*
X180931769Y-81810832D01*
X180981239Y-81736373D01*
X181018891Y-81679702D01*
X181079319Y-81520625D01*
X181089339Y-81449327D01*
X181097283Y-81392801D01*
X181107182Y-81370943D01*
X181862775Y-81370943D01*
X181879381Y-81540299D01*
X181933094Y-81701767D01*
X181936741Y-81707789D01*
X181936742Y-81707791D01*
X182008513Y-81826298D01*
X182021246Y-81847323D01*
X182139455Y-81969732D01*
X182281846Y-82062910D01*
X182288450Y-82065366D01*
X182288452Y-82065367D01*
X182324844Y-82078901D01*
X182441341Y-82122226D01*
X182610015Y-82144732D01*
X182617026Y-82144094D01*
X182617030Y-82144094D01*
X182772462Y-82129948D01*
X182779483Y-82129309D01*
X182786185Y-82127131D01*
X182786187Y-82127131D01*
X182934623Y-82078901D01*
X182934626Y-82078900D01*
X182941322Y-82076724D01*
X183087490Y-81989590D01*
X183092584Y-81984739D01*
X183092588Y-81984736D01*
X183159833Y-81920699D01*
X183210721Y-81872239D01*
X183244473Y-81821439D01*
X183300990Y-81736373D01*
X183304891Y-81730502D01*
X183365319Y-81571425D01*
X183389001Y-81402913D01*
X183389299Y-81381600D01*
X183370331Y-81212492D01*
X183314368Y-81051789D01*
X183308383Y-81042210D01*
X183280776Y-80998032D01*
X183224192Y-80907479D01*
X183104286Y-80786732D01*
X183088039Y-80776421D01*
X183048998Y-80751645D01*
X182960608Y-80695551D01*
X182800300Y-80638468D01*
X182631329Y-80618320D01*
X182624326Y-80619056D01*
X182624325Y-80619056D01*
X182469101Y-80635370D01*
X182469097Y-80635371D01*
X182462093Y-80636107D01*
X182455422Y-80638378D01*
X182307673Y-80688675D01*
X182307670Y-80688676D01*
X182301003Y-80690946D01*
X182295005Y-80694636D01*
X182295003Y-80694637D01*
X182162065Y-80776421D01*
X182162063Y-80776423D01*
X182156066Y-80780112D01*
X182034486Y-80899173D01*
X182030675Y-80905087D01*
X182030673Y-80905089D01*
X181970775Y-80998032D01*
X181942304Y-81042210D01*
X181939894Y-81048832D01*
X181900049Y-81158306D01*
X181884103Y-81202116D01*
X181862775Y-81370943D01*
X181107182Y-81370943D01*
X181126571Y-81328127D01*
X181183121Y-81290503D01*
X181258223Y-81266101D01*
X181258226Y-81266100D01*
X181264922Y-81263924D01*
X181411090Y-81176790D01*
X181416184Y-81171939D01*
X181416188Y-81171936D01*
X181483433Y-81107899D01*
X181534321Y-81059439D01*
X181541369Y-81048832D01*
X181624590Y-80923573D01*
X181628491Y-80917702D01*
X181688919Y-80758625D01*
X181712601Y-80590113D01*
X181712899Y-80568800D01*
X181693931Y-80399692D01*
X181637968Y-80238989D01*
X181631983Y-80229410D01*
X181610020Y-80194264D01*
X181547792Y-80094679D01*
X181427886Y-79973932D01*
X181411639Y-79963621D01*
X181373006Y-79939104D01*
X181284208Y-79882751D01*
X181123900Y-79825668D01*
X180954929Y-79805520D01*
X180947926Y-79806256D01*
X180947925Y-79806256D01*
X180792701Y-79822570D01*
X180792697Y-79822571D01*
X180785693Y-79823307D01*
X180779022Y-79825578D01*
X180631273Y-79875875D01*
X180631270Y-79875876D01*
X180624603Y-79878146D01*
X180618605Y-79881836D01*
X180618603Y-79881837D01*
X180485665Y-79963621D01*
X180485663Y-79963623D01*
X180479666Y-79967312D01*
X180358086Y-80086373D01*
X180265904Y-80229410D01*
X180207703Y-80389316D01*
X180206820Y-80396306D01*
X180193119Y-80504757D01*
X180164737Y-80569834D01*
X180108718Y-80608243D01*
X180021673Y-80637875D01*
X180021670Y-80637876D01*
X180015003Y-80640146D01*
X180009005Y-80643836D01*
X180009003Y-80643837D01*
X179876065Y-80725621D01*
X179876063Y-80725623D01*
X179870066Y-80729312D01*
X179748486Y-80848373D01*
X179744675Y-80854287D01*
X179744673Y-80854289D01*
X179703806Y-80917702D01*
X179656304Y-80991410D01*
X179598103Y-81151316D01*
X179576775Y-81320143D01*
X179577463Y-81327158D01*
X179577552Y-81328070D01*
X179577442Y-81328651D01*
X179577364Y-81334201D01*
X179576389Y-81334187D01*
X179564295Y-81397818D01*
X179515434Y-81449327D01*
X179511365Y-81451461D01*
X179507003Y-81452946D01*
X179501009Y-81456634D01*
X179501006Y-81456635D01*
X179368065Y-81538421D01*
X179368063Y-81538423D01*
X179362066Y-81542112D01*
X179240486Y-81661173D01*
X179236675Y-81667087D01*
X179236673Y-81667089D01*
X179210442Y-81707791D01*
X179148304Y-81804210D01*
X179090103Y-81964116D01*
X179068775Y-82132943D01*
X179071523Y-82160966D01*
X179072644Y-82172404D01*
X179059384Y-82242152D01*
X179035403Y-82274722D01*
X178968730Y-82340014D01*
X178935686Y-82372373D01*
X178931875Y-82378287D01*
X178931873Y-82378289D01*
X178862513Y-82485914D01*
X178843504Y-82515410D01*
X178785303Y-82675316D01*
X178763975Y-82844143D01*
X131699500Y-82844143D01*
X131699500Y-76500485D01*
X132718854Y-76500485D01*
X132719156Y-76504320D01*
X132737108Y-76732417D01*
X132744370Y-76824695D01*
X132809206Y-77143378D01*
X132912398Y-77451784D01*
X133052405Y-77745316D01*
X133227141Y-78019597D01*
X133229584Y-78022560D01*
X133229585Y-78022562D01*
X133379308Y-78204190D01*
X133434001Y-78270538D01*
X133669902Y-78494399D01*
X133931326Y-78687843D01*
X134072851Y-78767914D01*
X134211019Y-78846086D01*
X134211023Y-78846088D01*
X134214376Y-78847985D01*
X134514832Y-78972438D01*
X134618288Y-79001129D01*
X134824500Y-79058317D01*
X134824508Y-79058319D01*
X134828216Y-79059347D01*
X135149856Y-79107416D01*
X135153154Y-79107560D01*
X135264918Y-79112440D01*
X135264922Y-79112440D01*
X135266294Y-79112500D01*
X135464598Y-79112500D01*
X135706605Y-79097698D01*
X135710388Y-79096997D01*
X135710395Y-79096996D01*
X135910459Y-79059916D01*
X136026372Y-79038433D01*
X136235682Y-78972438D01*
X136332860Y-78941798D01*
X136332863Y-78941797D01*
X136336532Y-78940640D01*
X136340029Y-78939046D01*
X136340035Y-78939044D01*
X136628954Y-78807376D01*
X136628958Y-78807374D01*
X136632462Y-78805777D01*
X136909751Y-78635854D01*
X136912755Y-78633464D01*
X136912760Y-78633461D01*
X137037007Y-78534630D01*
X137164264Y-78433405D01*
X137166958Y-78430664D01*
X137166962Y-78430660D01*
X137389513Y-78204190D01*
X137389517Y-78204185D01*
X137392208Y-78201447D01*
X137590185Y-77943439D01*
X137755242Y-77663227D01*
X137884920Y-77364988D01*
X137977285Y-77053169D01*
X138030961Y-76732417D01*
X138041087Y-76500485D01*
X219205854Y-76500485D01*
X219206156Y-76504320D01*
X219224108Y-76732417D01*
X219231370Y-76824695D01*
X219296206Y-77143378D01*
X219399398Y-77451784D01*
X219539405Y-77745316D01*
X219714141Y-78019597D01*
X219716584Y-78022560D01*
X219716585Y-78022562D01*
X219866308Y-78204190D01*
X219921001Y-78270538D01*
X220156902Y-78494399D01*
X220418326Y-78687843D01*
X220559851Y-78767914D01*
X220698019Y-78846086D01*
X220698023Y-78846088D01*
X220701376Y-78847985D01*
X221001832Y-78972438D01*
X221105288Y-79001129D01*
X221311500Y-79058317D01*
X221311508Y-79058319D01*
X221315216Y-79059347D01*
X221636856Y-79107416D01*
X221640154Y-79107560D01*
X221751918Y-79112440D01*
X221751922Y-79112440D01*
X221753294Y-79112500D01*
X221951598Y-79112500D01*
X222193605Y-79097698D01*
X222197388Y-79096997D01*
X222197395Y-79096996D01*
X222397459Y-79059916D01*
X222513372Y-79038433D01*
X222722682Y-78972438D01*
X222819860Y-78941798D01*
X222819863Y-78941797D01*
X222823532Y-78940640D01*
X222827029Y-78939046D01*
X222827035Y-78939044D01*
X223115954Y-78807376D01*
X223115958Y-78807374D01*
X223119462Y-78805777D01*
X223396751Y-78635854D01*
X223399755Y-78633464D01*
X223399760Y-78633461D01*
X223524007Y-78534630D01*
X223651264Y-78433405D01*
X223653958Y-78430664D01*
X223653962Y-78430660D01*
X223876513Y-78204190D01*
X223876517Y-78204185D01*
X223879208Y-78201447D01*
X224077185Y-77943439D01*
X224242242Y-77663227D01*
X224371920Y-77364988D01*
X224464285Y-77053169D01*
X224517961Y-76732417D01*
X224532146Y-76407515D01*
X224519388Y-76245410D01*
X224506932Y-76087140D01*
X224506932Y-76087137D01*
X224506630Y-76083305D01*
X224441794Y-75764622D01*
X224338602Y-75456216D01*
X224198595Y-75162684D01*
X224023859Y-74888403D01*
X223876470Y-74709606D01*
X223819442Y-74640425D01*
X223819438Y-74640420D01*
X223816999Y-74637462D01*
X223581098Y-74413601D01*
X223319674Y-74220157D01*
X223178149Y-74140086D01*
X223039981Y-74061914D01*
X223039977Y-74061912D01*
X223036624Y-74060015D01*
X222994610Y-74042612D01*
X222816788Y-73968956D01*
X222736168Y-73935562D01*
X222632712Y-73906871D01*
X222426500Y-73849683D01*
X222426492Y-73849681D01*
X222422784Y-73848653D01*
X222101144Y-73800584D01*
X222097846Y-73800440D01*
X221986082Y-73795560D01*
X221986078Y-73795560D01*
X221984706Y-73795500D01*
X221786402Y-73795500D01*
X221544395Y-73810302D01*
X221540612Y-73811003D01*
X221540605Y-73811004D01*
X221384512Y-73839934D01*
X221224628Y-73869567D01*
X221040058Y-73927762D01*
X220918140Y-73966202D01*
X220918137Y-73966203D01*
X220914468Y-73967360D01*
X220910971Y-73968954D01*
X220910965Y-73968956D01*
X220622046Y-74100624D01*
X220622042Y-74100626D01*
X220618538Y-74102223D01*
X220615259Y-74104233D01*
X220615256Y-74104234D01*
X220350063Y-74266745D01*
X220341249Y-74272146D01*
X220338245Y-74274536D01*
X220338240Y-74274539D01*
X220305520Y-74300566D01*
X220086736Y-74474595D01*
X220084042Y-74477336D01*
X220084038Y-74477340D01*
X219861487Y-74703810D01*
X219861483Y-74703815D01*
X219858792Y-74706553D01*
X219660815Y-74964561D01*
X219495758Y-75244773D01*
X219366080Y-75543012D01*
X219273715Y-75854831D01*
X219220039Y-76175583D01*
X219205854Y-76500485D01*
X138041087Y-76500485D01*
X138045146Y-76407515D01*
X138032388Y-76245410D01*
X138019932Y-76087140D01*
X138019932Y-76087137D01*
X138019630Y-76083305D01*
X137954794Y-75764622D01*
X137851602Y-75456216D01*
X137711595Y-75162684D01*
X137536859Y-74888403D01*
X137389470Y-74709606D01*
X137332442Y-74640425D01*
X137332438Y-74640420D01*
X137329999Y-74637462D01*
X137094098Y-74413601D01*
X136832674Y-74220157D01*
X136691149Y-74140086D01*
X136552981Y-74061914D01*
X136552977Y-74061912D01*
X136549624Y-74060015D01*
X136507610Y-74042612D01*
X136329788Y-73968956D01*
X136249168Y-73935562D01*
X136145712Y-73906871D01*
X135939500Y-73849683D01*
X135939492Y-73849681D01*
X135935784Y-73848653D01*
X135614144Y-73800584D01*
X135610846Y-73800440D01*
X135499082Y-73795560D01*
X135499078Y-73795560D01*
X135497706Y-73795500D01*
X135299402Y-73795500D01*
X135057395Y-73810302D01*
X135053612Y-73811003D01*
X135053605Y-73811004D01*
X134897511Y-73839935D01*
X134737628Y-73869567D01*
X134553058Y-73927762D01*
X134431140Y-73966202D01*
X134431137Y-73966203D01*
X134427468Y-73967360D01*
X134423971Y-73968954D01*
X134423965Y-73968956D01*
X134135046Y-74100624D01*
X134135042Y-74100626D01*
X134131538Y-74102223D01*
X134128259Y-74104233D01*
X134128256Y-74104234D01*
X133863063Y-74266745D01*
X133854249Y-74272146D01*
X133851245Y-74274536D01*
X133851240Y-74274539D01*
X133818520Y-74300566D01*
X133599736Y-74474595D01*
X133597042Y-74477336D01*
X133597038Y-74477340D01*
X133374487Y-74703810D01*
X133374483Y-74703815D01*
X133371792Y-74706553D01*
X133173815Y-74964561D01*
X133008758Y-75244773D01*
X132879080Y-75543012D01*
X132786715Y-75854831D01*
X132733039Y-76175583D01*
X132718854Y-76500485D01*
X131699500Y-76500485D01*
X131699500Y-72897500D01*
X131719502Y-72829379D01*
X131773158Y-72782886D01*
X131825500Y-72771500D01*
X140307140Y-72771500D01*
X140375261Y-72791502D01*
G37*
%TD.AperFunction*%
%TD*%
M02*
