%TF.GenerationSoftware,KiCad,Pcbnew,7.0.1*%
%TF.CreationDate,2023-04-09T14:50:30-07:00*%
%TF.ProjectId,Ground-Station-Telemetry,47726f75-6e64-42d5-9374-6174696f6e2d,rev?*%
%TF.SameCoordinates,Original*%
%TF.FileFunction,Paste,Top*%
%TF.FilePolarity,Positive*%
%FSLAX46Y46*%
G04 Gerber Fmt 4.6, Leading zero omitted, Abs format (unit mm)*
G04 Created by KiCad (PCBNEW 7.0.1) date 2023-04-09 14:50:30*
%MOMM*%
%LPD*%
G01*
G04 APERTURE LIST*
%ADD10C,0.010000*%
%ADD11R,1.000000X1.100000*%
%ADD12R,1.460500X0.558800*%
%ADD13R,1.100000X1.000000*%
%ADD14R,0.940000X1.020000*%
%ADD15R,1.700000X0.990600*%
%ADD16R,0.965200X1.295400*%
%ADD17R,1.950000X1.050000*%
%ADD18R,1.020000X0.940000*%
%ADD19R,1.778000X1.270000*%
%ADD20R,0.979300X0.558800*%
%ADD21R,1.300000X1.100000*%
%ADD22R,5.080000X2.286000*%
%ADD23R,5.080000X2.413000*%
%ADD24R,1.295400X0.558800*%
%ADD25R,1.000000X0.800000*%
%ADD26R,1.560000X0.280000*%
%ADD27R,0.280000X1.560000*%
%ADD28R,0.900000X0.254000*%
%ADD29R,0.254000X0.900000*%
%ADD30R,0.950000X2.150000*%
%ADD31R,3.250000X2.150000*%
G04 APERTURE END LIST*
%TO.C,U3*%
D10*
X199699520Y-101808000D02*
X198447000Y-101808000D01*
X198447000Y-100555480D01*
X199699520Y-100555480D01*
X199699520Y-101808000D01*
G36*
X199699520Y-101808000D02*
G01*
X198447000Y-101808000D01*
X198447000Y-100555480D01*
X199699520Y-100555480D01*
X199699520Y-101808000D01*
G37*
X199699480Y-103558000D02*
X198447000Y-103558000D01*
X198447000Y-102308413D01*
X199699480Y-102308413D01*
X199699480Y-103558000D01*
G36*
X199699480Y-103558000D02*
G01*
X198447000Y-103558000D01*
X198447000Y-102308413D01*
X199699480Y-102308413D01*
X199699480Y-103558000D01*
G37*
X197946938Y-103558000D02*
X196697000Y-103558000D01*
X196697000Y-102308062D01*
X197946938Y-102308062D01*
X197946938Y-103558000D01*
G36*
X197946938Y-103558000D02*
G01*
X196697000Y-103558000D01*
X196697000Y-102308062D01*
X197946938Y-102308062D01*
X197946938Y-103558000D01*
G37*
X197946544Y-101808000D02*
X196697000Y-101808000D01*
X196697000Y-100555270D01*
X197946544Y-100555270D01*
X197946544Y-101808000D01*
G36*
X197946544Y-101808000D02*
G01*
X196697000Y-101808000D01*
X196697000Y-100555270D01*
X197946544Y-100555270D01*
X197946544Y-101808000D01*
G37*
%TD*%
D11*
%TO.C,C9*%
X174625000Y-106719000D03*
X174625000Y-108419000D03*
%TD*%
D12*
%TO.C,U6*%
X191839850Y-84963000D03*
X191839850Y-86233000D03*
X191839850Y-87503000D03*
X191839850Y-88773000D03*
X197288150Y-88773000D03*
X197288150Y-87503000D03*
X197288150Y-86233000D03*
X197288150Y-84963000D03*
%TD*%
D13*
%TO.C,C15*%
X168998000Y-100838000D03*
X167298000Y-100838000D03*
%TD*%
D14*
%TO.C,R12*%
X200124000Y-85725000D03*
X201704000Y-85725000D03*
%TD*%
D15*
%TO.C,B1*%
X170213000Y-108914999D03*
X164813000Y-108914999D03*
X170213000Y-105715001D03*
X164813000Y-105715001D03*
%TD*%
D16*
%TO.C,D3*%
X183769000Y-75311000D03*
X186817000Y-75311000D03*
%TD*%
D17*
%TO.C,U4*%
X159927000Y-112918000D03*
X159927000Y-110918000D03*
X159927000Y-108918000D03*
X159927000Y-106918000D03*
X159927000Y-104918000D03*
X159927000Y-102918000D03*
X159927000Y-100918000D03*
X159927000Y-98918000D03*
X145127000Y-98918000D03*
X145127000Y-100918000D03*
X145127000Y-102918000D03*
X145127000Y-104918000D03*
X145127000Y-106918000D03*
X145127000Y-108918000D03*
X145127000Y-110918000D03*
X145127000Y-112918000D03*
%TD*%
D13*
%TO.C,C13*%
X163996000Y-98298000D03*
X165696000Y-98298000D03*
%TD*%
D14*
%TO.C,R10*%
X200124000Y-83058000D03*
X201704000Y-83058000D03*
%TD*%
D18*
%TO.C,R4*%
X213360000Y-110970000D03*
X213360000Y-112550000D03*
%TD*%
D19*
%TO.C,C7*%
X190042800Y-79027700D03*
X190042800Y-76386100D03*
%TD*%
D20*
%TO.C,D4*%
X204882052Y-101538999D03*
X204882052Y-102489000D03*
X204882052Y-103439001D03*
X207613948Y-103439001D03*
X207613948Y-101538999D03*
%TD*%
D21*
%TO.C,Y1*%
X166139500Y-94477000D03*
X163839500Y-94477000D03*
X163839500Y-96277000D03*
X166139500Y-96277000D03*
%TD*%
D13*
%TO.C,C14*%
X170014000Y-99060000D03*
X168314000Y-99060000D03*
%TD*%
D14*
%TO.C,R7*%
X178788000Y-74295000D03*
X180368000Y-74295000D03*
%TD*%
D16*
%TO.C,D2*%
X184023000Y-80899000D03*
X187071000Y-80899000D03*
%TD*%
D18*
%TO.C,R3*%
X180543200Y-106601200D03*
X180543200Y-108181200D03*
%TD*%
%TO.C,R1*%
X182422800Y-106753600D03*
X182422800Y-108333600D03*
%TD*%
D13*
%TO.C,C2*%
X187922800Y-107340400D03*
X189622800Y-107340400D03*
%TD*%
D11*
%TO.C,C17*%
X201295000Y-98259000D03*
X201295000Y-96559000D03*
%TD*%
%TO.C,C12*%
X189230000Y-88480000D03*
X189230000Y-86780000D03*
%TD*%
D14*
%TO.C,R9*%
X196032000Y-97282000D03*
X197612000Y-97282000D03*
%TD*%
D22*
%TO.C,AE1*%
X135699500Y-100711000D03*
D23*
X135699500Y-105092500D03*
X135699500Y-96329500D03*
%TD*%
D14*
%TO.C,R13*%
X200124000Y-88392000D03*
X201704000Y-88392000D03*
%TD*%
%TO.C,R8*%
X196032000Y-95377000D03*
X197612000Y-95377000D03*
%TD*%
D24*
%TO.C,D6*%
X206946500Y-88203999D03*
X206946500Y-90104001D03*
X208851500Y-89154000D03*
%TD*%
D13*
%TO.C,C18*%
X142175600Y-105867200D03*
X140475600Y-105867200D03*
%TD*%
D18*
%TO.C,R2*%
X184454800Y-106753600D03*
X184454800Y-108333600D03*
%TD*%
%TO.C,R14*%
X204470000Y-89817000D03*
X204470000Y-88237000D03*
%TD*%
D13*
%TO.C,C8*%
X163996000Y-92456000D03*
X165696000Y-92456000D03*
%TD*%
D14*
%TO.C,R15*%
X200124000Y-90170000D03*
X201704000Y-90170000D03*
%TD*%
%TO.C,R6*%
X186464000Y-84836000D03*
X184884000Y-84836000D03*
%TD*%
D25*
%TO.C,D1*%
X183349200Y-111057600D03*
X184849200Y-111057600D03*
X184849200Y-112157600D03*
X183349200Y-112157600D03*
%TD*%
D26*
%TO.C,U1*%
X172860000Y-90841000D03*
X172860000Y-91341000D03*
X172860000Y-91841000D03*
X172860000Y-92341000D03*
X172860000Y-92841000D03*
X172860000Y-93341000D03*
X172860000Y-93841000D03*
X172860000Y-94341000D03*
X172860000Y-94841000D03*
X172860000Y-95341000D03*
X172860000Y-95841000D03*
X172860000Y-96341000D03*
X172860000Y-96841000D03*
X172860000Y-97341000D03*
X172860000Y-97841000D03*
X172860000Y-98341000D03*
X172860000Y-98841000D03*
X172860000Y-99341000D03*
X172860000Y-99841000D03*
X172860000Y-100341000D03*
X172860000Y-100841000D03*
X172860000Y-101341000D03*
X172860000Y-101841000D03*
X172860000Y-102341000D03*
X172860000Y-102841000D03*
D27*
X174540000Y-104521000D03*
X175040000Y-104521000D03*
X175540000Y-104521000D03*
X176040000Y-104521000D03*
X176540000Y-104521000D03*
X177040000Y-104521000D03*
X177540000Y-104521000D03*
X178040000Y-104521000D03*
X178540000Y-104521000D03*
X179040000Y-104521000D03*
X179540000Y-104521000D03*
X180040000Y-104521000D03*
X180540000Y-104521000D03*
X181040000Y-104521000D03*
X181540000Y-104521000D03*
X182040000Y-104521000D03*
X182540000Y-104521000D03*
X183040000Y-104521000D03*
X183540000Y-104521000D03*
X184040000Y-104521000D03*
X184540000Y-104521000D03*
X185040000Y-104521000D03*
X185540000Y-104521000D03*
X186040000Y-104521000D03*
X186540000Y-104521000D03*
D26*
X188220000Y-102841000D03*
X188220000Y-102341000D03*
X188220000Y-101841000D03*
X188220000Y-101341000D03*
X188220000Y-100841000D03*
X188220000Y-100341000D03*
X188220000Y-99841000D03*
X188220000Y-99341000D03*
X188220000Y-98841000D03*
X188220000Y-98341000D03*
X188220000Y-97841000D03*
X188220000Y-97341000D03*
X188220000Y-96841000D03*
X188220000Y-96341000D03*
X188220000Y-95841000D03*
X188220000Y-95341000D03*
X188220000Y-94841000D03*
X188220000Y-94341000D03*
X188220000Y-93841000D03*
X188220000Y-93341000D03*
X188220000Y-92841000D03*
X188220000Y-92341000D03*
X188220000Y-91841000D03*
X188220000Y-91341000D03*
X188220000Y-90841000D03*
D27*
X186540000Y-89161000D03*
X186040000Y-89161000D03*
X185540000Y-89161000D03*
X185040000Y-89161000D03*
X184540000Y-89161000D03*
X184040000Y-89161000D03*
X183540000Y-89161000D03*
X183040000Y-89161000D03*
X182540000Y-89161000D03*
X182040000Y-89161000D03*
X181540000Y-89161000D03*
X181040000Y-89161000D03*
X180540000Y-89161000D03*
X180040000Y-89161000D03*
X179540000Y-89161000D03*
X179040000Y-89161000D03*
X178540000Y-89161000D03*
X178040000Y-89161000D03*
X177540000Y-89161000D03*
X177040000Y-89161000D03*
X176540000Y-89161000D03*
X176040000Y-89161000D03*
X175540000Y-89161000D03*
X175040000Y-89161000D03*
X174540000Y-89161000D03*
%TD*%
D18*
%TO.C,R11*%
X204089000Y-84483000D03*
X204089000Y-82903000D03*
%TD*%
D28*
%TO.C,U3*%
X200787000Y-103558000D03*
X200787000Y-103058000D03*
X200787000Y-102558000D03*
X200787000Y-102058000D03*
X200787000Y-101558000D03*
X200787000Y-101058000D03*
X200787000Y-100558000D03*
D29*
X199697000Y-99468000D03*
X199197000Y-99468000D03*
X198697000Y-99468000D03*
X198197000Y-99468000D03*
X197697000Y-99468000D03*
X197197000Y-99468000D03*
X196697000Y-99468000D03*
D28*
X195607000Y-100558000D03*
X195607000Y-101058000D03*
X195607000Y-101558000D03*
X195607000Y-102058000D03*
X195607000Y-102558000D03*
X195607000Y-103058000D03*
X195607000Y-103558000D03*
D29*
X196697000Y-104648000D03*
X197197000Y-104648000D03*
X197697000Y-104648000D03*
X198197000Y-104648000D03*
X198697000Y-104648000D03*
X199197000Y-104648000D03*
X199697000Y-104648000D03*
%TD*%
D13*
%TO.C,C19*%
X191350000Y-82804000D03*
X189650000Y-82804000D03*
%TD*%
D24*
%TO.C,D5*%
X206565500Y-82615999D03*
X206565500Y-84516001D03*
X208470500Y-83566000D03*
%TD*%
D13*
%TO.C,C3*%
X190920000Y-91821000D03*
X192620000Y-91821000D03*
%TD*%
D19*
%TO.C,C4*%
X202057000Y-78672100D03*
X202057000Y-76030500D03*
%TD*%
D11*
%TO.C,C16*%
X203073000Y-98259000D03*
X203073000Y-96559000D03*
%TD*%
%TO.C,C6*%
X176149000Y-86956000D03*
X176149000Y-85256000D03*
%TD*%
D13*
%TO.C,C5*%
X188227600Y-105410000D03*
X189927600Y-105410000D03*
%TD*%
D18*
%TO.C,J1*%
X178435000Y-85316000D03*
X178435000Y-86896000D03*
%TD*%
D11*
%TO.C,C10*%
X174371000Y-86956000D03*
X174371000Y-85256000D03*
%TD*%
D13*
%TO.C,C11*%
X170141000Y-95123000D03*
X168441000Y-95123000D03*
%TD*%
D30*
%TO.C,U2*%
X194042000Y-79925500D03*
X196342000Y-79925500D03*
D31*
X196342000Y-74125500D03*
D30*
X198642000Y-79925500D03*
%TD*%
D11*
%TO.C,C1*%
X172720000Y-106084000D03*
X172720000Y-107784000D03*
%TD*%
D18*
%TO.C,R5*%
X215900000Y-110970000D03*
X215900000Y-112550000D03*
%TD*%
M02*
