%TF.GenerationSoftware,KiCad,Pcbnew,(6.0.8)*%
%TF.CreationDate,2022-10-11T12:40:35-07:00*%
%TF.ProjectId,Ground-Station-Telemetry,47726f75-6e64-42d5-9374-6174696f6e2d,rev?*%
%TF.SameCoordinates,Original*%
%TF.FileFunction,Copper,L3,Inr*%
%TF.FilePolarity,Positive*%
%FSLAX46Y46*%
G04 Gerber Fmt 4.6, Leading zero omitted, Abs format (unit mm)*
G04 Created by KiCad (PCBNEW (6.0.8)) date 2022-10-11 12:40:35*
%MOMM*%
%LPD*%
G01*
G04 APERTURE LIST*
%TA.AperFunction,ComponentPad*%
%ADD10R,1.008000X1.008000*%
%TD*%
%TA.AperFunction,ComponentPad*%
%ADD11C,1.008000*%
%TD*%
%TA.AperFunction,ComponentPad*%
%ADD12R,1.478000X1.478000*%
%TD*%
%TA.AperFunction,ComponentPad*%
%ADD13C,1.478000*%
%TD*%
%TA.AperFunction,ComponentPad*%
%ADD14C,3.366000*%
%TD*%
%TA.AperFunction,ComponentPad*%
%ADD15C,1.066800*%
%TD*%
%TA.AperFunction,ViaPad*%
%ADD16C,0.500000*%
%TD*%
%TA.AperFunction,ViaPad*%
%ADD17C,1.016000*%
%TD*%
G04 APERTURE END LIST*
D10*
%TO.N,3.3V*%
%TO.C,U5*%
X141237500Y-95560000D03*
D11*
%TO.N,XBEE_TX*%
X143237500Y-95560000D03*
%TO.N,XBEE_RX*%
X145237500Y-95560000D03*
%TO.N,XBEE_MISO*%
X147237500Y-95560000D03*
%TO.N,~{XBEE_RST}*%
X149237500Y-95560000D03*
%TO.N,XBEE_PWM0*%
X151237500Y-95560000D03*
%TO.N,XBEE_PWM1*%
X153237500Y-95560000D03*
%TO.N,unconnected-(U5-Pad8)*%
X155237500Y-95560000D03*
%TO.N,XBEE_DIO8*%
X157237500Y-95560000D03*
%TO.N,Earth*%
X159237500Y-95560000D03*
%TO.N,XBEE_MOSI*%
X159237500Y-73560000D03*
%TO.N,XBEE_DIO7*%
X157237500Y-73560000D03*
%TO.N,~{XBEE_SLEEP}*%
X155237500Y-73560000D03*
%TO.N,unconnected-(U5-Pad14)*%
X153237500Y-73560000D03*
%TO.N,XBEE_DIO5*%
X151237500Y-73560000D03*
%TO.N,XBEE_DIO6*%
X149237500Y-73560000D03*
%TO.N,XBEE_SS*%
X147237500Y-73560000D03*
%TO.N,XBEE_SCK*%
X145237500Y-73560000D03*
%TO.N,XBEE_DIO1*%
X143237500Y-73560000D03*
%TO.N,XBEE_DIO0*%
X141237500Y-73560000D03*
%TD*%
D12*
%TO.N,5V*%
%TO.C,P2*%
X212545500Y-94508000D03*
D13*
%TO.N,/Connectivity/D-*%
X212545500Y-97008000D03*
%TO.N,/Connectivity/D+*%
X214545500Y-97008000D03*
%TO.N,Earth*%
X214545500Y-94508000D03*
D14*
X217255500Y-101778000D03*
X217255500Y-89738000D03*
%TD*%
D15*
%TO.N,3.3V*%
%TO.C,P1*%
X207899000Y-107303950D03*
X207899000Y-108573950D03*
%TO.N,Earth*%
X206629000Y-107303950D03*
X206629000Y-108573950D03*
X205359000Y-107303950D03*
X205359000Y-108573950D03*
%TO.N,SWDIO*%
X204089000Y-107303950D03*
%TO.N,Earth*%
X204089000Y-108573950D03*
%TO.N,SWCLK*%
X202819000Y-107303950D03*
%TO.N,Earth*%
X202819000Y-108573950D03*
%TO.N,unconnected-(P1-Pad11)*%
X201549000Y-107303950D03*
%TO.N,Earth*%
X201549000Y-108573950D03*
%TO.N,SWO*%
X200279000Y-107303950D03*
%TO.N,Earth*%
X200279000Y-108573950D03*
%TO.N,NRST*%
X199009000Y-107303950D03*
%TO.N,Earth*%
X199009000Y-108573950D03*
%TO.N,unconnected-(P1-Pad17)*%
X197739000Y-107303950D03*
%TO.N,Earth*%
X197739000Y-108573950D03*
%TO.N,unconnected-(P1-Pad19)*%
X196469000Y-107303950D03*
%TO.N,Earth*%
X196469000Y-108573950D03*
%TD*%
D16*
%TO.N,USB_RX*%
X197612000Y-105105200D03*
%TO.N,SWDIO*%
X192379600Y-93827600D03*
%TO.N,3.3V*%
X174377800Y-95841000D03*
X175040000Y-103344000D03*
%TO.N,Earth*%
X203694400Y-93333200D03*
X194818000Y-94996000D03*
%TO.N,3.3V*%
X194360800Y-93776800D03*
X186374600Y-90841000D03*
X173532800Y-88595200D03*
%TO.N,XBEE_SS*%
X179527200Y-82854800D03*
%TO.N,XBEE_DIO6*%
X179832000Y-82143600D03*
%TO.N,XBEE_DIO5*%
X180340000Y-81330800D03*
%TO.N,~{XBEE_SLEEP}*%
X180949600Y-80568800D03*
%TO.N,XBEE_DIO0*%
X171399200Y-85140800D03*
%TO.N,XBEE_DIO1*%
X170891200Y-83718400D03*
%TO.N,XBEE_DIO7*%
X182626000Y-81381600D03*
%TO.N,XBEE_PWM1*%
X177596800Y-100482400D03*
%TO.N,XBEE_PWM0*%
X177850800Y-101650800D03*
%TO.N,XBEE_TX*%
X163271200Y-102362000D03*
%TO.N,LORA_MOSI*%
X169113200Y-104648000D03*
%TO.N,LORA_MISO*%
X168452800Y-105359200D03*
%TO.N,LORA_SCK*%
X167182800Y-104495600D03*
%TO.N,3.3V*%
X170929300Y-99936300D03*
%TO.N,Earth*%
X171284900Y-98513900D03*
%TO.N,NRST*%
X171652999Y-105715001D03*
%TO.N,LORA_IO5*%
X166014400Y-99923600D03*
X168148000Y-97790000D03*
%TO.N,LORA_SCK*%
X183134000Y-102108000D03*
%TO.N,LORA_MOSI*%
X184708800Y-101396800D03*
%TO.N,LORA_MISO*%
X184708800Y-102311200D03*
D17*
%TO.N,Earth*%
X157388800Y-112918000D03*
X142443200Y-100939600D03*
%TO.N,3.3V*%
X147640800Y-106918000D03*
%TO.N,Earth*%
X132080000Y-100736400D03*
X196392800Y-80365600D03*
X196884200Y-85683000D03*
X208127600Y-79705200D03*
%TO.N,3.3V*%
X197459600Y-83312000D03*
D16*
%TO.N,SWO*%
X180086000Y-91135200D03*
%TO.N,USB_TX*%
X190500000Y-94742000D03*
%TO.N,USB_RX*%
X189992000Y-95402400D03*
%TO.N,USB_TX*%
X198374000Y-104546400D03*
%TO.N,SWCLK*%
X188010800Y-89509600D03*
%TO.N,3.3V*%
X187274200Y-104521000D03*
%TO.N,Earth*%
X186625600Y-106361600D03*
%TO.N,3.3V*%
X181813200Y-110337600D03*
%TO.N,Earth*%
X177228500Y-87566500D03*
X168402000Y-94107000D03*
X173648000Y-108419000D03*
X192620000Y-90590000D03*
%TO.N,3.3V*%
X205895000Y-102969000D03*
%TO.N,Earth*%
X198628000Y-100584000D03*
X196850000Y-100584000D03*
X198628000Y-98806000D03*
X196850000Y-98806000D03*
%TO.N,5V*%
X209423000Y-101473000D03*
%TO.N,Earth*%
X203835000Y-99314000D03*
%TD*%
%TA.AperFunction,Conductor*%
%TO.N,3.3V*%
G36*
X140375261Y-72791502D02*
G01*
X140421754Y-72845158D01*
X140431858Y-72915432D01*
X140405145Y-72975174D01*
X140405472Y-72975398D01*
X140404241Y-72977195D01*
X140403662Y-72978491D01*
X140398030Y-72985203D01*
X140302373Y-73159204D01*
X140242334Y-73348471D01*
X140220200Y-73545795D01*
X140236815Y-73743660D01*
X140253096Y-73800440D01*
X140267217Y-73849683D01*
X140291546Y-73934530D01*
X140382308Y-74111133D01*
X140386134Y-74115960D01*
X140501815Y-74261915D01*
X140501819Y-74261920D01*
X140505644Y-74266745D01*
X140656857Y-74395436D01*
X140704024Y-74421797D01*
X140824807Y-74489302D01*
X140824813Y-74489305D01*
X140830185Y-74492307D01*
X141019028Y-74553665D01*
X141216193Y-74577176D01*
X141222328Y-74576704D01*
X141222330Y-74576704D01*
X141408028Y-74562415D01*
X141408033Y-74562414D01*
X141414169Y-74561942D01*
X141420099Y-74560286D01*
X141420101Y-74560286D01*
X141476840Y-74544444D01*
X141605416Y-74508545D01*
X141672626Y-74474595D01*
X141777149Y-74421797D01*
X141777151Y-74421796D01*
X141782650Y-74419018D01*
X141939118Y-74296772D01*
X142005250Y-74220157D01*
X142064833Y-74151130D01*
X142064834Y-74151128D01*
X142068862Y-74146462D01*
X142071907Y-74141102D01*
X142127857Y-74042612D01*
X142178896Y-73993262D01*
X142248514Y-73979339D01*
X142314608Y-74005265D01*
X142349477Y-74047252D01*
X142382308Y-74111133D01*
X142386134Y-74115960D01*
X142501815Y-74261915D01*
X142501819Y-74261920D01*
X142505644Y-74266745D01*
X142656857Y-74395436D01*
X142704024Y-74421797D01*
X142824807Y-74489302D01*
X142824813Y-74489305D01*
X142830185Y-74492307D01*
X143019028Y-74553665D01*
X143216193Y-74577176D01*
X143222328Y-74576704D01*
X143222330Y-74576704D01*
X143408028Y-74562415D01*
X143408033Y-74562414D01*
X143414169Y-74561942D01*
X143420099Y-74560286D01*
X143420101Y-74560286D01*
X143476840Y-74544444D01*
X143605416Y-74508545D01*
X143672626Y-74474595D01*
X143777149Y-74421797D01*
X143777151Y-74421796D01*
X143782650Y-74419018D01*
X143939118Y-74296772D01*
X144005250Y-74220157D01*
X144064833Y-74151130D01*
X144064834Y-74151128D01*
X144068862Y-74146462D01*
X144071907Y-74141102D01*
X144127857Y-74042612D01*
X144178896Y-73993262D01*
X144248514Y-73979339D01*
X144314608Y-74005265D01*
X144349477Y-74047252D01*
X144382308Y-74111133D01*
X144386134Y-74115960D01*
X144501815Y-74261915D01*
X144501819Y-74261920D01*
X144505644Y-74266745D01*
X144656857Y-74395436D01*
X144704024Y-74421797D01*
X144824807Y-74489302D01*
X144824813Y-74489305D01*
X144830185Y-74492307D01*
X145019028Y-74553665D01*
X145216193Y-74577176D01*
X145222328Y-74576704D01*
X145222330Y-74576704D01*
X145408028Y-74562415D01*
X145408033Y-74562414D01*
X145414169Y-74561942D01*
X145420099Y-74560286D01*
X145420101Y-74560286D01*
X145476840Y-74544444D01*
X145605416Y-74508545D01*
X145672626Y-74474595D01*
X145777149Y-74421797D01*
X145777151Y-74421796D01*
X145782650Y-74419018D01*
X145939118Y-74296772D01*
X146005250Y-74220157D01*
X146064833Y-74151130D01*
X146064834Y-74151128D01*
X146068862Y-74146462D01*
X146071907Y-74141102D01*
X146127857Y-74042612D01*
X146178896Y-73993262D01*
X146248514Y-73979339D01*
X146314608Y-74005265D01*
X146349477Y-74047252D01*
X146382308Y-74111133D01*
X146386134Y-74115960D01*
X146501815Y-74261915D01*
X146501819Y-74261920D01*
X146505644Y-74266745D01*
X146656857Y-74395436D01*
X146704024Y-74421797D01*
X146824807Y-74489302D01*
X146824813Y-74489305D01*
X146830185Y-74492307D01*
X147019028Y-74553665D01*
X147216193Y-74577176D01*
X147222328Y-74576704D01*
X147222330Y-74576704D01*
X147408028Y-74562415D01*
X147408033Y-74562414D01*
X147414169Y-74561942D01*
X147420099Y-74560286D01*
X147420101Y-74560286D01*
X147476840Y-74544444D01*
X147605416Y-74508545D01*
X147672626Y-74474595D01*
X147777149Y-74421797D01*
X147777151Y-74421796D01*
X147782650Y-74419018D01*
X147939118Y-74296772D01*
X148005250Y-74220157D01*
X148064833Y-74151130D01*
X148064834Y-74151128D01*
X148068862Y-74146462D01*
X148071907Y-74141102D01*
X148127857Y-74042612D01*
X148178896Y-73993262D01*
X148248514Y-73979339D01*
X148314608Y-74005265D01*
X148349477Y-74047252D01*
X148382308Y-74111133D01*
X148386134Y-74115960D01*
X148501815Y-74261915D01*
X148501819Y-74261920D01*
X148505644Y-74266745D01*
X148656857Y-74395436D01*
X148704024Y-74421797D01*
X148824807Y-74489302D01*
X148824813Y-74489305D01*
X148830185Y-74492307D01*
X149019028Y-74553665D01*
X149216193Y-74577176D01*
X149222328Y-74576704D01*
X149222330Y-74576704D01*
X149408028Y-74562415D01*
X149408033Y-74562414D01*
X149414169Y-74561942D01*
X149420099Y-74560286D01*
X149420101Y-74560286D01*
X149476840Y-74544444D01*
X149605416Y-74508545D01*
X149672626Y-74474595D01*
X149777149Y-74421797D01*
X149777151Y-74421796D01*
X149782650Y-74419018D01*
X149939118Y-74296772D01*
X150005250Y-74220157D01*
X150064833Y-74151130D01*
X150064834Y-74151128D01*
X150068862Y-74146462D01*
X150071907Y-74141102D01*
X150127857Y-74042612D01*
X150178896Y-73993262D01*
X150248514Y-73979339D01*
X150314608Y-74005265D01*
X150349477Y-74047252D01*
X150382308Y-74111133D01*
X150386134Y-74115960D01*
X150501815Y-74261915D01*
X150501819Y-74261920D01*
X150505644Y-74266745D01*
X150656857Y-74395436D01*
X150704024Y-74421797D01*
X150824807Y-74489302D01*
X150824813Y-74489305D01*
X150830185Y-74492307D01*
X151019028Y-74553665D01*
X151216193Y-74577176D01*
X151222328Y-74576704D01*
X151222330Y-74576704D01*
X151408028Y-74562415D01*
X151408033Y-74562414D01*
X151414169Y-74561942D01*
X151420099Y-74560286D01*
X151420101Y-74560286D01*
X151476840Y-74544444D01*
X151605416Y-74508545D01*
X151672626Y-74474595D01*
X151777149Y-74421797D01*
X151777151Y-74421796D01*
X151782650Y-74419018D01*
X151939118Y-74296772D01*
X152005250Y-74220157D01*
X152064833Y-74151130D01*
X152064834Y-74151128D01*
X152068862Y-74146462D01*
X152071907Y-74141102D01*
X152127857Y-74042612D01*
X152178896Y-73993262D01*
X152248514Y-73979339D01*
X152314608Y-74005265D01*
X152349477Y-74047252D01*
X152382308Y-74111133D01*
X152386134Y-74115960D01*
X152501815Y-74261915D01*
X152501819Y-74261920D01*
X152505644Y-74266745D01*
X152656857Y-74395436D01*
X152704024Y-74421797D01*
X152824807Y-74489302D01*
X152824813Y-74489305D01*
X152830185Y-74492307D01*
X153019028Y-74553665D01*
X153216193Y-74577176D01*
X153222328Y-74576704D01*
X153222330Y-74576704D01*
X153408028Y-74562415D01*
X153408033Y-74562414D01*
X153414169Y-74561942D01*
X153420099Y-74560286D01*
X153420101Y-74560286D01*
X153476840Y-74544444D01*
X153605416Y-74508545D01*
X153672626Y-74474595D01*
X153777149Y-74421797D01*
X153777151Y-74421796D01*
X153782650Y-74419018D01*
X153939118Y-74296772D01*
X154005250Y-74220157D01*
X154064833Y-74151130D01*
X154064834Y-74151128D01*
X154068862Y-74146462D01*
X154071907Y-74141102D01*
X154127857Y-74042612D01*
X154178896Y-73993262D01*
X154248514Y-73979339D01*
X154314608Y-74005265D01*
X154349477Y-74047252D01*
X154382308Y-74111133D01*
X154386134Y-74115960D01*
X154501815Y-74261915D01*
X154501819Y-74261920D01*
X154505644Y-74266745D01*
X154656857Y-74395436D01*
X154704024Y-74421797D01*
X154824807Y-74489302D01*
X154824813Y-74489305D01*
X154830185Y-74492307D01*
X155019028Y-74553665D01*
X155216193Y-74577176D01*
X155222328Y-74576704D01*
X155222330Y-74576704D01*
X155408028Y-74562415D01*
X155408033Y-74562414D01*
X155414169Y-74561942D01*
X155420099Y-74560286D01*
X155420101Y-74560286D01*
X155476840Y-74544444D01*
X155605416Y-74508545D01*
X155672626Y-74474595D01*
X155777149Y-74421797D01*
X155777151Y-74421796D01*
X155782650Y-74419018D01*
X155939118Y-74296772D01*
X156005250Y-74220157D01*
X156064833Y-74151130D01*
X156064834Y-74151128D01*
X156068862Y-74146462D01*
X156071907Y-74141102D01*
X156127857Y-74042612D01*
X156178896Y-73993262D01*
X156248514Y-73979339D01*
X156314608Y-74005265D01*
X156349477Y-74047252D01*
X156382308Y-74111133D01*
X156386134Y-74115960D01*
X156501815Y-74261915D01*
X156501819Y-74261920D01*
X156505644Y-74266745D01*
X156656857Y-74395436D01*
X156704024Y-74421797D01*
X156824807Y-74489302D01*
X156824813Y-74489305D01*
X156830185Y-74492307D01*
X157019028Y-74553665D01*
X157216193Y-74577176D01*
X157222328Y-74576704D01*
X157222330Y-74576704D01*
X157408028Y-74562415D01*
X157408033Y-74562414D01*
X157414169Y-74561942D01*
X157420099Y-74560286D01*
X157420101Y-74560286D01*
X157476840Y-74544444D01*
X157605416Y-74508545D01*
X157672626Y-74474595D01*
X157777149Y-74421797D01*
X157777151Y-74421796D01*
X157782650Y-74419018D01*
X157939118Y-74296772D01*
X158005250Y-74220157D01*
X158064833Y-74151130D01*
X158064834Y-74151128D01*
X158068862Y-74146462D01*
X158071907Y-74141102D01*
X158127857Y-74042612D01*
X158178896Y-73993262D01*
X158248514Y-73979339D01*
X158314608Y-74005265D01*
X158349477Y-74047252D01*
X158382308Y-74111133D01*
X158386134Y-74115960D01*
X158501815Y-74261915D01*
X158501819Y-74261920D01*
X158505644Y-74266745D01*
X158656857Y-74395436D01*
X158704024Y-74421797D01*
X158824807Y-74489302D01*
X158824813Y-74489305D01*
X158830185Y-74492307D01*
X159019028Y-74553665D01*
X159216193Y-74577176D01*
X159222328Y-74576704D01*
X159222330Y-74576704D01*
X159408028Y-74562415D01*
X159408033Y-74562414D01*
X159414169Y-74561942D01*
X159420099Y-74560286D01*
X159420101Y-74560286D01*
X159476840Y-74544444D01*
X159605416Y-74508545D01*
X159672626Y-74474595D01*
X159777149Y-74421797D01*
X159777151Y-74421796D01*
X159782650Y-74419018D01*
X159939118Y-74296772D01*
X160005250Y-74220157D01*
X160064833Y-74151130D01*
X160064834Y-74151128D01*
X160068862Y-74146462D01*
X160086190Y-74115960D01*
X160116892Y-74061914D01*
X160166940Y-73973813D01*
X160229616Y-73785403D01*
X160254502Y-73588407D01*
X160254899Y-73560000D01*
X160235523Y-73362386D01*
X160178132Y-73172299D01*
X160168301Y-73153809D01*
X160087807Y-73002422D01*
X160087805Y-73002419D01*
X160084913Y-72996980D01*
X160068728Y-72977135D01*
X160041174Y-72911703D01*
X160053370Y-72841762D01*
X160101443Y-72789517D01*
X160166371Y-72771500D01*
X225425500Y-72771500D01*
X225493621Y-72791502D01*
X225540114Y-72845158D01*
X225551500Y-72897500D01*
X225551500Y-114808500D01*
X225531498Y-114876621D01*
X225477842Y-114923114D01*
X225425500Y-114934500D01*
X131825500Y-114934500D01*
X131757379Y-114914498D01*
X131710886Y-114860842D01*
X131699500Y-114808500D01*
X131699500Y-111298485D01*
X134877854Y-111298485D01*
X134878156Y-111302320D01*
X134901652Y-111600861D01*
X134903370Y-111622695D01*
X134968206Y-111941378D01*
X135071398Y-112249784D01*
X135211405Y-112543316D01*
X135213467Y-112546553D01*
X135213470Y-112546558D01*
X135224325Y-112563597D01*
X135386141Y-112817597D01*
X135388584Y-112820560D01*
X135388585Y-112820562D01*
X135565973Y-113035750D01*
X135593001Y-113068538D01*
X135828902Y-113292399D01*
X135831994Y-113294687D01*
X135846326Y-113305292D01*
X136090326Y-113485843D01*
X136146223Y-113517468D01*
X136370019Y-113644086D01*
X136370023Y-113644088D01*
X136373376Y-113645985D01*
X136376937Y-113647460D01*
X136376939Y-113647461D01*
X136496465Y-113696970D01*
X136673832Y-113770438D01*
X136719818Y-113783191D01*
X136983500Y-113856317D01*
X136983508Y-113856319D01*
X136987216Y-113857347D01*
X137308856Y-113905416D01*
X137312154Y-113905560D01*
X137423918Y-113910440D01*
X137423922Y-113910440D01*
X137425294Y-113910500D01*
X137623598Y-113910500D01*
X137865605Y-113895698D01*
X137869388Y-113894997D01*
X137869395Y-113894996D01*
X138069459Y-113857916D01*
X138185372Y-113836433D01*
X138394682Y-113770438D01*
X138491860Y-113739798D01*
X138491863Y-113739797D01*
X138495532Y-113738640D01*
X138499029Y-113737046D01*
X138499035Y-113737044D01*
X138787954Y-113605376D01*
X138787958Y-113605374D01*
X138791462Y-113603777D01*
X138825147Y-113583135D01*
X139065473Y-113435863D01*
X139065476Y-113435861D01*
X139068751Y-113433854D01*
X139071755Y-113431464D01*
X139071760Y-113431461D01*
X139202337Y-113327595D01*
X139323264Y-113231405D01*
X139325958Y-113228664D01*
X139325962Y-113228660D01*
X139548513Y-113002190D01*
X139548517Y-113002185D01*
X139551208Y-112999447D01*
X139624648Y-112903739D01*
X156367482Y-112903739D01*
X156384162Y-113102386D01*
X156439110Y-113294009D01*
X156530230Y-113471311D01*
X156654053Y-113627537D01*
X156805863Y-113756737D01*
X156811241Y-113759743D01*
X156811243Y-113759744D01*
X156853197Y-113783191D01*
X156979876Y-113853989D01*
X156985735Y-113855893D01*
X156985738Y-113855894D01*
X157021501Y-113867514D01*
X157169465Y-113915591D01*
X157175575Y-113916320D01*
X157175577Y-113916320D01*
X157243114Y-113924373D01*
X157367409Y-113939194D01*
X157373544Y-113938722D01*
X157373546Y-113938722D01*
X157560026Y-113924373D01*
X157560031Y-113924372D01*
X157566167Y-113923900D01*
X157572097Y-113922244D01*
X157572099Y-113922244D01*
X157669690Y-113894996D01*
X157758170Y-113870292D01*
X157763670Y-113867514D01*
X157930602Y-113783191D01*
X157930604Y-113783190D01*
X157936103Y-113780412D01*
X158093190Y-113657682D01*
X158097216Y-113653018D01*
X158219418Y-113511446D01*
X158219419Y-113511444D01*
X158223447Y-113506778D01*
X158321912Y-113333448D01*
X158384835Y-113144294D01*
X158398213Y-113038399D01*
X158409378Y-112950023D01*
X158409379Y-112950013D01*
X158409820Y-112946520D01*
X158410218Y-112918000D01*
X158390765Y-112719606D01*
X158388984Y-112713707D01*
X158388983Y-112713702D01*
X158334929Y-112534667D01*
X158333148Y-112528768D01*
X158239561Y-112352756D01*
X158235671Y-112347986D01*
X158235668Y-112347982D01*
X158117463Y-112203049D01*
X158117460Y-112203046D01*
X158113568Y-112198274D01*
X158066444Y-112159289D01*
X157964719Y-112075135D01*
X157959970Y-112071206D01*
X157784615Y-111976392D01*
X157594185Y-111917444D01*
X157588060Y-111916800D01*
X157588059Y-111916800D01*
X157402060Y-111897251D01*
X157402058Y-111897251D01*
X157395931Y-111896607D01*
X157273052Y-111907790D01*
X157203546Y-111914115D01*
X157203545Y-111914115D01*
X157197405Y-111914674D01*
X157191491Y-111916415D01*
X157191489Y-111916415D01*
X157119486Y-111937607D01*
X157006170Y-111970958D01*
X156829509Y-112063314D01*
X156824709Y-112067174D01*
X156824708Y-112067174D01*
X156819693Y-112071206D01*
X156674151Y-112188225D01*
X156546014Y-112340933D01*
X156449979Y-112515621D01*
X156448118Y-112521488D01*
X156448117Y-112521490D01*
X156441193Y-112543316D01*
X156389702Y-112705635D01*
X156367482Y-112903739D01*
X139624648Y-112903739D01*
X139749185Y-112741439D01*
X139877663Y-112523326D01*
X139912289Y-112464543D01*
X139912291Y-112464540D01*
X139914242Y-112461227D01*
X140043920Y-112162988D01*
X140136285Y-111851169D01*
X140189961Y-111530417D01*
X140204146Y-111205515D01*
X140191473Y-111044485D01*
X218189854Y-111044485D01*
X218190156Y-111048320D01*
X218209542Y-111294638D01*
X218215370Y-111368695D01*
X218280206Y-111687378D01*
X218383398Y-111995784D01*
X218523405Y-112289316D01*
X218525467Y-112292553D01*
X218525470Y-112292558D01*
X218588099Y-112390865D01*
X218698141Y-112563597D01*
X218700584Y-112566560D01*
X218700585Y-112566562D01*
X218850308Y-112748190D01*
X218905001Y-112814538D01*
X219140902Y-113038399D01*
X219402326Y-113231843D01*
X219521885Y-113299486D01*
X219682019Y-113390086D01*
X219682023Y-113390088D01*
X219685376Y-113391985D01*
X219985832Y-113516438D01*
X220089288Y-113545129D01*
X220295500Y-113602317D01*
X220295508Y-113602319D01*
X220299216Y-113603347D01*
X220620856Y-113651416D01*
X220624154Y-113651560D01*
X220735918Y-113656440D01*
X220735922Y-113656440D01*
X220737294Y-113656500D01*
X220935598Y-113656500D01*
X221177605Y-113641698D01*
X221181388Y-113640997D01*
X221181395Y-113640996D01*
X221337489Y-113612065D01*
X221497372Y-113582433D01*
X221706682Y-113516438D01*
X221803860Y-113485798D01*
X221803863Y-113485797D01*
X221807532Y-113484640D01*
X221811029Y-113483046D01*
X221811035Y-113483044D01*
X222099954Y-113351376D01*
X222099958Y-113351374D01*
X222103462Y-113349777D01*
X222121357Y-113338811D01*
X222377473Y-113181863D01*
X222377476Y-113181861D01*
X222380751Y-113179854D01*
X222383755Y-113177464D01*
X222383760Y-113177461D01*
X222524419Y-113065575D01*
X222635264Y-112977405D01*
X222637958Y-112974664D01*
X222637962Y-112974660D01*
X222860513Y-112748190D01*
X222860517Y-112748185D01*
X222863208Y-112745447D01*
X223061185Y-112487439D01*
X223226242Y-112207227D01*
X223355920Y-111908988D01*
X223359588Y-111896607D01*
X223440724Y-111622695D01*
X223448285Y-111597169D01*
X223501961Y-111276417D01*
X223516146Y-110951515D01*
X223503388Y-110789410D01*
X223490932Y-110631140D01*
X223490932Y-110631137D01*
X223490630Y-110627305D01*
X223425794Y-110308622D01*
X223322602Y-110000216D01*
X223182595Y-109706684D01*
X223171742Y-109689647D01*
X223110855Y-109594074D01*
X223007859Y-109432403D01*
X222899717Y-109301216D01*
X222803442Y-109184425D01*
X222803438Y-109184420D01*
X222800999Y-109181462D01*
X222565098Y-108957601D01*
X222303674Y-108764157D01*
X222097807Y-108647683D01*
X222023981Y-108605914D01*
X222023977Y-108605912D01*
X222020624Y-108604015D01*
X222015386Y-108601845D01*
X221794139Y-108510202D01*
X221720168Y-108479562D01*
X221578641Y-108440313D01*
X221410500Y-108393683D01*
X221410492Y-108393681D01*
X221406784Y-108392653D01*
X221085144Y-108344584D01*
X221081846Y-108344440D01*
X220970082Y-108339560D01*
X220970078Y-108339560D01*
X220968706Y-108339500D01*
X220770402Y-108339500D01*
X220528395Y-108354302D01*
X220524612Y-108355003D01*
X220524605Y-108355004D01*
X220368512Y-108383934D01*
X220208628Y-108413567D01*
X220111400Y-108444223D01*
X219902140Y-108510202D01*
X219902137Y-108510203D01*
X219898468Y-108511360D01*
X219894971Y-108512954D01*
X219894965Y-108512956D01*
X219606046Y-108644624D01*
X219606042Y-108644626D01*
X219602538Y-108646223D01*
X219599259Y-108648233D01*
X219599256Y-108648234D01*
X219352139Y-108799668D01*
X219325249Y-108816146D01*
X219322245Y-108818536D01*
X219322240Y-108818539D01*
X219270225Y-108859914D01*
X219070736Y-109018595D01*
X219068042Y-109021336D01*
X219068038Y-109021340D01*
X218845487Y-109247810D01*
X218845483Y-109247815D01*
X218842792Y-109250553D01*
X218780207Y-109332115D01*
X218675771Y-109468219D01*
X218644815Y-109508561D01*
X218479758Y-109788773D01*
X218350080Y-110087012D01*
X218257715Y-110398831D01*
X218204039Y-110719583D01*
X218189854Y-111044485D01*
X140191473Y-111044485D01*
X140191170Y-111040638D01*
X140178932Y-110885140D01*
X140178932Y-110885137D01*
X140178630Y-110881305D01*
X140113794Y-110562622D01*
X140010602Y-110254216D01*
X139870595Y-109960684D01*
X139695859Y-109686403D01*
X139693415Y-109683438D01*
X139491442Y-109438425D01*
X139491438Y-109438420D01*
X139488999Y-109435462D01*
X139253098Y-109211601D01*
X138991674Y-109018157D01*
X138850149Y-108938086D01*
X138711981Y-108859914D01*
X138711977Y-108859912D01*
X138708624Y-108858015D01*
X138408168Y-108733562D01*
X138304712Y-108704871D01*
X138098500Y-108647683D01*
X138098492Y-108647681D01*
X138094784Y-108646653D01*
X137773144Y-108598584D01*
X137769846Y-108598440D01*
X137658082Y-108593560D01*
X137658078Y-108593560D01*
X137656706Y-108593500D01*
X137458402Y-108593500D01*
X137216395Y-108608302D01*
X137212612Y-108609003D01*
X137212605Y-108609004D01*
X137064208Y-108636508D01*
X136896628Y-108667567D01*
X136712058Y-108725762D01*
X136590140Y-108764202D01*
X136590137Y-108764203D01*
X136586468Y-108765360D01*
X136582971Y-108766954D01*
X136582965Y-108766956D01*
X136294046Y-108898624D01*
X136294042Y-108898626D01*
X136290538Y-108900223D01*
X136287259Y-108902233D01*
X136287256Y-108902234D01*
X136097373Y-109018595D01*
X136013249Y-109070146D01*
X136010245Y-109072536D01*
X136010240Y-109072539D01*
X135924064Y-109141087D01*
X135758736Y-109272595D01*
X135756042Y-109275336D01*
X135756038Y-109275340D01*
X135533487Y-109501810D01*
X135533483Y-109501815D01*
X135530792Y-109504553D01*
X135332815Y-109762561D01*
X135167758Y-110042773D01*
X135038080Y-110341012D01*
X134945715Y-110652831D01*
X134892039Y-110973583D01*
X134877854Y-111298485D01*
X131699500Y-111298485D01*
X131699500Y-108408343D01*
X172884775Y-108408343D01*
X172901381Y-108577699D01*
X172903605Y-108584384D01*
X172903605Y-108584385D01*
X172908328Y-108598584D01*
X172955094Y-108739167D01*
X172958741Y-108745189D01*
X172958742Y-108745191D01*
X173000498Y-108814137D01*
X173043246Y-108884723D01*
X173161455Y-109007132D01*
X173181807Y-109020450D01*
X173257751Y-109070146D01*
X173303846Y-109100310D01*
X173310450Y-109102766D01*
X173310452Y-109102767D01*
X173346844Y-109116301D01*
X173463341Y-109159626D01*
X173632015Y-109182132D01*
X173639026Y-109181494D01*
X173639030Y-109181494D01*
X173794462Y-109167348D01*
X173801483Y-109166709D01*
X173808185Y-109164531D01*
X173808187Y-109164531D01*
X173956623Y-109116301D01*
X173956626Y-109116300D01*
X173963322Y-109114124D01*
X174109490Y-109026990D01*
X174114584Y-109022139D01*
X174114588Y-109022136D01*
X174186735Y-108953431D01*
X174232721Y-108909639D01*
X174240040Y-108898624D01*
X174301646Y-108805898D01*
X174326891Y-108767902D01*
X174387319Y-108608825D01*
X174388779Y-108598440D01*
X174391728Y-108577455D01*
X174394275Y-108559332D01*
X195422161Y-108559332D01*
X195426273Y-108608302D01*
X195437450Y-108741395D01*
X195439259Y-108762943D01*
X195440958Y-108768868D01*
X195482717Y-108914498D01*
X195495579Y-108959355D01*
X195498394Y-108964832D01*
X195498395Y-108964835D01*
X195569227Y-109102659D01*
X195588976Y-109141087D01*
X195592799Y-109145911D01*
X195592802Y-109145915D01*
X195678158Y-109253606D01*
X195715894Y-109301216D01*
X195871497Y-109433645D01*
X196049858Y-109533328D01*
X196244185Y-109596468D01*
X196447075Y-109620661D01*
X196453210Y-109620189D01*
X196453212Y-109620189D01*
X196644658Y-109605459D01*
X196644663Y-109605458D01*
X196650799Y-109604986D01*
X196656731Y-109603330D01*
X196656735Y-109603329D01*
X196726834Y-109583757D01*
X196847600Y-109550038D01*
X196853104Y-109547258D01*
X196853106Y-109547257D01*
X197024478Y-109460691D01*
X197024480Y-109460690D01*
X197029979Y-109457912D01*
X197034834Y-109454119D01*
X197038518Y-109451781D01*
X197106752Y-109432169D01*
X197167501Y-109448179D01*
X197263463Y-109501810D01*
X197319858Y-109533328D01*
X197514185Y-109596468D01*
X197717075Y-109620661D01*
X197723210Y-109620189D01*
X197723212Y-109620189D01*
X197914658Y-109605459D01*
X197914663Y-109605458D01*
X197920799Y-109604986D01*
X197926731Y-109603330D01*
X197926735Y-109603329D01*
X197996834Y-109583757D01*
X198117600Y-109550038D01*
X198123104Y-109547258D01*
X198123106Y-109547257D01*
X198294478Y-109460691D01*
X198294480Y-109460690D01*
X198299979Y-109457912D01*
X198304834Y-109454119D01*
X198308518Y-109451781D01*
X198376752Y-109432169D01*
X198437501Y-109448179D01*
X198533463Y-109501810D01*
X198589858Y-109533328D01*
X198784185Y-109596468D01*
X198987075Y-109620661D01*
X198993210Y-109620189D01*
X198993212Y-109620189D01*
X199184658Y-109605459D01*
X199184663Y-109605458D01*
X199190799Y-109604986D01*
X199196731Y-109603330D01*
X199196735Y-109603329D01*
X199266834Y-109583757D01*
X199387600Y-109550038D01*
X199393104Y-109547258D01*
X199393106Y-109547257D01*
X199564478Y-109460691D01*
X199564480Y-109460690D01*
X199569979Y-109457912D01*
X199574834Y-109454119D01*
X199578518Y-109451781D01*
X199646752Y-109432169D01*
X199707501Y-109448179D01*
X199803463Y-109501810D01*
X199859858Y-109533328D01*
X200054185Y-109596468D01*
X200257075Y-109620661D01*
X200263210Y-109620189D01*
X200263212Y-109620189D01*
X200454658Y-109605459D01*
X200454663Y-109605458D01*
X200460799Y-109604986D01*
X200466731Y-109603330D01*
X200466735Y-109603329D01*
X200536834Y-109583757D01*
X200657600Y-109550038D01*
X200663104Y-109547258D01*
X200663106Y-109547257D01*
X200834478Y-109460691D01*
X200834480Y-109460690D01*
X200839979Y-109457912D01*
X200844834Y-109454119D01*
X200848518Y-109451781D01*
X200916752Y-109432169D01*
X200977501Y-109448179D01*
X201073463Y-109501810D01*
X201129858Y-109533328D01*
X201324185Y-109596468D01*
X201527075Y-109620661D01*
X201533210Y-109620189D01*
X201533212Y-109620189D01*
X201724658Y-109605459D01*
X201724663Y-109605458D01*
X201730799Y-109604986D01*
X201736731Y-109603330D01*
X201736735Y-109603329D01*
X201806834Y-109583757D01*
X201927600Y-109550038D01*
X201933104Y-109547258D01*
X201933106Y-109547257D01*
X202104478Y-109460691D01*
X202104480Y-109460690D01*
X202109979Y-109457912D01*
X202114834Y-109454119D01*
X202118518Y-109451781D01*
X202186752Y-109432169D01*
X202247501Y-109448179D01*
X202343463Y-109501810D01*
X202399858Y-109533328D01*
X202594185Y-109596468D01*
X202797075Y-109620661D01*
X202803210Y-109620189D01*
X202803212Y-109620189D01*
X202994658Y-109605459D01*
X202994663Y-109605458D01*
X203000799Y-109604986D01*
X203006731Y-109603330D01*
X203006735Y-109603329D01*
X203076834Y-109583757D01*
X203197600Y-109550038D01*
X203203104Y-109547258D01*
X203203106Y-109547257D01*
X203374478Y-109460691D01*
X203374480Y-109460690D01*
X203379979Y-109457912D01*
X203384834Y-109454119D01*
X203388518Y-109451781D01*
X203456752Y-109432169D01*
X203517501Y-109448179D01*
X203613463Y-109501810D01*
X203669858Y-109533328D01*
X203864185Y-109596468D01*
X204067075Y-109620661D01*
X204073210Y-109620189D01*
X204073212Y-109620189D01*
X204264658Y-109605459D01*
X204264663Y-109605458D01*
X204270799Y-109604986D01*
X204276731Y-109603330D01*
X204276735Y-109603329D01*
X204346834Y-109583757D01*
X204467600Y-109550038D01*
X204473104Y-109547258D01*
X204473106Y-109547257D01*
X204644478Y-109460691D01*
X204644480Y-109460690D01*
X204649979Y-109457912D01*
X204654834Y-109454119D01*
X204658518Y-109451781D01*
X204726752Y-109432169D01*
X204787501Y-109448179D01*
X204883463Y-109501810D01*
X204939858Y-109533328D01*
X205134185Y-109596468D01*
X205337075Y-109620661D01*
X205343210Y-109620189D01*
X205343212Y-109620189D01*
X205534658Y-109605459D01*
X205534663Y-109605458D01*
X205540799Y-109604986D01*
X205546731Y-109603330D01*
X205546735Y-109603329D01*
X205616834Y-109583757D01*
X205737600Y-109550038D01*
X205743104Y-109547258D01*
X205743106Y-109547257D01*
X205914478Y-109460691D01*
X205914480Y-109460690D01*
X205919979Y-109457912D01*
X205924834Y-109454119D01*
X205928518Y-109451781D01*
X205996752Y-109432169D01*
X206057501Y-109448179D01*
X206153463Y-109501810D01*
X206209858Y-109533328D01*
X206404185Y-109596468D01*
X206607075Y-109620661D01*
X206613210Y-109620189D01*
X206613212Y-109620189D01*
X206804658Y-109605459D01*
X206804663Y-109605458D01*
X206810799Y-109604986D01*
X206816731Y-109603330D01*
X206816735Y-109603329D01*
X206886834Y-109583757D01*
X207007600Y-109550038D01*
X207013104Y-109547258D01*
X207013106Y-109547257D01*
X207184480Y-109460690D01*
X207184482Y-109460689D01*
X207189979Y-109457912D01*
X207194833Y-109454120D01*
X207198997Y-109451477D01*
X207267231Y-109431864D01*
X207327982Y-109447874D01*
X207474684Y-109529864D01*
X207485919Y-109534772D01*
X207668434Y-109594074D01*
X207680408Y-109596707D01*
X207870973Y-109619430D01*
X207883222Y-109619687D01*
X208074572Y-109604963D01*
X208086642Y-109602835D01*
X208271486Y-109551226D01*
X208282918Y-109546792D01*
X208419368Y-109477866D01*
X208429654Y-109468219D01*
X208427416Y-109461576D01*
X207707235Y-108741395D01*
X207673209Y-108679083D01*
X207671324Y-108636508D01*
X207675092Y-108606678D01*
X207675093Y-108606667D01*
X207675533Y-108603182D01*
X207675925Y-108575082D01*
X208263408Y-108575082D01*
X208263539Y-108576915D01*
X208267790Y-108583530D01*
X208780159Y-109095899D01*
X208792539Y-109102659D01*
X208799273Y-109097618D01*
X208851926Y-109004934D01*
X208856915Y-108993727D01*
X208917489Y-108811635D01*
X208920207Y-108799668D01*
X208944588Y-108606672D01*
X208945080Y-108599643D01*
X208945390Y-108577455D01*
X208945097Y-108570462D01*
X208926111Y-108376829D01*
X208923728Y-108364794D01*
X208868262Y-108181082D01*
X208863587Y-108169741D01*
X208802261Y-108054402D01*
X208790146Y-108042014D01*
X208271022Y-108561138D01*
X208263408Y-108575082D01*
X207675925Y-108575082D01*
X207675941Y-108573950D01*
X207656002Y-108370598D01*
X207648105Y-108344440D01*
X207628484Y-108279454D01*
X207627943Y-108208459D01*
X207665871Y-108148443D01*
X207730225Y-108118459D01*
X207800574Y-108128027D01*
X207838201Y-108153941D01*
X207886188Y-108201928D01*
X207900132Y-108209542D01*
X207901965Y-108209411D01*
X207908580Y-108205160D01*
X208161978Y-107951762D01*
X208169592Y-107937818D01*
X208169461Y-107935985D01*
X208165210Y-107929370D01*
X207911812Y-107675972D01*
X207897868Y-107668358D01*
X207896035Y-107668489D01*
X207889420Y-107672740D01*
X207839227Y-107722933D01*
X207776915Y-107756959D01*
X207706100Y-107751894D01*
X207649264Y-107709347D01*
X207624453Y-107642827D01*
X207630574Y-107594066D01*
X207647977Y-107541750D01*
X207649924Y-107535898D01*
X207656126Y-107486801D01*
X207675091Y-107336685D01*
X207675092Y-107336672D01*
X207675533Y-107333182D01*
X207675925Y-107305082D01*
X208263408Y-107305082D01*
X208263539Y-107306915D01*
X208267790Y-107313530D01*
X208780159Y-107825899D01*
X208780238Y-107825942D01*
X208789345Y-107835049D01*
X208799273Y-107827617D01*
X208851926Y-107734934D01*
X208856915Y-107723727D01*
X208917489Y-107541635D01*
X208920207Y-107529668D01*
X208944588Y-107336672D01*
X208945080Y-107329643D01*
X208945390Y-107307455D01*
X208945097Y-107300462D01*
X208926111Y-107106829D01*
X208923728Y-107094794D01*
X208868262Y-106911082D01*
X208863587Y-106899741D01*
X208802261Y-106784402D01*
X208792399Y-106774319D01*
X208785273Y-106776887D01*
X208271022Y-107291138D01*
X208263408Y-107305082D01*
X207675925Y-107305082D01*
X207675941Y-107303950D01*
X207669595Y-107239231D01*
X207682854Y-107169485D01*
X207705899Y-107137841D01*
X208421480Y-106422260D01*
X208428240Y-106409880D01*
X208423581Y-106403657D01*
X208309931Y-106342206D01*
X208298625Y-106337454D01*
X208115301Y-106280706D01*
X208103291Y-106278240D01*
X207912434Y-106258181D01*
X207900165Y-106258096D01*
X207709058Y-106275487D01*
X207697002Y-106277787D01*
X207512916Y-106331967D01*
X207501532Y-106336566D01*
X207326008Y-106428327D01*
X207325292Y-106426958D01*
X207264602Y-106445318D01*
X207203643Y-106430158D01*
X207166593Y-106410125D01*
X207034706Y-106338814D01*
X206903067Y-106298065D01*
X206845404Y-106280215D01*
X206845401Y-106280214D01*
X206839517Y-106278393D01*
X206833392Y-106277749D01*
X206833391Y-106277749D01*
X206642437Y-106257679D01*
X206642436Y-106257679D01*
X206636309Y-106257035D01*
X206561119Y-106263878D01*
X206438961Y-106274994D01*
X206438957Y-106274995D01*
X206432823Y-106275553D01*
X206236809Y-106333243D01*
X206055734Y-106427907D01*
X206055053Y-106426605D01*
X205994111Y-106445047D01*
X205933142Y-106429887D01*
X205863909Y-106392453D01*
X205764706Y-106338814D01*
X205633067Y-106298065D01*
X205575404Y-106280215D01*
X205575401Y-106280214D01*
X205569517Y-106278393D01*
X205563392Y-106277749D01*
X205563391Y-106277749D01*
X205372437Y-106257679D01*
X205372436Y-106257679D01*
X205366309Y-106257035D01*
X205291119Y-106263878D01*
X205168961Y-106274994D01*
X205168957Y-106274995D01*
X205162823Y-106275553D01*
X204966809Y-106333243D01*
X204785734Y-106427907D01*
X204785053Y-106426605D01*
X204724111Y-106445047D01*
X204663142Y-106429887D01*
X204593909Y-106392453D01*
X204494706Y-106338814D01*
X204363067Y-106298065D01*
X204305404Y-106280215D01*
X204305401Y-106280214D01*
X204299517Y-106278393D01*
X204293392Y-106277749D01*
X204293391Y-106277749D01*
X204102437Y-106257679D01*
X204102436Y-106257679D01*
X204096309Y-106257035D01*
X204021119Y-106263878D01*
X203898961Y-106274994D01*
X203898957Y-106274995D01*
X203892823Y-106275553D01*
X203696809Y-106333243D01*
X203515734Y-106427907D01*
X203515053Y-106426605D01*
X203454111Y-106445047D01*
X203393142Y-106429887D01*
X203323909Y-106392453D01*
X203224706Y-106338814D01*
X203093067Y-106298065D01*
X203035404Y-106280215D01*
X203035401Y-106280214D01*
X203029517Y-106278393D01*
X203023392Y-106277749D01*
X203023391Y-106277749D01*
X202832437Y-106257679D01*
X202832436Y-106257679D01*
X202826309Y-106257035D01*
X202751119Y-106263878D01*
X202628961Y-106274994D01*
X202628957Y-106274995D01*
X202622823Y-106275553D01*
X202426809Y-106333243D01*
X202245734Y-106427907D01*
X202245053Y-106426605D01*
X202184111Y-106445047D01*
X202123142Y-106429887D01*
X202053909Y-106392453D01*
X201954706Y-106338814D01*
X201823067Y-106298065D01*
X201765404Y-106280215D01*
X201765401Y-106280214D01*
X201759517Y-106278393D01*
X201753392Y-106277749D01*
X201753391Y-106277749D01*
X201562437Y-106257679D01*
X201562436Y-106257679D01*
X201556309Y-106257035D01*
X201481119Y-106263878D01*
X201358961Y-106274994D01*
X201358957Y-106274995D01*
X201352823Y-106275553D01*
X201156809Y-106333243D01*
X200975734Y-106427907D01*
X200975053Y-106426605D01*
X200914111Y-106445047D01*
X200853142Y-106429887D01*
X200783909Y-106392453D01*
X200684706Y-106338814D01*
X200553067Y-106298065D01*
X200495404Y-106280215D01*
X200495401Y-106280214D01*
X200489517Y-106278393D01*
X200483392Y-106277749D01*
X200483391Y-106277749D01*
X200292437Y-106257679D01*
X200292436Y-106257679D01*
X200286309Y-106257035D01*
X200211119Y-106263878D01*
X200088961Y-106274994D01*
X200088957Y-106274995D01*
X200082823Y-106275553D01*
X199886809Y-106333243D01*
X199705734Y-106427907D01*
X199705053Y-106426605D01*
X199644111Y-106445047D01*
X199583142Y-106429887D01*
X199513909Y-106392453D01*
X199414706Y-106338814D01*
X199283067Y-106298065D01*
X199225404Y-106280215D01*
X199225401Y-106280214D01*
X199219517Y-106278393D01*
X199213392Y-106277749D01*
X199213391Y-106277749D01*
X199022437Y-106257679D01*
X199022436Y-106257679D01*
X199016309Y-106257035D01*
X198941119Y-106263878D01*
X198818961Y-106274994D01*
X198818957Y-106274995D01*
X198812823Y-106275553D01*
X198616809Y-106333243D01*
X198435734Y-106427907D01*
X198435053Y-106426605D01*
X198374111Y-106445047D01*
X198313142Y-106429887D01*
X198243909Y-106392453D01*
X198144706Y-106338814D01*
X198013067Y-106298065D01*
X197955404Y-106280215D01*
X197955401Y-106280214D01*
X197949517Y-106278393D01*
X197943392Y-106277749D01*
X197943391Y-106277749D01*
X197752437Y-106257679D01*
X197752436Y-106257679D01*
X197746309Y-106257035D01*
X197671119Y-106263878D01*
X197548961Y-106274994D01*
X197548957Y-106274995D01*
X197542823Y-106275553D01*
X197346809Y-106333243D01*
X197165734Y-106427907D01*
X197165053Y-106426605D01*
X197104111Y-106445047D01*
X197043142Y-106429887D01*
X196973909Y-106392453D01*
X196874706Y-106338814D01*
X196743067Y-106298065D01*
X196685404Y-106280215D01*
X196685401Y-106280214D01*
X196679517Y-106278393D01*
X196673392Y-106277749D01*
X196673391Y-106277749D01*
X196482437Y-106257679D01*
X196482436Y-106257679D01*
X196476309Y-106257035D01*
X196401119Y-106263878D01*
X196278961Y-106274994D01*
X196278957Y-106274995D01*
X196272823Y-106275553D01*
X196076809Y-106333243D01*
X196056330Y-106343949D01*
X195901194Y-106425052D01*
X195901190Y-106425055D01*
X195895734Y-106427907D01*
X195736494Y-106555939D01*
X195605155Y-106712463D01*
X195602191Y-106717855D01*
X195602188Y-106717859D01*
X195565606Y-106784402D01*
X195506720Y-106891516D01*
X195444937Y-107086279D01*
X195422161Y-107289332D01*
X195439259Y-107492943D01*
X195440958Y-107498868D01*
X195491742Y-107675972D01*
X195495579Y-107689355D01*
X195498394Y-107694832D01*
X195498395Y-107694835D01*
X195570455Y-107835049D01*
X195588976Y-107871087D01*
X195590718Y-107873285D01*
X195610479Y-107940265D01*
X195594894Y-108001127D01*
X195506720Y-108161516D01*
X195444937Y-108356279D01*
X195422161Y-108559332D01*
X174394275Y-108559332D01*
X174411001Y-108440313D01*
X174411299Y-108419000D01*
X174392331Y-108249892D01*
X174377903Y-108208459D01*
X174358917Y-108153941D01*
X174336368Y-108089189D01*
X174330383Y-108079610D01*
X174306889Y-108042014D01*
X174246192Y-107944879D01*
X174126286Y-107824132D01*
X174110039Y-107813821D01*
X174012457Y-107751894D01*
X173982608Y-107732951D01*
X173822300Y-107675868D01*
X173653329Y-107655720D01*
X173646326Y-107656456D01*
X173646325Y-107656456D01*
X173491101Y-107672770D01*
X173491097Y-107672771D01*
X173484093Y-107673507D01*
X173477422Y-107675778D01*
X173329673Y-107726075D01*
X173329670Y-107726076D01*
X173323003Y-107728346D01*
X173317005Y-107732036D01*
X173317003Y-107732037D01*
X173184065Y-107813821D01*
X173184063Y-107813823D01*
X173178066Y-107817512D01*
X173056486Y-107936573D01*
X173052675Y-107942487D01*
X173052673Y-107942489D01*
X172968121Y-108073687D01*
X172964304Y-108079610D01*
X172906103Y-108239516D01*
X172884775Y-108408343D01*
X131699500Y-108408343D01*
X131699500Y-104484943D01*
X166419575Y-104484943D01*
X166436181Y-104654299D01*
X166438405Y-104660984D01*
X166438405Y-104660985D01*
X166440920Y-104668546D01*
X166489894Y-104815767D01*
X166493541Y-104821789D01*
X166493542Y-104821791D01*
X166572677Y-104952457D01*
X166578046Y-104961323D01*
X166696255Y-105083732D01*
X166838646Y-105176910D01*
X166845250Y-105179366D01*
X166845252Y-105179367D01*
X166877374Y-105191313D01*
X166998141Y-105236226D01*
X167166815Y-105258732D01*
X167173826Y-105258094D01*
X167173830Y-105258094D01*
X167329262Y-105243948D01*
X167336283Y-105243309D01*
X167342985Y-105241131D01*
X167342987Y-105241131D01*
X167491423Y-105192901D01*
X167491426Y-105192900D01*
X167498122Y-105190724D01*
X167504173Y-105187117D01*
X167504831Y-105186725D01*
X167505309Y-105186602D01*
X167510591Y-105184206D01*
X167511012Y-105185134D01*
X167573587Y-105169028D01*
X167640995Y-105191313D01*
X167685655Y-105246504D01*
X167694350Y-105310748D01*
X167689575Y-105348543D01*
X167706181Y-105517899D01*
X167708405Y-105524584D01*
X167708405Y-105524585D01*
X167718725Y-105555607D01*
X167759894Y-105679367D01*
X167763541Y-105685389D01*
X167763542Y-105685391D01*
X167834467Y-105802501D01*
X167848046Y-105824923D01*
X167966255Y-105947332D01*
X167972151Y-105951190D01*
X168100483Y-106035168D01*
X168108646Y-106040510D01*
X168115250Y-106042966D01*
X168115252Y-106042967D01*
X168187334Y-106069774D01*
X168268141Y-106099826D01*
X168436815Y-106122332D01*
X168443826Y-106121694D01*
X168443830Y-106121694D01*
X168599262Y-106107548D01*
X168606283Y-106106909D01*
X168612985Y-106104731D01*
X168612987Y-106104731D01*
X168761423Y-106056501D01*
X168761426Y-106056500D01*
X168768122Y-106054324D01*
X168914290Y-105967190D01*
X168919384Y-105962339D01*
X168919388Y-105962336D01*
X169019080Y-105867400D01*
X169037521Y-105849839D01*
X169131691Y-105708102D01*
X169133119Y-105704344D01*
X170889774Y-105704344D01*
X170906380Y-105873700D01*
X170908604Y-105880385D01*
X170908604Y-105880386D01*
X170910964Y-105887479D01*
X170960093Y-106035168D01*
X170963740Y-106041190D01*
X170963741Y-106041192D01*
X170999816Y-106100758D01*
X171048245Y-106180724D01*
X171166454Y-106303133D01*
X171210517Y-106331967D01*
X171294346Y-106386823D01*
X171308845Y-106396311D01*
X171315449Y-106398767D01*
X171315451Y-106398768D01*
X171351843Y-106412302D01*
X171468340Y-106455627D01*
X171637014Y-106478133D01*
X171644025Y-106477495D01*
X171644029Y-106477495D01*
X171799461Y-106463349D01*
X171806482Y-106462710D01*
X171813184Y-106460532D01*
X171813186Y-106460532D01*
X171961622Y-106412302D01*
X171961625Y-106412301D01*
X171968321Y-106410125D01*
X172067599Y-106350943D01*
X185862375Y-106350943D01*
X185878981Y-106520299D01*
X185932694Y-106681767D01*
X185936341Y-106687789D01*
X185936342Y-106687791D01*
X185988746Y-106774319D01*
X186020846Y-106827323D01*
X186139055Y-106949732D01*
X186281446Y-107042910D01*
X186288050Y-107045366D01*
X186288052Y-107045367D01*
X186324444Y-107058901D01*
X186440941Y-107102226D01*
X186609615Y-107124732D01*
X186616626Y-107124094D01*
X186616630Y-107124094D01*
X186772062Y-107109948D01*
X186779083Y-107109309D01*
X186785785Y-107107131D01*
X186785787Y-107107131D01*
X186934223Y-107058901D01*
X186934226Y-107058900D01*
X186940922Y-107056724D01*
X187087090Y-106969590D01*
X187092184Y-106964739D01*
X187092188Y-106964736D01*
X187174741Y-106886121D01*
X187210321Y-106852239D01*
X187304491Y-106710502D01*
X187364919Y-106551425D01*
X187388601Y-106382913D01*
X187388899Y-106361600D01*
X187369931Y-106192492D01*
X187367597Y-106185788D01*
X187322857Y-106057315D01*
X187313968Y-106031789D01*
X187307983Y-106022210D01*
X187275854Y-105970794D01*
X187223792Y-105887479D01*
X187216749Y-105880386D01*
X187108848Y-105771729D01*
X187103886Y-105766732D01*
X187087639Y-105756421D01*
X187049006Y-105731904D01*
X186960208Y-105675551D01*
X186799900Y-105618468D01*
X186630929Y-105598320D01*
X186623926Y-105599056D01*
X186623925Y-105599056D01*
X186468701Y-105615370D01*
X186468697Y-105615371D01*
X186461693Y-105616107D01*
X186455022Y-105618378D01*
X186307273Y-105668675D01*
X186307270Y-105668676D01*
X186300603Y-105670946D01*
X186294605Y-105674636D01*
X186294603Y-105674637D01*
X186161665Y-105756421D01*
X186161663Y-105756423D01*
X186155666Y-105760112D01*
X186126201Y-105788967D01*
X186068139Y-105845826D01*
X186034086Y-105879173D01*
X186030275Y-105885087D01*
X186030273Y-105885089D01*
X185945721Y-106016287D01*
X185941904Y-106022210D01*
X185883703Y-106182116D01*
X185862375Y-106350943D01*
X172067599Y-106350943D01*
X172114489Y-106322991D01*
X172119583Y-106318140D01*
X172119587Y-106318137D01*
X172186832Y-106254100D01*
X172237720Y-106205640D01*
X172241806Y-106199491D01*
X172304764Y-106104731D01*
X172331890Y-106063903D01*
X172392318Y-105904826D01*
X172416000Y-105736314D01*
X172416298Y-105715001D01*
X172397330Y-105545893D01*
X172387582Y-105517899D01*
X172343685Y-105391847D01*
X172341367Y-105385190D01*
X172335382Y-105375611D01*
X172312828Y-105339518D01*
X172251191Y-105240880D01*
X172131285Y-105120133D01*
X172115038Y-105109822D01*
X172090962Y-105094543D01*
X196848775Y-105094543D01*
X196865381Y-105263899D01*
X196867605Y-105270584D01*
X196867605Y-105270585D01*
X196886607Y-105327706D01*
X196919094Y-105425367D01*
X196922741Y-105431389D01*
X196922742Y-105431391D01*
X196990037Y-105542507D01*
X197007246Y-105570923D01*
X197125455Y-105693332D01*
X197142283Y-105704344D01*
X197227506Y-105760112D01*
X197267846Y-105786510D01*
X197274450Y-105788966D01*
X197274452Y-105788967D01*
X197310844Y-105802501D01*
X197427341Y-105845826D01*
X197596015Y-105868332D01*
X197603026Y-105867694D01*
X197603030Y-105867694D01*
X197758462Y-105853548D01*
X197765483Y-105852909D01*
X197772185Y-105850731D01*
X197772187Y-105850731D01*
X197920623Y-105802501D01*
X197920626Y-105802500D01*
X197927322Y-105800324D01*
X198073490Y-105713190D01*
X198078584Y-105708339D01*
X198078588Y-105708336D01*
X198145833Y-105644299D01*
X198196721Y-105595839D01*
X198290891Y-105454102D01*
X198293394Y-105447514D01*
X198317413Y-105384284D01*
X198360302Y-105327706D01*
X198423781Y-105303547D01*
X198501859Y-105296441D01*
X198527483Y-105294109D01*
X198534185Y-105291931D01*
X198534187Y-105291931D01*
X198682623Y-105243701D01*
X198682626Y-105243700D01*
X198689322Y-105241524D01*
X198835490Y-105154390D01*
X198840584Y-105149539D01*
X198840588Y-105149536D01*
X198915010Y-105078664D01*
X198958721Y-105037039D01*
X198964702Y-105028038D01*
X199032684Y-104925716D01*
X199052891Y-104895302D01*
X199113319Y-104736225D01*
X199137001Y-104567713D01*
X199137299Y-104546400D01*
X199118331Y-104377292D01*
X199100641Y-104326492D01*
X199064686Y-104223246D01*
X199062368Y-104216589D01*
X199056383Y-104207010D01*
X199026890Y-104159813D01*
X198972192Y-104072279D01*
X198946605Y-104046512D01*
X198872225Y-103971611D01*
X198852286Y-103951532D01*
X198836039Y-103941221D01*
X198778755Y-103904868D01*
X198708608Y-103860351D01*
X198548300Y-103803268D01*
X198379329Y-103783120D01*
X198372326Y-103783856D01*
X198372325Y-103783856D01*
X198217101Y-103800170D01*
X198217097Y-103800171D01*
X198210093Y-103800907D01*
X198203422Y-103803178D01*
X198055673Y-103853475D01*
X198055670Y-103853476D01*
X198049003Y-103855746D01*
X198043005Y-103859436D01*
X198043003Y-103859437D01*
X197910065Y-103941221D01*
X197910063Y-103941223D01*
X197904066Y-103944912D01*
X197881527Y-103966984D01*
X197788454Y-104058129D01*
X197782486Y-104063973D01*
X197690304Y-104207010D01*
X197687894Y-104213632D01*
X197669079Y-104265326D01*
X197626985Y-104322497D01*
X197563848Y-104347541D01*
X197552274Y-104348757D01*
X197455101Y-104358970D01*
X197455097Y-104358971D01*
X197448093Y-104359707D01*
X197441422Y-104361978D01*
X197293673Y-104412275D01*
X197293670Y-104412276D01*
X197287003Y-104414546D01*
X197281005Y-104418236D01*
X197281003Y-104418237D01*
X197148065Y-104500021D01*
X197148063Y-104500023D01*
X197142066Y-104503712D01*
X197137033Y-104508641D01*
X197048267Y-104595568D01*
X197020486Y-104622773D01*
X197016675Y-104628687D01*
X197016673Y-104628689D01*
X196980109Y-104685425D01*
X196928304Y-104765810D01*
X196870103Y-104925716D01*
X196848775Y-105094543D01*
X172090962Y-105094543D01*
X172065940Y-105078664D01*
X171987607Y-105028952D01*
X171827299Y-104971869D01*
X171658328Y-104951721D01*
X171651325Y-104952457D01*
X171651324Y-104952457D01*
X171496100Y-104968771D01*
X171496096Y-104968772D01*
X171489092Y-104969508D01*
X171482421Y-104971779D01*
X171334672Y-105022076D01*
X171334669Y-105022077D01*
X171328002Y-105024347D01*
X171322004Y-105028037D01*
X171322002Y-105028038D01*
X171189064Y-105109822D01*
X171189062Y-105109824D01*
X171183065Y-105113513D01*
X171061485Y-105232574D01*
X171057674Y-105238488D01*
X171057672Y-105238490D01*
X170986747Y-105348543D01*
X170969303Y-105375611D01*
X170911102Y-105535517D01*
X170889774Y-105704344D01*
X169133119Y-105704344D01*
X169173114Y-105599056D01*
X169189619Y-105555607D01*
X169189620Y-105555605D01*
X169192119Y-105549025D01*
X169193494Y-105539239D01*
X169200172Y-105491726D01*
X169229460Y-105427052D01*
X169286009Y-105389429D01*
X169390264Y-105355555D01*
X169421823Y-105345301D01*
X169421826Y-105345300D01*
X169428522Y-105343124D01*
X169574690Y-105255990D01*
X169579784Y-105251139D01*
X169579788Y-105251136D01*
X169677596Y-105157994D01*
X169697921Y-105138639D01*
X169706897Y-105125130D01*
X169772368Y-105026587D01*
X169792091Y-104996902D01*
X169852519Y-104837825D01*
X169876201Y-104669313D01*
X169876499Y-104648000D01*
X169857531Y-104478892D01*
X169801568Y-104318189D01*
X169795583Y-104308610D01*
X169738080Y-104216589D01*
X169711392Y-104173879D01*
X169703359Y-104165789D01*
X169616433Y-104078254D01*
X169591486Y-104053132D01*
X169575239Y-104042821D01*
X169520760Y-104008248D01*
X169447808Y-103961951D01*
X169287500Y-103904868D01*
X169118529Y-103884720D01*
X169111526Y-103885456D01*
X169111525Y-103885456D01*
X168956301Y-103901770D01*
X168956297Y-103901771D01*
X168949293Y-103902507D01*
X168942622Y-103904778D01*
X168794873Y-103955075D01*
X168794870Y-103955076D01*
X168788203Y-103957346D01*
X168782205Y-103961036D01*
X168782203Y-103961037D01*
X168649265Y-104042821D01*
X168649263Y-104042823D01*
X168643266Y-104046512D01*
X168521686Y-104165573D01*
X168517875Y-104171487D01*
X168517873Y-104171489D01*
X168488808Y-104216589D01*
X168429504Y-104308610D01*
X168371303Y-104468516D01*
X168370420Y-104475504D01*
X168370420Y-104475505D01*
X168365708Y-104512804D01*
X168337326Y-104577880D01*
X168281307Y-104616289D01*
X168199725Y-104644062D01*
X168127803Y-104668546D01*
X168121807Y-104672235D01*
X168120814Y-104672702D01*
X168050660Y-104683607D01*
X167985747Y-104654852D01*
X167946685Y-104595568D01*
X167942394Y-104541159D01*
X167945251Y-104520826D01*
X167945801Y-104516913D01*
X167945986Y-104503712D01*
X167946044Y-104499561D01*
X167946044Y-104499555D01*
X167946099Y-104495600D01*
X167927131Y-104326492D01*
X167922159Y-104312213D01*
X167891177Y-104223246D01*
X167871168Y-104165789D01*
X167865183Y-104156210D01*
X167816469Y-104078254D01*
X167780992Y-104021479D01*
X167661086Y-103900732D01*
X167644839Y-103890421D01*
X167593729Y-103857986D01*
X167517408Y-103809551D01*
X167357100Y-103752468D01*
X167188129Y-103732320D01*
X167181126Y-103733056D01*
X167181125Y-103733056D01*
X167025901Y-103749370D01*
X167025897Y-103749371D01*
X167018893Y-103750107D01*
X167012222Y-103752378D01*
X166864473Y-103802675D01*
X166864470Y-103802676D01*
X166857803Y-103804946D01*
X166851805Y-103808636D01*
X166851803Y-103808637D01*
X166718865Y-103890421D01*
X166718863Y-103890423D01*
X166712866Y-103894112D01*
X166591286Y-104013173D01*
X166587475Y-104019087D01*
X166587473Y-104019089D01*
X166502921Y-104150287D01*
X166499104Y-104156210D01*
X166440903Y-104316116D01*
X166419575Y-104484943D01*
X131699500Y-104484943D01*
X131699500Y-102351343D01*
X162507975Y-102351343D01*
X162524581Y-102520699D01*
X162578294Y-102682167D01*
X162581941Y-102688189D01*
X162581942Y-102688191D01*
X162653713Y-102806698D01*
X162666446Y-102827723D01*
X162784655Y-102950132D01*
X162927046Y-103043310D01*
X162933650Y-103045766D01*
X162933652Y-103045767D01*
X162968990Y-103058909D01*
X163086541Y-103102626D01*
X163255215Y-103125132D01*
X163262226Y-103124494D01*
X163262230Y-103124494D01*
X163417662Y-103110348D01*
X163424683Y-103109709D01*
X163431385Y-103107531D01*
X163431387Y-103107531D01*
X163579823Y-103059301D01*
X163579826Y-103059300D01*
X163586522Y-103057124D01*
X163732690Y-102969990D01*
X163737784Y-102965139D01*
X163737788Y-102965136D01*
X163837480Y-102870200D01*
X163855921Y-102852639D01*
X163889673Y-102801839D01*
X163946190Y-102716773D01*
X163950091Y-102710902D01*
X164010519Y-102551825D01*
X164034201Y-102383313D01*
X164034499Y-102362000D01*
X164015531Y-102192892D01*
X163997841Y-102142092D01*
X163982257Y-102097343D01*
X163959568Y-102032189D01*
X163953583Y-102022610D01*
X163924089Y-101975411D01*
X163869392Y-101887879D01*
X163836398Y-101854653D01*
X163781322Y-101799191D01*
X163749486Y-101767132D01*
X163733239Y-101756821D01*
X163670439Y-101716967D01*
X163605808Y-101675951D01*
X163445500Y-101618868D01*
X163276529Y-101598720D01*
X163269526Y-101599456D01*
X163269525Y-101599456D01*
X163114301Y-101615770D01*
X163114297Y-101615771D01*
X163107293Y-101616507D01*
X163100622Y-101618778D01*
X162952873Y-101669075D01*
X162952870Y-101669076D01*
X162946203Y-101671346D01*
X162940205Y-101675036D01*
X162940203Y-101675037D01*
X162807265Y-101756821D01*
X162807263Y-101756823D01*
X162801266Y-101760512D01*
X162767920Y-101793167D01*
X162706743Y-101853077D01*
X162679686Y-101879573D01*
X162675875Y-101885487D01*
X162675873Y-101885489D01*
X162617922Y-101975411D01*
X162587504Y-102022610D01*
X162529303Y-102182516D01*
X162507975Y-102351343D01*
X131699500Y-102351343D01*
X131699500Y-101854653D01*
X131719502Y-101786532D01*
X131773158Y-101740039D01*
X131843432Y-101729935D01*
X131852560Y-101731593D01*
X131854802Y-101732086D01*
X131860665Y-101733991D01*
X132058609Y-101757594D01*
X132064744Y-101757122D01*
X132064746Y-101757122D01*
X132251226Y-101742773D01*
X132251231Y-101742772D01*
X132257367Y-101742300D01*
X132263297Y-101740644D01*
X132263299Y-101740644D01*
X132353368Y-101715496D01*
X132449370Y-101688692D01*
X132460488Y-101683076D01*
X132621802Y-101601591D01*
X132621804Y-101601590D01*
X132627303Y-101598812D01*
X132784390Y-101476082D01*
X132797080Y-101461381D01*
X132910618Y-101329846D01*
X132910619Y-101329844D01*
X132914647Y-101325178D01*
X132918707Y-101318032D01*
X132966051Y-101234691D01*
X133013112Y-101151848D01*
X133076035Y-100962694D01*
X133080754Y-100925339D01*
X141421882Y-100925339D01*
X141438562Y-101123986D01*
X141452257Y-101171746D01*
X141490608Y-101305487D01*
X141493510Y-101315609D01*
X141520041Y-101367233D01*
X141575445Y-101475038D01*
X141584630Y-101492911D01*
X141708453Y-101649137D01*
X141860263Y-101778337D01*
X141865641Y-101781343D01*
X141865643Y-101781344D01*
X141903480Y-101802490D01*
X142034276Y-101875589D01*
X142040135Y-101877493D01*
X142040138Y-101877494D01*
X142072100Y-101887879D01*
X142223865Y-101937191D01*
X142229975Y-101937920D01*
X142229977Y-101937920D01*
X142297514Y-101945973D01*
X142421809Y-101960794D01*
X142427944Y-101960322D01*
X142427946Y-101960322D01*
X142614426Y-101945973D01*
X142614431Y-101945972D01*
X142620567Y-101945500D01*
X142626497Y-101943844D01*
X142626499Y-101943844D01*
X142716569Y-101918696D01*
X142812570Y-101891892D01*
X142818070Y-101889114D01*
X142985002Y-101804791D01*
X142985004Y-101804790D01*
X142990503Y-101802012D01*
X143135546Y-101688692D01*
X143142734Y-101683076D01*
X143147590Y-101679282D01*
X143156108Y-101669414D01*
X143273818Y-101533046D01*
X143273819Y-101533044D01*
X143277847Y-101528378D01*
X143376312Y-101355048D01*
X143439235Y-101165894D01*
X143447606Y-101099635D01*
X143463778Y-100971623D01*
X143463779Y-100971613D01*
X143464220Y-100968120D01*
X143464618Y-100939600D01*
X143445165Y-100741206D01*
X143443384Y-100735307D01*
X143443383Y-100735302D01*
X143389329Y-100556267D01*
X143387548Y-100550368D01*
X143317751Y-100419098D01*
X143296855Y-100379798D01*
X143296853Y-100379795D01*
X143293961Y-100374356D01*
X143290071Y-100369586D01*
X143290068Y-100369582D01*
X143171863Y-100224649D01*
X143171860Y-100224646D01*
X143167968Y-100219874D01*
X143112536Y-100174016D01*
X143067896Y-100137087D01*
X143014370Y-100092806D01*
X142839015Y-99997992D01*
X142648585Y-99939044D01*
X142642460Y-99938400D01*
X142642459Y-99938400D01*
X142456460Y-99918851D01*
X142456458Y-99918851D01*
X142450331Y-99918207D01*
X142327452Y-99929390D01*
X142257946Y-99935715D01*
X142257945Y-99935715D01*
X142251805Y-99936274D01*
X142245891Y-99938015D01*
X142245889Y-99938015D01*
X142130277Y-99972042D01*
X142060570Y-99992558D01*
X141883909Y-100084914D01*
X141879109Y-100088774D01*
X141879108Y-100088774D01*
X141874093Y-100092806D01*
X141728551Y-100209825D01*
X141600414Y-100362533D01*
X141504379Y-100537221D01*
X141502518Y-100543088D01*
X141502517Y-100543090D01*
X141488283Y-100587961D01*
X141444102Y-100727235D01*
X141421882Y-100925339D01*
X133080754Y-100925339D01*
X133086718Y-100878132D01*
X133100578Y-100768423D01*
X133100579Y-100768413D01*
X133101020Y-100764920D01*
X133101418Y-100736400D01*
X133081965Y-100538006D01*
X133080184Y-100532107D01*
X133080183Y-100532102D01*
X133026129Y-100353067D01*
X133024348Y-100347168D01*
X132966668Y-100238687D01*
X132933655Y-100176598D01*
X132933653Y-100176595D01*
X132930761Y-100171156D01*
X132926871Y-100166386D01*
X132926868Y-100166382D01*
X132808663Y-100021449D01*
X132808660Y-100021446D01*
X132804768Y-100016674D01*
X132798274Y-100011301D01*
X132679379Y-99912943D01*
X165251175Y-99912943D01*
X165267781Y-100082299D01*
X165270005Y-100088984D01*
X165270005Y-100088985D01*
X165276956Y-100109879D01*
X165321494Y-100243767D01*
X165325141Y-100249789D01*
X165325142Y-100249791D01*
X165404788Y-100381301D01*
X165409646Y-100389323D01*
X165527855Y-100511732D01*
X165533751Y-100515590D01*
X165622007Y-100573343D01*
X165670246Y-100604910D01*
X165676850Y-100607366D01*
X165676852Y-100607367D01*
X165712107Y-100620478D01*
X165829741Y-100664226D01*
X165998415Y-100686732D01*
X166005426Y-100686094D01*
X166005430Y-100686094D01*
X166160862Y-100671948D01*
X166167883Y-100671309D01*
X166174585Y-100669131D01*
X166174587Y-100669131D01*
X166323023Y-100620901D01*
X166323026Y-100620900D01*
X166329722Y-100618724D01*
X166475890Y-100531590D01*
X166480984Y-100526739D01*
X166480988Y-100526736D01*
X166538736Y-100471743D01*
X176833575Y-100471743D01*
X176850181Y-100641099D01*
X176852405Y-100647784D01*
X176852405Y-100647785D01*
X176853577Y-100651307D01*
X176903894Y-100802567D01*
X176907541Y-100808589D01*
X176907542Y-100808591D01*
X176982828Y-100932902D01*
X176992046Y-100948123D01*
X177110255Y-101070532D01*
X177154733Y-101099638D01*
X177200779Y-101153673D01*
X177210303Y-101224028D01*
X177191649Y-101273324D01*
X177167104Y-101311410D01*
X177147680Y-101364778D01*
X177114715Y-101455349D01*
X177108903Y-101471316D01*
X177087575Y-101640143D01*
X177104181Y-101809499D01*
X177157894Y-101970967D01*
X177161541Y-101976989D01*
X177161542Y-101976991D01*
X177238677Y-102104355D01*
X177246046Y-102116523D01*
X177364255Y-102238932D01*
X177416905Y-102273385D01*
X177458407Y-102300543D01*
X177506646Y-102332110D01*
X177513250Y-102334566D01*
X177513252Y-102334567D01*
X177576428Y-102358062D01*
X177666141Y-102391426D01*
X177834815Y-102413932D01*
X177841826Y-102413294D01*
X177841830Y-102413294D01*
X177997262Y-102399148D01*
X178004283Y-102398509D01*
X178010985Y-102396331D01*
X178010987Y-102396331D01*
X178159423Y-102348101D01*
X178159426Y-102348100D01*
X178166122Y-102345924D01*
X178312290Y-102258790D01*
X178317384Y-102253939D01*
X178317388Y-102253936D01*
X178407499Y-102168124D01*
X178435521Y-102141439D01*
X178464818Y-102097343D01*
X182370775Y-102097343D01*
X182387381Y-102266699D01*
X182441094Y-102428167D01*
X182444741Y-102434189D01*
X182444742Y-102434191D01*
X182519975Y-102558414D01*
X182529246Y-102573723D01*
X182647455Y-102696132D01*
X182670026Y-102710902D01*
X182770917Y-102776923D01*
X182789846Y-102789310D01*
X182796450Y-102791766D01*
X182796452Y-102791767D01*
X182869594Y-102818968D01*
X182949341Y-102848626D01*
X183118015Y-102871132D01*
X183125026Y-102870494D01*
X183125030Y-102870494D01*
X183280462Y-102856348D01*
X183287483Y-102855709D01*
X183294185Y-102853531D01*
X183294187Y-102853531D01*
X183442623Y-102805301D01*
X183442626Y-102805300D01*
X183449322Y-102803124D01*
X183595490Y-102715990D01*
X183600584Y-102711139D01*
X183600588Y-102711136D01*
X183686602Y-102629225D01*
X183718721Y-102598639D01*
X183766529Y-102526682D01*
X183820886Y-102481011D01*
X183891306Y-102471979D01*
X183955430Y-102502452D01*
X183991034Y-102556635D01*
X184015894Y-102631367D01*
X184019541Y-102637389D01*
X184019542Y-102637391D01*
X184067618Y-102716773D01*
X184104046Y-102776923D01*
X184222255Y-102899332D01*
X184364646Y-102992510D01*
X184371250Y-102994966D01*
X184371252Y-102994967D01*
X184407644Y-103008501D01*
X184524141Y-103051826D01*
X184692815Y-103074332D01*
X184699826Y-103073694D01*
X184699830Y-103073694D01*
X184855262Y-103059548D01*
X184862283Y-103058909D01*
X184868985Y-103056731D01*
X184868987Y-103056731D01*
X185017423Y-103008501D01*
X185017426Y-103008500D01*
X185024122Y-103006324D01*
X185170290Y-102919190D01*
X185175384Y-102914339D01*
X185175388Y-102914336D01*
X185266340Y-102827723D01*
X185293521Y-102801839D01*
X185301846Y-102789310D01*
X185340606Y-102730970D01*
X185387691Y-102660102D01*
X185448119Y-102501025D01*
X185471801Y-102332513D01*
X185472099Y-102311200D01*
X185453131Y-102142092D01*
X185445991Y-102121587D01*
X185417177Y-102038846D01*
X185397168Y-101981389D01*
X185391183Y-101971810D01*
X185368361Y-101935288D01*
X185359711Y-101921445D01*
X185340574Y-101853077D01*
X185361616Y-101784948D01*
X185379790Y-101757594D01*
X185387691Y-101745702D01*
X185448119Y-101586625D01*
X185465585Y-101462343D01*
X208659775Y-101462343D01*
X208676381Y-101631699D01*
X208678605Y-101638384D01*
X208678605Y-101638385D01*
X208682182Y-101649137D01*
X208730094Y-101793167D01*
X208733741Y-101799189D01*
X208733742Y-101799191D01*
X208808056Y-101921897D01*
X208818246Y-101938723D01*
X208936455Y-102061132D01*
X208942351Y-102064990D01*
X209070871Y-102149091D01*
X209078846Y-102154310D01*
X209085450Y-102156766D01*
X209085452Y-102156767D01*
X209121844Y-102170301D01*
X209238341Y-102213626D01*
X209407015Y-102236132D01*
X209414026Y-102235494D01*
X209414030Y-102235494D01*
X209569462Y-102221348D01*
X209576483Y-102220709D01*
X209583185Y-102218531D01*
X209583187Y-102218531D01*
X209731623Y-102170301D01*
X209731626Y-102170300D01*
X209738322Y-102168124D01*
X209884490Y-102080990D01*
X209889584Y-102076139D01*
X209889588Y-102076136D01*
X209982091Y-101988046D01*
X210007721Y-101963639D01*
X210019459Y-101945973D01*
X210066221Y-101875589D01*
X210101891Y-101821902D01*
X210127306Y-101754997D01*
X215058999Y-101754997D01*
X215076200Y-102053310D01*
X215077025Y-102057515D01*
X215077026Y-102057523D01*
X215101549Y-102182516D01*
X215133727Y-102346527D01*
X215135114Y-102350578D01*
X215135115Y-102350582D01*
X215229127Y-102625170D01*
X215229131Y-102625179D01*
X215230516Y-102629225D01*
X215266107Y-102699990D01*
X215339628Y-102846169D01*
X215364776Y-102896171D01*
X215438004Y-103002718D01*
X215521698Y-103124494D01*
X215534022Y-103142426D01*
X215735124Y-103363434D01*
X215738413Y-103366184D01*
X215961067Y-103552352D01*
X215961072Y-103552356D01*
X215964359Y-103555104D01*
X216023404Y-103592143D01*
X216213845Y-103711607D01*
X216213849Y-103711609D01*
X216217485Y-103713890D01*
X216489819Y-103836853D01*
X216493938Y-103838073D01*
X216772209Y-103920501D01*
X216772213Y-103920502D01*
X216776322Y-103921719D01*
X216780556Y-103922367D01*
X216780561Y-103922368D01*
X217023783Y-103959586D01*
X217071691Y-103966917D01*
X217223766Y-103969306D01*
X217366171Y-103971544D01*
X217366177Y-103971544D01*
X217370462Y-103971611D01*
X217667106Y-103935713D01*
X217861479Y-103884720D01*
X217951990Y-103860975D01*
X217951991Y-103860975D01*
X217956133Y-103859888D01*
X218232195Y-103745539D01*
X218253390Y-103733154D01*
X218486486Y-103596944D01*
X218486487Y-103596943D01*
X218490184Y-103594783D01*
X218540789Y-103555104D01*
X218721954Y-103413052D01*
X218725326Y-103410408D01*
X218933270Y-103195826D01*
X218935803Y-103192378D01*
X218935807Y-103192373D01*
X219107630Y-102958463D01*
X219110168Y-102955008D01*
X219112214Y-102951240D01*
X219250697Y-102696187D01*
X219250698Y-102696185D01*
X219252747Y-102692411D01*
X219358368Y-102412893D01*
X219397327Y-102242790D01*
X219424120Y-102125807D01*
X219424121Y-102125802D01*
X219425077Y-102121627D01*
X219451639Y-101824003D01*
X219452121Y-101778000D01*
X219450553Y-101754997D01*
X219432090Y-101484161D01*
X219432089Y-101484155D01*
X219431798Y-101479884D01*
X219430795Y-101475038D01*
X219372072Y-101191482D01*
X219371203Y-101187285D01*
X219271459Y-100905617D01*
X219169661Y-100708386D01*
X219136376Y-100643898D01*
X219136376Y-100643897D01*
X219134411Y-100640091D01*
X219130194Y-100634090D01*
X218965062Y-100399132D01*
X218965061Y-100399131D01*
X218962595Y-100395622D01*
X218759191Y-100176732D01*
X218752379Y-100171156D01*
X218607004Y-100052169D01*
X218527961Y-99987473D01*
X218273186Y-99831347D01*
X218212344Y-99804639D01*
X218003511Y-99712968D01*
X217999579Y-99711242D01*
X217970218Y-99702878D01*
X217743576Y-99638317D01*
X217712203Y-99629380D01*
X217462126Y-99593789D01*
X217420629Y-99587883D01*
X217420627Y-99587883D01*
X217416377Y-99587278D01*
X217259582Y-99586457D01*
X217121860Y-99585736D01*
X217121854Y-99585736D01*
X217117573Y-99585714D01*
X217113329Y-99586273D01*
X217113325Y-99586273D01*
X216982941Y-99603439D01*
X216821322Y-99624716D01*
X216817182Y-99625849D01*
X216817180Y-99625849D01*
X216681737Y-99662902D01*
X216533105Y-99703563D01*
X216258255Y-99820796D01*
X216138398Y-99892529D01*
X216005541Y-99972042D01*
X216005537Y-99972045D01*
X216001859Y-99974246D01*
X215998516Y-99976924D01*
X215998512Y-99976927D01*
X215900365Y-100055558D01*
X215768660Y-100161074D01*
X215765716Y-100164176D01*
X215765712Y-100164180D01*
X215566262Y-100374356D01*
X215562974Y-100377821D01*
X215388608Y-100620478D01*
X215248787Y-100884554D01*
X215218206Y-100968120D01*
X215186072Y-101055932D01*
X215146099Y-101165162D01*
X215082444Y-101457111D01*
X215081033Y-101475038D01*
X215059731Y-101745702D01*
X215058999Y-101754997D01*
X210127306Y-101754997D01*
X210162319Y-101662825D01*
X210186001Y-101494313D01*
X210186143Y-101484161D01*
X210186244Y-101476961D01*
X210186244Y-101476955D01*
X210186299Y-101473000D01*
X210167331Y-101303892D01*
X210111368Y-101143189D01*
X210105383Y-101133610D01*
X210068533Y-101074639D01*
X210021192Y-100998879D01*
X209901286Y-100878132D01*
X209885039Y-100867821D01*
X209789088Y-100806929D01*
X209757608Y-100786951D01*
X209597300Y-100729868D01*
X209428329Y-100709720D01*
X209421326Y-100710456D01*
X209421325Y-100710456D01*
X209266101Y-100726770D01*
X209266097Y-100726771D01*
X209259093Y-100727507D01*
X209252422Y-100729778D01*
X209104673Y-100780075D01*
X209104670Y-100780076D01*
X209098003Y-100782346D01*
X209092005Y-100786036D01*
X209092003Y-100786037D01*
X208959065Y-100867821D01*
X208959063Y-100867823D01*
X208953066Y-100871512D01*
X208898100Y-100925339D01*
X208858013Y-100964596D01*
X208831486Y-100990573D01*
X208827675Y-100996487D01*
X208827673Y-100996489D01*
X208745506Y-101123986D01*
X208739304Y-101133610D01*
X208681103Y-101293516D01*
X208659775Y-101462343D01*
X185465585Y-101462343D01*
X185471801Y-101418113D01*
X185472099Y-101396800D01*
X185453131Y-101227692D01*
X185397168Y-101066989D01*
X185393382Y-101060929D01*
X185358341Y-101004854D01*
X185306992Y-100922679D01*
X185281973Y-100897484D01*
X185243066Y-100858305D01*
X185187086Y-100801932D01*
X185170839Y-100791621D01*
X185131798Y-100766845D01*
X185043408Y-100710751D01*
X184883100Y-100653668D01*
X184714129Y-100633520D01*
X184707126Y-100634256D01*
X184707125Y-100634256D01*
X184551901Y-100650570D01*
X184551897Y-100650571D01*
X184544893Y-100651307D01*
X184538222Y-100653578D01*
X184390473Y-100703875D01*
X184390470Y-100703876D01*
X184383803Y-100706146D01*
X184377805Y-100709836D01*
X184377803Y-100709837D01*
X184244865Y-100791621D01*
X184244863Y-100791623D01*
X184238866Y-100795312D01*
X184233833Y-100800241D01*
X184143620Y-100888585D01*
X184117286Y-100914373D01*
X184113475Y-100920287D01*
X184113473Y-100920289D01*
X184030058Y-101049723D01*
X184025104Y-101057410D01*
X183996058Y-101137213D01*
X183985296Y-101166783D01*
X183966903Y-101217316D01*
X183945575Y-101386143D01*
X183961785Y-101551456D01*
X183948526Y-101621203D01*
X183899663Y-101672711D01*
X183830711Y-101689624D01*
X183763560Y-101666574D01*
X183737642Y-101642019D01*
X183735924Y-101639852D01*
X183732192Y-101633879D01*
X183612286Y-101513132D01*
X183596039Y-101502821D01*
X183546395Y-101471316D01*
X183468608Y-101421951D01*
X183308300Y-101364868D01*
X183139329Y-101344720D01*
X183132326Y-101345456D01*
X183132325Y-101345456D01*
X182977101Y-101361770D01*
X182977097Y-101361771D01*
X182970093Y-101362507D01*
X182963422Y-101364778D01*
X182815673Y-101415075D01*
X182815670Y-101415076D01*
X182809003Y-101417346D01*
X182803005Y-101421036D01*
X182803003Y-101421037D01*
X182670065Y-101502821D01*
X182670063Y-101502823D01*
X182664066Y-101506512D01*
X182636971Y-101533046D01*
X182550185Y-101618034D01*
X182542486Y-101625573D01*
X182538675Y-101631487D01*
X182538673Y-101631489D01*
X182457403Y-101757594D01*
X182450304Y-101768610D01*
X182392103Y-101928516D01*
X182370775Y-102097343D01*
X178464818Y-102097343D01*
X178529691Y-101999702D01*
X178590119Y-101840625D01*
X178613801Y-101672113D01*
X178613931Y-101662825D01*
X178614044Y-101654761D01*
X178614044Y-101654755D01*
X178614099Y-101650800D01*
X178595131Y-101481692D01*
X178539168Y-101320989D01*
X178533183Y-101311410D01*
X178470249Y-101210697D01*
X178448992Y-101176679D01*
X178329086Y-101055932D01*
X178319256Y-101049694D01*
X178295183Y-101034416D01*
X178248385Y-100981026D01*
X178237881Y-100910811D01*
X178257751Y-100858305D01*
X178271790Y-100837175D01*
X178271794Y-100837168D01*
X178275691Y-100831302D01*
X178284950Y-100806929D01*
X178333616Y-100678814D01*
X178336119Y-100672225D01*
X178350015Y-100573343D01*
X196086775Y-100573343D01*
X196103381Y-100742699D01*
X196157094Y-100904167D01*
X196160741Y-100910189D01*
X196160742Y-100910191D01*
X196235976Y-101034416D01*
X196245246Y-101049723D01*
X196363455Y-101172132D01*
X196505846Y-101265310D01*
X196512450Y-101267766D01*
X196512452Y-101267767D01*
X196548844Y-101281301D01*
X196665341Y-101324626D01*
X196834015Y-101347132D01*
X196841026Y-101346494D01*
X196841030Y-101346494D01*
X196996462Y-101332348D01*
X197003483Y-101331709D01*
X197010185Y-101329531D01*
X197010187Y-101329531D01*
X197158623Y-101281301D01*
X197158626Y-101281300D01*
X197165322Y-101279124D01*
X197311490Y-101191990D01*
X197316584Y-101187139D01*
X197316588Y-101187136D01*
X197389348Y-101117847D01*
X197434721Y-101074639D01*
X197441769Y-101064032D01*
X197490574Y-100990573D01*
X197528891Y-100932902D01*
X197589319Y-100773825D01*
X197590571Y-100764920D01*
X197595164Y-100732233D01*
X197613001Y-100605313D01*
X197613299Y-100584000D01*
X197612104Y-100573343D01*
X197864775Y-100573343D01*
X197881381Y-100742699D01*
X197935094Y-100904167D01*
X197938741Y-100910189D01*
X197938742Y-100910191D01*
X198013976Y-101034416D01*
X198023246Y-101049723D01*
X198141455Y-101172132D01*
X198283846Y-101265310D01*
X198290450Y-101267766D01*
X198290452Y-101267767D01*
X198326844Y-101281301D01*
X198443341Y-101324626D01*
X198612015Y-101347132D01*
X198619026Y-101346494D01*
X198619030Y-101346494D01*
X198774462Y-101332348D01*
X198781483Y-101331709D01*
X198788185Y-101329531D01*
X198788187Y-101329531D01*
X198936623Y-101281301D01*
X198936626Y-101281300D01*
X198943322Y-101279124D01*
X199089490Y-101191990D01*
X199094584Y-101187139D01*
X199094588Y-101187136D01*
X199167348Y-101117847D01*
X199212721Y-101074639D01*
X199219769Y-101064032D01*
X199268574Y-100990573D01*
X199306891Y-100932902D01*
X199367319Y-100773825D01*
X199368571Y-100764920D01*
X199373164Y-100732233D01*
X199391001Y-100605313D01*
X199391299Y-100584000D01*
X199372331Y-100414892D01*
X199365621Y-100395622D01*
X199318686Y-100260846D01*
X199316368Y-100254189D01*
X199310383Y-100244610D01*
X199267883Y-100176598D01*
X199226192Y-100109879D01*
X199106286Y-99989132D01*
X199090039Y-99978821D01*
X199036608Y-99944913D01*
X198962608Y-99897951D01*
X198802300Y-99840868D01*
X198633329Y-99820720D01*
X198626326Y-99821456D01*
X198626325Y-99821456D01*
X198471101Y-99837770D01*
X198471097Y-99837771D01*
X198464093Y-99838507D01*
X198457422Y-99840778D01*
X198309673Y-99891075D01*
X198309670Y-99891076D01*
X198303003Y-99893346D01*
X198297005Y-99897036D01*
X198297003Y-99897037D01*
X198164065Y-99978821D01*
X198164063Y-99978823D01*
X198158066Y-99982512D01*
X198123181Y-100016674D01*
X198062096Y-100076494D01*
X198036486Y-100101573D01*
X198032675Y-100107487D01*
X198032673Y-100107489D01*
X197960245Y-100219874D01*
X197944304Y-100244610D01*
X197923082Y-100302916D01*
X197894553Y-100381301D01*
X197886103Y-100404516D01*
X197864775Y-100573343D01*
X197612104Y-100573343D01*
X197594331Y-100414892D01*
X197587621Y-100395622D01*
X197540686Y-100260846D01*
X197538368Y-100254189D01*
X197532383Y-100244610D01*
X197489883Y-100176598D01*
X197448192Y-100109879D01*
X197328286Y-99989132D01*
X197312039Y-99978821D01*
X197258608Y-99944913D01*
X197184608Y-99897951D01*
X197024300Y-99840868D01*
X196855329Y-99820720D01*
X196848326Y-99821456D01*
X196848325Y-99821456D01*
X196693101Y-99837770D01*
X196693097Y-99837771D01*
X196686093Y-99838507D01*
X196679422Y-99840778D01*
X196531673Y-99891075D01*
X196531670Y-99891076D01*
X196525003Y-99893346D01*
X196519005Y-99897036D01*
X196519003Y-99897037D01*
X196386065Y-99978821D01*
X196386063Y-99978823D01*
X196380066Y-99982512D01*
X196345181Y-100016674D01*
X196284096Y-100076494D01*
X196258486Y-100101573D01*
X196254675Y-100107487D01*
X196254673Y-100107489D01*
X196182245Y-100219874D01*
X196166304Y-100244610D01*
X196145082Y-100302916D01*
X196116553Y-100381301D01*
X196108103Y-100404516D01*
X196086775Y-100573343D01*
X178350015Y-100573343D01*
X178359801Y-100503713D01*
X178360099Y-100482400D01*
X178341131Y-100313292D01*
X178319018Y-100249791D01*
X178303756Y-100205966D01*
X178285168Y-100152589D01*
X178279183Y-100143010D01*
X178241096Y-100082060D01*
X178194992Y-100008279D01*
X178179381Y-99992558D01*
X178128148Y-99940966D01*
X178075086Y-99887532D01*
X178058839Y-99877221D01*
X178001555Y-99840868D01*
X177931408Y-99796351D01*
X177771100Y-99739268D01*
X177602129Y-99719120D01*
X177595126Y-99719856D01*
X177595125Y-99719856D01*
X177439901Y-99736170D01*
X177439897Y-99736171D01*
X177432893Y-99736907D01*
X177426222Y-99739178D01*
X177278473Y-99789475D01*
X177278470Y-99789476D01*
X177271803Y-99791746D01*
X177265805Y-99795436D01*
X177265803Y-99795437D01*
X177132865Y-99877221D01*
X177132863Y-99877223D01*
X177126866Y-99880912D01*
X177094157Y-99912943D01*
X177011254Y-99994129D01*
X177005286Y-99999973D01*
X177001475Y-100005887D01*
X177001473Y-100005889D01*
X176932170Y-100113425D01*
X176913104Y-100143010D01*
X176854903Y-100302916D01*
X176833575Y-100471743D01*
X166538736Y-100471743D01*
X166548233Y-100462699D01*
X166599121Y-100414239D01*
X166633475Y-100362533D01*
X166673084Y-100302916D01*
X166693291Y-100272502D01*
X166753719Y-100113425D01*
X166777401Y-99944913D01*
X166777699Y-99923600D01*
X166758731Y-99754492D01*
X166753430Y-99739268D01*
X166714502Y-99627484D01*
X166702768Y-99593789D01*
X166698700Y-99587278D01*
X166650669Y-99510414D01*
X166612592Y-99449479D01*
X166557631Y-99394132D01*
X166497648Y-99333729D01*
X166492686Y-99328732D01*
X166476439Y-99318421D01*
X166410834Y-99276787D01*
X166349008Y-99237551D01*
X166188700Y-99180468D01*
X166019729Y-99160320D01*
X166012726Y-99161056D01*
X166012725Y-99161056D01*
X165857501Y-99177370D01*
X165857497Y-99177371D01*
X165850493Y-99178107D01*
X165843822Y-99180378D01*
X165696073Y-99230675D01*
X165696070Y-99230676D01*
X165689403Y-99232946D01*
X165683405Y-99236636D01*
X165683403Y-99236637D01*
X165550465Y-99318421D01*
X165550463Y-99318423D01*
X165544466Y-99322112D01*
X165422886Y-99441173D01*
X165419075Y-99447087D01*
X165419073Y-99447089D01*
X165384250Y-99501124D01*
X165330704Y-99584210D01*
X165272503Y-99744116D01*
X165251175Y-99912943D01*
X132679379Y-99912943D01*
X132651170Y-99889606D01*
X132475815Y-99794792D01*
X132285385Y-99735844D01*
X132279260Y-99735200D01*
X132279259Y-99735200D01*
X132093260Y-99715651D01*
X132093258Y-99715651D01*
X132087131Y-99715007D01*
X131964252Y-99726190D01*
X131894746Y-99732515D01*
X131894745Y-99732515D01*
X131888605Y-99733074D01*
X131861074Y-99741177D01*
X131790080Y-99741223D01*
X131730329Y-99702878D01*
X131700794Y-99638317D01*
X131699500Y-99620304D01*
X131699500Y-97779343D01*
X167384775Y-97779343D01*
X167401381Y-97948699D01*
X167403605Y-97955384D01*
X167403605Y-97955385D01*
X167409413Y-97972845D01*
X167455094Y-98110167D01*
X167458741Y-98116189D01*
X167458742Y-98116191D01*
X167534475Y-98241240D01*
X167543246Y-98255723D01*
X167661455Y-98378132D01*
X167667351Y-98381990D01*
X167796664Y-98466610D01*
X167803846Y-98471310D01*
X167810450Y-98473766D01*
X167810452Y-98473767D01*
X167883593Y-98500968D01*
X167963341Y-98530626D01*
X168132015Y-98553132D01*
X168139026Y-98552494D01*
X168139030Y-98552494D01*
X168294462Y-98538348D01*
X168301483Y-98537709D01*
X168308185Y-98535531D01*
X168308187Y-98535531D01*
X168407559Y-98503243D01*
X170521675Y-98503243D01*
X170538281Y-98672599D01*
X170591994Y-98834067D01*
X170595641Y-98840089D01*
X170595642Y-98840091D01*
X170671108Y-98964699D01*
X170680146Y-98979623D01*
X170798355Y-99102032D01*
X170828701Y-99121890D01*
X170913484Y-99177370D01*
X170940746Y-99195210D01*
X170947350Y-99197666D01*
X170947352Y-99197667D01*
X170983744Y-99211201D01*
X171100241Y-99254526D01*
X171268915Y-99277032D01*
X171275926Y-99276394D01*
X171275930Y-99276394D01*
X171431362Y-99262248D01*
X171438383Y-99261609D01*
X171445085Y-99259431D01*
X171445087Y-99259431D01*
X171593523Y-99211201D01*
X171593526Y-99211200D01*
X171600222Y-99209024D01*
X171746390Y-99121890D01*
X171751484Y-99117039D01*
X171751488Y-99117036D01*
X171818733Y-99052999D01*
X171869621Y-99004539D01*
X171900748Y-98957690D01*
X171959890Y-98868673D01*
X171963791Y-98862802D01*
X171989416Y-98795343D01*
X196086775Y-98795343D01*
X196103381Y-98964699D01*
X196105605Y-98971384D01*
X196105605Y-98971385D01*
X196108881Y-98981232D01*
X196157094Y-99126167D01*
X196160741Y-99132189D01*
X196160742Y-99132191D01*
X196239508Y-99262248D01*
X196245246Y-99271723D01*
X196363455Y-99394132D01*
X196505846Y-99487310D01*
X196512450Y-99489766D01*
X196512452Y-99489767D01*
X196548844Y-99503301D01*
X196665341Y-99546626D01*
X196834015Y-99569132D01*
X196841026Y-99568494D01*
X196841030Y-99568494D01*
X196996462Y-99554348D01*
X197003483Y-99553709D01*
X197010185Y-99551531D01*
X197010187Y-99551531D01*
X197158623Y-99503301D01*
X197158626Y-99503300D01*
X197165322Y-99501124D01*
X197311490Y-99413990D01*
X197316584Y-99409139D01*
X197316588Y-99409136D01*
X197394109Y-99335313D01*
X197434721Y-99296639D01*
X197457571Y-99262248D01*
X197502110Y-99195210D01*
X197528891Y-99154902D01*
X197589319Y-98995825D01*
X197613001Y-98827313D01*
X197613299Y-98806000D01*
X197612104Y-98795343D01*
X197864775Y-98795343D01*
X197881381Y-98964699D01*
X197883605Y-98971384D01*
X197883605Y-98971385D01*
X197886881Y-98981232D01*
X197935094Y-99126167D01*
X197938741Y-99132189D01*
X197938742Y-99132191D01*
X198017508Y-99262248D01*
X198023246Y-99271723D01*
X198141455Y-99394132D01*
X198283846Y-99487310D01*
X198290450Y-99489766D01*
X198290452Y-99489767D01*
X198326844Y-99503301D01*
X198443341Y-99546626D01*
X198612015Y-99569132D01*
X198619026Y-99568494D01*
X198619030Y-99568494D01*
X198774462Y-99554348D01*
X198781483Y-99553709D01*
X198788185Y-99551531D01*
X198788187Y-99551531D01*
X198936623Y-99503301D01*
X198936626Y-99503300D01*
X198943322Y-99501124D01*
X199089490Y-99413990D01*
X199094584Y-99409139D01*
X199094588Y-99409136D01*
X199172109Y-99335313D01*
X199205681Y-99303343D01*
X203071775Y-99303343D01*
X203088381Y-99472699D01*
X203142094Y-99634167D01*
X203145741Y-99640189D01*
X203145742Y-99640191D01*
X203214966Y-99754492D01*
X203230246Y-99779723D01*
X203348455Y-99902132D01*
X203407647Y-99940866D01*
X203478870Y-99987473D01*
X203490846Y-99995310D01*
X203497450Y-99997766D01*
X203497452Y-99997767D01*
X203548292Y-100016674D01*
X203650341Y-100054626D01*
X203819015Y-100077132D01*
X203826026Y-100076494D01*
X203826030Y-100076494D01*
X203981462Y-100062348D01*
X203988483Y-100061709D01*
X203995185Y-100059531D01*
X203995187Y-100059531D01*
X204143623Y-100011301D01*
X204143626Y-100011300D01*
X204150322Y-100009124D01*
X204296490Y-99921990D01*
X204301584Y-99917139D01*
X204301588Y-99917136D01*
X204389321Y-99833588D01*
X204419721Y-99804639D01*
X204426264Y-99794792D01*
X204509990Y-99668773D01*
X204513891Y-99662902D01*
X204574319Y-99503825D01*
X204598001Y-99335313D01*
X204598186Y-99322112D01*
X204598244Y-99317961D01*
X204598244Y-99317955D01*
X204598299Y-99314000D01*
X204579331Y-99144892D01*
X204569631Y-99117036D01*
X204532147Y-99009398D01*
X204523368Y-98984189D01*
X204517383Y-98974610D01*
X204495420Y-98939464D01*
X204433192Y-98839879D01*
X204427421Y-98834067D01*
X204318248Y-98724129D01*
X204313286Y-98719132D01*
X204297039Y-98708821D01*
X204194725Y-98643891D01*
X204169608Y-98627951D01*
X204009300Y-98570868D01*
X203840329Y-98550720D01*
X203833326Y-98551456D01*
X203833325Y-98551456D01*
X203678101Y-98567770D01*
X203678097Y-98567771D01*
X203671093Y-98568507D01*
X203664422Y-98570778D01*
X203516673Y-98621075D01*
X203516670Y-98621076D01*
X203510003Y-98623346D01*
X203504005Y-98627036D01*
X203504003Y-98627037D01*
X203371065Y-98708821D01*
X203371063Y-98708823D01*
X203365066Y-98712512D01*
X203360033Y-98717441D01*
X203251867Y-98823366D01*
X203243486Y-98831573D01*
X203239675Y-98837487D01*
X203239673Y-98837489D01*
X203223360Y-98862802D01*
X203151304Y-98974610D01*
X203093103Y-99134516D01*
X203071775Y-99303343D01*
X199205681Y-99303343D01*
X199212721Y-99296639D01*
X199235571Y-99262248D01*
X199280110Y-99195210D01*
X199306891Y-99154902D01*
X199367319Y-98995825D01*
X199391001Y-98827313D01*
X199391299Y-98806000D01*
X199372331Y-98636892D01*
X199369218Y-98627951D01*
X199347183Y-98564678D01*
X199316368Y-98476189D01*
X199310909Y-98467452D01*
X199255094Y-98378132D01*
X199226192Y-98331879D01*
X199106286Y-98211132D01*
X199090039Y-98200821D01*
X199001721Y-98144773D01*
X198962608Y-98119951D01*
X198802300Y-98062868D01*
X198633329Y-98042720D01*
X198626326Y-98043456D01*
X198626325Y-98043456D01*
X198471101Y-98059770D01*
X198471097Y-98059771D01*
X198464093Y-98060507D01*
X198457422Y-98062778D01*
X198309673Y-98113075D01*
X198309670Y-98113076D01*
X198303003Y-98115346D01*
X198297005Y-98119036D01*
X198297003Y-98119037D01*
X198164065Y-98200821D01*
X198164063Y-98200823D01*
X198158066Y-98204512D01*
X198036486Y-98323573D01*
X198032675Y-98329487D01*
X198032673Y-98329489D01*
X197998838Y-98381990D01*
X197944304Y-98466610D01*
X197886103Y-98626516D01*
X197864775Y-98795343D01*
X197612104Y-98795343D01*
X197594331Y-98636892D01*
X197591218Y-98627951D01*
X197569183Y-98564678D01*
X197538368Y-98476189D01*
X197532909Y-98467452D01*
X197477094Y-98378132D01*
X197448192Y-98331879D01*
X197328286Y-98211132D01*
X197312039Y-98200821D01*
X197223721Y-98144773D01*
X197184608Y-98119951D01*
X197024300Y-98062868D01*
X196855329Y-98042720D01*
X196848326Y-98043456D01*
X196848325Y-98043456D01*
X196693101Y-98059770D01*
X196693097Y-98059771D01*
X196686093Y-98060507D01*
X196679422Y-98062778D01*
X196531673Y-98113075D01*
X196531670Y-98113076D01*
X196525003Y-98115346D01*
X196519005Y-98119036D01*
X196519003Y-98119037D01*
X196386065Y-98200821D01*
X196386063Y-98200823D01*
X196380066Y-98204512D01*
X196258486Y-98323573D01*
X196254675Y-98329487D01*
X196254673Y-98329489D01*
X196220838Y-98381990D01*
X196166304Y-98466610D01*
X196108103Y-98626516D01*
X196086775Y-98795343D01*
X171989416Y-98795343D01*
X172024219Y-98703725D01*
X172047901Y-98535213D01*
X172048199Y-98513900D01*
X172029231Y-98344792D01*
X171973268Y-98184089D01*
X171967283Y-98174510D01*
X171933190Y-98119951D01*
X171883092Y-98039779D01*
X171763186Y-97919032D01*
X171746939Y-97908721D01*
X171672256Y-97861326D01*
X171619508Y-97827851D01*
X171459200Y-97770768D01*
X171290229Y-97750620D01*
X171283226Y-97751356D01*
X171283225Y-97751356D01*
X171128001Y-97767670D01*
X171127997Y-97767671D01*
X171120993Y-97768407D01*
X171114322Y-97770678D01*
X170966573Y-97820975D01*
X170966570Y-97820976D01*
X170959903Y-97823246D01*
X170953905Y-97826936D01*
X170953903Y-97826937D01*
X170820965Y-97908721D01*
X170820963Y-97908723D01*
X170814966Y-97912412D01*
X170693386Y-98031473D01*
X170689575Y-98037387D01*
X170689573Y-98037389D01*
X170639333Y-98115346D01*
X170601204Y-98174510D01*
X170598794Y-98181132D01*
X170546950Y-98323573D01*
X170543003Y-98334416D01*
X170521675Y-98503243D01*
X168407559Y-98503243D01*
X168456623Y-98487301D01*
X168456626Y-98487300D01*
X168463322Y-98485124D01*
X168609490Y-98397990D01*
X168614584Y-98393139D01*
X168614588Y-98393136D01*
X168687636Y-98323573D01*
X168732721Y-98280639D01*
X168746258Y-98260265D01*
X168795488Y-98186167D01*
X168826891Y-98138902D01*
X168887319Y-97979825D01*
X168889081Y-97967291D01*
X168895160Y-97924029D01*
X168911001Y-97811313D01*
X168911299Y-97790000D01*
X168892331Y-97620892D01*
X168836368Y-97460189D01*
X168830383Y-97450610D01*
X168808420Y-97415464D01*
X168746192Y-97315879D01*
X168626286Y-97195132D01*
X168610039Y-97184821D01*
X168571406Y-97160304D01*
X168482608Y-97103951D01*
X168322300Y-97046868D01*
X168153329Y-97026720D01*
X168146326Y-97027456D01*
X168146325Y-97027456D01*
X167991101Y-97043770D01*
X167991097Y-97043771D01*
X167984093Y-97044507D01*
X167977422Y-97046778D01*
X167829673Y-97097075D01*
X167829670Y-97097076D01*
X167823003Y-97099346D01*
X167817005Y-97103036D01*
X167817003Y-97103037D01*
X167684065Y-97184821D01*
X167684063Y-97184823D01*
X167678066Y-97188512D01*
X167556486Y-97307573D01*
X167552675Y-97313487D01*
X167552673Y-97313489D01*
X167468121Y-97444687D01*
X167464304Y-97450610D01*
X167406103Y-97610516D01*
X167384775Y-97779343D01*
X131699500Y-97779343D01*
X131699500Y-97008000D01*
X211293235Y-97008000D01*
X211312260Y-97225454D01*
X211368756Y-97436300D01*
X211371078Y-97441280D01*
X211371079Y-97441282D01*
X211458097Y-97627891D01*
X211461007Y-97634132D01*
X211586209Y-97812940D01*
X211740560Y-97967291D01*
X211745068Y-97970448D01*
X211745071Y-97970450D01*
X211914858Y-98089336D01*
X211919367Y-98092493D01*
X211924349Y-98094816D01*
X211924354Y-98094819D01*
X212109454Y-98181132D01*
X212117200Y-98184744D01*
X212122508Y-98186166D01*
X212122510Y-98186167D01*
X212322731Y-98239816D01*
X212322733Y-98239816D01*
X212328046Y-98241240D01*
X212545500Y-98260265D01*
X212762954Y-98241240D01*
X212768267Y-98239816D01*
X212768269Y-98239816D01*
X212968490Y-98186167D01*
X212968492Y-98186166D01*
X212973800Y-98184744D01*
X212981546Y-98181132D01*
X213166646Y-98094819D01*
X213166651Y-98094816D01*
X213171633Y-98092493D01*
X213176142Y-98089336D01*
X213345929Y-97970450D01*
X213345932Y-97970448D01*
X213350440Y-97967291D01*
X213456405Y-97861326D01*
X213518717Y-97827300D01*
X213589532Y-97832365D01*
X213634595Y-97861326D01*
X213740560Y-97967291D01*
X213745068Y-97970448D01*
X213745071Y-97970450D01*
X213914858Y-98089336D01*
X213919367Y-98092493D01*
X213924349Y-98094816D01*
X213924354Y-98094819D01*
X214109454Y-98181132D01*
X214117200Y-98184744D01*
X214122508Y-98186166D01*
X214122510Y-98186167D01*
X214322731Y-98239816D01*
X214322733Y-98239816D01*
X214328046Y-98241240D01*
X214545500Y-98260265D01*
X214762954Y-98241240D01*
X214768267Y-98239816D01*
X214768269Y-98239816D01*
X214968490Y-98186167D01*
X214968492Y-98186166D01*
X214973800Y-98184744D01*
X214981546Y-98181132D01*
X215166646Y-98094819D01*
X215166651Y-98094816D01*
X215171633Y-98092493D01*
X215176142Y-98089336D01*
X215345929Y-97970450D01*
X215345932Y-97970448D01*
X215350440Y-97967291D01*
X215504791Y-97812940D01*
X215629993Y-97634132D01*
X215632904Y-97627891D01*
X215719921Y-97441282D01*
X215719922Y-97441280D01*
X215722244Y-97436300D01*
X215778740Y-97225454D01*
X215797765Y-97008000D01*
X215778740Y-96790546D01*
X215722244Y-96579700D01*
X215719921Y-96574718D01*
X215632316Y-96386849D01*
X215632314Y-96386846D01*
X215629993Y-96381868D01*
X215504791Y-96203060D01*
X215350440Y-96048709D01*
X215345932Y-96045552D01*
X215345929Y-96045550D01*
X215176142Y-95926664D01*
X215176139Y-95926662D01*
X215171633Y-95923507D01*
X215166651Y-95921184D01*
X215166646Y-95921181D01*
X215061594Y-95872195D01*
X215008309Y-95825278D01*
X214988848Y-95757000D01*
X215009390Y-95689041D01*
X215061594Y-95643805D01*
X215166646Y-95594819D01*
X215166651Y-95594816D01*
X215171633Y-95592493D01*
X215176142Y-95589336D01*
X215345929Y-95470450D01*
X215345932Y-95470448D01*
X215350440Y-95467291D01*
X215504791Y-95312940D01*
X215629993Y-95134132D01*
X215686308Y-95013366D01*
X215719921Y-94941282D01*
X215719922Y-94941280D01*
X215722244Y-94936300D01*
X215725314Y-94924845D01*
X215777316Y-94730769D01*
X215777316Y-94730767D01*
X215778740Y-94725454D01*
X215797765Y-94508000D01*
X215778740Y-94290546D01*
X215777316Y-94285231D01*
X215723667Y-94085010D01*
X215723666Y-94085008D01*
X215722244Y-94079700D01*
X215711170Y-94055951D01*
X215632316Y-93886849D01*
X215632314Y-93886846D01*
X215629993Y-93881868D01*
X215504791Y-93703060D01*
X215350440Y-93548709D01*
X215345932Y-93545552D01*
X215345929Y-93545550D01*
X215176142Y-93426664D01*
X215176140Y-93426663D01*
X215171633Y-93423507D01*
X215166651Y-93421184D01*
X215166646Y-93421181D01*
X214978782Y-93333579D01*
X214978781Y-93333578D01*
X214973800Y-93331256D01*
X214968492Y-93329834D01*
X214968490Y-93329833D01*
X214768269Y-93276184D01*
X214768267Y-93276184D01*
X214762954Y-93274760D01*
X214545500Y-93255735D01*
X214328046Y-93274760D01*
X214322733Y-93276184D01*
X214322731Y-93276184D01*
X214122510Y-93329833D01*
X214122508Y-93329834D01*
X214117200Y-93331256D01*
X214112220Y-93333578D01*
X214112218Y-93333579D01*
X213924349Y-93421184D01*
X213924346Y-93421186D01*
X213919368Y-93423507D01*
X213849903Y-93472147D01*
X213782631Y-93494833D01*
X213713771Y-93477548D01*
X213676809Y-93444498D01*
X213663438Y-93426657D01*
X213647761Y-93405739D01*
X213531205Y-93318385D01*
X213394816Y-93267255D01*
X213332634Y-93260500D01*
X211758366Y-93260500D01*
X211696184Y-93267255D01*
X211559795Y-93318385D01*
X211443239Y-93405739D01*
X211355885Y-93522295D01*
X211304755Y-93658684D01*
X211298000Y-93720866D01*
X211298000Y-95295134D01*
X211304755Y-95357316D01*
X211355885Y-95493705D01*
X211443239Y-95610261D01*
X211559795Y-95697615D01*
X211696184Y-95748745D01*
X211758366Y-95755500D01*
X211761782Y-95755500D01*
X211765180Y-95755684D01*
X211765104Y-95757091D01*
X211827807Y-95775502D01*
X211874300Y-95829158D01*
X211884404Y-95899432D01*
X211854910Y-95964012D01*
X211831960Y-95984711D01*
X211740560Y-96048709D01*
X211586209Y-96203060D01*
X211461007Y-96381868D01*
X211458686Y-96386846D01*
X211458684Y-96386849D01*
X211371079Y-96574718D01*
X211368756Y-96579700D01*
X211312260Y-96790546D01*
X211293235Y-97008000D01*
X131699500Y-97008000D01*
X131699500Y-96108669D01*
X140225501Y-96108669D01*
X140225871Y-96115490D01*
X140231395Y-96166352D01*
X140235021Y-96181604D01*
X140280176Y-96302054D01*
X140288714Y-96317649D01*
X140365215Y-96419724D01*
X140377776Y-96432285D01*
X140479851Y-96508786D01*
X140495446Y-96517324D01*
X140615894Y-96562478D01*
X140631149Y-96566105D01*
X140682014Y-96571631D01*
X140688828Y-96572000D01*
X140965385Y-96572000D01*
X140980624Y-96567525D01*
X140981829Y-96566135D01*
X140983500Y-96558452D01*
X140983500Y-96553884D01*
X141491500Y-96553884D01*
X141495975Y-96569123D01*
X141497365Y-96570328D01*
X141505048Y-96571999D01*
X141786169Y-96571999D01*
X141792990Y-96571629D01*
X141843852Y-96566105D01*
X141859104Y-96562479D01*
X141979554Y-96517324D01*
X141995149Y-96508786D01*
X142097224Y-96432285D01*
X142109785Y-96419724D01*
X142186286Y-96317649D01*
X142194825Y-96302052D01*
X142225362Y-96220595D01*
X142268003Y-96163830D01*
X142334565Y-96139130D01*
X142403914Y-96154337D01*
X142442089Y-96186559D01*
X142455168Y-96203060D01*
X142505644Y-96266745D01*
X142510337Y-96270739D01*
X142510338Y-96270740D01*
X142565457Y-96317649D01*
X142656857Y-96395436D01*
X142700315Y-96419724D01*
X142824807Y-96489302D01*
X142824813Y-96489305D01*
X142830185Y-96492307D01*
X143019028Y-96553665D01*
X143216193Y-96577176D01*
X143222328Y-96576704D01*
X143222330Y-96576704D01*
X143408028Y-96562415D01*
X143408033Y-96562414D01*
X143414169Y-96561942D01*
X143420099Y-96560286D01*
X143420101Y-96560286D01*
X143476840Y-96544444D01*
X143605416Y-96508545D01*
X143756386Y-96432285D01*
X143777149Y-96421797D01*
X143777151Y-96421796D01*
X143782650Y-96419018D01*
X143939118Y-96296772D01*
X143969206Y-96261915D01*
X144064833Y-96151130D01*
X144064834Y-96151128D01*
X144068862Y-96146462D01*
X144073027Y-96139130D01*
X144127857Y-96042612D01*
X144178896Y-95993262D01*
X144248514Y-95979339D01*
X144314608Y-96005265D01*
X144349477Y-96047252D01*
X144382308Y-96111133D01*
X144386134Y-96115960D01*
X144501815Y-96261915D01*
X144501819Y-96261920D01*
X144505644Y-96266745D01*
X144510337Y-96270739D01*
X144510338Y-96270740D01*
X144565457Y-96317649D01*
X144656857Y-96395436D01*
X144700315Y-96419724D01*
X144824807Y-96489302D01*
X144824813Y-96489305D01*
X144830185Y-96492307D01*
X145019028Y-96553665D01*
X145216193Y-96577176D01*
X145222328Y-96576704D01*
X145222330Y-96576704D01*
X145408028Y-96562415D01*
X145408033Y-96562414D01*
X145414169Y-96561942D01*
X145420099Y-96560286D01*
X145420101Y-96560286D01*
X145476840Y-96544444D01*
X145605416Y-96508545D01*
X145756386Y-96432285D01*
X145777149Y-96421797D01*
X145777151Y-96421796D01*
X145782650Y-96419018D01*
X145939118Y-96296772D01*
X145969206Y-96261915D01*
X146064833Y-96151130D01*
X146064834Y-96151128D01*
X146068862Y-96146462D01*
X146073027Y-96139130D01*
X146127857Y-96042612D01*
X146178896Y-95993262D01*
X146248514Y-95979339D01*
X146314608Y-96005265D01*
X146349477Y-96047252D01*
X146382308Y-96111133D01*
X146386134Y-96115960D01*
X146501815Y-96261915D01*
X146501819Y-96261920D01*
X146505644Y-96266745D01*
X146510337Y-96270739D01*
X146510338Y-96270740D01*
X146565457Y-96317649D01*
X146656857Y-96395436D01*
X146700315Y-96419724D01*
X146824807Y-96489302D01*
X146824813Y-96489305D01*
X146830185Y-96492307D01*
X147019028Y-96553665D01*
X147216193Y-96577176D01*
X147222328Y-96576704D01*
X147222330Y-96576704D01*
X147408028Y-96562415D01*
X147408033Y-96562414D01*
X147414169Y-96561942D01*
X147420099Y-96560286D01*
X147420101Y-96560286D01*
X147476840Y-96544444D01*
X147605416Y-96508545D01*
X147756386Y-96432285D01*
X147777149Y-96421797D01*
X147777151Y-96421796D01*
X147782650Y-96419018D01*
X147939118Y-96296772D01*
X147969206Y-96261915D01*
X148064833Y-96151130D01*
X148064834Y-96151128D01*
X148068862Y-96146462D01*
X148073027Y-96139130D01*
X148127857Y-96042612D01*
X148178896Y-95993262D01*
X148248514Y-95979339D01*
X148314608Y-96005265D01*
X148349477Y-96047252D01*
X148382308Y-96111133D01*
X148386134Y-96115960D01*
X148501815Y-96261915D01*
X148501819Y-96261920D01*
X148505644Y-96266745D01*
X148510337Y-96270739D01*
X148510338Y-96270740D01*
X148565457Y-96317649D01*
X148656857Y-96395436D01*
X148700315Y-96419724D01*
X148824807Y-96489302D01*
X148824813Y-96489305D01*
X148830185Y-96492307D01*
X149019028Y-96553665D01*
X149216193Y-96577176D01*
X149222328Y-96576704D01*
X149222330Y-96576704D01*
X149408028Y-96562415D01*
X149408033Y-96562414D01*
X149414169Y-96561942D01*
X149420099Y-96560286D01*
X149420101Y-96560286D01*
X149476840Y-96544444D01*
X149605416Y-96508545D01*
X149756386Y-96432285D01*
X149777149Y-96421797D01*
X149777151Y-96421796D01*
X149782650Y-96419018D01*
X149939118Y-96296772D01*
X149969206Y-96261915D01*
X150064833Y-96151130D01*
X150064834Y-96151128D01*
X150068862Y-96146462D01*
X150073027Y-96139130D01*
X150127857Y-96042612D01*
X150178896Y-95993262D01*
X150248514Y-95979339D01*
X150314608Y-96005265D01*
X150349477Y-96047252D01*
X150382308Y-96111133D01*
X150386134Y-96115960D01*
X150501815Y-96261915D01*
X150501819Y-96261920D01*
X150505644Y-96266745D01*
X150510337Y-96270739D01*
X150510338Y-96270740D01*
X150565457Y-96317649D01*
X150656857Y-96395436D01*
X150700315Y-96419724D01*
X150824807Y-96489302D01*
X150824813Y-96489305D01*
X150830185Y-96492307D01*
X151019028Y-96553665D01*
X151216193Y-96577176D01*
X151222328Y-96576704D01*
X151222330Y-96576704D01*
X151408028Y-96562415D01*
X151408033Y-96562414D01*
X151414169Y-96561942D01*
X151420099Y-96560286D01*
X151420101Y-96560286D01*
X151476840Y-96544444D01*
X151605416Y-96508545D01*
X151756386Y-96432285D01*
X151777149Y-96421797D01*
X151777151Y-96421796D01*
X151782650Y-96419018D01*
X151939118Y-96296772D01*
X151969206Y-96261915D01*
X152064833Y-96151130D01*
X152064834Y-96151128D01*
X152068862Y-96146462D01*
X152073027Y-96139130D01*
X152127857Y-96042612D01*
X152178896Y-95993262D01*
X152248514Y-95979339D01*
X152314608Y-96005265D01*
X152349477Y-96047252D01*
X152382308Y-96111133D01*
X152386134Y-96115960D01*
X152501815Y-96261915D01*
X152501819Y-96261920D01*
X152505644Y-96266745D01*
X152510337Y-96270739D01*
X152510338Y-96270740D01*
X152565457Y-96317649D01*
X152656857Y-96395436D01*
X152700315Y-96419724D01*
X152824807Y-96489302D01*
X152824813Y-96489305D01*
X152830185Y-96492307D01*
X153019028Y-96553665D01*
X153216193Y-96577176D01*
X153222328Y-96576704D01*
X153222330Y-96576704D01*
X153408028Y-96562415D01*
X153408033Y-96562414D01*
X153414169Y-96561942D01*
X153420099Y-96560286D01*
X153420101Y-96560286D01*
X153476840Y-96544444D01*
X153605416Y-96508545D01*
X153756386Y-96432285D01*
X153777149Y-96421797D01*
X153777151Y-96421796D01*
X153782650Y-96419018D01*
X153939118Y-96296772D01*
X153969206Y-96261915D01*
X154064833Y-96151130D01*
X154064834Y-96151128D01*
X154068862Y-96146462D01*
X154073027Y-96139130D01*
X154127857Y-96042612D01*
X154178896Y-95993262D01*
X154248514Y-95979339D01*
X154314608Y-96005265D01*
X154349477Y-96047252D01*
X154382308Y-96111133D01*
X154386134Y-96115960D01*
X154501815Y-96261915D01*
X154501819Y-96261920D01*
X154505644Y-96266745D01*
X154510337Y-96270739D01*
X154510338Y-96270740D01*
X154565457Y-96317649D01*
X154656857Y-96395436D01*
X154700315Y-96419724D01*
X154824807Y-96489302D01*
X154824813Y-96489305D01*
X154830185Y-96492307D01*
X155019028Y-96553665D01*
X155216193Y-96577176D01*
X155222328Y-96576704D01*
X155222330Y-96576704D01*
X155408028Y-96562415D01*
X155408033Y-96562414D01*
X155414169Y-96561942D01*
X155420099Y-96560286D01*
X155420101Y-96560286D01*
X155476840Y-96544444D01*
X155605416Y-96508545D01*
X155756386Y-96432285D01*
X155777149Y-96421797D01*
X155777151Y-96421796D01*
X155782650Y-96419018D01*
X155939118Y-96296772D01*
X155969206Y-96261915D01*
X156064833Y-96151130D01*
X156064834Y-96151128D01*
X156068862Y-96146462D01*
X156073027Y-96139130D01*
X156127857Y-96042612D01*
X156178896Y-95993262D01*
X156248514Y-95979339D01*
X156314608Y-96005265D01*
X156349477Y-96047252D01*
X156382308Y-96111133D01*
X156386134Y-96115960D01*
X156501815Y-96261915D01*
X156501819Y-96261920D01*
X156505644Y-96266745D01*
X156510337Y-96270739D01*
X156510338Y-96270740D01*
X156565457Y-96317649D01*
X156656857Y-96395436D01*
X156700315Y-96419724D01*
X156824807Y-96489302D01*
X156824813Y-96489305D01*
X156830185Y-96492307D01*
X157019028Y-96553665D01*
X157216193Y-96577176D01*
X157222328Y-96576704D01*
X157222330Y-96576704D01*
X157408028Y-96562415D01*
X157408033Y-96562414D01*
X157414169Y-96561942D01*
X157420099Y-96560286D01*
X157420101Y-96560286D01*
X157476840Y-96544444D01*
X157605416Y-96508545D01*
X157756386Y-96432285D01*
X157777149Y-96421797D01*
X157777151Y-96421796D01*
X157782650Y-96419018D01*
X157939118Y-96296772D01*
X157969206Y-96261915D01*
X158064833Y-96151130D01*
X158064834Y-96151128D01*
X158068862Y-96146462D01*
X158073027Y-96139130D01*
X158127857Y-96042612D01*
X158178896Y-95993262D01*
X158248514Y-95979339D01*
X158314608Y-96005265D01*
X158349477Y-96047252D01*
X158382308Y-96111133D01*
X158386134Y-96115960D01*
X158501815Y-96261915D01*
X158501819Y-96261920D01*
X158505644Y-96266745D01*
X158510337Y-96270739D01*
X158510338Y-96270740D01*
X158565457Y-96317649D01*
X158656857Y-96395436D01*
X158700315Y-96419724D01*
X158824807Y-96489302D01*
X158824813Y-96489305D01*
X158830185Y-96492307D01*
X159019028Y-96553665D01*
X159216193Y-96577176D01*
X159222328Y-96576704D01*
X159222330Y-96576704D01*
X159408028Y-96562415D01*
X159408033Y-96562414D01*
X159414169Y-96561942D01*
X159420099Y-96560286D01*
X159420101Y-96560286D01*
X159476840Y-96544444D01*
X159605416Y-96508545D01*
X159756386Y-96432285D01*
X159777149Y-96421797D01*
X159777151Y-96421796D01*
X159782650Y-96419018D01*
X159939118Y-96296772D01*
X159969206Y-96261915D01*
X160064833Y-96151130D01*
X160064834Y-96151128D01*
X160068862Y-96146462D01*
X160086190Y-96115960D01*
X160122179Y-96052606D01*
X160166940Y-95973813D01*
X160229616Y-95785403D01*
X160254502Y-95588407D01*
X160254899Y-95560000D01*
X160238401Y-95391743D01*
X189228775Y-95391743D01*
X189245381Y-95561099D01*
X189247605Y-95567784D01*
X189247605Y-95567785D01*
X189253413Y-95585245D01*
X189299094Y-95722567D01*
X189302741Y-95728589D01*
X189302742Y-95728591D01*
X189365439Y-95832115D01*
X189387246Y-95868123D01*
X189505455Y-95990532D01*
X189647846Y-96083710D01*
X189654450Y-96086166D01*
X189654452Y-96086167D01*
X189690844Y-96099701D01*
X189807341Y-96143026D01*
X189976015Y-96165532D01*
X189983026Y-96164894D01*
X189983030Y-96164894D01*
X190138462Y-96150748D01*
X190145483Y-96150109D01*
X190152185Y-96147931D01*
X190152187Y-96147931D01*
X190300623Y-96099701D01*
X190300626Y-96099700D01*
X190307322Y-96097524D01*
X190453490Y-96010390D01*
X190458584Y-96005539D01*
X190458588Y-96005536D01*
X190547169Y-95921181D01*
X190576721Y-95893039D01*
X190670891Y-95751302D01*
X190731319Y-95592225D01*
X190739370Y-95534938D01*
X190768658Y-95470263D01*
X190811041Y-95438515D01*
X190815322Y-95437124D01*
X190961490Y-95349990D01*
X190966584Y-95345139D01*
X190966588Y-95345136D01*
X191033833Y-95281099D01*
X191084721Y-95232639D01*
X191111447Y-95192414D01*
X191155323Y-95126375D01*
X191178891Y-95090902D01*
X191218989Y-94985343D01*
X194054775Y-94985343D01*
X194071381Y-95154699D01*
X194125094Y-95316167D01*
X194128741Y-95322189D01*
X194128742Y-95322191D01*
X194170865Y-95391743D01*
X194213246Y-95461723D01*
X194331455Y-95584132D01*
X194473846Y-95677310D01*
X194480450Y-95679766D01*
X194480452Y-95679767D01*
X194553593Y-95706968D01*
X194633341Y-95736626D01*
X194802015Y-95759132D01*
X194809026Y-95758494D01*
X194809030Y-95758494D01*
X194964462Y-95744348D01*
X194971483Y-95743709D01*
X194978185Y-95741531D01*
X194978187Y-95741531D01*
X195126623Y-95693301D01*
X195126626Y-95693300D01*
X195133322Y-95691124D01*
X195279490Y-95603990D01*
X195284584Y-95599139D01*
X195284588Y-95599136D01*
X195363528Y-95523962D01*
X195402721Y-95486639D01*
X195413934Y-95469763D01*
X195483727Y-95364715D01*
X195496891Y-95344902D01*
X195557319Y-95185825D01*
X195581001Y-95017313D01*
X195581299Y-94996000D01*
X195562331Y-94826892D01*
X195559217Y-94817948D01*
X195518238Y-94700276D01*
X195506368Y-94666189D01*
X195500383Y-94656610D01*
X195459864Y-94591768D01*
X195416192Y-94521879D01*
X195296286Y-94401132D01*
X195280039Y-94390821D01*
X195173324Y-94323098D01*
X195152608Y-94309951D01*
X194992300Y-94252868D01*
X194823329Y-94232720D01*
X194816326Y-94233456D01*
X194816325Y-94233456D01*
X194661101Y-94249770D01*
X194661097Y-94249771D01*
X194654093Y-94250507D01*
X194647422Y-94252778D01*
X194499673Y-94303075D01*
X194499670Y-94303076D01*
X194493003Y-94305346D01*
X194487005Y-94309036D01*
X194487003Y-94309037D01*
X194354065Y-94390821D01*
X194354063Y-94390823D01*
X194348066Y-94394512D01*
X194226486Y-94513573D01*
X194222675Y-94519487D01*
X194222673Y-94519489D01*
X194156546Y-94622097D01*
X194134304Y-94656610D01*
X194076103Y-94816516D01*
X194054775Y-94985343D01*
X191218989Y-94985343D01*
X191239319Y-94931825D01*
X191263001Y-94763313D01*
X191263299Y-94742000D01*
X191244331Y-94572892D01*
X191241972Y-94566116D01*
X191205635Y-94461773D01*
X191188368Y-94412189D01*
X191184582Y-94406129D01*
X191132697Y-94323098D01*
X191098192Y-94267879D01*
X191082458Y-94252034D01*
X191040264Y-94209545D01*
X190978286Y-94147132D01*
X190962039Y-94136821D01*
X190915048Y-94107000D01*
X190834608Y-94055951D01*
X190674300Y-93998868D01*
X190505329Y-93978720D01*
X190498326Y-93979456D01*
X190498325Y-93979456D01*
X190343101Y-93995770D01*
X190343097Y-93995771D01*
X190336093Y-93996507D01*
X190329422Y-93998778D01*
X190181673Y-94049075D01*
X190181670Y-94049076D01*
X190175003Y-94051346D01*
X190169005Y-94055036D01*
X190169003Y-94055037D01*
X190036065Y-94136821D01*
X190036063Y-94136823D01*
X190030066Y-94140512D01*
X190025033Y-94145441D01*
X189916185Y-94252034D01*
X189908486Y-94259573D01*
X189904675Y-94265487D01*
X189904673Y-94265489D01*
X189821523Y-94394512D01*
X189816304Y-94402610D01*
X189758103Y-94562516D01*
X189757220Y-94569507D01*
X189752365Y-94607934D01*
X189723983Y-94673010D01*
X189678855Y-94703948D01*
X189680045Y-94706477D01*
X189673672Y-94709476D01*
X189667003Y-94711746D01*
X189661005Y-94715436D01*
X189661003Y-94715437D01*
X189528065Y-94797221D01*
X189528063Y-94797223D01*
X189522066Y-94800912D01*
X189400486Y-94919973D01*
X189396675Y-94925887D01*
X189396673Y-94925889D01*
X189337754Y-95017313D01*
X189308304Y-95063010D01*
X189303461Y-95076316D01*
X189266144Y-95178845D01*
X189250103Y-95222916D01*
X189228775Y-95391743D01*
X160238401Y-95391743D01*
X160235523Y-95362386D01*
X160178132Y-95172299D01*
X160165047Y-95147690D01*
X160087807Y-95002422D01*
X160087805Y-95002419D01*
X160084913Y-94996980D01*
X160026933Y-94925889D01*
X159963311Y-94847880D01*
X159963309Y-94847878D01*
X159959417Y-94843106D01*
X159867690Y-94767223D01*
X159811172Y-94720467D01*
X159811169Y-94720465D01*
X159806422Y-94716538D01*
X159631758Y-94622097D01*
X159442076Y-94563381D01*
X159435951Y-94562737D01*
X159435950Y-94562737D01*
X159250732Y-94543270D01*
X159250730Y-94543270D01*
X159244603Y-94542626D01*
X159167180Y-94549672D01*
X159052997Y-94560063D01*
X159052994Y-94560064D01*
X159046858Y-94560622D01*
X159040952Y-94562360D01*
X159040948Y-94562361D01*
X158944553Y-94590732D01*
X158856376Y-94616684D01*
X158680410Y-94708677D01*
X158525663Y-94833096D01*
X158521705Y-94837813D01*
X158521703Y-94837815D01*
X158506991Y-94855348D01*
X158398030Y-94985203D01*
X158395066Y-94990595D01*
X158395063Y-94990599D01*
X158347940Y-95076316D01*
X158297594Y-95126375D01*
X158228177Y-95141268D01*
X158161728Y-95116267D01*
X158126274Y-95074768D01*
X158087809Y-95002426D01*
X158087807Y-95002424D01*
X158084913Y-94996980D01*
X158026933Y-94925889D01*
X157963311Y-94847880D01*
X157963309Y-94847878D01*
X157959417Y-94843106D01*
X157867690Y-94767223D01*
X157811172Y-94720467D01*
X157811169Y-94720465D01*
X157806422Y-94716538D01*
X157631758Y-94622097D01*
X157442076Y-94563381D01*
X157435951Y-94562737D01*
X157435950Y-94562737D01*
X157250732Y-94543270D01*
X157250730Y-94543270D01*
X157244603Y-94542626D01*
X157167180Y-94549672D01*
X157052997Y-94560063D01*
X157052994Y-94560064D01*
X157046858Y-94560622D01*
X157040952Y-94562360D01*
X157040948Y-94562361D01*
X156944553Y-94590732D01*
X156856376Y-94616684D01*
X156680410Y-94708677D01*
X156525663Y-94833096D01*
X156521705Y-94837813D01*
X156521703Y-94837815D01*
X156506991Y-94855348D01*
X156398030Y-94985203D01*
X156395066Y-94990595D01*
X156395063Y-94990599D01*
X156347940Y-95076316D01*
X156297594Y-95126375D01*
X156228177Y-95141268D01*
X156161728Y-95116267D01*
X156126274Y-95074768D01*
X156087809Y-95002426D01*
X156087807Y-95002424D01*
X156084913Y-94996980D01*
X156026933Y-94925889D01*
X155963311Y-94847880D01*
X155963309Y-94847878D01*
X155959417Y-94843106D01*
X155867690Y-94767223D01*
X155811172Y-94720467D01*
X155811169Y-94720465D01*
X155806422Y-94716538D01*
X155631758Y-94622097D01*
X155442076Y-94563381D01*
X155435951Y-94562737D01*
X155435950Y-94562737D01*
X155250732Y-94543270D01*
X155250730Y-94543270D01*
X155244603Y-94542626D01*
X155167180Y-94549672D01*
X155052997Y-94560063D01*
X155052994Y-94560064D01*
X155046858Y-94560622D01*
X155040952Y-94562360D01*
X155040948Y-94562361D01*
X154944553Y-94590732D01*
X154856376Y-94616684D01*
X154680410Y-94708677D01*
X154525663Y-94833096D01*
X154521705Y-94837813D01*
X154521703Y-94837815D01*
X154506991Y-94855348D01*
X154398030Y-94985203D01*
X154395066Y-94990595D01*
X154395063Y-94990599D01*
X154347940Y-95076316D01*
X154297594Y-95126375D01*
X154228177Y-95141268D01*
X154161728Y-95116267D01*
X154126274Y-95074768D01*
X154087809Y-95002426D01*
X154087807Y-95002424D01*
X154084913Y-94996980D01*
X154026933Y-94925889D01*
X153963311Y-94847880D01*
X153963309Y-94847878D01*
X153959417Y-94843106D01*
X153867690Y-94767223D01*
X153811172Y-94720467D01*
X153811169Y-94720465D01*
X153806422Y-94716538D01*
X153631758Y-94622097D01*
X153442076Y-94563381D01*
X153435951Y-94562737D01*
X153435950Y-94562737D01*
X153250732Y-94543270D01*
X153250730Y-94543270D01*
X153244603Y-94542626D01*
X153167180Y-94549672D01*
X153052997Y-94560063D01*
X153052994Y-94560064D01*
X153046858Y-94560622D01*
X153040952Y-94562360D01*
X153040948Y-94562361D01*
X152944553Y-94590732D01*
X152856376Y-94616684D01*
X152680410Y-94708677D01*
X152525663Y-94833096D01*
X152521705Y-94837813D01*
X152521703Y-94837815D01*
X152506991Y-94855348D01*
X152398030Y-94985203D01*
X152395066Y-94990595D01*
X152395063Y-94990599D01*
X152347940Y-95076316D01*
X152297594Y-95126375D01*
X152228177Y-95141268D01*
X152161728Y-95116267D01*
X152126274Y-95074768D01*
X152087809Y-95002426D01*
X152087807Y-95002424D01*
X152084913Y-94996980D01*
X152026933Y-94925889D01*
X151963311Y-94847880D01*
X151963309Y-94847878D01*
X151959417Y-94843106D01*
X151867690Y-94767223D01*
X151811172Y-94720467D01*
X151811169Y-94720465D01*
X151806422Y-94716538D01*
X151631758Y-94622097D01*
X151442076Y-94563381D01*
X151435951Y-94562737D01*
X151435950Y-94562737D01*
X151250732Y-94543270D01*
X151250730Y-94543270D01*
X151244603Y-94542626D01*
X151167180Y-94549672D01*
X151052997Y-94560063D01*
X151052994Y-94560064D01*
X151046858Y-94560622D01*
X151040952Y-94562360D01*
X151040948Y-94562361D01*
X150944553Y-94590732D01*
X150856376Y-94616684D01*
X150680410Y-94708677D01*
X150525663Y-94833096D01*
X150521705Y-94837813D01*
X150521703Y-94837815D01*
X150506991Y-94855348D01*
X150398030Y-94985203D01*
X150395066Y-94990595D01*
X150395063Y-94990599D01*
X150347940Y-95076316D01*
X150297594Y-95126375D01*
X150228177Y-95141268D01*
X150161728Y-95116267D01*
X150126274Y-95074768D01*
X150087809Y-95002426D01*
X150087807Y-95002424D01*
X150084913Y-94996980D01*
X150026933Y-94925889D01*
X149963311Y-94847880D01*
X149963309Y-94847878D01*
X149959417Y-94843106D01*
X149867690Y-94767223D01*
X149811172Y-94720467D01*
X149811169Y-94720465D01*
X149806422Y-94716538D01*
X149631758Y-94622097D01*
X149442076Y-94563381D01*
X149435951Y-94562737D01*
X149435950Y-94562737D01*
X149250732Y-94543270D01*
X149250730Y-94543270D01*
X149244603Y-94542626D01*
X149167180Y-94549672D01*
X149052997Y-94560063D01*
X149052994Y-94560064D01*
X149046858Y-94560622D01*
X149040952Y-94562360D01*
X149040948Y-94562361D01*
X148944553Y-94590732D01*
X148856376Y-94616684D01*
X148680410Y-94708677D01*
X148525663Y-94833096D01*
X148521705Y-94837813D01*
X148521703Y-94837815D01*
X148506991Y-94855348D01*
X148398030Y-94985203D01*
X148395066Y-94990595D01*
X148395063Y-94990599D01*
X148347940Y-95076316D01*
X148297594Y-95126375D01*
X148228177Y-95141268D01*
X148161728Y-95116267D01*
X148126274Y-95074768D01*
X148087809Y-95002426D01*
X148087807Y-95002424D01*
X148084913Y-94996980D01*
X148026933Y-94925889D01*
X147963311Y-94847880D01*
X147963309Y-94847878D01*
X147959417Y-94843106D01*
X147867690Y-94767223D01*
X147811172Y-94720467D01*
X147811169Y-94720465D01*
X147806422Y-94716538D01*
X147631758Y-94622097D01*
X147442076Y-94563381D01*
X147435951Y-94562737D01*
X147435950Y-94562737D01*
X147250732Y-94543270D01*
X147250730Y-94543270D01*
X147244603Y-94542626D01*
X147167180Y-94549672D01*
X147052997Y-94560063D01*
X147052994Y-94560064D01*
X147046858Y-94560622D01*
X147040952Y-94562360D01*
X147040948Y-94562361D01*
X146944553Y-94590732D01*
X146856376Y-94616684D01*
X146680410Y-94708677D01*
X146525663Y-94833096D01*
X146521705Y-94837813D01*
X146521703Y-94837815D01*
X146506991Y-94855348D01*
X146398030Y-94985203D01*
X146395066Y-94990595D01*
X146395063Y-94990599D01*
X146347940Y-95076316D01*
X146297594Y-95126375D01*
X146228177Y-95141268D01*
X146161728Y-95116267D01*
X146126274Y-95074768D01*
X146087809Y-95002426D01*
X146087807Y-95002424D01*
X146084913Y-94996980D01*
X146026933Y-94925889D01*
X145963311Y-94847880D01*
X145963309Y-94847878D01*
X145959417Y-94843106D01*
X145867690Y-94767223D01*
X145811172Y-94720467D01*
X145811169Y-94720465D01*
X145806422Y-94716538D01*
X145631758Y-94622097D01*
X145442076Y-94563381D01*
X145435951Y-94562737D01*
X145435950Y-94562737D01*
X145250732Y-94543270D01*
X145250730Y-94543270D01*
X145244603Y-94542626D01*
X145167180Y-94549672D01*
X145052997Y-94560063D01*
X145052994Y-94560064D01*
X145046858Y-94560622D01*
X145040952Y-94562360D01*
X145040948Y-94562361D01*
X144944553Y-94590732D01*
X144856376Y-94616684D01*
X144680410Y-94708677D01*
X144525663Y-94833096D01*
X144521705Y-94837813D01*
X144521703Y-94837815D01*
X144506991Y-94855348D01*
X144398030Y-94985203D01*
X144395066Y-94990595D01*
X144395063Y-94990599D01*
X144347940Y-95076316D01*
X144297594Y-95126375D01*
X144228177Y-95141268D01*
X144161728Y-95116267D01*
X144126274Y-95074768D01*
X144087809Y-95002426D01*
X144087807Y-95002424D01*
X144084913Y-94996980D01*
X144026933Y-94925889D01*
X143963311Y-94847880D01*
X143963309Y-94847878D01*
X143959417Y-94843106D01*
X143867690Y-94767223D01*
X143811172Y-94720467D01*
X143811169Y-94720465D01*
X143806422Y-94716538D01*
X143631758Y-94622097D01*
X143442076Y-94563381D01*
X143435951Y-94562737D01*
X143435950Y-94562737D01*
X143250732Y-94543270D01*
X143250730Y-94543270D01*
X143244603Y-94542626D01*
X143167180Y-94549672D01*
X143052997Y-94560063D01*
X143052994Y-94560064D01*
X143046858Y-94560622D01*
X143040952Y-94562360D01*
X143040948Y-94562361D01*
X142944553Y-94590732D01*
X142856376Y-94616684D01*
X142680410Y-94708677D01*
X142525663Y-94833096D01*
X142439653Y-94935599D01*
X142380543Y-94974926D01*
X142309555Y-94976052D01*
X142249228Y-94938621D01*
X142225149Y-94898837D01*
X142194825Y-94817948D01*
X142186286Y-94802351D01*
X142109785Y-94700276D01*
X142097224Y-94687715D01*
X141995149Y-94611214D01*
X141979554Y-94602676D01*
X141859106Y-94557522D01*
X141843851Y-94553895D01*
X141792986Y-94548369D01*
X141786172Y-94548000D01*
X141509615Y-94548000D01*
X141494376Y-94552475D01*
X141493171Y-94553865D01*
X141491500Y-94561548D01*
X141491500Y-96553884D01*
X140983500Y-96553884D01*
X140983500Y-95832115D01*
X140979025Y-95816876D01*
X140977635Y-95815671D01*
X140969952Y-95814000D01*
X140243616Y-95814000D01*
X140228377Y-95818475D01*
X140227172Y-95819865D01*
X140225501Y-95827548D01*
X140225501Y-96108669D01*
X131699500Y-96108669D01*
X131699500Y-95287885D01*
X140225500Y-95287885D01*
X140229975Y-95303124D01*
X140231365Y-95304329D01*
X140239048Y-95306000D01*
X140965385Y-95306000D01*
X140980624Y-95301525D01*
X140981829Y-95300135D01*
X140983500Y-95292452D01*
X140983500Y-94566116D01*
X140979025Y-94550877D01*
X140977635Y-94549672D01*
X140969952Y-94548001D01*
X140688831Y-94548001D01*
X140682010Y-94548371D01*
X140631148Y-94553895D01*
X140615896Y-94557521D01*
X140495446Y-94602676D01*
X140479851Y-94611214D01*
X140377776Y-94687715D01*
X140365215Y-94700276D01*
X140288714Y-94802351D01*
X140280176Y-94817946D01*
X140235022Y-94938394D01*
X140231395Y-94953649D01*
X140225869Y-95004514D01*
X140225500Y-95011328D01*
X140225500Y-95287885D01*
X131699500Y-95287885D01*
X131699500Y-94096343D01*
X167638775Y-94096343D01*
X167655381Y-94265699D01*
X167709094Y-94427167D01*
X167712741Y-94433189D01*
X167712742Y-94433191D01*
X167793319Y-94566238D01*
X167797246Y-94572723D01*
X167915455Y-94695132D01*
X167948167Y-94716538D01*
X168025622Y-94767223D01*
X168057846Y-94788310D01*
X168064450Y-94790766D01*
X168064452Y-94790767D01*
X168095601Y-94802351D01*
X168217341Y-94847626D01*
X168386015Y-94870132D01*
X168393026Y-94869494D01*
X168393030Y-94869494D01*
X168548462Y-94855348D01*
X168555483Y-94854709D01*
X168562185Y-94852531D01*
X168562187Y-94852531D01*
X168710623Y-94804301D01*
X168710626Y-94804300D01*
X168717322Y-94802124D01*
X168863490Y-94714990D01*
X168868584Y-94710139D01*
X168868588Y-94710136D01*
X168935833Y-94646099D01*
X168986721Y-94597639D01*
X168991930Y-94589800D01*
X169042574Y-94513573D01*
X169080891Y-94455902D01*
X169141319Y-94296825D01*
X169165001Y-94128313D01*
X169165299Y-94107000D01*
X169146331Y-93937892D01*
X169104212Y-93816943D01*
X191616375Y-93816943D01*
X191632981Y-93986299D01*
X191635205Y-93992984D01*
X191635205Y-93992985D01*
X191643183Y-94016967D01*
X191686694Y-94147767D01*
X191690341Y-94153789D01*
X191690342Y-94153791D01*
X191759437Y-94267879D01*
X191774846Y-94293323D01*
X191893055Y-94415732D01*
X191898951Y-94419590D01*
X192025689Y-94502525D01*
X192035446Y-94508910D01*
X192042050Y-94511366D01*
X192042052Y-94511367D01*
X192115194Y-94538568D01*
X192194941Y-94568226D01*
X192363615Y-94590732D01*
X192370626Y-94590094D01*
X192370630Y-94590094D01*
X192526062Y-94575948D01*
X192533083Y-94575309D01*
X192539785Y-94573131D01*
X192539787Y-94573131D01*
X192688223Y-94524901D01*
X192688226Y-94524900D01*
X192694922Y-94522724D01*
X192841090Y-94435590D01*
X192846184Y-94430739D01*
X192846188Y-94430736D01*
X192913433Y-94366699D01*
X192964321Y-94318239D01*
X192978549Y-94296825D01*
X193054590Y-94182373D01*
X193058491Y-94176502D01*
X193118919Y-94017425D01*
X193142601Y-93848913D01*
X193142899Y-93827600D01*
X193123931Y-93658492D01*
X193067968Y-93497789D01*
X193061983Y-93488210D01*
X193034668Y-93444498D01*
X192977792Y-93353479D01*
X192947072Y-93322543D01*
X202931175Y-93322543D01*
X202947781Y-93491899D01*
X202950005Y-93498584D01*
X202950005Y-93498585D01*
X202955502Y-93515109D01*
X203001494Y-93653367D01*
X203005141Y-93659389D01*
X203005142Y-93659391D01*
X203074693Y-93774232D01*
X203089646Y-93798923D01*
X203207855Y-93921332D01*
X203238201Y-93941190D01*
X203329957Y-94001233D01*
X203350246Y-94014510D01*
X203356850Y-94016966D01*
X203356852Y-94016967D01*
X203393244Y-94030501D01*
X203509741Y-94073826D01*
X203678415Y-94096332D01*
X203685426Y-94095694D01*
X203685430Y-94095694D01*
X203840862Y-94081548D01*
X203847883Y-94080909D01*
X203854585Y-94078731D01*
X203854587Y-94078731D01*
X204003023Y-94030501D01*
X204003026Y-94030500D01*
X204009722Y-94028324D01*
X204155890Y-93941190D01*
X204160984Y-93936339D01*
X204160988Y-93936336D01*
X204228233Y-93872299D01*
X204279121Y-93823839D01*
X204373291Y-93682102D01*
X204433719Y-93523025D01*
X204434832Y-93515109D01*
X204448031Y-93421184D01*
X204457401Y-93354513D01*
X204457552Y-93343720D01*
X204457644Y-93337161D01*
X204457644Y-93337155D01*
X204457699Y-93333200D01*
X204438731Y-93164092D01*
X204382768Y-93003389D01*
X204376783Y-92993810D01*
X204354820Y-92958664D01*
X204292592Y-92859079D01*
X204172686Y-92738332D01*
X204156439Y-92728021D01*
X204117806Y-92703504D01*
X204029008Y-92647151D01*
X203868700Y-92590068D01*
X203699729Y-92569920D01*
X203692726Y-92570656D01*
X203692725Y-92570656D01*
X203537501Y-92586970D01*
X203537497Y-92586971D01*
X203530493Y-92587707D01*
X203523822Y-92589978D01*
X203376073Y-92640275D01*
X203376070Y-92640276D01*
X203369403Y-92642546D01*
X203363405Y-92646236D01*
X203363403Y-92646237D01*
X203230465Y-92728021D01*
X203230463Y-92728023D01*
X203224466Y-92731712D01*
X203102886Y-92850773D01*
X203010704Y-92993810D01*
X202952503Y-93153716D01*
X202931175Y-93322543D01*
X192947072Y-93322543D01*
X192894923Y-93270029D01*
X192857886Y-93232732D01*
X192841639Y-93222421D01*
X192803006Y-93197904D01*
X192714208Y-93141551D01*
X192553900Y-93084468D01*
X192384929Y-93064320D01*
X192377926Y-93065056D01*
X192377925Y-93065056D01*
X192222701Y-93081370D01*
X192222697Y-93081371D01*
X192215693Y-93082107D01*
X192209022Y-93084378D01*
X192061273Y-93134675D01*
X192061270Y-93134676D01*
X192054603Y-93136946D01*
X192048605Y-93140636D01*
X192048603Y-93140637D01*
X191915665Y-93222421D01*
X191915663Y-93222423D01*
X191909666Y-93226112D01*
X191874174Y-93260869D01*
X191796268Y-93337161D01*
X191788086Y-93345173D01*
X191784275Y-93351087D01*
X191784273Y-93351089D01*
X191702775Y-93477548D01*
X191695904Y-93488210D01*
X191680834Y-93529614D01*
X191648065Y-93619648D01*
X191637703Y-93648116D01*
X191616375Y-93816943D01*
X169104212Y-93816943D01*
X169090368Y-93777189D01*
X169084383Y-93767610D01*
X169044046Y-93703060D01*
X169000192Y-93632879D01*
X168880286Y-93512132D01*
X168864039Y-93501821D01*
X168745610Y-93426664D01*
X168736608Y-93420951D01*
X168576300Y-93363868D01*
X168407329Y-93343720D01*
X168400326Y-93344456D01*
X168400325Y-93344456D01*
X168245101Y-93360770D01*
X168245097Y-93360771D01*
X168238093Y-93361507D01*
X168231422Y-93363778D01*
X168083673Y-93414075D01*
X168083670Y-93414076D01*
X168077003Y-93416346D01*
X168071005Y-93420036D01*
X168071003Y-93420037D01*
X167938065Y-93501821D01*
X167938063Y-93501823D01*
X167932066Y-93505512D01*
X167810486Y-93624573D01*
X167806675Y-93630487D01*
X167806673Y-93630489D01*
X167722121Y-93761687D01*
X167718304Y-93767610D01*
X167696070Y-93828698D01*
X167676718Y-93881868D01*
X167660103Y-93927516D01*
X167638775Y-94096343D01*
X131699500Y-94096343D01*
X131699500Y-91124543D01*
X179322775Y-91124543D01*
X179339381Y-91293899D01*
X179393094Y-91455367D01*
X179396741Y-91461389D01*
X179396742Y-91461391D01*
X179453303Y-91554783D01*
X179481246Y-91600923D01*
X179599455Y-91723332D01*
X179605351Y-91727190D01*
X179709107Y-91795086D01*
X179741846Y-91816510D01*
X179748450Y-91818966D01*
X179748452Y-91818967D01*
X179784844Y-91832501D01*
X179901341Y-91875826D01*
X180070015Y-91898332D01*
X180077026Y-91897694D01*
X180077030Y-91897694D01*
X180232462Y-91883548D01*
X180239483Y-91882909D01*
X180246185Y-91880731D01*
X180246187Y-91880731D01*
X180394623Y-91832501D01*
X180394626Y-91832500D01*
X180401322Y-91830324D01*
X180547490Y-91743190D01*
X180552584Y-91738339D01*
X180552588Y-91738336D01*
X180622660Y-91671607D01*
X180670721Y-91625839D01*
X180764891Y-91484102D01*
X180825319Y-91325025D01*
X180849001Y-91156513D01*
X180849299Y-91135200D01*
X180830331Y-90966092D01*
X180820863Y-90938902D01*
X180776686Y-90812046D01*
X180774368Y-90805389D01*
X180768383Y-90795810D01*
X180734564Y-90741690D01*
X180684192Y-90661079D01*
X180675585Y-90652411D01*
X180603025Y-90579343D01*
X191856775Y-90579343D01*
X191873381Y-90748699D01*
X191875605Y-90755384D01*
X191875605Y-90755385D01*
X191892239Y-90805389D01*
X191927094Y-90910167D01*
X191930741Y-90916189D01*
X191930742Y-90916191D01*
X191956934Y-90959438D01*
X192015246Y-91055723D01*
X192133455Y-91178132D01*
X192275846Y-91271310D01*
X192282450Y-91273766D01*
X192282452Y-91273767D01*
X192354564Y-91300585D01*
X192435341Y-91330626D01*
X192604015Y-91353132D01*
X192611026Y-91352494D01*
X192611030Y-91352494D01*
X192766462Y-91338348D01*
X192773483Y-91337709D01*
X192780185Y-91335531D01*
X192780187Y-91335531D01*
X192928623Y-91287301D01*
X192928626Y-91287300D01*
X192935322Y-91285124D01*
X193081490Y-91197990D01*
X193086584Y-91193139D01*
X193086588Y-91193136D01*
X193158617Y-91124543D01*
X193204721Y-91080639D01*
X193298891Y-90938902D01*
X193359319Y-90779825D01*
X193383001Y-90611313D01*
X193383299Y-90590000D01*
X193364331Y-90420892D01*
X193347568Y-90372754D01*
X193310686Y-90266846D01*
X193308368Y-90260189D01*
X193302383Y-90250610D01*
X193280420Y-90215464D01*
X193218192Y-90115879D01*
X193200172Y-90097732D01*
X193112079Y-90009022D01*
X193098286Y-89995132D01*
X193082039Y-89984821D01*
X193043406Y-89960304D01*
X192954608Y-89903951D01*
X192794300Y-89846868D01*
X192625329Y-89826720D01*
X192618326Y-89827456D01*
X192618325Y-89827456D01*
X192463101Y-89843770D01*
X192463097Y-89843771D01*
X192456093Y-89844507D01*
X192449422Y-89846778D01*
X192301673Y-89897075D01*
X192301670Y-89897076D01*
X192295003Y-89899346D01*
X192289005Y-89903036D01*
X192289003Y-89903037D01*
X192156065Y-89984821D01*
X192156063Y-89984823D01*
X192150066Y-89988512D01*
X192120441Y-90017523D01*
X192034596Y-90101590D01*
X192028486Y-90107573D01*
X192024675Y-90113487D01*
X192024673Y-90113489D01*
X192019282Y-90121854D01*
X191936304Y-90250610D01*
X191928252Y-90272732D01*
X191884818Y-90392068D01*
X191878103Y-90410516D01*
X191856775Y-90579343D01*
X180603025Y-90579343D01*
X180569248Y-90545329D01*
X180564286Y-90540332D01*
X180548039Y-90530021D01*
X180509406Y-90505504D01*
X180420608Y-90449151D01*
X180260300Y-90392068D01*
X180091329Y-90371920D01*
X180084326Y-90372656D01*
X180084325Y-90372656D01*
X179929101Y-90388970D01*
X179929097Y-90388971D01*
X179922093Y-90389707D01*
X179915422Y-90391978D01*
X179767673Y-90442275D01*
X179767670Y-90442276D01*
X179761003Y-90444546D01*
X179755005Y-90448236D01*
X179755003Y-90448237D01*
X179622065Y-90530021D01*
X179622063Y-90530023D01*
X179616066Y-90533712D01*
X179494486Y-90652773D01*
X179402304Y-90795810D01*
X179344103Y-90955716D01*
X179322775Y-91124543D01*
X131699500Y-91124543D01*
X131699500Y-89498943D01*
X187247575Y-89498943D01*
X187264181Y-89668299D01*
X187317894Y-89829767D01*
X187321541Y-89835789D01*
X187321542Y-89835791D01*
X187362822Y-89903951D01*
X187406046Y-89975323D01*
X187524255Y-90097732D01*
X187666646Y-90190910D01*
X187673250Y-90193366D01*
X187673252Y-90193367D01*
X187709644Y-90206901D01*
X187826141Y-90250226D01*
X187994815Y-90272732D01*
X188001826Y-90272094D01*
X188001830Y-90272094D01*
X188157262Y-90257948D01*
X188164283Y-90257309D01*
X188170985Y-90255131D01*
X188170987Y-90255131D01*
X188319423Y-90206901D01*
X188319426Y-90206900D01*
X188326122Y-90204724D01*
X188472290Y-90117590D01*
X188477384Y-90112739D01*
X188477388Y-90112736D01*
X188581795Y-90013310D01*
X188595521Y-90000239D01*
X188603313Y-89988512D01*
X188685790Y-89864373D01*
X188689691Y-89858502D01*
X188744204Y-89714997D01*
X215058999Y-89714997D01*
X215076200Y-90013310D01*
X215077025Y-90017515D01*
X215077026Y-90017523D01*
X215110221Y-90186715D01*
X215133727Y-90306527D01*
X215135114Y-90310578D01*
X215135115Y-90310582D01*
X215229127Y-90585170D01*
X215229131Y-90585179D01*
X215230516Y-90589225D01*
X215265453Y-90658689D01*
X215334418Y-90795810D01*
X215364776Y-90856171D01*
X215406027Y-90916191D01*
X215522388Y-91085498D01*
X215534022Y-91102426D01*
X215735124Y-91323434D01*
X215738413Y-91326184D01*
X215961067Y-91512352D01*
X215961072Y-91512356D01*
X215964359Y-91515104D01*
X216023404Y-91552143D01*
X216213845Y-91671607D01*
X216213849Y-91671609D01*
X216217485Y-91673890D01*
X216489819Y-91796853D01*
X216493938Y-91798073D01*
X216772209Y-91880501D01*
X216772213Y-91880502D01*
X216776322Y-91881719D01*
X216780556Y-91882367D01*
X216780561Y-91882368D01*
X217041969Y-91922369D01*
X217071691Y-91926917D01*
X217223766Y-91929306D01*
X217366171Y-91931544D01*
X217366177Y-91931544D01*
X217370462Y-91931611D01*
X217667106Y-91895713D01*
X217908055Y-91832501D01*
X217951990Y-91820975D01*
X217951991Y-91820975D01*
X217956133Y-91819888D01*
X218232195Y-91705539D01*
X218490184Y-91554783D01*
X218540789Y-91515104D01*
X218721954Y-91373052D01*
X218725326Y-91370408D01*
X218757014Y-91337709D01*
X218930287Y-91158904D01*
X218933270Y-91155826D01*
X218935803Y-91152378D01*
X218935807Y-91152373D01*
X219092616Y-90938902D01*
X219110168Y-90915008D01*
X219112214Y-90911240D01*
X219250697Y-90656187D01*
X219250698Y-90656185D01*
X219252747Y-90652411D01*
X219358368Y-90372893D01*
X219416015Y-90121194D01*
X219424120Y-90085807D01*
X219424121Y-90085802D01*
X219425077Y-90081627D01*
X219451639Y-89784003D01*
X219452121Y-89738000D01*
X219450262Y-89710727D01*
X219432090Y-89444161D01*
X219432089Y-89444155D01*
X219431798Y-89439884D01*
X219410514Y-89337106D01*
X219376697Y-89173813D01*
X219371203Y-89147285D01*
X219271459Y-88865617D01*
X219134411Y-88600091D01*
X219123301Y-88584282D01*
X218965062Y-88359132D01*
X218965061Y-88359131D01*
X218962595Y-88355622D01*
X218759191Y-88136732D01*
X218743856Y-88124180D01*
X218531279Y-87950189D01*
X218527961Y-87947473D01*
X218273186Y-87791347D01*
X217999579Y-87671242D01*
X217712203Y-87589380D01*
X217476558Y-87555843D01*
X217420629Y-87547883D01*
X217420627Y-87547883D01*
X217416377Y-87547278D01*
X217259582Y-87546457D01*
X217121860Y-87545736D01*
X217121854Y-87545736D01*
X217117573Y-87545714D01*
X217113329Y-87546273D01*
X217113325Y-87546273D01*
X216982941Y-87563439D01*
X216821322Y-87584716D01*
X216817182Y-87585849D01*
X216817180Y-87585849D01*
X216537250Y-87662429D01*
X216533105Y-87663563D01*
X216258255Y-87780796D01*
X216103665Y-87873316D01*
X216005541Y-87932042D01*
X216005537Y-87932045D01*
X216001859Y-87934246D01*
X215998516Y-87936924D01*
X215998512Y-87936927D01*
X215887082Y-88026200D01*
X215768660Y-88121074D01*
X215765716Y-88124176D01*
X215765712Y-88124180D01*
X215570745Y-88329632D01*
X215562974Y-88337821D01*
X215388608Y-88580478D01*
X215248787Y-88844554D01*
X215146099Y-89125162D01*
X215082444Y-89417111D01*
X215058999Y-89714997D01*
X188744204Y-89714997D01*
X188750119Y-89699425D01*
X188773801Y-89530913D01*
X188774099Y-89509600D01*
X188755131Y-89340492D01*
X188699168Y-89179789D01*
X188693183Y-89170210D01*
X188662514Y-89121131D01*
X188608992Y-89035479D01*
X188489086Y-88914732D01*
X188472839Y-88904421D01*
X188372520Y-88840757D01*
X188345408Y-88823551D01*
X188185100Y-88766468D01*
X188016129Y-88746320D01*
X188009126Y-88747056D01*
X188009125Y-88747056D01*
X187853901Y-88763370D01*
X187853897Y-88763371D01*
X187846893Y-88764107D01*
X187840222Y-88766378D01*
X187692473Y-88816675D01*
X187692470Y-88816676D01*
X187685803Y-88818946D01*
X187679805Y-88822636D01*
X187679803Y-88822637D01*
X187546865Y-88904421D01*
X187546863Y-88904423D01*
X187540866Y-88908112D01*
X187419286Y-89027173D01*
X187415475Y-89033087D01*
X187415473Y-89033089D01*
X187341878Y-89147285D01*
X187327104Y-89170210D01*
X187268903Y-89330116D01*
X187247575Y-89498943D01*
X131699500Y-89498943D01*
X131699500Y-87555843D01*
X176465275Y-87555843D01*
X176481881Y-87725199D01*
X176535594Y-87886667D01*
X176539241Y-87892689D01*
X176539242Y-87892691D01*
X176566033Y-87936927D01*
X176623746Y-88032223D01*
X176741955Y-88154632D01*
X176884346Y-88247810D01*
X176890950Y-88250266D01*
X176890952Y-88250267D01*
X176927344Y-88263801D01*
X177043841Y-88307126D01*
X177212515Y-88329632D01*
X177219526Y-88328994D01*
X177219530Y-88328994D01*
X177374962Y-88314848D01*
X177381983Y-88314209D01*
X177388685Y-88312031D01*
X177388687Y-88312031D01*
X177537123Y-88263801D01*
X177537126Y-88263800D01*
X177543822Y-88261624D01*
X177689990Y-88174490D01*
X177695084Y-88169639D01*
X177695088Y-88169636D01*
X177762333Y-88105599D01*
X177813221Y-88057139D01*
X177907391Y-87915402D01*
X177967819Y-87756325D01*
X177991501Y-87587813D01*
X177991799Y-87566500D01*
X177972831Y-87397392D01*
X177916868Y-87236689D01*
X177910883Y-87227110D01*
X177888920Y-87191964D01*
X177826692Y-87092379D01*
X177706786Y-86971632D01*
X177690539Y-86961321D01*
X177651906Y-86936804D01*
X177563108Y-86880451D01*
X177402800Y-86823368D01*
X177233829Y-86803220D01*
X177226826Y-86803956D01*
X177226825Y-86803956D01*
X177071601Y-86820270D01*
X177071597Y-86820271D01*
X177064593Y-86821007D01*
X177057922Y-86823278D01*
X176910173Y-86873575D01*
X176910170Y-86873576D01*
X176903503Y-86875846D01*
X176897505Y-86879536D01*
X176897503Y-86879537D01*
X176764565Y-86961321D01*
X176764563Y-86961323D01*
X176758566Y-86965012D01*
X176636986Y-87084073D01*
X176544804Y-87227110D01*
X176486603Y-87387016D01*
X176465275Y-87555843D01*
X131699500Y-87555843D01*
X131699500Y-83707743D01*
X170127975Y-83707743D01*
X170144581Y-83877099D01*
X170198294Y-84038567D01*
X170201941Y-84044589D01*
X170201942Y-84044591D01*
X170215697Y-84067302D01*
X170286446Y-84184123D01*
X170404655Y-84306532D01*
X170410551Y-84310390D01*
X170536710Y-84392946D01*
X170547046Y-84399710D01*
X170553650Y-84402166D01*
X170553652Y-84402167D01*
X170626793Y-84429368D01*
X170706541Y-84459026D01*
X170713526Y-84459958D01*
X170721830Y-84461066D01*
X170786707Y-84489902D01*
X170825695Y-84549235D01*
X170826416Y-84620228D01*
X170806848Y-84657833D01*
X170807686Y-84658373D01*
X170755358Y-84739570D01*
X170715504Y-84801410D01*
X170657303Y-84961316D01*
X170635975Y-85130143D01*
X170652581Y-85299499D01*
X170706294Y-85460967D01*
X170709941Y-85466989D01*
X170709942Y-85466991D01*
X170723697Y-85489702D01*
X170794446Y-85606523D01*
X170912655Y-85728932D01*
X171055046Y-85822110D01*
X171061650Y-85824566D01*
X171061652Y-85824567D01*
X171098044Y-85838101D01*
X171214541Y-85881426D01*
X171383215Y-85903932D01*
X171390226Y-85903294D01*
X171390230Y-85903294D01*
X171545662Y-85889148D01*
X171552683Y-85888509D01*
X171559385Y-85886331D01*
X171559387Y-85886331D01*
X171707823Y-85838101D01*
X171707826Y-85838100D01*
X171714522Y-85835924D01*
X171860690Y-85748790D01*
X171865784Y-85743939D01*
X171865788Y-85743936D01*
X171944752Y-85668739D01*
X195862882Y-85668739D01*
X195879562Y-85867386D01*
X195934510Y-86059009D01*
X196025630Y-86236311D01*
X196149453Y-86392537D01*
X196301263Y-86521737D01*
X196306641Y-86524743D01*
X196306643Y-86524744D01*
X196348597Y-86548191D01*
X196475276Y-86618989D01*
X196481135Y-86620893D01*
X196481138Y-86620894D01*
X196516901Y-86632514D01*
X196664865Y-86680591D01*
X196670975Y-86681320D01*
X196670977Y-86681320D01*
X196738514Y-86689373D01*
X196862809Y-86704194D01*
X196868944Y-86703722D01*
X196868946Y-86703722D01*
X197055426Y-86689373D01*
X197055431Y-86689372D01*
X197061567Y-86688900D01*
X197067497Y-86687244D01*
X197067499Y-86687244D01*
X197157568Y-86662096D01*
X197253570Y-86635292D01*
X197259070Y-86632514D01*
X197426002Y-86548191D01*
X197426004Y-86548190D01*
X197431503Y-86545412D01*
X197588590Y-86422682D01*
X197611162Y-86396532D01*
X197714818Y-86276446D01*
X197714819Y-86276444D01*
X197718847Y-86271778D01*
X197817312Y-86098448D01*
X197880235Y-85909294D01*
X197889504Y-85835924D01*
X197904778Y-85715023D01*
X197904779Y-85715013D01*
X197905220Y-85711520D01*
X197905618Y-85683000D01*
X197886165Y-85484606D01*
X197884384Y-85478707D01*
X197884383Y-85478702D01*
X197830329Y-85299667D01*
X197828548Y-85293768D01*
X197758546Y-85162113D01*
X197737855Y-85123198D01*
X197737853Y-85123195D01*
X197734961Y-85117756D01*
X197731071Y-85112986D01*
X197731068Y-85112982D01*
X197612863Y-84968049D01*
X197612860Y-84968046D01*
X197608968Y-84963274D01*
X197598601Y-84954697D01*
X197460119Y-84840135D01*
X197455370Y-84836206D01*
X197280015Y-84741392D01*
X197089585Y-84682444D01*
X197083460Y-84681800D01*
X197083459Y-84681800D01*
X196897460Y-84662251D01*
X196897458Y-84662251D01*
X196891331Y-84661607D01*
X196769943Y-84672654D01*
X196698946Y-84679115D01*
X196698945Y-84679115D01*
X196692805Y-84679674D01*
X196686891Y-84681415D01*
X196686889Y-84681415D01*
X196556739Y-84719721D01*
X196501570Y-84735958D01*
X196324909Y-84828314D01*
X196320109Y-84832174D01*
X196320108Y-84832174D01*
X196315093Y-84836206D01*
X196169551Y-84953225D01*
X196041414Y-85105933D01*
X195945379Y-85280621D01*
X195943518Y-85286488D01*
X195943517Y-85286490D01*
X195927426Y-85337214D01*
X195885102Y-85470635D01*
X195862882Y-85668739D01*
X171944752Y-85668739D01*
X171951184Y-85662614D01*
X171983921Y-85631439D01*
X172078091Y-85489702D01*
X172138519Y-85330625D01*
X172162201Y-85162113D01*
X172162499Y-85140800D01*
X172143531Y-84971692D01*
X172138744Y-84957944D01*
X172097718Y-84840135D01*
X172087568Y-84810989D01*
X172081583Y-84801410D01*
X172039594Y-84734216D01*
X171997392Y-84666679D01*
X171992356Y-84661607D01*
X171882448Y-84550929D01*
X171877486Y-84545932D01*
X171733808Y-84454751D01*
X171573500Y-84397668D01*
X171566501Y-84396833D01*
X171559644Y-84395225D01*
X171560179Y-84392946D01*
X171505058Y-84369366D01*
X171465244Y-84310584D01*
X171463529Y-84239608D01*
X171480297Y-84202453D01*
X171570091Y-84067302D01*
X171630519Y-83908225D01*
X171654201Y-83739713D01*
X171654499Y-83718400D01*
X171635531Y-83549292D01*
X171579568Y-83388589D01*
X171573583Y-83379010D01*
X171533271Y-83314500D01*
X171489392Y-83244279D01*
X171369486Y-83123532D01*
X171353239Y-83113221D01*
X171255531Y-83051214D01*
X171225808Y-83032351D01*
X171065500Y-82975268D01*
X170896529Y-82955120D01*
X170889526Y-82955856D01*
X170889525Y-82955856D01*
X170734301Y-82972170D01*
X170734297Y-82972171D01*
X170727293Y-82972907D01*
X170720622Y-82975178D01*
X170572873Y-83025475D01*
X170572870Y-83025476D01*
X170566203Y-83027746D01*
X170560205Y-83031436D01*
X170560203Y-83031437D01*
X170427265Y-83113221D01*
X170427263Y-83113223D01*
X170421266Y-83116912D01*
X170416233Y-83121841D01*
X170326645Y-83209573D01*
X170299686Y-83235973D01*
X170295875Y-83241887D01*
X170295873Y-83241889D01*
X170241933Y-83325587D01*
X170207504Y-83379010D01*
X170149303Y-83538916D01*
X170127975Y-83707743D01*
X131699500Y-83707743D01*
X131699500Y-82844143D01*
X178763975Y-82844143D01*
X178780581Y-83013499D01*
X178834294Y-83174967D01*
X178837941Y-83180989D01*
X178837942Y-83180991D01*
X178879890Y-83250254D01*
X178922446Y-83320523D01*
X179040655Y-83442932D01*
X179183046Y-83536110D01*
X179189650Y-83538566D01*
X179189652Y-83538567D01*
X179226044Y-83552101D01*
X179342541Y-83595426D01*
X179511215Y-83617932D01*
X179518226Y-83617294D01*
X179518230Y-83617294D01*
X179673662Y-83603148D01*
X179680683Y-83602509D01*
X179687385Y-83600331D01*
X179687387Y-83600331D01*
X179835823Y-83552101D01*
X179835826Y-83552100D01*
X179842522Y-83549924D01*
X179988690Y-83462790D01*
X179993784Y-83457939D01*
X179993788Y-83457936D01*
X180076668Y-83379010D01*
X180111921Y-83345439D01*
X180206091Y-83203702D01*
X180266519Y-83044625D01*
X180290201Y-82876113D01*
X180290499Y-82854800D01*
X180287300Y-82826281D01*
X180299584Y-82756356D01*
X180325623Y-82720990D01*
X180416721Y-82634239D01*
X180510891Y-82492502D01*
X180571319Y-82333425D01*
X180595001Y-82164913D01*
X180595299Y-82143600D01*
X180594869Y-82139768D01*
X180611512Y-82070773D01*
X180656196Y-82025403D01*
X180795441Y-81942397D01*
X180795447Y-81942392D01*
X180801490Y-81938790D01*
X180806584Y-81933939D01*
X180806588Y-81933936D01*
X180897540Y-81847323D01*
X180924721Y-81821439D01*
X180931769Y-81810832D01*
X180981239Y-81736373D01*
X181018891Y-81679702D01*
X181079319Y-81520625D01*
X181089339Y-81449327D01*
X181097283Y-81392801D01*
X181107182Y-81370943D01*
X181862775Y-81370943D01*
X181879381Y-81540299D01*
X181933094Y-81701767D01*
X181936741Y-81707789D01*
X181936742Y-81707791D01*
X182008513Y-81826298D01*
X182021246Y-81847323D01*
X182139455Y-81969732D01*
X182281846Y-82062910D01*
X182288450Y-82065366D01*
X182288452Y-82065367D01*
X182324844Y-82078901D01*
X182441341Y-82122226D01*
X182610015Y-82144732D01*
X182617026Y-82144094D01*
X182617030Y-82144094D01*
X182772462Y-82129948D01*
X182779483Y-82129309D01*
X182786185Y-82127131D01*
X182786187Y-82127131D01*
X182934623Y-82078901D01*
X182934626Y-82078900D01*
X182941322Y-82076724D01*
X183087490Y-81989590D01*
X183092584Y-81984739D01*
X183092588Y-81984736D01*
X183159833Y-81920699D01*
X183210721Y-81872239D01*
X183244473Y-81821439D01*
X183300990Y-81736373D01*
X183304891Y-81730502D01*
X183365319Y-81571425D01*
X183389001Y-81402913D01*
X183389142Y-81392801D01*
X183389244Y-81385561D01*
X183389244Y-81385555D01*
X183389299Y-81381600D01*
X183370331Y-81212492D01*
X183314368Y-81051789D01*
X183308383Y-81042210D01*
X183280776Y-80998032D01*
X183224192Y-80907479D01*
X183104286Y-80786732D01*
X183095330Y-80781048D01*
X183023855Y-80735689D01*
X182960608Y-80695551D01*
X182800300Y-80638468D01*
X182631329Y-80618320D01*
X182624326Y-80619056D01*
X182624325Y-80619056D01*
X182469101Y-80635370D01*
X182469097Y-80635371D01*
X182462093Y-80636107D01*
X182455422Y-80638378D01*
X182307673Y-80688675D01*
X182307670Y-80688676D01*
X182301003Y-80690946D01*
X182295005Y-80694636D01*
X182295003Y-80694637D01*
X182162065Y-80776421D01*
X182162063Y-80776423D01*
X182156066Y-80780112D01*
X182034486Y-80899173D01*
X182030675Y-80905087D01*
X182030673Y-80905089D01*
X181970775Y-80998032D01*
X181942304Y-81042210D01*
X181921045Y-81100618D01*
X181900049Y-81158306D01*
X181884103Y-81202116D01*
X181862775Y-81370943D01*
X181107182Y-81370943D01*
X181126571Y-81328127D01*
X181183121Y-81290503D01*
X181258223Y-81266101D01*
X181258226Y-81266100D01*
X181264922Y-81263924D01*
X181411090Y-81176790D01*
X181416184Y-81171939D01*
X181416188Y-81171936D01*
X181522909Y-81070306D01*
X181534321Y-81059439D01*
X181541369Y-81048832D01*
X181604123Y-80954378D01*
X181628491Y-80917702D01*
X181688919Y-80758625D01*
X181712601Y-80590113D01*
X181712899Y-80568800D01*
X181693931Y-80399692D01*
X181690764Y-80390596D01*
X181677093Y-80351339D01*
X195371482Y-80351339D01*
X195388162Y-80549986D01*
X195400179Y-80591894D01*
X195439584Y-80729312D01*
X195443110Y-80741609D01*
X195445925Y-80747086D01*
X195527127Y-80905089D01*
X195534230Y-80918911D01*
X195658053Y-81075137D01*
X195809863Y-81204337D01*
X195815241Y-81207343D01*
X195815243Y-81207344D01*
X195857197Y-81230791D01*
X195983876Y-81301589D01*
X195989735Y-81303493D01*
X195989738Y-81303494D01*
X196050503Y-81323238D01*
X196173465Y-81363191D01*
X196179575Y-81363920D01*
X196179577Y-81363920D01*
X196247114Y-81371973D01*
X196371409Y-81386794D01*
X196377544Y-81386322D01*
X196377546Y-81386322D01*
X196564026Y-81371973D01*
X196564031Y-81371972D01*
X196570167Y-81371500D01*
X196576097Y-81369844D01*
X196576099Y-81369844D01*
X196666168Y-81344696D01*
X196762170Y-81317892D01*
X196771560Y-81313149D01*
X196934602Y-81230791D01*
X196934604Y-81230790D01*
X196940103Y-81228012D01*
X197097190Y-81105282D01*
X197119762Y-81079132D01*
X197223418Y-80959046D01*
X197223419Y-80959044D01*
X197227447Y-80954378D01*
X197325912Y-80781048D01*
X197388835Y-80591894D01*
X197406928Y-80448676D01*
X197413378Y-80397623D01*
X197413379Y-80397613D01*
X197413820Y-80394120D01*
X197414218Y-80365600D01*
X197394765Y-80167206D01*
X197392984Y-80161307D01*
X197392983Y-80161302D01*
X197338929Y-79982267D01*
X197337148Y-79976368D01*
X197256576Y-79824834D01*
X197246455Y-79805798D01*
X197246453Y-79805795D01*
X197243561Y-79800356D01*
X197239671Y-79795586D01*
X197239668Y-79795582D01*
X197154323Y-79690939D01*
X207106282Y-79690939D01*
X207122962Y-79889586D01*
X207177910Y-80081209D01*
X207269030Y-80258511D01*
X207392853Y-80414737D01*
X207544663Y-80543937D01*
X207550041Y-80546943D01*
X207550043Y-80546944D01*
X207591997Y-80570391D01*
X207718676Y-80641189D01*
X207724535Y-80643093D01*
X207724538Y-80643094D01*
X207760301Y-80654714D01*
X207908265Y-80702791D01*
X207914375Y-80703520D01*
X207914377Y-80703520D01*
X207981914Y-80711573D01*
X208106209Y-80726394D01*
X208112344Y-80725922D01*
X208112346Y-80725922D01*
X208298826Y-80711573D01*
X208298831Y-80711572D01*
X208304967Y-80711100D01*
X208310897Y-80709444D01*
X208310899Y-80709444D01*
X208400968Y-80684296D01*
X208496970Y-80657492D01*
X208502470Y-80654714D01*
X208669402Y-80570391D01*
X208669404Y-80570390D01*
X208674903Y-80567612D01*
X208831990Y-80444882D01*
X208854562Y-80418732D01*
X208958218Y-80298646D01*
X208958219Y-80298644D01*
X208962247Y-80293978D01*
X209060712Y-80120648D01*
X209123635Y-79931494D01*
X209130661Y-79875875D01*
X209148178Y-79737223D01*
X209148179Y-79737213D01*
X209148620Y-79733720D01*
X209149018Y-79705200D01*
X209129565Y-79506806D01*
X209127784Y-79500907D01*
X209127783Y-79500902D01*
X209073729Y-79321867D01*
X209071948Y-79315968D01*
X208978361Y-79139956D01*
X208974471Y-79135186D01*
X208974468Y-79135182D01*
X208856263Y-78990249D01*
X208856260Y-78990246D01*
X208852368Y-78985474D01*
X208837856Y-78973468D01*
X208703519Y-78862335D01*
X208698770Y-78858406D01*
X208523415Y-78763592D01*
X208332985Y-78704644D01*
X208326860Y-78704000D01*
X208326859Y-78704000D01*
X208140860Y-78684451D01*
X208140858Y-78684451D01*
X208134731Y-78683807D01*
X208011852Y-78694990D01*
X207942346Y-78701315D01*
X207942345Y-78701315D01*
X207936205Y-78701874D01*
X207930291Y-78703615D01*
X207930289Y-78703615D01*
X207800139Y-78741921D01*
X207744970Y-78758158D01*
X207568309Y-78850514D01*
X207563509Y-78854374D01*
X207563508Y-78854374D01*
X207558493Y-78858406D01*
X207412951Y-78975425D01*
X207284814Y-79128133D01*
X207188779Y-79302821D01*
X207128502Y-79492835D01*
X207106282Y-79690939D01*
X197154323Y-79690939D01*
X197121463Y-79650649D01*
X197121460Y-79650646D01*
X197117568Y-79645874D01*
X196963970Y-79518806D01*
X196788615Y-79423992D01*
X196598185Y-79365044D01*
X196592060Y-79364400D01*
X196592059Y-79364400D01*
X196406060Y-79344851D01*
X196406058Y-79344851D01*
X196399931Y-79344207D01*
X196277052Y-79355390D01*
X196207546Y-79361715D01*
X196207545Y-79361715D01*
X196201405Y-79362274D01*
X196195491Y-79364015D01*
X196195489Y-79364015D01*
X196065339Y-79402321D01*
X196010170Y-79418558D01*
X195833509Y-79510914D01*
X195828709Y-79514774D01*
X195828708Y-79514774D01*
X195823693Y-79518806D01*
X195678151Y-79635825D01*
X195550014Y-79788533D01*
X195453979Y-79963221D01*
X195452118Y-79969088D01*
X195452117Y-79969090D01*
X195450581Y-79973932D01*
X195393702Y-80153235D01*
X195371482Y-80351339D01*
X181677093Y-80351339D01*
X181655251Y-80288618D01*
X181637968Y-80238989D01*
X181631983Y-80229410D01*
X181580715Y-80147366D01*
X181547792Y-80094679D01*
X181427886Y-79973932D01*
X181420257Y-79969090D01*
X181370236Y-79937346D01*
X181284208Y-79882751D01*
X181123900Y-79825668D01*
X180954929Y-79805520D01*
X180947926Y-79806256D01*
X180947925Y-79806256D01*
X180792701Y-79822570D01*
X180792697Y-79822571D01*
X180785693Y-79823307D01*
X180779022Y-79825578D01*
X180631273Y-79875875D01*
X180631270Y-79875876D01*
X180624603Y-79878146D01*
X180618605Y-79881836D01*
X180618603Y-79881837D01*
X180485665Y-79963621D01*
X180485663Y-79963623D01*
X180479666Y-79967312D01*
X180467803Y-79978929D01*
X180369405Y-80075289D01*
X180358086Y-80086373D01*
X180354275Y-80092287D01*
X180354273Y-80092289D01*
X180318778Y-80147366D01*
X180265904Y-80229410D01*
X180207703Y-80389316D01*
X180206820Y-80396306D01*
X180193119Y-80504757D01*
X180164737Y-80569834D01*
X180108718Y-80608243D01*
X180021673Y-80637875D01*
X180021670Y-80637876D01*
X180015003Y-80640146D01*
X180009005Y-80643836D01*
X180009003Y-80643837D01*
X179876065Y-80725621D01*
X179876063Y-80725623D01*
X179870066Y-80729312D01*
X179748486Y-80848373D01*
X179744675Y-80854287D01*
X179744673Y-80854289D01*
X179703806Y-80917702D01*
X179656304Y-80991410D01*
X179598103Y-81151316D01*
X179576775Y-81320143D01*
X179577463Y-81327158D01*
X179577552Y-81328070D01*
X179577442Y-81328651D01*
X179577364Y-81334201D01*
X179576389Y-81334187D01*
X179564295Y-81397818D01*
X179515434Y-81449327D01*
X179511365Y-81451461D01*
X179507003Y-81452946D01*
X179501009Y-81456634D01*
X179501006Y-81456635D01*
X179368065Y-81538421D01*
X179368063Y-81538423D01*
X179362066Y-81542112D01*
X179240486Y-81661173D01*
X179236675Y-81667087D01*
X179236673Y-81667089D01*
X179210442Y-81707791D01*
X179148304Y-81804210D01*
X179090103Y-81964116D01*
X179068775Y-82132943D01*
X179071523Y-82160966D01*
X179072644Y-82172404D01*
X179059384Y-82242152D01*
X179035403Y-82274722D01*
X178968730Y-82340014D01*
X178935686Y-82372373D01*
X178843504Y-82515410D01*
X178785303Y-82675316D01*
X178763975Y-82844143D01*
X131699500Y-82844143D01*
X131699500Y-76500485D01*
X132718854Y-76500485D01*
X132719156Y-76504320D01*
X132737108Y-76732417D01*
X132744370Y-76824695D01*
X132809206Y-77143378D01*
X132912398Y-77451784D01*
X133052405Y-77745316D01*
X133227141Y-78019597D01*
X133229584Y-78022560D01*
X133229585Y-78022562D01*
X133379308Y-78204190D01*
X133434001Y-78270538D01*
X133669902Y-78494399D01*
X133931326Y-78687843D01*
X133961022Y-78704644D01*
X134211019Y-78846086D01*
X134211023Y-78846088D01*
X134214376Y-78847985D01*
X134217937Y-78849460D01*
X134217939Y-78849461D01*
X134249020Y-78862335D01*
X134514832Y-78972438D01*
X134618288Y-79001129D01*
X134824500Y-79058317D01*
X134824508Y-79058319D01*
X134828216Y-79059347D01*
X135149856Y-79107416D01*
X135153154Y-79107560D01*
X135264918Y-79112440D01*
X135264922Y-79112440D01*
X135266294Y-79112500D01*
X135464598Y-79112500D01*
X135706605Y-79097698D01*
X135710388Y-79096997D01*
X135710395Y-79096996D01*
X135910459Y-79059916D01*
X136026372Y-79038433D01*
X136238447Y-78971566D01*
X136332860Y-78941798D01*
X136332863Y-78941797D01*
X136336532Y-78940640D01*
X136340029Y-78939046D01*
X136340035Y-78939044D01*
X136628954Y-78807376D01*
X136628958Y-78807374D01*
X136632462Y-78805777D01*
X136635744Y-78803766D01*
X136906473Y-78637863D01*
X136906476Y-78637861D01*
X136909751Y-78635854D01*
X136912755Y-78633464D01*
X136912760Y-78633461D01*
X137037007Y-78534630D01*
X137164264Y-78433405D01*
X137166958Y-78430664D01*
X137166962Y-78430660D01*
X137389513Y-78204190D01*
X137389517Y-78204185D01*
X137392208Y-78201447D01*
X137590185Y-77943439D01*
X137755242Y-77663227D01*
X137884920Y-77364988D01*
X137977285Y-77053169D01*
X138030961Y-76732417D01*
X138041087Y-76500485D01*
X219205854Y-76500485D01*
X219206156Y-76504320D01*
X219224108Y-76732417D01*
X219231370Y-76824695D01*
X219296206Y-77143378D01*
X219399398Y-77451784D01*
X219539405Y-77745316D01*
X219714141Y-78019597D01*
X219716584Y-78022560D01*
X219716585Y-78022562D01*
X219866308Y-78204190D01*
X219921001Y-78270538D01*
X220156902Y-78494399D01*
X220418326Y-78687843D01*
X220448022Y-78704644D01*
X220698019Y-78846086D01*
X220698023Y-78846088D01*
X220701376Y-78847985D01*
X220704937Y-78849460D01*
X220704939Y-78849461D01*
X220736020Y-78862335D01*
X221001832Y-78972438D01*
X221105288Y-79001129D01*
X221311500Y-79058317D01*
X221311508Y-79058319D01*
X221315216Y-79059347D01*
X221636856Y-79107416D01*
X221640154Y-79107560D01*
X221751918Y-79112440D01*
X221751922Y-79112440D01*
X221753294Y-79112500D01*
X221951598Y-79112500D01*
X222193605Y-79097698D01*
X222197388Y-79096997D01*
X222197395Y-79096996D01*
X222397459Y-79059916D01*
X222513372Y-79038433D01*
X222725447Y-78971566D01*
X222819860Y-78941798D01*
X222819863Y-78941797D01*
X222823532Y-78940640D01*
X222827029Y-78939046D01*
X222827035Y-78939044D01*
X223115954Y-78807376D01*
X223115958Y-78807374D01*
X223119462Y-78805777D01*
X223122744Y-78803766D01*
X223393473Y-78637863D01*
X223393476Y-78637861D01*
X223396751Y-78635854D01*
X223399755Y-78633464D01*
X223399760Y-78633461D01*
X223524007Y-78534630D01*
X223651264Y-78433405D01*
X223653958Y-78430664D01*
X223653962Y-78430660D01*
X223876513Y-78204190D01*
X223876517Y-78204185D01*
X223879208Y-78201447D01*
X224077185Y-77943439D01*
X224242242Y-77663227D01*
X224371920Y-77364988D01*
X224464285Y-77053169D01*
X224517961Y-76732417D01*
X224532146Y-76407515D01*
X224519388Y-76245410D01*
X224506932Y-76087140D01*
X224506932Y-76087137D01*
X224506630Y-76083305D01*
X224441794Y-75764622D01*
X224338602Y-75456216D01*
X224198595Y-75162684D01*
X224023859Y-74888403D01*
X223876470Y-74709606D01*
X223819442Y-74640425D01*
X223819438Y-74640420D01*
X223816999Y-74637462D01*
X223581098Y-74413601D01*
X223319674Y-74220157D01*
X223178149Y-74140086D01*
X223039981Y-74061914D01*
X223039977Y-74061912D01*
X223036624Y-74060015D01*
X222994610Y-74042612D01*
X222816788Y-73968956D01*
X222736168Y-73935562D01*
X222632712Y-73906871D01*
X222426500Y-73849683D01*
X222426492Y-73849681D01*
X222422784Y-73848653D01*
X222101144Y-73800584D01*
X222097846Y-73800440D01*
X221986082Y-73795560D01*
X221986078Y-73795560D01*
X221984706Y-73795500D01*
X221786402Y-73795500D01*
X221544395Y-73810302D01*
X221540612Y-73811003D01*
X221540605Y-73811004D01*
X221384512Y-73839934D01*
X221224628Y-73869567D01*
X221040058Y-73927762D01*
X220918140Y-73966202D01*
X220918137Y-73966203D01*
X220914468Y-73967360D01*
X220910971Y-73968954D01*
X220910965Y-73968956D01*
X220622046Y-74100624D01*
X220622042Y-74100626D01*
X220618538Y-74102223D01*
X220615259Y-74104233D01*
X220615256Y-74104234D01*
X220350063Y-74266745D01*
X220341249Y-74272146D01*
X220338245Y-74274536D01*
X220338240Y-74274539D01*
X220305520Y-74300566D01*
X220086736Y-74474595D01*
X220084042Y-74477336D01*
X220084038Y-74477340D01*
X219861487Y-74703810D01*
X219861483Y-74703815D01*
X219858792Y-74706553D01*
X219660815Y-74964561D01*
X219495758Y-75244773D01*
X219366080Y-75543012D01*
X219273715Y-75854831D01*
X219220039Y-76175583D01*
X219205854Y-76500485D01*
X138041087Y-76500485D01*
X138045146Y-76407515D01*
X138032388Y-76245410D01*
X138019932Y-76087140D01*
X138019932Y-76087137D01*
X138019630Y-76083305D01*
X137954794Y-75764622D01*
X137851602Y-75456216D01*
X137711595Y-75162684D01*
X137536859Y-74888403D01*
X137389470Y-74709606D01*
X137332442Y-74640425D01*
X137332438Y-74640420D01*
X137329999Y-74637462D01*
X137094098Y-74413601D01*
X136832674Y-74220157D01*
X136691149Y-74140086D01*
X136552981Y-74061914D01*
X136552977Y-74061912D01*
X136549624Y-74060015D01*
X136507610Y-74042612D01*
X136329788Y-73968956D01*
X136249168Y-73935562D01*
X136145712Y-73906871D01*
X135939500Y-73849683D01*
X135939492Y-73849681D01*
X135935784Y-73848653D01*
X135614144Y-73800584D01*
X135610846Y-73800440D01*
X135499082Y-73795560D01*
X135499078Y-73795560D01*
X135497706Y-73795500D01*
X135299402Y-73795500D01*
X135057395Y-73810302D01*
X135053612Y-73811003D01*
X135053605Y-73811004D01*
X134897511Y-73839935D01*
X134737628Y-73869567D01*
X134553058Y-73927762D01*
X134431140Y-73966202D01*
X134431137Y-73966203D01*
X134427468Y-73967360D01*
X134423971Y-73968954D01*
X134423965Y-73968956D01*
X134135046Y-74100624D01*
X134135042Y-74100626D01*
X134131538Y-74102223D01*
X134128259Y-74104233D01*
X134128256Y-74104234D01*
X133863063Y-74266745D01*
X133854249Y-74272146D01*
X133851245Y-74274536D01*
X133851240Y-74274539D01*
X133818520Y-74300566D01*
X133599736Y-74474595D01*
X133597042Y-74477336D01*
X133597038Y-74477340D01*
X133374487Y-74703810D01*
X133374483Y-74703815D01*
X133371792Y-74706553D01*
X133173815Y-74964561D01*
X133008758Y-75244773D01*
X132879080Y-75543012D01*
X132786715Y-75854831D01*
X132733039Y-76175583D01*
X132718854Y-76500485D01*
X131699500Y-76500485D01*
X131699500Y-72897500D01*
X131719502Y-72829379D01*
X131773158Y-72782886D01*
X131825500Y-72771500D01*
X140307140Y-72771500D01*
X140375261Y-72791502D01*
G37*
%TD.AperFunction*%
%TD*%
M02*
