%TF.GenerationSoftware,KiCad,Pcbnew,7.0.1*%
%TF.CreationDate,2023-04-09T14:50:30-07:00*%
%TF.ProjectId,Ground-Station-Telemetry,47726f75-6e64-42d5-9374-6174696f6e2d,rev?*%
%TF.SameCoordinates,Original*%
%TF.FileFunction,Copper,L1,Top*%
%TF.FilePolarity,Positive*%
%FSLAX46Y46*%
G04 Gerber Fmt 4.6, Leading zero omitted, Abs format (unit mm)*
G04 Created by KiCad (PCBNEW 7.0.1) date 2023-04-09 14:50:30*
%MOMM*%
%LPD*%
G01*
G04 APERTURE LIST*
%TA.AperFunction,SMDPad,CuDef*%
%ADD10R,1.000000X1.100000*%
%TD*%
%TA.AperFunction,SMDPad,CuDef*%
%ADD11R,1.460500X0.558800*%
%TD*%
%TA.AperFunction,SMDPad,CuDef*%
%ADD12R,1.100000X1.000000*%
%TD*%
%TA.AperFunction,SMDPad,CuDef*%
%ADD13R,0.940000X1.020000*%
%TD*%
%TA.AperFunction,ComponentPad*%
%ADD14R,1.008000X1.008000*%
%TD*%
%TA.AperFunction,ComponentPad*%
%ADD15C,1.008000*%
%TD*%
%TA.AperFunction,ComponentPad*%
%ADD16C,1.270000*%
%TD*%
%TA.AperFunction,ComponentPad*%
%ADD17C,3.810000*%
%TD*%
%TA.AperFunction,SMDPad,CuDef*%
%ADD18R,1.700000X0.990600*%
%TD*%
%TA.AperFunction,SMDPad,CuDef*%
%ADD19R,0.965200X1.295400*%
%TD*%
%TA.AperFunction,SMDPad,CuDef*%
%ADD20R,1.950000X1.050000*%
%TD*%
%TA.AperFunction,SMDPad,CuDef*%
%ADD21R,1.020000X0.940000*%
%TD*%
%TA.AperFunction,ComponentPad*%
%ADD22C,1.066800*%
%TD*%
%TA.AperFunction,SMDPad,CuDef*%
%ADD23R,1.778000X1.270000*%
%TD*%
%TA.AperFunction,SMDPad,CuDef*%
%ADD24R,0.979300X0.558800*%
%TD*%
%TA.AperFunction,SMDPad,CuDef*%
%ADD25R,1.300000X1.100000*%
%TD*%
%TA.AperFunction,ComponentPad*%
%ADD26R,1.478000X1.478000*%
%TD*%
%TA.AperFunction,ComponentPad*%
%ADD27C,1.478000*%
%TD*%
%TA.AperFunction,ComponentPad*%
%ADD28C,3.366000*%
%TD*%
%TA.AperFunction,SMDPad,CuDef*%
%ADD29R,5.080000X2.286000*%
%TD*%
%TA.AperFunction,SMDPad,CuDef*%
%ADD30R,5.080000X2.413000*%
%TD*%
%TA.AperFunction,SMDPad,CuDef*%
%ADD31R,1.295400X0.558800*%
%TD*%
%TA.AperFunction,SMDPad,CuDef*%
%ADD32R,1.000000X0.800000*%
%TD*%
%TA.AperFunction,SMDPad,CuDef*%
%ADD33R,1.560000X0.280000*%
%TD*%
%TA.AperFunction,SMDPad,CuDef*%
%ADD34R,0.280000X1.560000*%
%TD*%
%TA.AperFunction,SMDPad,CuDef*%
%ADD35R,0.900000X0.254000*%
%TD*%
%TA.AperFunction,SMDPad,CuDef*%
%ADD36R,0.254000X0.900000*%
%TD*%
%TA.AperFunction,SMDPad,CuDef*%
%ADD37R,3.100000X3.100000*%
%TD*%
%TA.AperFunction,SMDPad,CuDef*%
%ADD38R,0.950000X2.150000*%
%TD*%
%TA.AperFunction,SMDPad,CuDef*%
%ADD39R,3.250000X2.150000*%
%TD*%
%TA.AperFunction,ViaPad*%
%ADD40C,0.500000*%
%TD*%
%TA.AperFunction,ViaPad*%
%ADD41C,1.016000*%
%TD*%
%TA.AperFunction,Conductor*%
%ADD42C,0.200000*%
%TD*%
%TA.AperFunction,Conductor*%
%ADD43C,0.254000*%
%TD*%
%TA.AperFunction,Conductor*%
%ADD44C,0.250000*%
%TD*%
%TA.AperFunction,Conductor*%
%ADD45C,0.508000*%
%TD*%
%TA.AperFunction,Conductor*%
%ADD46C,0.381000*%
%TD*%
%TA.AperFunction,Conductor*%
%ADD47C,0.266700*%
%TD*%
%TA.AperFunction,Conductor*%
%ADD48C,0.313690*%
%TD*%
G04 APERTURE END LIST*
D10*
%TO.P,C9,1*%
%TO.N,3.3V*%
X174625000Y-106719000D03*
%TO.P,C9,2*%
%TO.N,Earth*%
X174625000Y-108419000D03*
%TD*%
D11*
%TO.P,U6,1,VCC*%
%TO.N,3.3V*%
X191839850Y-84963000D03*
%TO.P,U6,2,R*%
%TO.N,RS485_RX*%
X191839850Y-86233000D03*
%TO.P,U6,3,D*%
%TO.N,RS485_TX*%
X191839850Y-87503000D03*
%TO.P,U6,4,GND*%
%TO.N,Earth*%
X191839850Y-88773000D03*
%TO.P,U6,5,Y*%
%TO.N,Net-(U6-Y)*%
X197288150Y-88773000D03*
%TO.P,U6,6,Z*%
%TO.N,Net-(U6-Z)*%
X197288150Y-87503000D03*
%TO.P,U6,7,B*%
%TO.N,Net-(U6-B)*%
X197288150Y-86233000D03*
%TO.P,U6,8,A*%
%TO.N,Net-(U6-A)*%
X197288150Y-84963000D03*
%TD*%
D12*
%TO.P,C15,1*%
%TO.N,3.3V*%
X168998000Y-100838000D03*
%TO.P,C15,2*%
%TO.N,Earth*%
X167298000Y-100838000D03*
%TD*%
D13*
%TO.P,R12,1*%
%TO.N,Net-(U6-B)*%
X200124000Y-85725000D03*
%TO.P,R12,2*%
%TO.N,B*%
X201704000Y-85725000D03*
%TD*%
D14*
%TO.P,U5,1,VCC*%
%TO.N,3.3V*%
X141237500Y-95560000D03*
D15*
%TO.P,U5,2,TX*%
%TO.N,XBEE_TX*%
X143237500Y-95560000D03*
%TO.P,U5,3,RX*%
%TO.N,XBEE_RX*%
X145237500Y-95560000D03*
%TO.P,U5,4,MISO*%
%TO.N,XBEE_MISO*%
X147237500Y-95560000D03*
%TO.P,U5,5,~{RESET}*%
%TO.N,~{XBEE_RST}*%
X149237500Y-95560000D03*
%TO.P,U5,6,PWM0*%
%TO.N,XBEE_PWM0*%
X151237500Y-95560000D03*
%TO.P,U5,7,PWM1*%
%TO.N,XBEE_PWM1*%
X153237500Y-95560000D03*
%TO.P,U5,8,NC*%
%TO.N,unconnected-(U5-NC-Pad8)*%
X155237500Y-95560000D03*
%TO.P,U5,9,DI8*%
%TO.N,XBEE_DIO8*%
X157237500Y-95560000D03*
%TO.P,U5,10,GND*%
%TO.N,Earth*%
X159237500Y-95560000D03*
%TO.P,U5,11,MOSI*%
%TO.N,XBEE_MOSI*%
X159237500Y-73560000D03*
%TO.P,U5,12,DI07*%
%TO.N,XBEE_DIO7*%
X157237500Y-73560000D03*
%TO.P,U5,13,~{SLEEP}*%
%TO.N,~{XBEE_SLEEP}*%
X155237500Y-73560000D03*
%TO.P,U5,14,VREF*%
%TO.N,unconnected-(U5-VREF-Pad14)*%
X153237500Y-73560000D03*
%TO.P,U5,15,DI05*%
%TO.N,XBEE_DIO5*%
X151237500Y-73560000D03*
%TO.P,U5,16,DIO6*%
%TO.N,XBEE_DIO6*%
X149237500Y-73560000D03*
%TO.P,U5,17,SPI_SS*%
%TO.N,XBEE_SS*%
X147237500Y-73560000D03*
%TO.P,U5,18,SCK*%
%TO.N,XBEE_SCK*%
X145237500Y-73560000D03*
%TO.P,U5,19,DIO1*%
%TO.N,XBEE_DIO1*%
X143237500Y-73560000D03*
%TO.P,U5,20,DIO0*%
%TO.N,XBEE_DIO0*%
X141237500Y-73560000D03*
%TD*%
D16*
%TO.P,P3,1*%
%TO.N,B*%
X214630000Y-86741000D03*
%TO.P,P3,2*%
%TO.N,A*%
X212090000Y-85471000D03*
%TO.P,P3,3*%
%TO.N,unconnected-(P3-Pad3)*%
X214630000Y-84201000D03*
%TO.P,P3,4*%
%TO.N,unconnected-(P3-Pad4)*%
X212090000Y-82931000D03*
%TO.P,P3,5*%
%TO.N,unconnected-(P3-Pad5)*%
X214630000Y-81661000D03*
%TO.P,P3,6*%
%TO.N,unconnected-(P3-Pad6)*%
X212090000Y-80391000D03*
%TO.P,P3,7*%
%TO.N,Z*%
X214630000Y-79121000D03*
%TO.P,P3,8*%
%TO.N,Y*%
X212090000Y-77851000D03*
D17*
%TO.P,P3,9*%
%TO.N,N/C*%
X220980000Y-88011000D03*
%TO.P,P3,10*%
X220980000Y-76581000D03*
%TD*%
D18*
%TO.P,B1,1,1*%
%TO.N,Earth*%
X170213000Y-108914999D03*
%TO.P,B1,2,2*%
%TO.N,unconnected-(B1-Pad2)*%
X164813000Y-108914999D03*
%TO.P,B1,3,3*%
%TO.N,NRST*%
X170213000Y-105715001D03*
%TO.P,B1,4,4*%
%TO.N,unconnected-(B1-Pad4)*%
X164813000Y-105715001D03*
%TD*%
D19*
%TO.P,D3,1,1*%
%TO.N,Net-(D3-Pad1)*%
X183769000Y-75311000D03*
%TO.P,D3,2,2*%
%TO.N,3.3V*%
X186817000Y-75311000D03*
%TD*%
D20*
%TO.P,U4,1,GND*%
%TO.N,Earth*%
X159927000Y-112918000D03*
%TO.P,U4,2,MISO*%
%TO.N,LORA_MISO*%
X159927000Y-110918000D03*
%TO.P,U4,3,MOSI*%
%TO.N,LORA_MOSI*%
X159927000Y-108918000D03*
%TO.P,U4,4,SCK*%
%TO.N,LORA_SCK*%
X159927000Y-106918000D03*
%TO.P,U4,5,NSS*%
%TO.N,LORA_SS*%
X159927000Y-104918000D03*
%TO.P,U4,6,RESET*%
%TO.N,LORA_RST*%
X159927000Y-102918000D03*
%TO.P,U4,7,DIO5*%
%TO.N,LORA_IO5*%
X159927000Y-100918000D03*
%TO.P,U4,8,GND@1*%
%TO.N,Earth*%
X159927000Y-98918000D03*
%TO.P,U4,9,ANT*%
%TO.N,Net-(AE1-A)*%
X145127000Y-98918000D03*
%TO.P,U4,10,GND@2*%
%TO.N,Earth*%
X145127000Y-100918000D03*
%TO.P,U4,11,DIO3*%
%TO.N,LORA_IO3*%
X145127000Y-102918000D03*
%TO.P,U4,12,DIO4*%
%TO.N,LORA_IO4*%
X145127000Y-104918000D03*
%TO.P,U4,13,3_3V*%
%TO.N,3.3V*%
X145127000Y-106918000D03*
%TO.P,U4,14,DIO0*%
%TO.N,LORA_IO0*%
X145127000Y-108918000D03*
%TO.P,U4,15,DIO1*%
%TO.N,LORA_IO1*%
X145127000Y-110918000D03*
%TO.P,U4,16,DIO2*%
%TO.N,LORA_IO2*%
X145127000Y-112918000D03*
%TD*%
D12*
%TO.P,C13,1*%
%TO.N,OSC_OUT*%
X163996000Y-98298000D03*
%TO.P,C13,2*%
%TO.N,Earth*%
X165696000Y-98298000D03*
%TD*%
D13*
%TO.P,R10,1*%
%TO.N,Net-(U6-A)*%
X200124000Y-83058000D03*
%TO.P,R10,2*%
%TO.N,A*%
X201704000Y-83058000D03*
%TD*%
D21*
%TO.P,R4,1*%
%TO.N,SWDIO*%
X213360000Y-110970000D03*
%TO.P,R4,2*%
%TO.N,3.3V*%
X213360000Y-112550000D03*
%TD*%
D22*
%TO.P,P1,1,1*%
%TO.N,3.3V*%
X207899000Y-107303950D03*
%TO.P,P1,2,2*%
X207899000Y-108573950D03*
%TO.P,P1,3,3*%
%TO.N,Earth*%
X206629000Y-107303950D03*
%TO.P,P1,4,4*%
X206629000Y-108573950D03*
%TO.P,P1,5,5*%
X205359000Y-107303950D03*
%TO.P,P1,6,6*%
X205359000Y-108573950D03*
%TO.P,P1,7,7*%
%TO.N,SWDIO*%
X204089000Y-107303950D03*
%TO.P,P1,8,8*%
%TO.N,Earth*%
X204089000Y-108573950D03*
%TO.P,P1,9,9*%
%TO.N,SWCLK*%
X202819000Y-107303950D03*
%TO.P,P1,10,10*%
%TO.N,Earth*%
X202819000Y-108573950D03*
%TO.P,P1,11,11*%
%TO.N,unconnected-(P1-Pad11)*%
X201549000Y-107303950D03*
%TO.P,P1,12,12*%
%TO.N,Earth*%
X201549000Y-108573950D03*
%TO.P,P1,13,13*%
%TO.N,SWO*%
X200279000Y-107303950D03*
%TO.P,P1,14,14*%
%TO.N,Earth*%
X200279000Y-108573950D03*
%TO.P,P1,15,15*%
%TO.N,NRST*%
X199009000Y-107303950D03*
%TO.P,P1,16,16*%
%TO.N,Earth*%
X199009000Y-108573950D03*
%TO.P,P1,17,17*%
%TO.N,unconnected-(P1-Pad17)*%
X197739000Y-107303950D03*
%TO.P,P1,18,18*%
%TO.N,Earth*%
X197739000Y-108573950D03*
%TO.P,P1,19,19*%
%TO.N,unconnected-(P1-Pad19)*%
X196469000Y-107303950D03*
%TO.P,P1,20,20*%
%TO.N,Earth*%
X196469000Y-108573950D03*
%TD*%
D23*
%TO.P,C7,1*%
%TO.N,3.3V*%
X190042800Y-79027700D03*
%TO.P,C7,2*%
%TO.N,Earth*%
X190042800Y-76386100D03*
%TD*%
D24*
%TO.P,D4,1*%
%TO.N,/Connectivity/D-*%
X204882052Y-101538999D03*
%TO.P,D4,2*%
%TO.N,Earth*%
X204882052Y-102489000D03*
%TO.P,D4,3*%
%TO.N,/Connectivity/D+*%
X204882052Y-103439001D03*
%TO.P,D4,4*%
%TO.N,unconnected-(D4-Pad4)*%
X207613948Y-103439001D03*
%TO.P,D4,5*%
%TO.N,5V*%
X207613948Y-101538999D03*
%TD*%
D25*
%TO.P,Y1,1,1*%
%TO.N,OSC_IN*%
X166139500Y-94477000D03*
%TO.P,Y1,2*%
%TO.N,unconnected-(Y1-Pad2)*%
X163839500Y-94477000D03*
%TO.P,Y1,3,3*%
%TO.N,OSC_OUT*%
X163839500Y-96277000D03*
%TO.P,Y1,4*%
%TO.N,unconnected-(Y1-Pad4)*%
X166139500Y-96277000D03*
%TD*%
D12*
%TO.P,C14,1*%
%TO.N,3.3V*%
X170014000Y-99060000D03*
%TO.P,C14,2*%
%TO.N,Earth*%
X168314000Y-99060000D03*
%TD*%
D13*
%TO.P,R7,1*%
%TO.N,Earth*%
X178788000Y-74295000D03*
%TO.P,R7,2*%
%TO.N,Net-(D3-Pad1)*%
X180368000Y-74295000D03*
%TD*%
D19*
%TO.P,D2,1,1*%
%TO.N,Net-(D2-Pad1)*%
X184023000Y-80899000D03*
%TO.P,D2,2,2*%
%TO.N,5V*%
X187071000Y-80899000D03*
%TD*%
D21*
%TO.P,R3,1*%
%TO.N,STATUS_R*%
X180543200Y-106601200D03*
%TO.P,R3,2*%
%TO.N,Net-(D1-Pad4)*%
X180543200Y-108181200D03*
%TD*%
%TO.P,R1,1*%
%TO.N,STATUS_B*%
X182422800Y-106753600D03*
%TO.P,R1,2*%
%TO.N,Net-(D1-Pad2)*%
X182422800Y-108333600D03*
%TD*%
D12*
%TO.P,C2,1*%
%TO.N,CAP1*%
X187922800Y-107340400D03*
%TO.P,C2,2*%
%TO.N,Earth*%
X189622800Y-107340400D03*
%TD*%
D10*
%TO.P,C17,1*%
%TO.N,5V*%
X201295000Y-98259000D03*
%TO.P,C17,2*%
%TO.N,Earth*%
X201295000Y-96559000D03*
%TD*%
%TO.P,C12,1*%
%TO.N,3.3V*%
X189230000Y-88480000D03*
%TO.P,C12,2*%
%TO.N,Earth*%
X189230000Y-86780000D03*
%TD*%
D13*
%TO.P,R9,1*%
%TO.N,Earth*%
X196032000Y-97282000D03*
%TO.P,R9,2*%
%TO.N,~{USB_SUSPEND}*%
X197612000Y-97282000D03*
%TD*%
D26*
%TO.P,P2,1,VCC*%
%TO.N,5V*%
X212926500Y-98953000D03*
D27*
%TO.P,P2,2,D-*%
%TO.N,/Connectivity/D-*%
X212926500Y-101453000D03*
%TO.P,P2,3,D+*%
%TO.N,/Connectivity/D+*%
X214926500Y-101453000D03*
%TO.P,P2,4,GND*%
%TO.N,Earth*%
X214926500Y-98953000D03*
D28*
%TO.P,P2,S1,SHIELD*%
X217636500Y-106223000D03*
%TO.P,P2,S2,SHIELD*%
X217636500Y-94183000D03*
%TD*%
D29*
%TO.P,AE1,1,A*%
%TO.N,Net-(AE1-A)*%
X135699500Y-100711000D03*
D30*
%TO.P,AE1,2,Shield*%
%TO.N,Earth*%
X135699500Y-105092500D03*
X135699500Y-96329500D03*
%TD*%
D13*
%TO.P,R13,1*%
%TO.N,Net-(U6-Z)*%
X200124000Y-88392000D03*
%TO.P,R13,2*%
%TO.N,Z*%
X201704000Y-88392000D03*
%TD*%
%TO.P,R8,1*%
%TO.N,3.3V*%
X196032000Y-95377000D03*
%TO.P,R8,2*%
%TO.N,~{USB_RST}*%
X197612000Y-95377000D03*
%TD*%
D31*
%TO.P,D6,1*%
%TO.N,Z*%
X206946500Y-88203999D03*
%TO.P,D6,2*%
%TO.N,Y*%
X206946500Y-90104001D03*
%TO.P,D6,3*%
%TO.N,Earth*%
X208851500Y-89154000D03*
%TD*%
D12*
%TO.P,C18,1*%
%TO.N,3.3V*%
X142175600Y-105867200D03*
%TO.P,C18,2*%
%TO.N,Earth*%
X140475600Y-105867200D03*
%TD*%
D21*
%TO.P,R2,1*%
%TO.N,STATUS_G*%
X184454800Y-106753600D03*
%TO.P,R2,2*%
%TO.N,Net-(D1-Pad3)*%
X184454800Y-108333600D03*
%TD*%
%TO.P,R14,1*%
%TO.N,Y*%
X204470000Y-89817000D03*
%TO.P,R14,2*%
%TO.N,Z*%
X204470000Y-88237000D03*
%TD*%
D12*
%TO.P,C8,1*%
%TO.N,OSC_IN*%
X163996000Y-92456000D03*
%TO.P,C8,2*%
%TO.N,Earth*%
X165696000Y-92456000D03*
%TD*%
D13*
%TO.P,R15,1*%
%TO.N,Net-(U6-Y)*%
X200124000Y-90170000D03*
%TO.P,R15,2*%
%TO.N,Y*%
X201704000Y-90170000D03*
%TD*%
%TO.P,R6,1*%
%TO.N,Earth*%
X186464000Y-84836000D03*
%TO.P,R6,2*%
%TO.N,Net-(D2-Pad1)*%
X184884000Y-84836000D03*
%TD*%
D32*
%TO.P,D1,1*%
%TO.N,3.3V*%
X183349200Y-111057600D03*
%TO.P,D1,2*%
%TO.N,Net-(D1-Pad2)*%
X184849200Y-111057600D03*
%TO.P,D1,3*%
%TO.N,Net-(D1-Pad3)*%
X184849200Y-112157600D03*
%TO.P,D1,4*%
%TO.N,Net-(D1-Pad4)*%
X183349200Y-112157600D03*
%TD*%
D33*
%TO.P,U1,1,PE2*%
%TO.N,XBEE_SCK*%
X172860000Y-90841000D03*
%TO.P,U1,2,PE3*%
%TO.N,unconnected-(U1-PE3-Pad2)*%
X172860000Y-91341000D03*
%TO.P,U1,3,PE4*%
%TO.N,unconnected-(U1-PE4-Pad3)*%
X172860000Y-91841000D03*
%TO.P,U1,4,PE5*%
%TO.N,XBEE_MISO*%
X172860000Y-92341000D03*
%TO.P,U1,5,PE6*%
%TO.N,XBEE_MOSI*%
X172860000Y-92841000D03*
%TO.P,U1,6,VBAT*%
%TO.N,unconnected-(U1-VBAT-Pad6)*%
X172860000Y-93341000D03*
%TO.P,U1,7,PC13*%
%TO.N,~{XBEE_RST}*%
X172860000Y-93841000D03*
%TO.P,U1,8,PC14*%
%TO.N,XBEE_DIO8*%
X172860000Y-94341000D03*
%TO.P,U1,9,PC15*%
%TO.N,unconnected-(U1-PC15-Pad9)*%
X172860000Y-94841000D03*
%TO.P,U1,10,VSS*%
%TO.N,Earth*%
X172860000Y-95341000D03*
%TO.P,U1,11,VDD*%
%TO.N,3.3V*%
X172860000Y-95841000D03*
%TO.P,U1,12,PH0*%
%TO.N,OSC_IN*%
X172860000Y-96341000D03*
%TO.P,U1,13,PH1*%
%TO.N,OSC_OUT*%
X172860000Y-96841000D03*
%TO.P,U1,14,NRST*%
%TO.N,NRST*%
X172860000Y-97341000D03*
%TO.P,U1,15,PC0*%
%TO.N,LORA_IO5*%
X172860000Y-97841000D03*
%TO.P,U1,16,PC1*%
%TO.N,unconnected-(U1-PC1-Pad16)*%
X172860000Y-98341000D03*
%TO.P,U1,17,PC2_C*%
%TO.N,unconnected-(U1-PC2_C-Pad17)*%
X172860000Y-98841000D03*
%TO.P,U1,18,PC3_C*%
%TO.N,unconnected-(U1-PC3_C-Pad18)*%
X172860000Y-99341000D03*
%TO.P,U1,19,VSSA*%
%TO.N,Earth*%
X172860000Y-99841000D03*
%TO.P,U1,20,VREF+*%
%TO.N,3.3V*%
X172860000Y-100341000D03*
%TO.P,U1,21,VDDA*%
X172860000Y-100841000D03*
%TO.P,U1,22,PA0*%
%TO.N,XBEE_RX*%
X172860000Y-101341000D03*
%TO.P,U1,23,PA1*%
%TO.N,XBEE_TX*%
X172860000Y-101841000D03*
%TO.P,U1,24,PA2*%
%TO.N,LORA_RST*%
X172860000Y-102341000D03*
%TO.P,U1,25,PA3*%
%TO.N,LORA_SS*%
X172860000Y-102841000D03*
D34*
%TO.P,U1,26,VSS*%
%TO.N,Earth*%
X174540000Y-104521000D03*
%TO.P,U1,27,VDD*%
%TO.N,3.3V*%
X175040000Y-104521000D03*
%TO.P,U1,28,PA4*%
%TO.N,LORA_IO3*%
X175540000Y-104521000D03*
%TO.P,U1,29,PA5*%
%TO.N,LORA_IO4*%
X176040000Y-104521000D03*
%TO.P,U1,30,PA6*%
%TO.N,LORA_IO0*%
X176540000Y-104521000D03*
%TO.P,U1,31,PA7*%
%TO.N,LORA_IO1*%
X177040000Y-104521000D03*
%TO.P,U1,32,PC4*%
%TO.N,LORA_IO2*%
X177540000Y-104521000D03*
%TO.P,U1,33,PC5*%
%TO.N,unconnected-(U1-PC5-Pad33)*%
X178040000Y-104521000D03*
%TO.P,U1,34,PB0*%
%TO.N,XBEE_PWM0*%
X178540000Y-104521000D03*
%TO.P,U1,35,PB1*%
%TO.N,XBEE_PWM1*%
X179040000Y-104521000D03*
%TO.P,U1,36,PB2*%
%TO.N,unconnected-(U1-PB2-Pad36)*%
X179540000Y-104521000D03*
%TO.P,U1,37,PE7*%
%TO.N,unconnected-(U1-PE7-Pad37)*%
X180040000Y-104521000D03*
%TO.P,U1,38,PE8*%
%TO.N,unconnected-(U1-PE8-Pad38)*%
X180540000Y-104521000D03*
%TO.P,U1,39,PE9*%
%TO.N,unconnected-(U1-PE9-Pad39)*%
X181040000Y-104521000D03*
%TO.P,U1,40,PE10*%
%TO.N,STATUS_R*%
X181540000Y-104521000D03*
%TO.P,U1,41,PE11*%
%TO.N,STATUS_B*%
X182040000Y-104521000D03*
%TO.P,U1,42,PE12*%
%TO.N,STATUS_G*%
X182540000Y-104521000D03*
%TO.P,U1,43,PE13*%
%TO.N,unconnected-(U1-PE13-Pad43)*%
X183040000Y-104521000D03*
%TO.P,U1,44,PE14*%
%TO.N,unconnected-(U1-PE14-Pad44)*%
X183540000Y-104521000D03*
%TO.P,U1,45,PE15*%
%TO.N,unconnected-(U1-PE15-Pad45)*%
X184040000Y-104521000D03*
%TO.P,U1,46,PB10*%
%TO.N,LORA_SCK*%
X184540000Y-104521000D03*
%TO.P,U1,47,PB11*%
%TO.N,unconnected-(U1-PB11-Pad47)*%
X185040000Y-104521000D03*
%TO.P,U1,48,VCAP1*%
%TO.N,CAP1*%
X185540000Y-104521000D03*
%TO.P,U1,49,VSS*%
%TO.N,Earth*%
X186040000Y-104521000D03*
%TO.P,U1,50,VDD*%
%TO.N,3.3V*%
X186540000Y-104521000D03*
D33*
%TO.P,U1,51,PB12*%
%TO.N,RS485_RX*%
X188220000Y-102841000D03*
%TO.P,U1,52,PB13*%
%TO.N,RS485_TX*%
X188220000Y-102341000D03*
%TO.P,U1,53,PB14*%
%TO.N,LORA_MISO*%
X188220000Y-101841000D03*
%TO.P,U1,54,PB15*%
%TO.N,LORA_MOSI*%
X188220000Y-101341000D03*
%TO.P,U1,55,PD8*%
%TO.N,unconnected-(U1-PD8-Pad55)*%
X188220000Y-100841000D03*
%TO.P,U1,56,PD9*%
%TO.N,unconnected-(U1-PD9-Pad56)*%
X188220000Y-100341000D03*
%TO.P,U1,57,PD10*%
%TO.N,unconnected-(U1-PD10-Pad57)*%
X188220000Y-99841000D03*
%TO.P,U1,58,PD11*%
%TO.N,unconnected-(U1-PD11-Pad58)*%
X188220000Y-99341000D03*
%TO.P,U1,59,PD12*%
%TO.N,unconnected-(U1-PD12-Pad59)*%
X188220000Y-98841000D03*
%TO.P,U1,60,PD13*%
%TO.N,unconnected-(U1-PD13-Pad60)*%
X188220000Y-98341000D03*
%TO.P,U1,61,PD14*%
%TO.N,unconnected-(U1-PD14-Pad61)*%
X188220000Y-97841000D03*
%TO.P,U1,62,PD15*%
%TO.N,unconnected-(U1-PD15-Pad62)*%
X188220000Y-97341000D03*
%TO.P,U1,63,PC6*%
%TO.N,~{USB_SUSPEND}*%
X188220000Y-96841000D03*
%TO.P,U1,64,PC7*%
%TO.N,~{USB_RST}*%
X188220000Y-96341000D03*
%TO.P,U1,65,PC8*%
%TO.N,unconnected-(U1-PC8-Pad65)*%
X188220000Y-95841000D03*
%TO.P,U1,66,PC9*%
%TO.N,unconnected-(U1-PC9-Pad66)*%
X188220000Y-95341000D03*
%TO.P,U1,67,PA8*%
%TO.N,unconnected-(U1-PA8-Pad67)*%
X188220000Y-94841000D03*
%TO.P,U1,68,PA9*%
%TO.N,USB_RX*%
X188220000Y-94341000D03*
%TO.P,U1,69,PA10*%
%TO.N,USB_TX*%
X188220000Y-93841000D03*
%TO.P,U1,70,PA11*%
%TO.N,unconnected-(U1-PA11-Pad70)*%
X188220000Y-93341000D03*
%TO.P,U1,71,PA12*%
%TO.N,unconnected-(U1-PA12-Pad71)*%
X188220000Y-92841000D03*
%TO.P,U1,72,PA13*%
%TO.N,SWDIO*%
X188220000Y-92341000D03*
%TO.P,U1,73,VCAP2*%
%TO.N,CAP2*%
X188220000Y-91841000D03*
%TO.P,U1,74,VSS*%
%TO.N,Earth*%
X188220000Y-91341000D03*
%TO.P,U1,75,VDD*%
%TO.N,3.3V*%
X188220000Y-90841000D03*
D34*
%TO.P,U1,76,PA14*%
%TO.N,SWCLK*%
X186540000Y-89161000D03*
%TO.P,U1,77,PA15*%
%TO.N,unconnected-(U1-PA15-Pad77)*%
X186040000Y-89161000D03*
%TO.P,U1,78,PC10*%
%TO.N,unconnected-(U1-PC10-Pad78)*%
X185540000Y-89161000D03*
%TO.P,U1,79,PC11*%
%TO.N,unconnected-(U1-PC11-Pad79)*%
X185040000Y-89161000D03*
%TO.P,U1,80,PC12*%
%TO.N,unconnected-(U1-PC12-Pad80)*%
X184540000Y-89161000D03*
%TO.P,U1,81,PD0*%
%TO.N,unconnected-(U1-PD0-Pad81)*%
X184040000Y-89161000D03*
%TO.P,U1,82,PD1*%
%TO.N,XBEE_DIO7*%
X183540000Y-89161000D03*
%TO.P,U1,83,PD2*%
%TO.N,~{XBEE_SLEEP}*%
X183040000Y-89161000D03*
%TO.P,U1,84,PD3*%
%TO.N,XBEE_DIO5*%
X182540000Y-89161000D03*
%TO.P,U1,85,PD4*%
%TO.N,XBEE_DIO6*%
X182040000Y-89161000D03*
%TO.P,U1,86,PD5*%
%TO.N,XBEE_SS*%
X181540000Y-89161000D03*
%TO.P,U1,87,PD6*%
%TO.N,XBEE_DIO1*%
X181040000Y-89161000D03*
%TO.P,U1,88,PD7*%
%TO.N,XBEE_DIO0*%
X180540000Y-89161000D03*
%TO.P,U1,89,PB3*%
%TO.N,SWO*%
X180040000Y-89161000D03*
%TO.P,U1,90,PB4*%
%TO.N,unconnected-(U1-PB4-Pad90)*%
X179540000Y-89161000D03*
%TO.P,U1,91,PB5*%
%TO.N,unconnected-(U1-PB5-Pad91)*%
X179040000Y-89161000D03*
%TO.P,U1,92,PB6*%
%TO.N,unconnected-(U1-PB6-Pad92)*%
X178540000Y-89161000D03*
%TO.P,U1,93,PB7*%
%TO.N,unconnected-(U1-PB7-Pad93)*%
X178040000Y-89161000D03*
%TO.P,U1,94,BOOT0*%
%TO.N,BOOT*%
X177540000Y-89161000D03*
%TO.P,U1,95,PB8*%
%TO.N,unconnected-(U1-PB8-Pad95)*%
X177040000Y-89161000D03*
%TO.P,U1,96,PB9*%
%TO.N,unconnected-(U1-PB9-Pad96)*%
X176540000Y-89161000D03*
%TO.P,U1,97,PE0*%
%TO.N,unconnected-(U1-PE0-Pad97)*%
X176040000Y-89161000D03*
%TO.P,U1,98,PE1*%
%TO.N,unconnected-(U1-PE1-Pad98)*%
X175540000Y-89161000D03*
%TO.P,U1,99,VSS*%
%TO.N,Earth*%
X175040000Y-89161000D03*
%TO.P,U1,100,VDD*%
%TO.N,3.3V*%
X174540000Y-89161000D03*
%TD*%
D21*
%TO.P,R11,1*%
%TO.N,B*%
X204089000Y-84483000D03*
%TO.P,R11,2*%
%TO.N,A*%
X204089000Y-82903000D03*
%TD*%
D35*
%TO.P,U3,1,DCD*%
%TO.N,unconnected-(U3-DCD-Pad1)*%
X200787000Y-103558000D03*
%TO.P,U3,2,RI*%
%TO.N,unconnected-(U3-RI-Pad2)*%
X200787000Y-103058000D03*
%TO.P,U3,3,GND*%
%TO.N,Earth*%
X200787000Y-102558000D03*
%TO.P,U3,4,D+*%
%TO.N,/Connectivity/D+*%
X200787000Y-102058000D03*
%TO.P,U3,5,D-*%
%TO.N,/Connectivity/D-*%
X200787000Y-101558000D03*
%TO.P,U3,6,VDD*%
%TO.N,unconnected-(U3-VDD-Pad6)*%
X200787000Y-101058000D03*
%TO.P,U3,7,REGIN*%
%TO.N,5V*%
X200787000Y-100558000D03*
D36*
%TO.P,U3,8,VBUS*%
X199697000Y-99468000D03*
%TO.P,U3,9,~{RST}*%
%TO.N,~{USB_RST}*%
X199197000Y-99468000D03*
%TO.P,U3,10,NC*%
%TO.N,unconnected-(U3-NC-Pad10)*%
X198697000Y-99468000D03*
%TO.P,U3,11,~{SUSPEND}*%
%TO.N,~{USB_SUSPEND}*%
X198197000Y-99468000D03*
%TO.P,U3,12,SUSPEND*%
%TO.N,unconnected-(U3-SUSPEND-Pad12)*%
X197697000Y-99468000D03*
%TO.P,U3,13,NC@1*%
%TO.N,unconnected-(U3-NC@1-Pad13)*%
X197197000Y-99468000D03*
%TO.P,U3,14,NC@2*%
%TO.N,unconnected-(U3-NC@2-Pad14)*%
X196697000Y-99468000D03*
D35*
%TO.P,U3,15,NC@3*%
%TO.N,unconnected-(U3-NC@3-Pad15)*%
X195607000Y-100558000D03*
%TO.P,U3,16,NC@4*%
%TO.N,unconnected-(U3-NC@4-Pad16)*%
X195607000Y-101058000D03*
%TO.P,U3,17,NC@5*%
%TO.N,unconnected-(U3-NC@5-Pad17)*%
X195607000Y-101558000D03*
%TO.P,U3,18,NC/VPP*%
%TO.N,unconnected-(U3-NC{slash}VPP-Pad18)*%
X195607000Y-102058000D03*
%TO.P,U3,19,NC@6*%
%TO.N,unconnected-(U3-NC@6-Pad19)*%
X195607000Y-102558000D03*
%TO.P,U3,20,NC@7*%
%TO.N,unconnected-(U3-NC@7-Pad20)*%
X195607000Y-103058000D03*
%TO.P,U3,21,NC@8*%
%TO.N,unconnected-(U3-NC@8-Pad21)*%
X195607000Y-103558000D03*
D36*
%TO.P,U3,22,NC@9*%
%TO.N,unconnected-(U3-NC@9-Pad22)*%
X196697000Y-104648000D03*
%TO.P,U3,23,CTS*%
%TO.N,unconnected-(U3-CTS-Pad23)*%
X197197000Y-104648000D03*
%TO.P,U3,24,RTS*%
%TO.N,unconnected-(U3-RTS-Pad24)*%
X197697000Y-104648000D03*
%TO.P,U3,25,RXD*%
%TO.N,USB_RX*%
X198197000Y-104648000D03*
%TO.P,U3,26,TXD*%
%TO.N,USB_TX*%
X198697000Y-104648000D03*
%TO.P,U3,27,DSR*%
%TO.N,unconnected-(U3-DSR-Pad27)*%
X199197000Y-104648000D03*
%TO.P,U3,28,DTR*%
%TO.N,unconnected-(U3-DTR-Pad28)*%
X199697000Y-104648000D03*
D37*
%TO.P,U3,29,PAD*%
%TO.N,Earth*%
X198197000Y-102058000D03*
%TD*%
D12*
%TO.P,C19,1*%
%TO.N,3.3V*%
X191350000Y-82804000D03*
%TO.P,C19,2*%
%TO.N,Earth*%
X189650000Y-82804000D03*
%TD*%
D31*
%TO.P,D5,1*%
%TO.N,A*%
X206565500Y-82615999D03*
%TO.P,D5,2*%
%TO.N,B*%
X206565500Y-84516001D03*
%TO.P,D5,3*%
%TO.N,Earth*%
X208470500Y-83566000D03*
%TD*%
D12*
%TO.P,C3,1*%
%TO.N,CAP2*%
X190920000Y-91821000D03*
%TO.P,C3,2*%
%TO.N,Earth*%
X192620000Y-91821000D03*
%TD*%
D23*
%TO.P,C4,1*%
%TO.N,5V*%
X202057000Y-78672100D03*
%TO.P,C4,2*%
%TO.N,Earth*%
X202057000Y-76030500D03*
%TD*%
D10*
%TO.P,C16,1*%
%TO.N,5V*%
X203073000Y-98259000D03*
%TO.P,C16,2*%
%TO.N,Earth*%
X203073000Y-96559000D03*
%TD*%
%TO.P,C6,1*%
%TO.N,3.3V*%
X176149000Y-86956000D03*
%TO.P,C6,2*%
%TO.N,Earth*%
X176149000Y-85256000D03*
%TD*%
D12*
%TO.P,C5,1*%
%TO.N,3.3V*%
X188227600Y-105410000D03*
%TO.P,C5,2*%
%TO.N,Earth*%
X189927600Y-105410000D03*
%TD*%
D21*
%TO.P,J1,1,A*%
%TO.N,3.3V*%
X178435000Y-85316000D03*
%TO.P,J1,2,B*%
%TO.N,BOOT*%
X178435000Y-86896000D03*
%TD*%
D10*
%TO.P,C10,1*%
%TO.N,3.3V*%
X174371000Y-86956000D03*
%TO.P,C10,2*%
%TO.N,Earth*%
X174371000Y-85256000D03*
%TD*%
D12*
%TO.P,C11,1*%
%TO.N,3.3V*%
X170141000Y-95123000D03*
%TO.P,C11,2*%
%TO.N,Earth*%
X168441000Y-95123000D03*
%TD*%
D38*
%TO.P,U2,1,GND*%
%TO.N,Earth*%
X194042000Y-79925500D03*
%TO.P,U2,2,VOUT*%
%TO.N,3.3V*%
X196342000Y-79925500D03*
D39*
X196342000Y-74125500D03*
D38*
%TO.P,U2,3,VIN*%
%TO.N,5V*%
X198642000Y-79925500D03*
%TD*%
D10*
%TO.P,C1,1*%
%TO.N,NRST*%
X172720000Y-106084000D03*
%TO.P,C1,2*%
%TO.N,Earth*%
X172720000Y-107784000D03*
%TD*%
D21*
%TO.P,R5,1*%
%TO.N,SWCLK*%
X215900000Y-110970000D03*
%TO.P,R5,2*%
%TO.N,3.3V*%
X215900000Y-112550000D03*
%TD*%
D40*
%TO.N,Earth*%
X163830000Y-99568000D03*
X206629000Y-110617000D03*
X197739000Y-110490000D03*
X202819000Y-110363000D03*
D41*
X217678000Y-98933000D03*
D40*
%TO.N,3.3V*%
X193548000Y-85217000D03*
%TO.N,Earth*%
X195453000Y-98933000D03*
X199009000Y-101219000D03*
X197231000Y-101219000D03*
%TO.N,5V*%
X188722000Y-81153000D03*
%TO.N,RS485_RX*%
X193548000Y-86233000D03*
%TO.N,RS485_TX*%
X193548000Y-87630000D03*
%TO.N,RS485_RX*%
X194056000Y-99441000D03*
%TO.N,RS485_TX*%
X193929000Y-98298000D03*
%TO.N,3.3V*%
X194564000Y-95631000D03*
%TO.N,Y*%
X209169000Y-90678000D03*
%TO.N,Z*%
X209550000Y-86868000D03*
%TO.N,Earth*%
X210312000Y-89154000D03*
X209931000Y-83566000D03*
X192659000Y-89535000D03*
D41*
X191820800Y-74608100D03*
D40*
X186625600Y-106361600D03*
X192620000Y-90590000D03*
D41*
X192312200Y-79925500D03*
D40*
X203964000Y-102489000D03*
X171284900Y-98513900D03*
X200152000Y-96520000D03*
X187579000Y-84836000D03*
D41*
X199136000Y-76581000D03*
X132080000Y-100736400D03*
X142443200Y-100939600D03*
X157388800Y-112918000D03*
D40*
X186563000Y-86106000D03*
X177228500Y-87566500D03*
X168402000Y-94107000D03*
X178562000Y-76327000D03*
X173648000Y-108419000D03*
X189992000Y-84455000D03*
%TO.N,NRST*%
X171652999Y-105715001D03*
D41*
%TO.N,5V*%
X200406000Y-79883000D03*
D40*
%TO.N,3.3V*%
X170929300Y-99936300D03*
X190246000Y-80391000D03*
X186374600Y-90841000D03*
X174377800Y-95841000D03*
X173532800Y-88595200D03*
X191389000Y-83947000D03*
D41*
X192887600Y-77554500D03*
D40*
X181813200Y-110337600D03*
X187274200Y-104521000D03*
D41*
X147640800Y-106918000D03*
D40*
X175040000Y-103344000D03*
X214630000Y-112522000D03*
%TO.N,SWDIO*%
X192379600Y-93827600D03*
%TO.N,SWCLK*%
X188010800Y-89509600D03*
%TO.N,SWO*%
X180086000Y-91135200D03*
%TO.N,XBEE_TX*%
X163271200Y-102362000D03*
%TO.N,XBEE_PWM0*%
X177850800Y-101650800D03*
%TO.N,XBEE_PWM1*%
X177596800Y-100482400D03*
%TO.N,XBEE_SS*%
X179527200Y-82854800D03*
%TO.N,LORA_SCK*%
X183134000Y-102108000D03*
X167182800Y-104495600D03*
%TO.N,LORA_MISO*%
X168452800Y-105359200D03*
X184708800Y-102311200D03*
%TO.N,LORA_MOSI*%
X184708800Y-101396800D03*
X169113200Y-104648000D03*
%TO.N,XBEE_DIO1*%
X170891200Y-83718400D03*
%TO.N,XBEE_DIO5*%
X180340000Y-81330800D03*
%TO.N,XBEE_DIO6*%
X179832000Y-82143600D03*
%TO.N,XBEE_DIO7*%
X182626000Y-81381600D03*
%TO.N,~{XBEE_SLEEP}*%
X180949600Y-80568800D03*
%TO.N,USB_RX*%
X189992000Y-95402400D03*
X192786000Y-103759000D03*
%TO.N,USB_TX*%
X194564000Y-105537000D03*
X190500000Y-94742000D03*
%TO.N,LORA_IO5*%
X168148000Y-97790000D03*
X166014400Y-99923600D03*
%TO.N,XBEE_DIO0*%
X171399200Y-85140800D03*
%TD*%
D42*
%TO.N,Earth*%
X163830000Y-99568000D02*
X161036000Y-99568000D01*
X161036000Y-99568000D02*
X160782000Y-99314000D01*
X164465000Y-99568000D02*
X163830000Y-99568000D01*
X165696000Y-98298000D02*
X165696000Y-98337000D01*
X165696000Y-98337000D02*
X164465000Y-99568000D01*
D43*
X206629000Y-108573950D02*
X206629000Y-110617000D01*
X197739000Y-108573950D02*
X197739000Y-110490000D01*
X202819000Y-108573950D02*
X202819000Y-110363000D01*
D44*
%TO.N,3.3V*%
X213360000Y-112550000D02*
X211864000Y-112550000D01*
X211864000Y-112550000D02*
X208026000Y-108712000D01*
D43*
X207899000Y-107303950D02*
X207899000Y-108458000D01*
%TO.N,Earth*%
X204089000Y-108573950D02*
X196353050Y-108573950D01*
X205359000Y-108573950D02*
X206617950Y-108573950D01*
X206617950Y-108573950D02*
X206629000Y-108585000D01*
X204089000Y-108573950D02*
X205347950Y-108573950D01*
X205359000Y-108573950D02*
X205359000Y-107315000D01*
X206629000Y-108573950D02*
X206629000Y-107315000D01*
X205359000Y-107303950D02*
X206490950Y-107303950D01*
D45*
X217636500Y-98974500D02*
X217636500Y-99060000D01*
X217678000Y-98933000D02*
X217636500Y-98974500D01*
X217636500Y-98891500D02*
X217678000Y-98933000D01*
X217636500Y-94183000D02*
X217636500Y-98891500D01*
X217636500Y-99060000D02*
X217636500Y-106340500D01*
X214926500Y-98953000D02*
X217529500Y-98953000D01*
X217529500Y-98953000D02*
X217636500Y-99060000D01*
D43*
%TO.N,Z*%
X204470000Y-88237000D02*
X206657000Y-88237000D01*
D42*
%TO.N,3.3V*%
X193548000Y-85217000D02*
X193421000Y-85090000D01*
X191839850Y-84963000D02*
X193294000Y-84963000D01*
X193294000Y-84963000D02*
X193548000Y-85217000D01*
%TO.N,Earth*%
X196032000Y-97282000D02*
X196032000Y-98354000D01*
X196032000Y-98354000D02*
X195453000Y-98933000D01*
X200787000Y-102558000D02*
X199586000Y-102558000D01*
X199586000Y-102558000D02*
X199517000Y-102489000D01*
%TO.N,5V*%
X187071000Y-80899000D02*
X188468000Y-80899000D01*
X188468000Y-80899000D02*
X188722000Y-81153000D01*
%TO.N,RS485_RX*%
X191839850Y-86233000D02*
X193548000Y-86233000D01*
%TO.N,RS485_TX*%
X191839850Y-87503000D02*
X193421000Y-87503000D01*
X193421000Y-87503000D02*
X193548000Y-87630000D01*
%TO.N,RS485_RX*%
X188220000Y-102841000D02*
X190656000Y-102841000D01*
X190656000Y-102841000D02*
X194056000Y-99441000D01*
%TO.N,RS485_TX*%
X188220000Y-102341000D02*
X189886000Y-102341000D01*
X189886000Y-102341000D02*
X193929000Y-98298000D01*
%TO.N,3.3V*%
X196032000Y-95377000D02*
X194818000Y-95377000D01*
X194818000Y-95377000D02*
X194564000Y-95631000D01*
D45*
%TO.N,5V*%
X207518000Y-98953000D02*
X207518000Y-101473000D01*
X212926500Y-98953000D02*
X207518000Y-98953000D01*
X207518000Y-98953000D02*
X203855000Y-98953000D01*
X201295000Y-99314000D02*
X201295000Y-100457000D01*
X201295000Y-99314000D02*
X199898000Y-99314000D01*
X201295000Y-98259000D02*
X201295000Y-99314000D01*
X203073000Y-98259000D02*
X201383000Y-98259000D01*
X203855000Y-98953000D02*
X203200000Y-98298000D01*
D43*
%TO.N,Y*%
X206946500Y-90104001D02*
X208595001Y-90104001D01*
X208595001Y-90104001D02*
X209169000Y-90678000D01*
%TO.N,Z*%
X206946500Y-88203999D02*
X208214001Y-88203999D01*
X208214001Y-88203999D02*
X209550000Y-86868000D01*
%TO.N,B*%
X206565500Y-84516001D02*
X208976001Y-84516001D01*
X211201000Y-86741000D02*
X214630000Y-86741000D01*
X208976001Y-84516001D02*
X211201000Y-86741000D01*
%TO.N,A*%
X210947000Y-83566000D02*
X209931000Y-82550000D01*
X212090000Y-85471000D02*
X210947000Y-84328000D01*
X210947000Y-84328000D02*
X210947000Y-83566000D01*
X209931000Y-82550000D02*
X207010000Y-82550000D01*
%TO.N,Earth*%
X208851500Y-89154000D02*
X210312000Y-89154000D01*
%TO.N,Y*%
X206946500Y-90104001D02*
X204662999Y-90104001D01*
X201704000Y-90170000D02*
X203962000Y-90170000D01*
%TO.N,Z*%
X201704000Y-88392000D02*
X204216000Y-88392000D01*
%TO.N,B*%
X201704000Y-85725000D02*
X202692000Y-85725000D01*
X202692000Y-85725000D02*
X203708000Y-84709000D01*
%TO.N,Earth*%
X208470500Y-83566000D02*
X209931000Y-83566000D01*
%TO.N,B*%
X204089000Y-84483000D02*
X205966000Y-84483000D01*
X205966000Y-84483000D02*
X205994000Y-84455000D01*
%TO.N,A*%
X205486000Y-83185000D02*
X204470000Y-83185000D01*
X206565500Y-82615999D02*
X206055001Y-82615999D01*
X206055001Y-82615999D02*
X205486000Y-83185000D01*
X201704000Y-83058000D02*
X204089000Y-83058000D01*
%TO.N,Net-(U6-Y)*%
X197288150Y-88773000D02*
X197739000Y-88773000D01*
X197739000Y-88773000D02*
X199136000Y-90170000D01*
X199136000Y-90170000D02*
X200025000Y-90170000D01*
%TO.N,Net-(U6-Z)*%
X197288150Y-87503000D02*
X199390000Y-87503000D01*
X199390000Y-87503000D02*
X200025000Y-88138000D01*
%TO.N,Net-(U6-B)*%
X199009000Y-85852000D02*
X199898000Y-85852000D01*
X197288150Y-86233000D02*
X198628000Y-86233000D01*
X198628000Y-86233000D02*
X199009000Y-85852000D01*
X199898000Y-85852000D02*
X200025000Y-85725000D01*
%TO.N,Net-(U6-A)*%
X200124000Y-83058000D02*
X200025000Y-83058000D01*
X200025000Y-83058000D02*
X198120000Y-84963000D01*
X198120000Y-84963000D02*
X197612000Y-84963000D01*
X197288150Y-84963000D02*
X197739000Y-84963000D01*
D42*
%TO.N,Earth*%
X189230000Y-86780000D02*
X189230000Y-86868000D01*
X190373000Y-88011000D02*
X190373000Y-88265000D01*
X189230000Y-86868000D02*
X190373000Y-88011000D01*
X190373000Y-88265000D02*
X190881000Y-88773000D01*
X190881000Y-88773000D02*
X191389000Y-88773000D01*
X192620000Y-89496000D02*
X192620000Y-89115000D01*
X192659000Y-89535000D02*
X192620000Y-89496000D01*
X192620000Y-89574000D02*
X192659000Y-89535000D01*
X192620000Y-90590000D02*
X192620000Y-89574000D01*
X192620000Y-89115000D02*
X192405000Y-88900000D01*
D43*
X178788000Y-74295000D02*
X178788000Y-76101000D01*
D42*
X186040000Y-104521000D02*
X186040000Y-105776000D01*
X177292000Y-87503000D02*
X177292000Y-85598000D01*
X173316000Y-108419000D02*
X172974000Y-108077000D01*
X189904000Y-106361600D02*
X189927600Y-106361600D01*
X165696000Y-92456000D02*
X166751000Y-92456000D01*
D46*
X132080000Y-102717600D02*
X132080000Y-100736400D01*
D42*
X176911000Y-85217000D02*
X176276000Y-85217000D01*
X189927600Y-105410000D02*
X189927600Y-106361600D01*
X192620000Y-91821000D02*
X192620000Y-90590000D01*
X174625000Y-108419000D02*
X173648000Y-108419000D01*
X175040000Y-88231000D02*
X175387000Y-87884000D01*
X189927600Y-107100000D02*
X189890400Y-107137200D01*
X168441000Y-95084000D02*
X169291000Y-94234000D01*
D46*
X135699500Y-105092500D02*
X134454900Y-105092500D01*
D42*
X187237000Y-86780000D02*
X186563000Y-86106000D01*
X186625600Y-106361600D02*
X189904000Y-106361600D01*
X167513000Y-99847400D02*
X168097200Y-99263200D01*
X176911000Y-87884000D02*
X177228500Y-87566500D01*
X168960800Y-97942400D02*
X168656000Y-98247200D01*
D46*
X137820400Y-105867200D02*
X137668000Y-105714800D01*
D42*
X174244000Y-104521000D02*
X173648000Y-105117000D01*
D46*
X203073000Y-96559000D02*
X201334000Y-96559000D01*
D42*
X200152000Y-96520000D02*
X200279000Y-96559000D01*
D46*
X142464800Y-100918000D02*
X142443200Y-100939600D01*
D42*
X171284900Y-98513900D02*
X171284900Y-98437700D01*
X200279000Y-96559000D02*
X200318000Y-96559000D01*
X177292000Y-85598000D02*
X176911000Y-85217000D01*
X171284900Y-98513900D02*
X171323000Y-98552000D01*
X204882052Y-102489000D02*
X203964000Y-102489000D01*
X190334000Y-90590000D02*
X192620000Y-90590000D01*
D45*
X194042000Y-79925500D02*
X192312200Y-79925500D01*
D42*
X173648000Y-108419000D02*
X173316000Y-108419000D01*
D45*
X190042800Y-76386100D02*
X191820800Y-74608100D01*
D42*
X177228500Y-87566500D02*
X177292000Y-87503000D01*
X171323000Y-98552000D02*
X171323000Y-99441000D01*
X171284900Y-98437700D02*
X170789600Y-97942400D01*
X201295000Y-96559000D02*
X200357000Y-96559000D01*
X200357000Y-96559000D02*
X200152000Y-96520000D01*
X167386000Y-98298000D02*
X167894000Y-98806000D01*
X167298000Y-100062400D02*
X167335200Y-100025200D01*
X167298000Y-100838000D02*
X167298000Y-100062400D01*
X186040000Y-105776000D02*
X186625600Y-106361600D01*
X175387000Y-87884000D02*
X176911000Y-87884000D01*
D43*
X178788000Y-76101000D02*
X178562000Y-76327000D01*
X189650000Y-82804000D02*
X189650000Y-84113000D01*
D46*
X201334000Y-96559000D02*
X201295000Y-96520000D01*
X132080000Y-98602800D02*
X134353300Y-96329500D01*
D42*
X170902000Y-94234000D02*
X171196000Y-94528000D01*
X171541000Y-95341000D02*
X172860000Y-95341000D01*
X186563000Y-86106000D02*
X186563000Y-84963000D01*
X189927600Y-106361600D02*
X189927600Y-107100000D01*
D43*
X186464000Y-84836000D02*
X187579000Y-84836000D01*
D42*
X173648000Y-105117000D02*
X173648000Y-108419000D01*
D45*
X202057000Y-76030500D02*
X199686500Y-76030500D01*
D42*
X167335200Y-100025200D02*
X167513000Y-99847400D01*
X171196000Y-94996000D02*
X171541000Y-95341000D01*
X168656000Y-98247200D02*
X168656000Y-98856800D01*
X171450000Y-108966000D02*
X170688000Y-108966000D01*
X189230000Y-86780000D02*
X187237000Y-86780000D01*
X168441000Y-95123000D02*
X168441000Y-95084000D01*
D43*
X187579000Y-84836000D02*
X189484000Y-82931000D01*
D46*
X134353300Y-96329500D02*
X135699500Y-96329500D01*
D42*
X168402000Y-94107000D02*
X168402000Y-95123000D01*
X171704000Y-99822000D02*
X172212000Y-99822000D01*
D46*
X139090400Y-104292400D02*
X138023600Y-104292400D01*
D45*
X199686500Y-76030500D02*
X199136000Y-76581000D01*
D42*
X172339000Y-108077000D02*
X171450000Y-108966000D01*
X189583000Y-91341000D02*
X190334000Y-90590000D01*
X165696000Y-98298000D02*
X167386000Y-98298000D01*
D46*
X140475600Y-105867200D02*
X137820400Y-105867200D01*
D43*
X189650000Y-84113000D02*
X189992000Y-84455000D01*
D42*
X174371000Y-85256000D02*
X176188000Y-85256000D01*
X166751000Y-92456000D02*
X168402000Y-94107000D01*
D46*
X145127000Y-100918000D02*
X142464800Y-100918000D01*
D42*
X171196000Y-94528000D02*
X171196000Y-94996000D01*
D46*
X132080000Y-100736400D02*
X132080000Y-98602800D01*
X159927000Y-112918000D02*
X157388800Y-112918000D01*
D42*
X174540000Y-104521000D02*
X174244000Y-104521000D01*
X175040000Y-89161000D02*
X175040000Y-88231000D01*
X169291000Y-94234000D02*
X170902000Y-94234000D01*
X171323000Y-99441000D02*
X171704000Y-99822000D01*
X188220000Y-91341000D02*
X189583000Y-91341000D01*
X170789600Y-97942400D02*
X168960800Y-97942400D01*
D46*
X142443200Y-100939600D02*
X139090400Y-104292400D01*
X134454900Y-105092500D02*
X132080000Y-102717600D01*
X159237500Y-95560000D02*
X159237500Y-98877300D01*
D42*
%TO.N,NRST*%
X174371000Y-102997000D02*
X172339000Y-105029000D01*
X172860000Y-97341000D02*
X173922000Y-97341000D01*
X172339000Y-105029000D02*
X172339000Y-105791000D01*
X172517001Y-105715001D02*
X172720000Y-105918000D01*
X173922000Y-97341000D02*
X174371000Y-97790000D01*
X170213000Y-105715001D02*
X171652999Y-105715001D01*
X174371000Y-97790000D02*
X174371000Y-102997000D01*
X171652999Y-105715001D02*
X172517001Y-105715001D01*
%TO.N,CAP1*%
X185540000Y-104521000D02*
X185540000Y-106393600D01*
X186385200Y-107238800D02*
X187756800Y-107238800D01*
X185540000Y-106393600D02*
X186385200Y-107238800D01*
X185487000Y-105096000D02*
X185480000Y-105089000D01*
X185547000Y-105096000D02*
X185487000Y-105096000D01*
X185480000Y-105089000D02*
X185480000Y-105029000D01*
D43*
%TO.N,CAP2*%
X190920000Y-91821000D02*
X188798200Y-91821000D01*
X188798200Y-91821000D02*
X188772800Y-91846400D01*
D45*
%TO.N,5V*%
X200406000Y-79883000D02*
X200448500Y-79925500D01*
X200490500Y-79925500D02*
X201549000Y-78867000D01*
X200448500Y-79925500D02*
X200490500Y-79925500D01*
X200363500Y-79925500D02*
X200406000Y-79883000D01*
X198642000Y-79925500D02*
X200363500Y-79925500D01*
D42*
%TO.N,3.3V*%
X172860000Y-95841000D02*
X170898000Y-95841000D01*
X173570000Y-86956000D02*
X173355000Y-86741000D01*
D44*
X214630000Y-112522000D02*
X214658000Y-112550000D01*
D42*
X188849000Y-90805000D02*
X188849000Y-88773000D01*
D43*
X191350000Y-84924000D02*
X191389000Y-84963000D01*
D42*
X174540000Y-89161000D02*
X174098600Y-89161000D01*
D43*
X190042800Y-79027700D02*
X188501700Y-79027700D01*
D45*
X191820800Y-77554500D02*
X190500000Y-78875300D01*
D46*
X143510000Y-105867200D02*
X144475200Y-106832400D01*
D43*
X191350000Y-82804000D02*
X191350000Y-81495000D01*
D42*
X176061000Y-86956000D02*
X176149000Y-86868000D01*
D43*
X186817000Y-77343000D02*
X186817000Y-75311000D01*
D42*
X174540000Y-89161000D02*
X174540000Y-87164000D01*
X168998000Y-100089600D02*
X169672000Y-99415600D01*
X172860000Y-100841000D02*
X169319400Y-100841000D01*
D45*
X192887600Y-77554500D02*
X191820800Y-77554500D01*
D42*
X177165000Y-84074000D02*
X178181000Y-85090000D01*
X171284900Y-100291900D02*
X170929300Y-99936300D01*
D44*
X214658000Y-112550000D02*
X215745000Y-112550000D01*
D43*
X191350000Y-83986000D02*
X191350000Y-84924000D01*
X191350000Y-83908000D02*
X191389000Y-83947000D01*
D42*
X174540000Y-87164000D02*
X174371000Y-86995000D01*
D45*
X196342000Y-77554500D02*
X196342000Y-74608100D01*
D43*
X190246000Y-80391000D02*
X190246000Y-79121000D01*
D42*
X173355000Y-84455000D02*
X173736000Y-84074000D01*
X172860000Y-100341000D02*
X172860000Y-100825600D01*
X175040000Y-104521000D02*
X175040000Y-103344000D01*
X175040000Y-104521000D02*
X175040000Y-106265000D01*
X187274200Y-104521000D02*
X187858400Y-105105200D01*
D43*
X191350000Y-82804000D02*
X191350000Y-83908000D01*
D42*
X182533200Y-111057600D02*
X181813200Y-110337600D01*
X173736000Y-84074000D02*
X177165000Y-84074000D01*
D46*
X142175600Y-105867200D02*
X143510000Y-105867200D01*
D42*
X170898000Y-95841000D02*
X170561000Y-95504000D01*
D46*
X145127000Y-106918000D02*
X147640800Y-106918000D01*
D42*
X174371000Y-86956000D02*
X176061000Y-86956000D01*
X175040000Y-106265000D02*
X174879000Y-106426000D01*
D45*
X196342000Y-74608100D02*
X196545200Y-74404900D01*
D43*
X191389000Y-83947000D02*
X191350000Y-83986000D01*
D42*
X171334000Y-100341000D02*
X171284900Y-100291900D01*
X172860000Y-100341000D02*
X171334000Y-100341000D01*
X172860000Y-95841000D02*
X174377800Y-95841000D01*
X170929300Y-99936300D02*
X170434000Y-99441000D01*
D45*
X196342000Y-77554500D02*
X192887600Y-77554500D01*
D42*
X188220000Y-90841000D02*
X186374600Y-90841000D01*
X186540000Y-104521000D02*
X187274200Y-104521000D01*
X174371000Y-86956000D02*
X173570000Y-86956000D01*
X169319400Y-100841000D02*
X169265600Y-100787200D01*
D44*
X214602000Y-112550000D02*
X214630000Y-112522000D01*
D42*
X174098600Y-89161000D02*
X173532800Y-88595200D01*
X183349200Y-111057600D02*
X182533200Y-111057600D01*
D43*
X188501700Y-79027700D02*
X186817000Y-77343000D01*
X191350000Y-81495000D02*
X190246000Y-80391000D01*
D44*
X213360000Y-112550000D02*
X214602000Y-112550000D01*
D45*
X196342000Y-79925500D02*
X196342000Y-77554500D01*
D42*
X168998000Y-100838000D02*
X168998000Y-100089600D01*
X173355000Y-86741000D02*
X173355000Y-84455000D01*
X172860000Y-100825600D02*
X172872400Y-100838000D01*
%TO.N,OSC_IN*%
X166139500Y-94477000D02*
X166105000Y-94477000D01*
X167259000Y-95885000D02*
X167259000Y-95504000D01*
X172860000Y-96341000D02*
X167715000Y-96341000D01*
X166105000Y-94477000D02*
X164465000Y-92837000D01*
X167715000Y-96341000D02*
X167259000Y-95885000D01*
X167259000Y-95504000D02*
X166624000Y-94869000D01*
%TO.N,OSC_OUT*%
X167171000Y-97370000D02*
X163996000Y-97370000D01*
X167700000Y-96841000D02*
X167171000Y-97370000D01*
X172860000Y-96841000D02*
X167700000Y-96841000D01*
X163996000Y-97370000D02*
X163996000Y-96432000D01*
X163996000Y-98298000D02*
X163996000Y-97370000D01*
X163996000Y-96432000D02*
X163830000Y-96266000D01*
%TO.N,Net-(D1-Pad2)*%
X184048400Y-109728000D02*
X184607200Y-110286800D01*
X182422800Y-108333600D02*
X182422800Y-109016800D01*
X182422800Y-109016800D02*
X183134000Y-109728000D01*
X183134000Y-109728000D02*
X184048400Y-109728000D01*
X184607200Y-110286800D02*
X184607200Y-110998000D01*
%TO.N,Net-(D1-Pad3)*%
X186131200Y-108915200D02*
X186131200Y-111861600D01*
X186131200Y-111861600D02*
X185877200Y-112115600D01*
X185549600Y-108333600D02*
X186131200Y-108915200D01*
X184454800Y-108333600D02*
X185549600Y-108333600D01*
X185877200Y-112115600D02*
X185013600Y-112115600D01*
%TO.N,Net-(D1-Pad4)*%
X180543200Y-110439200D02*
X182270400Y-112166400D01*
X180543200Y-108181200D02*
X180543200Y-110439200D01*
X182270400Y-112166400D02*
X183134000Y-112166400D01*
D43*
%TO.N,Net-(D2-Pad1)*%
X184884000Y-82014000D02*
X184277000Y-81407000D01*
X184884000Y-84836000D02*
X184884000Y-82014000D01*
D47*
%TO.N,/Connectivity/D+*%
X206369679Y-102685850D02*
X205616528Y-103439001D01*
X203722368Y-103072350D02*
X203335868Y-102685850D01*
X214777000Y-101453000D02*
X214064850Y-102165150D01*
X202610462Y-102685850D02*
X202108306Y-102183694D01*
X204882052Y-103439001D02*
X204147576Y-103439001D01*
X211246462Y-103701850D02*
X210230462Y-102685850D01*
X214926500Y-101453000D02*
X214777000Y-101453000D01*
X213794632Y-103701850D02*
X211246462Y-103701850D01*
X210230462Y-102685850D02*
X206369679Y-102685850D01*
X203335868Y-102685850D02*
X202610462Y-102685850D01*
X203780925Y-103072350D02*
X203722368Y-103072350D01*
X204147576Y-103439001D02*
X203780925Y-103072350D01*
X201982612Y-102058000D02*
X202108306Y-102183694D01*
X214064850Y-102165150D02*
X214064850Y-103431632D01*
X205616528Y-103439001D02*
X204882052Y-103439001D01*
X200787000Y-102058000D02*
X201982612Y-102058000D01*
X214064850Y-103431632D02*
X213794632Y-103701850D01*
%TO.N,/Connectivity/D-*%
X206369679Y-102292150D02*
X205616528Y-101538999D01*
X213671150Y-102197650D02*
X213671150Y-103268556D01*
X204882052Y-101538999D02*
X204147576Y-101538999D01*
X200787000Y-101558000D02*
X202039388Y-101558000D01*
X202039388Y-101558000D02*
X202196194Y-101714806D01*
X210393538Y-102292150D02*
X206369679Y-102292150D01*
X204147576Y-101538999D02*
X203780925Y-101905650D01*
X211409538Y-103308150D02*
X210393538Y-102292150D01*
X212926500Y-101453000D02*
X213671150Y-102197650D01*
X203780925Y-101905650D02*
X203722368Y-101905650D01*
X202773538Y-102292150D02*
X202196194Y-101714806D01*
X205616528Y-101538999D02*
X204882052Y-101538999D01*
X203335868Y-102292150D02*
X202773538Y-102292150D01*
X203722368Y-101905650D02*
X203335868Y-102292150D01*
X213631556Y-103308150D02*
X211409538Y-103308150D01*
X202196194Y-101714806D02*
X202070649Y-101589261D01*
X213671150Y-103268556D02*
X213631556Y-103308150D01*
D42*
%TO.N,BOOT*%
X177540000Y-88271000D02*
X178181000Y-87630000D01*
X178181000Y-87630000D02*
X178181000Y-87122000D01*
X177540000Y-89161000D02*
X177540000Y-88271000D01*
%TO.N,SWDIO*%
X190246000Y-93345000D02*
X191897000Y-93345000D01*
D44*
X204089000Y-106426000D02*
X204470000Y-106045000D01*
D42*
X191897000Y-93345000D02*
X192379600Y-93827600D01*
D44*
X208407000Y-106045000D02*
X213106000Y-110744000D01*
D42*
X189242000Y-92341000D02*
X190246000Y-93345000D01*
X188220000Y-92341000D02*
X189242000Y-92341000D01*
D44*
X204089000Y-107303950D02*
X204089000Y-106426000D01*
X204470000Y-106045000D02*
X208407000Y-106045000D01*
D42*
%TO.N,SWCLK*%
X187662200Y-89161000D02*
X188010800Y-89509600D01*
D44*
X203650000Y-105595000D02*
X210370000Y-105595000D01*
X202819000Y-106426000D02*
X203650000Y-105595000D01*
D42*
X186540000Y-89161000D02*
X187662200Y-89161000D01*
D44*
X210370000Y-105595000D02*
X215519000Y-110744000D01*
X202819000Y-107303950D02*
X202819000Y-106426000D01*
D42*
%TO.N,SWO*%
X180040000Y-91089200D02*
X180086000Y-91135200D01*
X180040000Y-89161000D02*
X180040000Y-91089200D01*
%TO.N,STATUS_B*%
X182040000Y-104521000D02*
X182040000Y-106551200D01*
X182040000Y-106551200D02*
X182067200Y-106578400D01*
%TO.N,STATUS_G*%
X182880000Y-105867200D02*
X183540400Y-105867200D01*
X183540400Y-105867200D02*
X184048400Y-106375200D01*
X182540000Y-105527200D02*
X182880000Y-105867200D01*
X182540000Y-104521000D02*
X182540000Y-105527200D01*
%TO.N,STATUS_R*%
X181540000Y-105581600D02*
X180797200Y-106324400D01*
X181540000Y-104521000D02*
X181540000Y-105581600D01*
%TO.N,~{USB_RST}*%
X197231000Y-94361000D02*
X197485000Y-94615000D01*
X194691000Y-94361000D02*
X197231000Y-94361000D01*
X199197000Y-99468000D02*
X199197000Y-96073000D01*
X197485000Y-94615000D02*
X197485000Y-95123000D01*
X199197000Y-96073000D02*
X198501000Y-95377000D01*
X198501000Y-95377000D02*
X197612000Y-95377000D01*
X188220000Y-96341000D02*
X192711000Y-96341000D01*
X192711000Y-96341000D02*
X194691000Y-94361000D01*
%TO.N,~{USB_SUSPEND}*%
X192846000Y-96841000D02*
X193103500Y-96583500D01*
X198197000Y-97994000D02*
X197866000Y-97663000D01*
X198197000Y-99468000D02*
X198197000Y-97994000D01*
X196723000Y-96393000D02*
X193294000Y-96393000D01*
X193294000Y-96393000D02*
X193103500Y-96583500D01*
X197612000Y-97282000D02*
X196723000Y-96393000D01*
X188220000Y-96841000D02*
X192846000Y-96841000D01*
%TO.N,XBEE_SCK*%
X145186400Y-75133200D02*
X145186400Y-73660000D01*
X172860000Y-90841000D02*
X170800200Y-90841000D01*
X170800200Y-90841000D02*
X157988000Y-78028800D01*
X148082000Y-78028800D02*
X145186400Y-75133200D01*
X157988000Y-78028800D02*
X148082000Y-78028800D01*
D48*
%TO.N,Net-(AE1-A)*%
X135699500Y-100711000D02*
X140792200Y-100711000D01*
X142646400Y-98856800D02*
X144678400Y-98856800D01*
X140792200Y-100711000D02*
X142646400Y-98856800D01*
D42*
%TO.N,XBEE_MISO*%
X167335200Y-89966800D02*
X151993600Y-89966800D01*
X147269200Y-94691200D02*
X147269200Y-95605600D01*
X151993600Y-89966800D02*
X147269200Y-94691200D01*
X172860000Y-92341000D02*
X169709400Y-92341000D01*
X169709400Y-92341000D02*
X167335200Y-89966800D01*
%TO.N,XBEE_MOSI*%
X159308800Y-75539600D02*
X159308800Y-73761600D01*
X174498000Y-92506800D02*
X174498000Y-90728800D01*
X172860000Y-92841000D02*
X174163800Y-92841000D01*
X174498000Y-90728800D02*
X159308800Y-75539600D01*
X174163800Y-92841000D02*
X174498000Y-92506800D01*
%TO.N,XBEE_RX*%
X170388200Y-101341000D02*
X170078400Y-101650800D01*
X161340800Y-101650800D02*
X161137600Y-101854000D01*
X151536400Y-101854000D02*
X145338800Y-95656400D01*
X161137600Y-101854000D02*
X151536400Y-101854000D01*
X172860000Y-101341000D02*
X170388200Y-101341000D01*
X170078400Y-101650800D02*
X161340800Y-101650800D01*
%TO.N,XBEE_TX*%
X170904200Y-101841000D02*
X170383200Y-102362000D01*
X170383200Y-102362000D02*
X163271200Y-102362000D01*
X172860000Y-101841000D02*
X170904200Y-101841000D01*
%TO.N,XBEE_PWM0*%
X178540000Y-102340000D02*
X177850800Y-101650800D01*
X178540000Y-104521000D02*
X178540000Y-102340000D01*
%TO.N,XBEE_PWM1*%
X179070000Y-101955600D02*
X179070000Y-104089200D01*
X177596800Y-100482400D02*
X179070000Y-101955600D01*
%TO.N,XBEE_SS*%
X181540000Y-89161000D02*
X181540000Y-84867600D01*
X181381400Y-84709000D02*
X181457600Y-84785200D01*
X181540000Y-84867600D02*
X181381400Y-84709000D01*
X179527200Y-82854800D02*
X181381400Y-84709000D01*
%TO.N,LORA_SCK*%
X184540000Y-103514000D02*
X183134000Y-102108000D01*
X166370000Y-106222800D02*
X166370000Y-105308400D01*
X166370000Y-105308400D02*
X167182800Y-104495600D01*
X184540000Y-104521000D02*
X184540000Y-103514000D01*
X159927000Y-106918000D02*
X165674800Y-106918000D01*
X165674800Y-106918000D02*
X166370000Y-106222800D01*
%TO.N,LORA_RST*%
X162915600Y-103073200D02*
X160324800Y-103073200D01*
X160324800Y-103073200D02*
X160121600Y-102870000D01*
X171674200Y-102341000D02*
X170942000Y-103073200D01*
X172860000Y-102341000D02*
X171674200Y-102341000D01*
X170942000Y-103073200D02*
X162915600Y-103073200D01*
%TO.N,LORA_SS*%
X172212000Y-103886000D02*
X163982400Y-103886000D01*
X172860000Y-103238000D02*
X172212000Y-103886000D01*
X163982400Y-103886000D02*
X163703000Y-104165400D01*
X172860000Y-102841000D02*
X172860000Y-103238000D01*
X163703000Y-104165400D02*
X162915600Y-104952800D01*
X162915600Y-104952800D02*
X160324800Y-104952800D01*
X160324800Y-104952800D02*
X160274000Y-104902000D01*
%TO.N,LORA_MISO*%
X188220000Y-101841000D02*
X185179000Y-101841000D01*
X167741600Y-105359200D02*
X168452800Y-105359200D01*
X185179000Y-101841000D02*
X184708800Y-102311200D01*
X167182800Y-105918000D02*
X167741600Y-105359200D01*
X167182800Y-109270800D02*
X167182800Y-105918000D01*
X159927000Y-110918000D02*
X165535600Y-110918000D01*
X165535600Y-110918000D02*
X167182800Y-109270800D01*
%TO.N,LORA_MOSI*%
X166776400Y-105679818D02*
X167808218Y-104648000D01*
X162404800Y-108918000D02*
X163779200Y-107543600D01*
X167808218Y-104648000D02*
X169113200Y-104648000D01*
X165912800Y-107543600D02*
X166776400Y-106680000D01*
X166776400Y-106680000D02*
X166776400Y-105679818D01*
X184764600Y-101341000D02*
X184708800Y-101396800D01*
X163779200Y-107543600D02*
X165912800Y-107543600D01*
X159927000Y-108918000D02*
X162404800Y-108918000D01*
X188220000Y-101341000D02*
X184764600Y-101341000D01*
%TO.N,XBEE_DIO1*%
X172262800Y-83718400D02*
X172923200Y-83058000D01*
X178816000Y-83058000D02*
X180873400Y-85115400D01*
X181040000Y-85282000D02*
X180873400Y-85115400D01*
X172923200Y-83058000D02*
X178816000Y-83058000D01*
X170891200Y-83718400D02*
X172262800Y-83718400D01*
X181040000Y-89161000D02*
X181040000Y-85282000D01*
%TO.N,XBEE_DIO5*%
X182540000Y-89161000D02*
X182540000Y-83530800D01*
X180340000Y-81330800D02*
X182270400Y-83261200D01*
X182540000Y-83530800D02*
X182270400Y-83261200D01*
%TO.N,XBEE_DIO6*%
X179832000Y-82143600D02*
X181838600Y-84150200D01*
X181838600Y-84150200D02*
X182016400Y-84328000D01*
X182040000Y-84351600D02*
X181838600Y-84150200D01*
X182040000Y-89161000D02*
X182040000Y-84351600D01*
%TO.N,XBEE_DIO7*%
X183540000Y-82295600D02*
X183235600Y-81991200D01*
X182626000Y-81381600D02*
X183235600Y-81991200D01*
X183540000Y-89161000D02*
X183540000Y-82295600D01*
%TO.N,XBEE_DIO8*%
X170942000Y-93522800D02*
X169367200Y-93522800D01*
X171760200Y-94341000D02*
X170942000Y-93522800D01*
X169367200Y-93522800D02*
X167176400Y-91332000D01*
X167176400Y-91332000D02*
X161448800Y-91332000D01*
X161448800Y-91332000D02*
X157276800Y-95504000D01*
X172860000Y-94341000D02*
X171760200Y-94341000D01*
%TO.N,~{XBEE_SLEEP}*%
X183040000Y-83218000D02*
X182854600Y-83032600D01*
X183040000Y-89161000D02*
X183040000Y-83218000D01*
X180949600Y-80568800D02*
X180949600Y-81127600D01*
X180949600Y-81127600D02*
X182854600Y-83032600D01*
X182854600Y-83032600D02*
X183032400Y-83210400D01*
%TO.N,USB_RX*%
X189992000Y-94996000D02*
X189992000Y-95402400D01*
X189337000Y-94341000D02*
X189992000Y-94996000D01*
X198197000Y-105206000D02*
X197866000Y-105537000D01*
X198197000Y-104648000D02*
X198197000Y-105206000D01*
X188220000Y-94341000D02*
X189337000Y-94341000D01*
X194056000Y-103759000D02*
X192786000Y-103759000D01*
X195834000Y-105537000D02*
X194056000Y-103759000D01*
X197866000Y-105537000D02*
X195834000Y-105537000D01*
%TO.N,USB_TX*%
X189599000Y-93841000D02*
X190500000Y-94742000D01*
X198697000Y-105341000D02*
X198101000Y-105937000D01*
X195599000Y-105937000D02*
X195199000Y-105537000D01*
X198101000Y-105937000D02*
X195599000Y-105937000D01*
X198697000Y-104648000D02*
X198697000Y-105341000D01*
X195199000Y-105537000D02*
X194564000Y-105537000D01*
X188220000Y-93841000D02*
X189599000Y-93841000D01*
%TO.N,LORA_IO0*%
X152908000Y-112979200D02*
X152908000Y-109575600D01*
X152908000Y-109575600D02*
X152250400Y-108918000D01*
X176540000Y-111045686D02*
X173399886Y-114185800D01*
X152250400Y-108918000D02*
X145127000Y-108918000D01*
X176540000Y-104521000D02*
X176540000Y-111045686D01*
X154114600Y-114185800D02*
X152908000Y-112979200D01*
X173399886Y-114185800D02*
X154114600Y-114185800D01*
%TO.N,LORA_IO1*%
X177040000Y-104521000D02*
X177040000Y-111199200D01*
X153600200Y-114585800D02*
X152298400Y-113284000D01*
X177040000Y-111199200D02*
X173653400Y-114585800D01*
X173653400Y-114585800D02*
X153600200Y-114585800D01*
X151761200Y-110918000D02*
X145127000Y-110918000D01*
X152298400Y-111455200D02*
X151761200Y-110918000D01*
X152298400Y-113284000D02*
X152298400Y-111455200D01*
%TO.N,LORA_IO2*%
X177540000Y-111264885D02*
X173819085Y-114985800D01*
X151018000Y-112918000D02*
X153085800Y-114985800D01*
X153085800Y-114985800D02*
X163957000Y-114985800D01*
X177540000Y-104521000D02*
X177540000Y-111264885D01*
X173819085Y-114985800D02*
X163957000Y-114985800D01*
X145127000Y-112918000D02*
X151018000Y-112918000D01*
%TO.N,LORA_IO3*%
X155041600Y-111912400D02*
X173837600Y-111912400D01*
X153362400Y-102918000D02*
X154279600Y-103835200D01*
X175540000Y-110210000D02*
X173964600Y-111785400D01*
X175540000Y-104521000D02*
X175540000Y-110210000D01*
X154279600Y-111150400D02*
X155041600Y-111912400D01*
X173837600Y-111912400D02*
X173964600Y-111785400D01*
X145127000Y-102918000D02*
X153362400Y-102918000D01*
X154279600Y-103835200D02*
X154279600Y-111150400D01*
%TO.N,LORA_IO4*%
X176040000Y-110980000D02*
X173234200Y-113785800D01*
X153466800Y-105460800D02*
X152924000Y-104918000D01*
X173234200Y-113785800D02*
X154425800Y-113785800D01*
X153466800Y-112826800D02*
X153466800Y-105460800D01*
X154425800Y-113785800D02*
X153466800Y-112826800D01*
X152924000Y-104918000D02*
X145127000Y-104918000D01*
X176040000Y-104521000D02*
X176040000Y-110980000D01*
D43*
%TO.N,LORA_IO5*%
X171277800Y-97332800D02*
X168605200Y-97332800D01*
X168605200Y-97332800D02*
X168148000Y-97790000D01*
X171786000Y-97841000D02*
X171277800Y-97332800D01*
D42*
X165121600Y-100918000D02*
X166014400Y-100025200D01*
X159927000Y-100918000D02*
X165121600Y-100918000D01*
D43*
X172860000Y-97841000D02*
X171786000Y-97841000D01*
D42*
%TO.N,~{XBEE_RST}*%
X153865500Y-90932000D02*
X149237500Y-95560000D01*
X172860000Y-93841000D02*
X171920600Y-93841000D01*
X170840400Y-92760800D02*
X169519600Y-92760800D01*
X171920600Y-93841000D02*
X170840400Y-92760800D01*
X167690800Y-90932000D02*
X153865500Y-90932000D01*
X169519600Y-92760800D02*
X167690800Y-90932000D01*
%TO.N,XBEE_DIO0*%
X178562000Y-83566000D02*
X180543200Y-85547200D01*
X171907200Y-85140800D02*
X173482000Y-83566000D01*
X173482000Y-83566000D02*
X178562000Y-83566000D01*
X180543200Y-85547200D02*
X180543200Y-89255600D01*
X171399200Y-85140800D02*
X171907200Y-85140800D01*
D43*
%TO.N,Net-(D3-Pad1)*%
X181356000Y-75311000D02*
X180721000Y-74676000D01*
X183769000Y-75311000D02*
X181356000Y-75311000D01*
%TD*%
%TA.AperFunction,Conductor*%
%TO.N,Earth*%
G36*
X225796926Y-72282099D02*
G01*
X225902858Y-72336074D01*
X225986926Y-72420142D01*
X226040901Y-72526074D01*
X226059500Y-72643500D01*
X226059500Y-115062500D01*
X226040901Y-115179926D01*
X225986926Y-115285858D01*
X225902858Y-115369926D01*
X225796926Y-115423901D01*
X225679500Y-115442500D01*
X175140335Y-115442500D01*
X175030027Y-115426137D01*
X174929218Y-115378458D01*
X174846591Y-115303569D01*
X174789261Y-115207920D01*
X174762165Y-115099747D01*
X174767637Y-114988366D01*
X174805205Y-114883369D01*
X174871634Y-114793799D01*
X176397463Y-113267970D01*
X177924472Y-111740960D01*
X177961838Y-111708193D01*
X177973987Y-111698872D01*
X177973988Y-111698870D01*
X177973990Y-111698869D01*
X178061832Y-111584391D01*
X178062460Y-111583572D01*
X178071524Y-111571760D01*
X178132838Y-111423735D01*
X178148500Y-111304770D01*
X178148500Y-111304763D01*
X178153750Y-111264885D01*
X178151750Y-111249698D01*
X178148500Y-111200102D01*
X178148500Y-106189500D01*
X178167099Y-106072074D01*
X178221074Y-105966142D01*
X178305142Y-105882074D01*
X178411074Y-105828099D01*
X178528500Y-105809500D01*
X178728635Y-105809500D01*
X178728638Y-105809500D01*
X178749381Y-105807270D01*
X178830619Y-105807270D01*
X178851362Y-105809500D01*
X178851365Y-105809500D01*
X179144700Y-105809500D01*
X179262126Y-105828099D01*
X179368058Y-105882074D01*
X179452126Y-105966142D01*
X179506101Y-106072074D01*
X179524700Y-106189500D01*
X179524700Y-107119837D01*
X179531211Y-107180400D01*
X179560304Y-107258402D01*
X179581576Y-107346085D01*
X179581576Y-107436311D01*
X179560305Y-107523994D01*
X179531211Y-107601999D01*
X179524700Y-107662563D01*
X179524700Y-108699837D01*
X179531211Y-108760402D01*
X179582310Y-108897403D01*
X179669938Y-109014461D01*
X179782425Y-109098667D01*
X179864239Y-109182451D01*
X179916656Y-109287168D01*
X179934700Y-109402873D01*
X179934700Y-110374417D01*
X179931449Y-110424018D01*
X179929450Y-110439200D01*
X179931449Y-110454382D01*
X179931450Y-110454399D01*
X179934700Y-110479085D01*
X179945032Y-110557562D01*
X179948880Y-110586795D01*
X179950362Y-110598052D01*
X180011676Y-110746077D01*
X180084719Y-110841268D01*
X180084723Y-110841271D01*
X180084723Y-110841272D01*
X180084725Y-110841274D01*
X180105303Y-110868092D01*
X180109214Y-110873188D01*
X180121362Y-110882510D01*
X180158733Y-110915282D01*
X181794317Y-112550866D01*
X181827088Y-112588235D01*
X181836412Y-112600386D01*
X181848567Y-112609713D01*
X181848570Y-112609716D01*
X181868327Y-112624876D01*
X181868329Y-112624878D01*
X181963524Y-112697924D01*
X182111549Y-112759238D01*
X182233965Y-112775354D01*
X182331175Y-112801608D01*
X182418078Y-112852473D01*
X182482874Y-112918567D01*
X182534239Y-112957018D01*
X182602996Y-113008489D01*
X182739999Y-113059589D01*
X182800562Y-113066100D01*
X183897837Y-113066100D01*
X183897838Y-113066100D01*
X183958401Y-113059589D01*
X183964126Y-113057453D01*
X183966402Y-113056605D01*
X184054086Y-113035332D01*
X184144314Y-113035332D01*
X184231998Y-113056605D01*
X184235959Y-113058082D01*
X184239999Y-113059589D01*
X184300562Y-113066100D01*
X185397837Y-113066100D01*
X185397838Y-113066100D01*
X185458401Y-113059589D01*
X185595404Y-113008489D01*
X185712461Y-112920861D01*
X185757568Y-112860604D01*
X185804407Y-112812828D01*
X185805797Y-112811036D01*
X185806908Y-112810277D01*
X185828064Y-112788698D01*
X185901246Y-112745864D01*
X185903357Y-112744424D01*
X185904065Y-112744214D01*
X185914973Y-112737831D01*
X186012190Y-112711579D01*
X186016673Y-112710989D01*
X186029144Y-112709347D01*
X186036051Y-112708438D01*
X186184076Y-112647124D01*
X186279272Y-112574077D01*
X186279273Y-112574075D01*
X186311183Y-112549590D01*
X186311182Y-112549590D01*
X186311187Y-112549587D01*
X186320518Y-112537425D01*
X186353276Y-112500071D01*
X186515672Y-112337675D01*
X186553038Y-112304908D01*
X186565187Y-112295587D01*
X186589674Y-112263674D01*
X186589677Y-112263672D01*
X186662724Y-112168476D01*
X186688120Y-112107162D01*
X186724038Y-112020450D01*
X186739700Y-111901485D01*
X186739700Y-111901478D01*
X186744950Y-111861600D01*
X186742950Y-111846413D01*
X186739700Y-111796817D01*
X186739700Y-108979991D01*
X186742951Y-108930390D01*
X186744951Y-108915200D01*
X186724038Y-108756349D01*
X186724037Y-108756348D01*
X186721336Y-108735826D01*
X186723134Y-108624484D01*
X186757131Y-108518445D01*
X186820407Y-108426813D01*
X186907528Y-108357458D01*
X187011013Y-108316336D01*
X187121975Y-108306978D01*
X187230882Y-108330186D01*
X187263599Y-108342389D01*
X187324162Y-108348900D01*
X188521437Y-108348900D01*
X188521438Y-108348900D01*
X188582001Y-108342389D01*
X188640715Y-108320489D01*
X188728401Y-108299217D01*
X188818628Y-108299216D01*
X188906312Y-108320488D01*
X188963706Y-108341895D01*
X189024212Y-108348400D01*
X190221388Y-108348400D01*
X190281895Y-108341894D01*
X190418763Y-108290846D01*
X190535704Y-108203304D01*
X190623246Y-108086363D01*
X190674294Y-107949495D01*
X190680800Y-107888988D01*
X190680800Y-106791812D01*
X190673179Y-106720928D01*
X190652609Y-106617522D01*
X190667759Y-106496899D01*
X190720227Y-106387233D01*
X190804643Y-106299749D01*
X190840506Y-106272902D01*
X190928046Y-106155963D01*
X190979094Y-106019095D01*
X190985600Y-105958588D01*
X190985600Y-104861412D01*
X190979094Y-104800904D01*
X190928046Y-104664036D01*
X190840504Y-104547095D01*
X190723563Y-104459553D01*
X190586695Y-104408505D01*
X190526188Y-104402000D01*
X189329012Y-104402000D01*
X189268504Y-104408505D01*
X189211109Y-104429912D01*
X189123427Y-104451183D01*
X189033202Y-104451183D01*
X188945520Y-104429911D01*
X188886804Y-104408011D01*
X188841378Y-104403127D01*
X188826238Y-104401500D01*
X188826237Y-104401500D01*
X188304937Y-104401500D01*
X188210022Y-104389455D01*
X188121125Y-104354085D01*
X188043879Y-104297632D01*
X187983183Y-104223674D01*
X187934202Y-104145722D01*
X187887673Y-104071672D01*
X187841856Y-103965890D01*
X187829867Y-103851236D01*
X187852810Y-103738262D01*
X187908572Y-103637367D01*
X187992023Y-103557835D01*
X188095482Y-103506986D01*
X188209428Y-103489500D01*
X189048637Y-103489500D01*
X189048638Y-103489500D01*
X189109201Y-103482989D01*
X189127666Y-103476102D01*
X189134753Y-103473459D01*
X189200079Y-103455538D01*
X189267549Y-103449500D01*
X190591217Y-103449500D01*
X190640812Y-103452750D01*
X190656000Y-103454750D01*
X190671195Y-103452749D01*
X190671201Y-103452749D01*
X190695881Y-103449500D01*
X190695885Y-103449500D01*
X190798496Y-103435991D01*
X190798500Y-103435991D01*
X190809399Y-103434555D01*
X190814851Y-103433838D01*
X190962876Y-103372524D01*
X191058072Y-103299477D01*
X191058073Y-103299475D01*
X191089983Y-103274990D01*
X191089982Y-103274990D01*
X191089987Y-103274987D01*
X191099318Y-103262825D01*
X191132076Y-103225471D01*
X193999799Y-100357748D01*
X194089369Y-100291320D01*
X194194366Y-100253752D01*
X194305747Y-100248280D01*
X194413920Y-100275376D01*
X194509569Y-100332706D01*
X194584458Y-100415333D01*
X194632137Y-100516142D01*
X194648500Y-100626450D01*
X194648500Y-100733644D01*
X194652127Y-100767385D01*
X194652128Y-100848612D01*
X194648500Y-100882364D01*
X194648500Y-101233644D01*
X194652127Y-101267386D01*
X194652127Y-101348614D01*
X194648500Y-101382356D01*
X194648500Y-101733644D01*
X194652127Y-101767385D01*
X194652128Y-101848612D01*
X194648500Y-101882364D01*
X194648500Y-102233644D01*
X194652127Y-102267385D01*
X194652128Y-102348612D01*
X194648500Y-102382364D01*
X194648500Y-102733641D01*
X194650242Y-102749846D01*
X194645263Y-102863860D01*
X194606656Y-102971253D01*
X194537903Y-103062341D01*
X194445206Y-103128907D01*
X194336924Y-103164947D01*
X194222824Y-103167212D01*
X194214852Y-103166162D01*
X194214851Y-103166162D01*
X194194957Y-103163543D01*
X194095885Y-103150500D01*
X194071199Y-103147250D01*
X194071187Y-103147249D01*
X194056000Y-103145250D01*
X194040812Y-103147249D01*
X193991217Y-103150500D01*
X193352719Y-103150500D01*
X193247522Y-103135649D01*
X193150549Y-103092256D01*
X193117183Y-103071291D01*
X193117182Y-103071290D01*
X193117181Y-103071290D01*
X192955852Y-103014838D01*
X192786000Y-102995701D01*
X192616147Y-103014838D01*
X192454815Y-103071291D01*
X192310094Y-103162226D01*
X192189226Y-103283094D01*
X192098291Y-103427815D01*
X192041838Y-103589147D01*
X192022701Y-103759000D01*
X192041838Y-103928852D01*
X192098291Y-104090184D01*
X192183351Y-104225555D01*
X192189229Y-104234909D01*
X192310091Y-104355771D01*
X192310093Y-104355772D01*
X192310094Y-104355773D01*
X192426367Y-104428833D01*
X192454817Y-104446709D01*
X192616150Y-104503162D01*
X192786000Y-104522299D01*
X192955850Y-104503162D01*
X193117183Y-104446709D01*
X193150549Y-104425743D01*
X193247522Y-104382351D01*
X193352719Y-104367500D01*
X193646549Y-104367500D01*
X193744900Y-104380448D01*
X193836549Y-104418410D01*
X193915250Y-104478799D01*
X193963685Y-104527234D01*
X194033566Y-104623419D01*
X194070306Y-104736490D01*
X194070306Y-104855380D01*
X194033566Y-104968451D01*
X193973423Y-105051231D01*
X193876291Y-105205815D01*
X193819838Y-105367147D01*
X193800701Y-105537000D01*
X193819838Y-105706852D01*
X193876291Y-105868184D01*
X193967226Y-106012905D01*
X193967229Y-106012909D01*
X194088091Y-106133771D01*
X194088093Y-106133772D01*
X194088094Y-106133773D01*
X194176782Y-106189500D01*
X194232817Y-106224709D01*
X194352506Y-106266590D01*
X194378440Y-106275665D01*
X194394150Y-106281162D01*
X194564000Y-106300299D01*
X194733850Y-106281162D01*
X194759846Y-106272065D01*
X194876462Y-106250845D01*
X194993951Y-106266590D01*
X195100872Y-106317771D01*
X195125118Y-106340801D01*
X195125325Y-106340533D01*
X195177167Y-106380313D01*
X195177170Y-106380316D01*
X195250206Y-106436359D01*
X195250209Y-106436360D01*
X195250211Y-106436362D01*
X195292125Y-106468524D01*
X195292127Y-106468524D01*
X195308440Y-106481042D01*
X195372971Y-106519720D01*
X195447861Y-106602347D01*
X195495542Y-106703156D01*
X195511905Y-106813465D01*
X195495542Y-106923775D01*
X195442175Y-107099700D01*
X195422058Y-107303950D01*
X195442175Y-107508197D01*
X195501753Y-107704597D01*
X195531553Y-107760350D01*
X195571347Y-107877580D01*
X195571346Y-108001379D01*
X195531552Y-108118609D01*
X195502218Y-108173488D01*
X195442667Y-108369803D01*
X195422560Y-108573949D01*
X195442667Y-108778096D01*
X195502217Y-108974409D01*
X195598917Y-109155320D01*
X195729055Y-109313894D01*
X195887629Y-109444032D01*
X196068540Y-109540732D01*
X196264853Y-109600282D01*
X196469000Y-109620389D01*
X196673146Y-109600282D01*
X196869454Y-109540733D01*
X196924866Y-109511115D01*
X197042099Y-109471320D01*
X197165901Y-109471320D01*
X197283134Y-109511115D01*
X197338545Y-109540733D01*
X197534853Y-109600282D01*
X197739000Y-109620389D01*
X197943146Y-109600282D01*
X198139454Y-109540733D01*
X198194866Y-109511115D01*
X198312099Y-109471320D01*
X198435901Y-109471320D01*
X198553134Y-109511115D01*
X198608545Y-109540733D01*
X198804853Y-109600282D01*
X199009000Y-109620389D01*
X199213146Y-109600282D01*
X199409454Y-109540733D01*
X199464866Y-109511115D01*
X199582099Y-109471320D01*
X199705901Y-109471320D01*
X199823134Y-109511115D01*
X199878545Y-109540733D01*
X200074853Y-109600282D01*
X200279000Y-109620389D01*
X200483146Y-109600282D01*
X200679454Y-109540733D01*
X200734866Y-109511115D01*
X200852099Y-109471320D01*
X200975901Y-109471320D01*
X201093134Y-109511115D01*
X201148545Y-109540733D01*
X201344853Y-109600282D01*
X201549000Y-109620389D01*
X201753146Y-109600282D01*
X201949454Y-109540733D01*
X202004866Y-109511115D01*
X202122099Y-109471320D01*
X202245901Y-109471320D01*
X202363134Y-109511115D01*
X202418545Y-109540733D01*
X202614853Y-109600282D01*
X202819000Y-109620389D01*
X203023146Y-109600282D01*
X203219454Y-109540733D01*
X203274866Y-109511115D01*
X203392099Y-109471320D01*
X203515901Y-109471320D01*
X203633134Y-109511115D01*
X203688545Y-109540733D01*
X203884853Y-109600282D01*
X204089000Y-109620389D01*
X204293146Y-109600282D01*
X204489454Y-109540733D01*
X204544866Y-109511115D01*
X204662099Y-109471320D01*
X204785901Y-109471320D01*
X204903134Y-109511115D01*
X204958545Y-109540733D01*
X205154853Y-109600282D01*
X205359000Y-109620389D01*
X205563146Y-109600282D01*
X205759454Y-109540733D01*
X205814866Y-109511115D01*
X205932099Y-109471320D01*
X206055901Y-109471320D01*
X206173134Y-109511115D01*
X206228545Y-109540733D01*
X206424853Y-109600282D01*
X206629000Y-109620389D01*
X206833146Y-109600282D01*
X207029455Y-109540733D01*
X207084335Y-109511399D01*
X207201567Y-109471603D01*
X207325368Y-109471602D01*
X207442600Y-109511397D01*
X207495081Y-109539448D01*
X207498353Y-109541197D01*
X207682176Y-109596959D01*
X207694752Y-109600774D01*
X207918969Y-109622858D01*
X208003869Y-109641195D01*
X208082388Y-109678331D01*
X208150423Y-109732327D01*
X211336929Y-112918833D01*
X211353915Y-112940036D01*
X211418731Y-113000901D01*
X211427302Y-113009206D01*
X211447610Y-113029514D01*
X211465178Y-113044517D01*
X211488679Y-113066586D01*
X211488913Y-113066714D01*
X211538749Y-113099450D01*
X211538960Y-113099614D01*
X211568545Y-113112416D01*
X211600684Y-113128161D01*
X211628940Y-113143695D01*
X211629200Y-113143761D01*
X211685613Y-113163076D01*
X211685855Y-113163181D01*
X211717694Y-113168223D01*
X211752747Y-113175483D01*
X211783969Y-113183500D01*
X211783970Y-113183500D01*
X211784234Y-113183500D01*
X211843676Y-113188178D01*
X211843941Y-113188220D01*
X211843942Y-113188219D01*
X211843943Y-113188220D01*
X211866234Y-113186112D01*
X211876040Y-113185186D01*
X211911799Y-113183500D01*
X212146985Y-113183500D01*
X212262690Y-113201544D01*
X212367407Y-113253961D01*
X212451191Y-113335775D01*
X212486738Y-113383261D01*
X212534785Y-113419228D01*
X212603796Y-113470889D01*
X212740799Y-113521989D01*
X212801362Y-113528500D01*
X213918637Y-113528500D01*
X213918638Y-113528500D01*
X213979201Y-113521989D01*
X214116204Y-113470889D01*
X214233261Y-113383261D01*
X214233262Y-113383259D01*
X214268847Y-113356621D01*
X214269927Y-113355513D01*
X214271916Y-113354324D01*
X214277000Y-113350519D01*
X214277397Y-113351049D01*
X214354600Y-113304926D01*
X214449439Y-113277835D01*
X214548045Y-113276065D01*
X214630000Y-113285299D01*
X214711954Y-113276065D01*
X214810502Y-113277827D01*
X214905292Y-113304880D01*
X214982613Y-113351034D01*
X214983000Y-113350519D01*
X214987921Y-113354202D01*
X214989935Y-113355405D01*
X214991035Y-113356534D01*
X215074785Y-113419228D01*
X215143796Y-113470889D01*
X215280799Y-113521989D01*
X215341362Y-113528500D01*
X216458637Y-113528500D01*
X216458638Y-113528500D01*
X216519201Y-113521989D01*
X216656204Y-113470889D01*
X216773261Y-113383261D01*
X216860889Y-113266204D01*
X216911989Y-113129201D01*
X216918500Y-113068638D01*
X216918500Y-112031362D01*
X216911989Y-111970799D01*
X216891736Y-111916500D01*
X216882896Y-111892798D01*
X216861623Y-111805114D01*
X216861623Y-111714886D01*
X216882896Y-111627202D01*
X216897931Y-111586892D01*
X216911989Y-111549201D01*
X216918500Y-111488638D01*
X216918500Y-110920899D01*
X218448793Y-110920899D01*
X218458673Y-111228980D01*
X218501137Y-111491638D01*
X218507867Y-111533261D01*
X218595569Y-111828756D01*
X218720337Y-112110609D01*
X218880123Y-112374193D01*
X218880125Y-112374196D01*
X218880126Y-112374197D01*
X219035056Y-112568474D01*
X219072304Y-112615181D01*
X219293724Y-112829614D01*
X219540747Y-113013972D01*
X219715538Y-113112412D01*
X219805681Y-113163180D01*
X219809318Y-113165228D01*
X220095025Y-113280899D01*
X220095026Y-113280899D01*
X220095028Y-113280900D01*
X220186475Y-113304880D01*
X220393179Y-113359084D01*
X220653631Y-113392665D01*
X220698882Y-113398500D01*
X220698883Y-113398500D01*
X220929974Y-113398500D01*
X220929977Y-113398500D01*
X221028814Y-113392154D01*
X221160601Y-113383693D01*
X221463151Y-113324772D01*
X221755683Y-113227644D01*
X221855128Y-113179754D01*
X222033389Y-113093909D01*
X222033389Y-113093908D01*
X222033393Y-113093907D01*
X222291720Y-112925754D01*
X222526424Y-112725948D01*
X222733650Y-112497769D01*
X222909996Y-112244963D01*
X223052567Y-111971683D01*
X223159020Y-111682415D01*
X223227609Y-111381908D01*
X223257206Y-111075098D01*
X223247327Y-110767022D01*
X223198133Y-110462739D01*
X223110431Y-110167244D01*
X222985663Y-109885391D01*
X222825877Y-109621807D01*
X222633696Y-109380819D01*
X222413167Y-109167249D01*
X222412275Y-109166385D01*
X222165254Y-108982029D01*
X222165255Y-108982029D01*
X222165253Y-108982028D01*
X222014994Y-108897404D01*
X221896683Y-108830772D01*
X221610971Y-108715099D01*
X221312822Y-108636916D01*
X221007118Y-108597500D01*
X221007117Y-108597500D01*
X220776026Y-108597500D01*
X220776023Y-108597500D01*
X220545402Y-108612306D01*
X220242845Y-108671228D01*
X219950314Y-108768356D01*
X219672610Y-108902090D01*
X219414279Y-109070246D01*
X219179576Y-109270051D01*
X218972351Y-109498229D01*
X218796003Y-109751038D01*
X218653433Y-110024316D01*
X218546980Y-110313582D01*
X218529356Y-110390799D01*
X218478391Y-110614092D01*
X218472965Y-110670333D01*
X218448793Y-110920899D01*
X216918500Y-110920899D01*
X216918500Y-110451362D01*
X216911989Y-110390799D01*
X216860889Y-110253796D01*
X216825642Y-110206711D01*
X216773261Y-110136738D01*
X216656203Y-110049110D01*
X216519202Y-109998011D01*
X216488919Y-109994755D01*
X216458638Y-109991500D01*
X216458637Y-109991500D01*
X215819806Y-109991500D01*
X215721455Y-109978552D01*
X215629806Y-109940590D01*
X215551105Y-109880201D01*
X213243178Y-107572274D01*
X211893905Y-106223000D01*
X215440379Y-106223000D01*
X215460835Y-106522039D01*
X215521817Y-106815506D01*
X215622193Y-107097936D01*
X215760091Y-107364068D01*
X215932943Y-107608943D01*
X216137530Y-107828002D01*
X216370044Y-108017166D01*
X216626140Y-108172901D01*
X216901061Y-108292317D01*
X217189684Y-108373185D01*
X217486634Y-108414000D01*
X217786366Y-108414000D01*
X218083315Y-108373185D01*
X218371938Y-108292317D01*
X218646859Y-108172901D01*
X218902955Y-108017166D01*
X219135469Y-107828002D01*
X219340056Y-107608943D01*
X219512908Y-107364068D01*
X219650806Y-107097936D01*
X219751182Y-106815506D01*
X219812164Y-106522039D01*
X219832620Y-106223000D01*
X219812164Y-105923960D01*
X219751182Y-105630493D01*
X219650806Y-105348063D01*
X219512908Y-105081931D01*
X219340056Y-104837056D01*
X219135469Y-104617997D01*
X218902955Y-104428833D01*
X218646859Y-104273098D01*
X218371938Y-104153682D01*
X218083315Y-104072814D01*
X217786366Y-104032000D01*
X217486634Y-104032000D01*
X217189684Y-104072814D01*
X216901061Y-104153682D01*
X216626140Y-104273098D01*
X216370044Y-104428833D01*
X216137530Y-104617997D01*
X215932943Y-104837056D01*
X215760091Y-105081931D01*
X215622193Y-105348063D01*
X215521817Y-105630493D01*
X215460835Y-105923960D01*
X215440379Y-106223000D01*
X211893905Y-106223000D01*
X210897073Y-105226168D01*
X210880092Y-105204971D01*
X210815283Y-105144112D01*
X210806713Y-105135808D01*
X210800275Y-105129370D01*
X210789770Y-105118865D01*
X210789766Y-105118862D01*
X210786407Y-105115503D01*
X210768829Y-105100488D01*
X210745322Y-105078414D01*
X210745090Y-105078287D01*
X210695255Y-105045552D01*
X210695042Y-105045387D01*
X210695041Y-105045386D01*
X210665450Y-105032581D01*
X210633306Y-105016833D01*
X210605057Y-105001303D01*
X210604796Y-105001236D01*
X210548393Y-104981926D01*
X210548147Y-104981819D01*
X210516306Y-104976776D01*
X210481259Y-104969518D01*
X210450030Y-104961500D01*
X210449766Y-104961500D01*
X210390324Y-104956822D01*
X210390058Y-104956779D01*
X210357960Y-104959814D01*
X210322201Y-104961500D01*
X208332005Y-104961500D01*
X208216300Y-104943456D01*
X208111584Y-104891039D01*
X208027800Y-104809226D01*
X207972905Y-104705787D01*
X207952113Y-104590544D01*
X207967397Y-104474443D01*
X208017307Y-104368508D01*
X208097103Y-104282801D01*
X208199207Y-104225460D01*
X208293038Y-104190462D01*
X208349802Y-104169290D01*
X208466859Y-104081662D01*
X208554487Y-103964605D01*
X208605587Y-103827602D01*
X208612098Y-103767039D01*
X208612098Y-103707700D01*
X208630697Y-103590274D01*
X208684672Y-103484342D01*
X208768740Y-103400274D01*
X208874672Y-103346299D01*
X208992098Y-103327700D01*
X209807197Y-103327700D01*
X209905548Y-103340648D01*
X209997197Y-103378610D01*
X210075898Y-103438999D01*
X210712841Y-104075942D01*
X210729966Y-104097317D01*
X210747977Y-104114230D01*
X210747978Y-104114232D01*
X210781512Y-104145722D01*
X210795354Y-104158721D01*
X210803923Y-104167024D01*
X210824467Y-104187568D01*
X210842211Y-104202724D01*
X210866190Y-104225242D01*
X210866760Y-104225555D01*
X210916614Y-104258302D01*
X210917137Y-104258708D01*
X210947326Y-104271771D01*
X210979480Y-104287524D01*
X211008303Y-104303370D01*
X211008954Y-104303537D01*
X211065361Y-104322850D01*
X211065969Y-104323113D01*
X211098463Y-104328259D01*
X211133509Y-104335517D01*
X211165378Y-104343700D01*
X211166046Y-104343700D01*
X211225489Y-104348378D01*
X211225561Y-104348389D01*
X211226140Y-104348481D01*
X211258886Y-104345385D01*
X211294642Y-104343700D01*
X213681823Y-104343700D01*
X213709055Y-104346706D01*
X213733748Y-104345929D01*
X213733749Y-104345930D01*
X213798723Y-104343888D01*
X213810661Y-104343700D01*
X213839705Y-104343700D01*
X213862953Y-104341869D01*
X213895837Y-104340836D01*
X213896473Y-104340651D01*
X213954871Y-104328558D01*
X213955522Y-104328476D01*
X213986099Y-104316369D01*
X214019978Y-104304770D01*
X214051567Y-104295593D01*
X214051873Y-104295411D01*
X214052134Y-104295258D01*
X214105704Y-104269014D01*
X214106303Y-104268777D01*
X214132912Y-104249443D01*
X214162836Y-104229788D01*
X214169994Y-104225555D01*
X214191153Y-104213042D01*
X214191619Y-104212575D01*
X214236968Y-104173843D01*
X214237500Y-104173457D01*
X214258471Y-104148106D01*
X214282546Y-104121647D01*
X214438935Y-103965258D01*
X214460308Y-103948137D01*
X214477228Y-103930118D01*
X214477232Y-103930116D01*
X214521772Y-103882684D01*
X214530017Y-103874176D01*
X214547259Y-103856936D01*
X214547263Y-103856930D01*
X214550575Y-103853619D01*
X214565726Y-103835879D01*
X214588244Y-103811900D01*
X214588551Y-103811342D01*
X214621310Y-103761470D01*
X214621708Y-103760957D01*
X214634769Y-103730772D01*
X214650526Y-103698609D01*
X214666370Y-103669791D01*
X214666536Y-103669143D01*
X214685852Y-103612725D01*
X214686113Y-103612125D01*
X214691259Y-103579628D01*
X214698516Y-103544589D01*
X214706700Y-103512716D01*
X214706700Y-103512051D01*
X214711379Y-103452604D01*
X214711482Y-103451954D01*
X214708386Y-103419200D01*
X214706700Y-103383442D01*
X214706700Y-103072701D01*
X214723304Y-102961600D01*
X214771665Y-102860208D01*
X214847557Y-102777386D01*
X214944348Y-102720372D01*
X215053578Y-102694147D01*
X215055759Y-102693956D01*
X215143954Y-102686240D01*
X215354800Y-102629744D01*
X215552633Y-102537493D01*
X215552633Y-102537492D01*
X215552635Y-102537492D01*
X215731433Y-102412296D01*
X215731433Y-102412295D01*
X215731440Y-102412291D01*
X215885791Y-102257940D01*
X215893050Y-102247573D01*
X216010992Y-102079135D01*
X216010993Y-102079133D01*
X216103244Y-101881300D01*
X216159740Y-101670454D01*
X216178765Y-101453000D01*
X216159740Y-101235546D01*
X216103244Y-101024700D01*
X216010993Y-100826868D01*
X215885791Y-100648060D01*
X215731440Y-100493709D01*
X215731436Y-100493706D01*
X215709077Y-100471347D01*
X215639195Y-100375162D01*
X215602456Y-100262091D01*
X215602457Y-100143200D01*
X215639196Y-100030129D01*
X215709078Y-99933945D01*
X215885405Y-99757618D01*
X216010558Y-99578882D01*
X216102770Y-99381129D01*
X216159245Y-99170364D01*
X216178263Y-98952999D01*
X216159245Y-98735635D01*
X216102770Y-98524867D01*
X216010560Y-98327121D01*
X215885407Y-98148384D01*
X215731115Y-97994092D01*
X215552382Y-97868941D01*
X215354629Y-97776729D01*
X215143864Y-97720254D01*
X214926500Y-97701236D01*
X214709135Y-97720254D01*
X214498370Y-97776729D01*
X214354279Y-97843919D01*
X214256700Y-97874260D01*
X214154564Y-97877502D01*
X214055258Y-97853410D01*
X213965961Y-97803727D01*
X213911703Y-97763110D01*
X213774702Y-97712011D01*
X213744419Y-97708755D01*
X213714138Y-97705500D01*
X212138862Y-97705500D01*
X212118674Y-97707670D01*
X212078297Y-97712011D01*
X211941296Y-97763110D01*
X211824238Y-97850738D01*
X211718866Y-97991500D01*
X211689798Y-98043622D01*
X211606429Y-98122641D01*
X211503256Y-98173139D01*
X211389708Y-98190500D01*
X207607123Y-98190500D01*
X207551243Y-98190500D01*
X207529147Y-98189857D01*
X207466862Y-98186229D01*
X207418044Y-98190500D01*
X204461500Y-98190500D01*
X204344074Y-98171901D01*
X204238142Y-98117926D01*
X204154074Y-98033858D01*
X204100099Y-97927926D01*
X204081500Y-97810500D01*
X204081500Y-97660363D01*
X204080640Y-97652362D01*
X204074989Y-97599799D01*
X204053087Y-97541080D01*
X204031816Y-97453397D01*
X204031816Y-97363170D01*
X204053089Y-97275486D01*
X204074494Y-97218095D01*
X204081000Y-97157588D01*
X204081000Y-95960412D01*
X204074494Y-95899904D01*
X204023446Y-95763036D01*
X203935904Y-95646095D01*
X203818963Y-95558553D01*
X203682095Y-95507505D01*
X203621588Y-95501000D01*
X202524412Y-95501000D01*
X202463902Y-95507505D01*
X202316795Y-95562373D01*
X202229113Y-95583645D01*
X202138887Y-95583645D01*
X202051205Y-95562373D01*
X201904097Y-95507505D01*
X201843588Y-95501000D01*
X200746412Y-95501000D01*
X200685904Y-95507505D01*
X200549036Y-95558553D01*
X200432096Y-95646094D01*
X200339638Y-95769604D01*
X200256467Y-95850979D01*
X200152572Y-95903372D01*
X200037694Y-95921870D01*
X199922604Y-95904740D01*
X199818093Y-95853587D01*
X199733960Y-95773207D01*
X199640326Y-95651182D01*
X199640313Y-95651167D01*
X199630986Y-95639012D01*
X199618835Y-95629688D01*
X199581466Y-95596917D01*
X198977082Y-94992533D01*
X198944309Y-94955162D01*
X198934987Y-94943013D01*
X198934985Y-94943012D01*
X198934985Y-94943011D01*
X198922831Y-94933685D01*
X198894378Y-94911852D01*
X198807876Y-94845476D01*
X198734571Y-94815112D01*
X198645090Y-94762737D01*
X198573096Y-94688125D01*
X198546994Y-94639639D01*
X198532889Y-94620797D01*
X198532889Y-94620796D01*
X198482894Y-94554011D01*
X198445261Y-94503738D01*
X198328203Y-94416110D01*
X198170246Y-94357194D01*
X198110974Y-94342566D01*
X198021875Y-94292529D01*
X197949334Y-94220561D01*
X197943477Y-94212928D01*
X197943474Y-94212925D01*
X197920512Y-94183000D01*
X215440379Y-94183000D01*
X215460835Y-94482039D01*
X215521817Y-94775506D01*
X215622193Y-95057936D01*
X215760091Y-95324068D01*
X215932943Y-95568943D01*
X216137530Y-95788002D01*
X216370044Y-95977166D01*
X216626140Y-96132901D01*
X216901061Y-96252317D01*
X217189684Y-96333185D01*
X217486634Y-96374000D01*
X217786366Y-96374000D01*
X218083315Y-96333185D01*
X218371938Y-96252317D01*
X218646859Y-96132901D01*
X218902955Y-95977166D01*
X219135469Y-95788002D01*
X219340056Y-95568943D01*
X219512908Y-95324068D01*
X219650806Y-95057936D01*
X219751182Y-94775506D01*
X219812164Y-94482039D01*
X219832620Y-94183000D01*
X219812164Y-93883960D01*
X219751182Y-93590493D01*
X219650806Y-93308063D01*
X219512908Y-93041931D01*
X219340056Y-92797056D01*
X219135469Y-92577997D01*
X218902955Y-92388833D01*
X218646859Y-92233098D01*
X218371938Y-92113682D01*
X218083315Y-92032814D01*
X217786366Y-91992000D01*
X217486634Y-91992000D01*
X217189684Y-92032814D01*
X216901061Y-92113682D01*
X216626140Y-92233098D01*
X216370044Y-92388833D01*
X216137530Y-92577997D01*
X215932943Y-92797056D01*
X215760091Y-93041931D01*
X215622193Y-93308063D01*
X215521817Y-93590493D01*
X215460835Y-93883960D01*
X215440379Y-94183000D01*
X197920512Y-94183000D01*
X197918987Y-94181013D01*
X197906835Y-94171688D01*
X197869466Y-94138917D01*
X197707082Y-93976533D01*
X197674309Y-93939162D01*
X197664985Y-93927011D01*
X197652831Y-93917685D01*
X197633072Y-93902523D01*
X197537876Y-93829476D01*
X197509680Y-93817797D01*
X197399713Y-93772247D01*
X197389851Y-93768162D01*
X197389850Y-93768161D01*
X197389848Y-93768161D01*
X197370483Y-93765610D01*
X197370457Y-93765608D01*
X197370456Y-93765608D01*
X197343748Y-93762092D01*
X197246201Y-93749250D01*
X197246186Y-93749249D01*
X197231000Y-93747250D01*
X197215812Y-93749249D01*
X197166217Y-93752500D01*
X194755783Y-93752500D01*
X194706187Y-93749249D01*
X194691000Y-93747250D01*
X194675813Y-93749249D01*
X194675798Y-93749250D01*
X194572602Y-93762835D01*
X194551543Y-93765608D01*
X194551539Y-93765608D01*
X194551525Y-93765610D01*
X194532149Y-93768162D01*
X194384122Y-93829476D01*
X194290605Y-93901234D01*
X194290586Y-93901250D01*
X194257012Y-93927013D01*
X194247685Y-93939168D01*
X194214919Y-93976530D01*
X193724949Y-94466500D01*
X193633810Y-94533763D01*
X193526894Y-94571174D01*
X193413700Y-94575410D01*
X193304288Y-94546092D01*
X193208377Y-94485827D01*
X193134492Y-94399969D01*
X193089195Y-94296148D01*
X193076514Y-94183587D01*
X193097571Y-94072298D01*
X193123762Y-93997450D01*
X193142899Y-93827600D01*
X193123762Y-93657750D01*
X193067309Y-93496417D01*
X193007635Y-93401448D01*
X192963337Y-93301279D01*
X192949449Y-93192632D01*
X192967127Y-93084538D01*
X193014903Y-92985976D01*
X193088807Y-92905136D01*
X193182698Y-92848733D01*
X193266586Y-92827160D01*
X193415963Y-92771446D01*
X193532904Y-92683904D01*
X193620446Y-92566963D01*
X193671494Y-92430095D01*
X193678000Y-92369588D01*
X193678000Y-91272412D01*
X193671494Y-91211904D01*
X193620446Y-91075036D01*
X193532904Y-90958095D01*
X193415963Y-90870553D01*
X193279095Y-90819505D01*
X193218588Y-90813000D01*
X192021412Y-90813000D01*
X191960904Y-90819505D01*
X191903509Y-90840912D01*
X191815827Y-90862183D01*
X191725602Y-90862183D01*
X191637920Y-90840911D01*
X191579204Y-90819011D01*
X191529065Y-90813621D01*
X191518638Y-90812500D01*
X190321362Y-90812500D01*
X190310935Y-90813621D01*
X190260797Y-90819011D01*
X190123794Y-90870111D01*
X190110209Y-90880281D01*
X190009817Y-90934104D01*
X189897984Y-90955756D01*
X189784757Y-90943290D01*
X189680313Y-90897826D01*
X189594036Y-90823449D01*
X189533679Y-90726844D01*
X189504665Y-90616690D01*
X189501989Y-90591799D01*
X189481460Y-90536760D01*
X189463538Y-90471432D01*
X189457500Y-90403961D01*
X189457500Y-89914362D01*
X189473666Y-89804703D01*
X189520790Y-89704375D01*
X189594861Y-89621913D01*
X189689577Y-89564335D01*
X189796880Y-89536539D01*
X189803273Y-89535851D01*
X189839201Y-89531989D01*
X189976204Y-89480889D01*
X190093261Y-89393261D01*
X190107523Y-89374208D01*
X190191302Y-89292400D01*
X190296019Y-89239981D01*
X190411724Y-89221936D01*
X190527429Y-89239979D01*
X190632147Y-89292396D01*
X190715932Y-89374209D01*
X190746696Y-89415305D01*
X190863636Y-89502846D01*
X191000504Y-89553894D01*
X191061012Y-89560400D01*
X192618688Y-89560400D01*
X192679195Y-89553894D01*
X192816063Y-89502846D01*
X192933004Y-89415304D01*
X193020546Y-89298363D01*
X193071594Y-89161495D01*
X193078095Y-89101037D01*
X196049400Y-89101037D01*
X196055911Y-89161602D01*
X196107010Y-89298603D01*
X196194638Y-89415661D01*
X196281773Y-89480889D01*
X196311696Y-89503289D01*
X196448699Y-89554389D01*
X196509262Y-89560900D01*
X197470766Y-89560900D01*
X197569117Y-89573848D01*
X197660766Y-89611810D01*
X197739467Y-89672199D01*
X198607357Y-90540089D01*
X198624380Y-90561337D01*
X198689346Y-90622344D01*
X198697915Y-90630647D01*
X198714906Y-90647638D01*
X198714909Y-90647640D01*
X198718266Y-90650997D01*
X198735866Y-90666029D01*
X198759494Y-90688217D01*
X198759809Y-90688390D01*
X198809648Y-90721128D01*
X198809933Y-90721349D01*
X198839671Y-90734218D01*
X198871789Y-90749951D01*
X198900197Y-90765569D01*
X198900552Y-90765660D01*
X198956956Y-90784971D01*
X198957292Y-90785117D01*
X198964012Y-90786181D01*
X199057473Y-90813621D01*
X199140890Y-90863922D01*
X199208779Y-90933777D01*
X199290737Y-91043260D01*
X199353443Y-91090201D01*
X199407796Y-91130889D01*
X199544799Y-91181989D01*
X199605362Y-91188500D01*
X200642637Y-91188500D01*
X200642638Y-91188500D01*
X200703201Y-91181989D01*
X200781204Y-91152894D01*
X200868884Y-91131624D01*
X200959112Y-91131623D01*
X201046795Y-91152894D01*
X201124799Y-91181989D01*
X201185362Y-91188500D01*
X202222637Y-91188500D01*
X202222638Y-91188500D01*
X202283201Y-91181989D01*
X202420204Y-91130889D01*
X202537261Y-91043261D01*
X202601255Y-90957774D01*
X202685039Y-90875962D01*
X202789756Y-90823544D01*
X202905461Y-90805500D01*
X204001982Y-90805500D01*
X204001983Y-90805500D01*
X204057425Y-90798496D01*
X204105051Y-90795500D01*
X205028637Y-90795500D01*
X205028638Y-90795500D01*
X205089201Y-90788989D01*
X205151997Y-90765567D01*
X205157644Y-90763461D01*
X205222971Y-90745539D01*
X205290442Y-90739501D01*
X205799497Y-90739501D01*
X205919501Y-90758947D01*
X206027223Y-90815296D01*
X206052596Y-90834290D01*
X206189599Y-90885390D01*
X206250162Y-90891901D01*
X207642837Y-90891901D01*
X207642838Y-90891901D01*
X207703401Y-90885390D01*
X207840404Y-90834290D01*
X207865776Y-90815296D01*
X207973499Y-90758947D01*
X208093503Y-90739501D01*
X208117301Y-90739501D01*
X208232698Y-90757446D01*
X208337196Y-90809588D01*
X208420925Y-90891000D01*
X208475975Y-90993992D01*
X208480831Y-91007869D01*
X208481292Y-91009186D01*
X208571592Y-91152896D01*
X208572229Y-91153909D01*
X208693091Y-91274771D01*
X208693093Y-91274772D01*
X208693094Y-91274773D01*
X208760152Y-91316909D01*
X208837817Y-91365709D01*
X208999150Y-91422162D01*
X209169000Y-91441299D01*
X209338850Y-91422162D01*
X209500183Y-91365709D01*
X209644909Y-91274771D01*
X209765771Y-91153909D01*
X209856709Y-91009183D01*
X209913162Y-90847850D01*
X209932299Y-90678000D01*
X209913162Y-90508150D01*
X209897836Y-90464352D01*
X209856710Y-90346819D01*
X209809494Y-90271676D01*
X209764326Y-90168334D01*
X209751479Y-90056287D01*
X209772084Y-89945403D01*
X209824327Y-89845451D01*
X209829541Y-89840175D01*
X209829363Y-89840042D01*
X209949646Y-89679363D01*
X210000694Y-89542495D01*
X210007200Y-89481988D01*
X210007200Y-88826012D01*
X210000694Y-88765504D01*
X209949646Y-88628636D01*
X209862104Y-88511695D01*
X209745161Y-88424152D01*
X209678197Y-88399176D01*
X209583268Y-88347341D01*
X209506788Y-88270860D01*
X209454954Y-88175931D01*
X209431963Y-88070243D01*
X209436201Y-88011000D01*
X218561728Y-88011000D01*
X218580796Y-88314090D01*
X218628355Y-88563402D01*
X218637702Y-88612400D01*
X218731548Y-88901225D01*
X218860852Y-89176011D01*
X219023577Y-89432425D01*
X219217156Y-89666421D01*
X219438535Y-89874311D01*
X219684225Y-90052815D01*
X219950350Y-90199118D01*
X219950352Y-90199119D01*
X220019413Y-90226462D01*
X220232713Y-90310913D01*
X220526861Y-90386438D01*
X220828155Y-90424500D01*
X221131842Y-90424500D01*
X221131845Y-90424500D01*
X221433139Y-90386438D01*
X221727287Y-90310913D01*
X222009650Y-90199118D01*
X222275775Y-90052815D01*
X222521465Y-89874311D01*
X222742844Y-89666421D01*
X222936423Y-89432425D01*
X223099148Y-89176011D01*
X223228452Y-88901225D01*
X223322298Y-88612400D01*
X223379203Y-88314090D01*
X223398272Y-88011000D01*
X223379203Y-87707910D01*
X223369575Y-87657440D01*
X223355195Y-87582054D01*
X223322298Y-87409600D01*
X223228452Y-87120775D01*
X223099148Y-86845989D01*
X222936423Y-86589575D01*
X222742844Y-86355579D01*
X222521465Y-86147689D01*
X222275775Y-85969185D01*
X222100995Y-85873099D01*
X222009647Y-85822880D01*
X221727285Y-85711086D01*
X221433144Y-85635563D01*
X221433141Y-85635562D01*
X221433139Y-85635562D01*
X221131845Y-85597500D01*
X220828155Y-85597500D01*
X220526861Y-85635562D01*
X220526859Y-85635562D01*
X220526855Y-85635563D01*
X220232714Y-85711086D01*
X219950352Y-85822880D01*
X219684225Y-85969185D01*
X219438533Y-86147690D01*
X219217155Y-86355579D01*
X219023578Y-86589573D01*
X218951938Y-86702460D01*
X218860852Y-86845989D01*
X218731548Y-87120775D01*
X218661404Y-87336654D01*
X218637701Y-87409603D01*
X218580796Y-87707909D01*
X218561728Y-88011000D01*
X209436201Y-88011000D01*
X209439680Y-87962359D01*
X209477478Y-87861020D01*
X209542290Y-87774441D01*
X209635021Y-87681710D01*
X209701545Y-87628660D01*
X209778206Y-87591742D01*
X209881183Y-87555709D01*
X210025909Y-87464771D01*
X210146771Y-87343909D01*
X210185908Y-87281621D01*
X210259793Y-87195767D01*
X210355703Y-87135502D01*
X210465115Y-87106185D01*
X210578308Y-87110421D01*
X210685224Y-87147832D01*
X210776359Y-87215092D01*
X210779906Y-87218639D01*
X210779910Y-87218642D01*
X210783269Y-87222001D01*
X210800882Y-87237044D01*
X210824494Y-87259217D01*
X210824684Y-87259321D01*
X210824799Y-87259385D01*
X210874646Y-87292128D01*
X210874931Y-87292349D01*
X210904661Y-87305214D01*
X210936818Y-87320967D01*
X210965197Y-87336569D01*
X210965539Y-87336656D01*
X211021965Y-87355975D01*
X211022292Y-87356117D01*
X211054281Y-87361183D01*
X211089338Y-87368442D01*
X211120718Y-87376500D01*
X211121079Y-87376500D01*
X211180525Y-87381179D01*
X211180878Y-87381235D01*
X211180878Y-87381234D01*
X211180879Y-87381235D01*
X211213122Y-87378187D01*
X211248885Y-87376500D01*
X213487763Y-87376500D01*
X213602959Y-87394381D01*
X213707314Y-87446343D01*
X213754370Y-87491970D01*
X213755301Y-87490950D01*
X213937930Y-87657438D01*
X213937931Y-87657439D01*
X213937935Y-87657442D01*
X214118115Y-87769005D01*
X214315726Y-87845560D01*
X214524039Y-87884500D01*
X214735961Y-87884500D01*
X214944274Y-87845560D01*
X215141885Y-87769005D01*
X215322065Y-87657442D01*
X215478677Y-87514671D01*
X215606389Y-87345554D01*
X215700850Y-87155850D01*
X215758845Y-86952018D01*
X215778399Y-86741000D01*
X215758845Y-86529982D01*
X215700850Y-86326150D01*
X215606389Y-86136446D01*
X215478677Y-85967329D01*
X215347225Y-85847494D01*
X215322064Y-85824557D01*
X215272842Y-85794080D01*
X215188709Y-85723272D01*
X215128373Y-85631338D01*
X215096887Y-85525978D01*
X215096888Y-85416013D01*
X215128376Y-85310653D01*
X215188714Y-85218721D01*
X215272839Y-85147921D01*
X215322065Y-85117442D01*
X215478677Y-84974671D01*
X215606389Y-84805554D01*
X215700850Y-84615850D01*
X215758845Y-84412018D01*
X215778399Y-84201000D01*
X215758845Y-83989982D01*
X215700850Y-83786150D01*
X215606389Y-83596446D01*
X215478677Y-83427329D01*
X215322065Y-83284558D01*
X215322064Y-83284557D01*
X215272842Y-83254080D01*
X215188709Y-83183272D01*
X215128373Y-83091338D01*
X215096887Y-82985978D01*
X215096888Y-82876013D01*
X215128376Y-82770653D01*
X215188714Y-82678721D01*
X215272839Y-82607921D01*
X215322065Y-82577442D01*
X215478677Y-82434671D01*
X215606389Y-82265554D01*
X215700850Y-82075850D01*
X215758845Y-81872018D01*
X215778399Y-81661000D01*
X215758845Y-81449982D01*
X215700850Y-81246150D01*
X215606389Y-81056446D01*
X215478677Y-80887329D01*
X215322065Y-80744558D01*
X215322064Y-80744557D01*
X215272842Y-80714080D01*
X215188709Y-80643272D01*
X215128373Y-80551338D01*
X215096887Y-80445978D01*
X215096888Y-80336013D01*
X215128376Y-80230653D01*
X215188714Y-80138721D01*
X215272839Y-80067921D01*
X215322065Y-80037442D01*
X215478677Y-79894671D01*
X215606389Y-79725554D01*
X215700850Y-79535850D01*
X215758845Y-79332018D01*
X215778399Y-79121000D01*
X215758845Y-78909982D01*
X215700850Y-78706150D01*
X215606389Y-78516446D01*
X215478677Y-78347329D01*
X215322065Y-78204558D01*
X215141885Y-78092995D01*
X215083863Y-78070517D01*
X214944273Y-78016439D01*
X214735961Y-77977500D01*
X214524039Y-77977500D01*
X214315726Y-78016439D01*
X214118117Y-78092994D01*
X213937930Y-78204561D01*
X213862956Y-78272909D01*
X213768430Y-78336069D01*
X213659451Y-78368441D01*
X213545773Y-78367128D01*
X213437571Y-78332246D01*
X213344529Y-78266919D01*
X213274976Y-78176993D01*
X213235135Y-78070517D01*
X213228574Y-77957022D01*
X213238399Y-77851000D01*
X213218845Y-77639982D01*
X213160850Y-77436150D01*
X213066389Y-77246446D01*
X212938677Y-77077329D01*
X212782065Y-76934558D01*
X212601885Y-76822995D01*
X212549420Y-76802670D01*
X212404273Y-76746439D01*
X212195961Y-76707500D01*
X211984039Y-76707500D01*
X211775726Y-76746439D01*
X211578117Y-76822994D01*
X211578116Y-76822994D01*
X211578115Y-76822995D01*
X211397935Y-76934558D01*
X211397933Y-76934559D01*
X211397934Y-76934559D01*
X211241322Y-77077329D01*
X211113609Y-77246448D01*
X211019150Y-77436148D01*
X210961155Y-77639981D01*
X210941601Y-77851000D01*
X210961155Y-78062018D01*
X211019150Y-78265851D01*
X211113609Y-78455551D01*
X211113610Y-78455552D01*
X211113611Y-78455554D01*
X211119073Y-78462787D01*
X211239920Y-78622814D01*
X211241323Y-78624671D01*
X211397935Y-78767442D01*
X211447157Y-78797919D01*
X211531289Y-78868726D01*
X211591625Y-78960658D01*
X211623111Y-79066018D01*
X211623111Y-79175982D01*
X211591625Y-79281342D01*
X211531289Y-79373274D01*
X211447157Y-79444080D01*
X211415594Y-79463623D01*
X211397933Y-79474559D01*
X211241322Y-79617329D01*
X211113609Y-79786448D01*
X211019150Y-79976148D01*
X210961155Y-80179981D01*
X210949462Y-80306162D01*
X210941601Y-80391000D01*
X210945032Y-80428029D01*
X210961155Y-80602018D01*
X211019150Y-80805851D01*
X211113609Y-80995551D01*
X211113610Y-80995552D01*
X211113611Y-80995554D01*
X211241323Y-81164671D01*
X211397935Y-81307442D01*
X211447157Y-81337919D01*
X211531289Y-81408726D01*
X211591625Y-81500658D01*
X211623111Y-81606018D01*
X211623111Y-81715982D01*
X211591625Y-81821342D01*
X211531289Y-81913274D01*
X211447157Y-81984080D01*
X211425341Y-81997589D01*
X211397933Y-82014559D01*
X211241321Y-82157330D01*
X211158448Y-82267072D01*
X211081861Y-82343071D01*
X210987001Y-82394481D01*
X210881515Y-82417157D01*
X210773908Y-82409271D01*
X210672855Y-82371459D01*
X210586504Y-82306772D01*
X210459639Y-82179906D01*
X210442621Y-82158664D01*
X210377669Y-82097670D01*
X210369099Y-82089366D01*
X210363896Y-82084163D01*
X210352094Y-82072361D01*
X210352090Y-82072358D01*
X210348732Y-82069000D01*
X210331120Y-82053958D01*
X210307502Y-82031779D01*
X210307188Y-82031607D01*
X210257355Y-81998873D01*
X210257067Y-81998649D01*
X210227338Y-81985785D01*
X210195188Y-81970035D01*
X210166804Y-81954431D01*
X210166453Y-81954341D01*
X210110041Y-81935027D01*
X210109709Y-81934883D01*
X210101466Y-81933577D01*
X210077710Y-81929815D01*
X210042664Y-81922557D01*
X210011283Y-81914500D01*
X210011282Y-81914500D01*
X210010921Y-81914500D01*
X209951475Y-81909821D01*
X209951121Y-81909764D01*
X209918877Y-81912813D01*
X209883115Y-81914500D01*
X207605152Y-81914500D01*
X207537681Y-81908462D01*
X207472354Y-81890540D01*
X207322402Y-81834610D01*
X207292119Y-81831354D01*
X207261838Y-81828099D01*
X205869162Y-81828099D01*
X205848974Y-81830269D01*
X205808597Y-81834610D01*
X205671596Y-81885709D01*
X205554537Y-81973338D01*
X205523307Y-82015057D01*
X205438047Y-82097915D01*
X205331355Y-82150371D01*
X205213676Y-82167290D01*
X205096528Y-82147017D01*
X204991378Y-82091535D01*
X204845203Y-81982110D01*
X204708202Y-81931011D01*
X204677919Y-81927755D01*
X204647638Y-81924500D01*
X203530362Y-81924500D01*
X203510174Y-81926670D01*
X203469797Y-81931011D01*
X203332796Y-81982110D01*
X203215738Y-82069738D01*
X203137662Y-82174037D01*
X203053878Y-82255851D01*
X202949161Y-82308268D01*
X202833455Y-82326312D01*
X202717750Y-82308268D01*
X202613033Y-82255850D01*
X202549893Y-82194194D01*
X202420203Y-82097110D01*
X202283202Y-82046011D01*
X202252919Y-82042755D01*
X202222638Y-82039500D01*
X201185362Y-82039500D01*
X201165174Y-82041670D01*
X201124797Y-82046011D01*
X201046796Y-82075104D01*
X200959113Y-82096376D01*
X200868887Y-82096376D01*
X200781204Y-82075104D01*
X200703202Y-82046011D01*
X200672919Y-82042755D01*
X200642638Y-82039500D01*
X199719297Y-82039500D01*
X199602516Y-82021110D01*
X199497037Y-81967722D01*
X199429445Y-81900729D01*
X199414341Y-82002551D01*
X199361895Y-82108501D01*
X199300943Y-82171106D01*
X199203110Y-82301796D01*
X199152011Y-82438797D01*
X199145500Y-82499363D01*
X199145500Y-82881367D01*
X199132552Y-82979718D01*
X199094590Y-83071367D01*
X199034200Y-83150068D01*
X198120466Y-84063801D01*
X198041766Y-84124190D01*
X197950117Y-84162152D01*
X197851766Y-84175100D01*
X196509262Y-84175100D01*
X196489074Y-84177270D01*
X196448697Y-84181611D01*
X196311696Y-84232710D01*
X196194638Y-84320338D01*
X196107010Y-84437396D01*
X196055911Y-84574397D01*
X196049400Y-84634963D01*
X196049400Y-85291037D01*
X196055911Y-85351602D01*
X196098282Y-85465201D01*
X196119554Y-85552885D01*
X196119555Y-85643112D01*
X196098283Y-85730796D01*
X196055911Y-85844399D01*
X196049400Y-85904963D01*
X196049400Y-86561037D01*
X196055911Y-86621602D01*
X196098282Y-86735202D01*
X196119555Y-86822886D01*
X196119555Y-86913114D01*
X196098282Y-87000798D01*
X196055911Y-87114397D01*
X196049400Y-87174963D01*
X196049400Y-87831037D01*
X196055911Y-87891602D01*
X196098282Y-88005202D01*
X196119555Y-88092886D01*
X196119555Y-88183114D01*
X196098282Y-88270798D01*
X196055911Y-88384397D01*
X196049400Y-88444963D01*
X196049400Y-89101037D01*
X193078095Y-89101037D01*
X193078100Y-89100988D01*
X193078100Y-88765574D01*
X193092951Y-88660377D01*
X193136345Y-88563402D01*
X193204888Y-88482230D01*
X193293223Y-88423206D01*
X193394447Y-88390943D01*
X193500641Y-88387963D01*
X193548000Y-88393299D01*
X193717850Y-88374162D01*
X193879183Y-88317709D01*
X194023909Y-88226771D01*
X194144771Y-88105909D01*
X194235709Y-87961183D01*
X194292162Y-87799850D01*
X194311299Y-87630000D01*
X194292162Y-87460150D01*
X194235709Y-87298817D01*
X194144771Y-87154091D01*
X194144768Y-87154088D01*
X194131941Y-87133674D01*
X194088547Y-87036699D01*
X194073695Y-86931500D01*
X194088547Y-86826301D01*
X194131941Y-86729326D01*
X194144768Y-86708911D01*
X194144771Y-86708909D01*
X194235709Y-86564183D01*
X194292162Y-86402850D01*
X194311299Y-86233000D01*
X194292162Y-86063150D01*
X194292161Y-86063147D01*
X194221568Y-85861404D01*
X194222124Y-85861209D01*
X194208245Y-85830193D01*
X194193395Y-85724983D01*
X194208254Y-85619775D01*
X194222122Y-85588789D01*
X194221568Y-85588596D01*
X194261510Y-85474448D01*
X194292162Y-85386850D01*
X194311299Y-85217000D01*
X194292162Y-85047150D01*
X194235709Y-84885817D01*
X194223537Y-84866446D01*
X194144773Y-84741094D01*
X194144772Y-84741093D01*
X194144771Y-84741091D01*
X194023909Y-84620229D01*
X194023906Y-84620227D01*
X194023905Y-84620226D01*
X193879186Y-84529292D01*
X193867456Y-84525187D01*
X193717850Y-84472838D01*
X193717847Y-84472837D01*
X193677438Y-84458698D01*
X193677634Y-84458136D01*
X193644774Y-84449659D01*
X193452853Y-84370162D01*
X193443827Y-84368974D01*
X193432109Y-84367431D01*
X193432106Y-84367430D01*
X193432106Y-84367431D01*
X193309199Y-84351250D01*
X193309187Y-84351249D01*
X193294000Y-84349250D01*
X193278812Y-84351249D01*
X193229217Y-84354500D01*
X193105471Y-84354500D01*
X192985467Y-84335054D01*
X192877746Y-84278706D01*
X192816303Y-84232710D01*
X192679301Y-84181611D01*
X192601386Y-84173234D01*
X192491232Y-84144219D01*
X192394626Y-84083860D01*
X192320251Y-83997581D01*
X192274788Y-83893135D01*
X192262323Y-83779908D01*
X192283977Y-83668074D01*
X192337801Y-83567687D01*
X192350889Y-83550204D01*
X192401989Y-83413201D01*
X192408500Y-83352638D01*
X192408500Y-82255362D01*
X192401989Y-82194799D01*
X192350889Y-82057796D01*
X192323426Y-82021110D01*
X192263260Y-81940737D01*
X192139820Y-81848331D01*
X192060333Y-81767778D01*
X192008093Y-81667388D01*
X191987734Y-81556066D01*
X191985688Y-81490980D01*
X191985500Y-81479040D01*
X191985500Y-81450261D01*
X191983682Y-81427183D01*
X191982665Y-81394795D01*
X191982564Y-81394450D01*
X191970471Y-81336055D01*
X191970427Y-81335701D01*
X191958495Y-81305566D01*
X191946905Y-81271710D01*
X191937869Y-81240607D01*
X191937688Y-81240301D01*
X191911452Y-81186748D01*
X191911319Y-81186412D01*
X191892268Y-81160191D01*
X191872618Y-81130275D01*
X191860450Y-81109701D01*
X191856134Y-81102402D01*
X191855874Y-81102142D01*
X191817149Y-81056798D01*
X191816941Y-81056512D01*
X191791979Y-81035862D01*
X191765508Y-81011776D01*
X191307251Y-80553518D01*
X191242439Y-80466939D01*
X191204641Y-80365599D01*
X191196925Y-80257715D01*
X191219916Y-80152027D01*
X191271752Y-80057098D01*
X191295061Y-80025961D01*
X191382689Y-79908904D01*
X191433789Y-79771901D01*
X191440300Y-79711338D01*
X191440300Y-79170738D01*
X191453248Y-79072387D01*
X191491210Y-78980738D01*
X191551599Y-78902038D01*
X191747489Y-78706148D01*
X191944725Y-78508912D01*
X192042568Y-78438192D01*
X192157663Y-78401730D01*
X192278387Y-78403212D01*
X192392552Y-78442488D01*
X192496719Y-78498167D01*
X192688331Y-78556292D01*
X192716247Y-78559042D01*
X192824420Y-78586138D01*
X192920070Y-78643468D01*
X192994959Y-78726096D01*
X193042637Y-78826904D01*
X193059000Y-78937212D01*
X193059000Y-81049088D01*
X193065505Y-81109595D01*
X193116553Y-81246463D01*
X193204095Y-81363404D01*
X193321036Y-81450946D01*
X193457904Y-81501994D01*
X193518412Y-81508500D01*
X194565588Y-81508500D01*
X194626095Y-81501994D01*
X194762963Y-81450946D01*
X194879903Y-81363405D01*
X194887481Y-81353283D01*
X194971265Y-81271468D01*
X195075983Y-81219050D01*
X195191689Y-81201006D01*
X195307394Y-81219050D01*
X195412112Y-81271469D01*
X195495893Y-81353280D01*
X195503739Y-81363761D01*
X195503740Y-81363761D01*
X195503741Y-81363763D01*
X195563805Y-81408726D01*
X195620796Y-81451389D01*
X195757799Y-81502489D01*
X195818362Y-81509000D01*
X196865637Y-81509000D01*
X196865638Y-81509000D01*
X196926201Y-81502489D01*
X197063204Y-81451389D01*
X197180261Y-81363761D01*
X197180260Y-81363761D01*
X197187793Y-81353700D01*
X197271577Y-81271885D01*
X197376294Y-81219467D01*
X197492000Y-81201423D01*
X197607706Y-81219467D01*
X197712423Y-81271885D01*
X197796207Y-81353700D01*
X197803738Y-81363761D01*
X197863805Y-81408726D01*
X197920796Y-81451389D01*
X198057799Y-81502489D01*
X198118362Y-81509000D01*
X198118363Y-81509000D01*
X199051703Y-81509000D01*
X199168484Y-81527390D01*
X199273963Y-81580778D01*
X199341554Y-81647770D01*
X199356659Y-81545949D01*
X199409105Y-81439999D01*
X199470056Y-81377393D01*
X199485572Y-81356666D01*
X199567889Y-81246704D01*
X199618989Y-81109701D01*
X199618988Y-81109701D01*
X199629341Y-81081947D01*
X199684874Y-80982161D01*
X199767546Y-80903380D01*
X199869893Y-80852720D01*
X199982669Y-80834755D01*
X200095690Y-80851108D01*
X200108161Y-80854891D01*
X200206731Y-80884792D01*
X200306365Y-80894604D01*
X200405999Y-80904418D01*
X200405999Y-80904417D01*
X200406000Y-80904418D01*
X200605269Y-80884792D01*
X200796880Y-80826667D01*
X200973469Y-80732278D01*
X201128252Y-80605252D01*
X201255278Y-80450469D01*
X201349667Y-80273880D01*
X201378299Y-80179490D01*
X201415998Y-80094442D01*
X201473237Y-80021099D01*
X201489241Y-80005096D01*
X201522311Y-79972026D01*
X201567441Y-79926897D01*
X201646141Y-79866509D01*
X201737789Y-79828548D01*
X201836139Y-79815600D01*
X202994637Y-79815600D01*
X202994638Y-79815600D01*
X203055201Y-79809089D01*
X203192204Y-79757989D01*
X203309261Y-79670361D01*
X203396889Y-79553304D01*
X203447989Y-79416301D01*
X203454500Y-79355738D01*
X203454500Y-77988462D01*
X203447989Y-77927899D01*
X203396889Y-77790896D01*
X203396888Y-77790895D01*
X203309261Y-77673838D01*
X203284356Y-77655195D01*
X203202541Y-77571411D01*
X203150123Y-77466694D01*
X203132079Y-77350988D01*
X203150123Y-77235283D01*
X203202541Y-77130566D01*
X203284355Y-77046781D01*
X203308906Y-77028402D01*
X203396446Y-76911463D01*
X203447494Y-76774595D01*
X203454000Y-76714088D01*
X203454000Y-76580999D01*
X218561728Y-76580999D01*
X218580796Y-76884090D01*
X218629312Y-77138417D01*
X218637702Y-77182400D01*
X218731548Y-77471225D01*
X218860852Y-77746011D01*
X219023577Y-78002425D01*
X219035171Y-78016440D01*
X219190796Y-78204558D01*
X219217156Y-78236421D01*
X219438535Y-78444311D01*
X219684225Y-78622815D01*
X219950350Y-78769118D01*
X219950352Y-78769119D01*
X219992858Y-78785948D01*
X220232713Y-78880913D01*
X220526861Y-78956438D01*
X220828155Y-78994500D01*
X221131842Y-78994500D01*
X221131845Y-78994500D01*
X221433139Y-78956438D01*
X221727287Y-78880913D01*
X222009650Y-78769118D01*
X222275775Y-78622815D01*
X222521465Y-78444311D01*
X222742844Y-78236421D01*
X222936423Y-78002425D01*
X223099148Y-77746011D01*
X223228452Y-77471225D01*
X223322298Y-77182400D01*
X223379203Y-76884090D01*
X223398272Y-76581000D01*
X223379203Y-76277910D01*
X223322298Y-75979600D01*
X223228452Y-75690775D01*
X223099148Y-75415989D01*
X222936423Y-75159575D01*
X222742844Y-74925579D01*
X222521465Y-74717689D01*
X222275775Y-74539185D01*
X222060655Y-74420922D01*
X222009647Y-74392880D01*
X221727285Y-74281086D01*
X221433144Y-74205563D01*
X221433141Y-74205562D01*
X221433139Y-74205562D01*
X221131845Y-74167500D01*
X220828155Y-74167500D01*
X220526861Y-74205562D01*
X220526859Y-74205562D01*
X220526855Y-74205563D01*
X220232714Y-74281086D01*
X219950352Y-74392880D01*
X219684225Y-74539185D01*
X219438533Y-74717690D01*
X219217155Y-74925579D01*
X219023578Y-75159573D01*
X218893585Y-75364410D01*
X218860852Y-75415989D01*
X218731548Y-75690775D01*
X218661403Y-75906658D01*
X218637701Y-75979603D01*
X218580796Y-76277909D01*
X218561728Y-76580999D01*
X203454000Y-76580999D01*
X203454000Y-75346912D01*
X203447494Y-75286404D01*
X203396446Y-75149536D01*
X203308904Y-75032595D01*
X203191963Y-74945053D01*
X203055095Y-74894005D01*
X202994588Y-74887500D01*
X201119412Y-74887500D01*
X201058904Y-74894005D01*
X200922036Y-74945053D01*
X200805095Y-75032595D01*
X200717553Y-75149536D01*
X200666505Y-75286404D01*
X200660000Y-75346912D01*
X200660000Y-76714088D01*
X200666505Y-76774595D01*
X200717553Y-76911463D01*
X200805095Y-77028404D01*
X200829646Y-77046783D01*
X200911459Y-77130567D01*
X200963877Y-77235284D01*
X200981920Y-77350988D01*
X200963876Y-77466693D01*
X200911459Y-77571410D01*
X200829646Y-77655193D01*
X200822627Y-77660447D01*
X200804737Y-77673840D01*
X200717110Y-77790896D01*
X200666011Y-77927897D01*
X200659500Y-77988463D01*
X200659500Y-78492203D01*
X200643137Y-78602512D01*
X200595458Y-78703321D01*
X200520568Y-78785948D01*
X200424918Y-78843278D01*
X200316745Y-78870372D01*
X200307757Y-78871258D01*
X200206732Y-78881207D01*
X200067206Y-78923532D01*
X199954185Y-78939884D01*
X199841409Y-78921919D01*
X199739063Y-78871258D01*
X199656391Y-78792477D01*
X199600860Y-78692696D01*
X199567889Y-78604296D01*
X199502127Y-78516448D01*
X199480261Y-78487238D01*
X199363203Y-78399610D01*
X199226202Y-78348511D01*
X199195919Y-78345255D01*
X199165638Y-78342000D01*
X198118362Y-78342000D01*
X198098174Y-78344170D01*
X198057797Y-78348511D01*
X197920796Y-78399610D01*
X197803737Y-78487239D01*
X197796205Y-78497302D01*
X197712421Y-78579115D01*
X197607704Y-78631533D01*
X197491998Y-78649576D01*
X197376293Y-78631532D01*
X197271576Y-78579113D01*
X197187792Y-78497299D01*
X197180292Y-78487280D01*
X197123946Y-78379559D01*
X197104500Y-78259557D01*
X197104500Y-77587743D01*
X197105143Y-77565647D01*
X197107078Y-77532420D01*
X197108392Y-77509863D01*
X197108391Y-77509860D01*
X197108770Y-77503362D01*
X197104500Y-77454544D01*
X197104500Y-76089000D01*
X197123099Y-75971574D01*
X197177074Y-75865642D01*
X197261142Y-75781574D01*
X197367074Y-75727599D01*
X197484500Y-75709000D01*
X198015637Y-75709000D01*
X198015638Y-75709000D01*
X198076201Y-75702489D01*
X198213204Y-75651389D01*
X198330261Y-75563761D01*
X198417889Y-75446704D01*
X198468989Y-75309701D01*
X198475500Y-75249138D01*
X198475500Y-73001862D01*
X198468989Y-72941299D01*
X198417889Y-72804296D01*
X198417888Y-72804295D01*
X198407446Y-72776298D01*
X198383728Y-72657065D01*
X198398878Y-72536443D01*
X198451345Y-72426778D01*
X198535760Y-72339295D01*
X198643482Y-72282946D01*
X198763486Y-72263500D01*
X225679500Y-72263500D01*
X225796926Y-72282099D01*
G37*
%TD.AperFunction*%
%TA.AperFunction,Conductor*%
G36*
X140308716Y-72283099D02*
G01*
X140416753Y-72339876D01*
X140501219Y-72427972D01*
X140553401Y-72538302D01*
X140567917Y-72659483D01*
X140543268Y-72779015D01*
X140481998Y-72884568D01*
X140435441Y-72941299D01*
X140391564Y-72994763D01*
X140387769Y-73001863D01*
X140297544Y-73170662D01*
X140239649Y-73361513D01*
X140220100Y-73560000D01*
X140239649Y-73758486D01*
X140297544Y-73949337D01*
X140297546Y-73949342D01*
X140391564Y-74125237D01*
X140391566Y-74125239D01*
X140518089Y-74279410D01*
X140561370Y-74314929D01*
X140672263Y-74405936D01*
X140848158Y-74499954D01*
X140894679Y-74514066D01*
X141039013Y-74557850D01*
X141237500Y-74577399D01*
X141435986Y-74557850D01*
X141540169Y-74526246D01*
X141626842Y-74499954D01*
X141802737Y-74405936D01*
X141931775Y-74300038D01*
X141985843Y-74255666D01*
X141986608Y-74256599D01*
X142026381Y-74220551D01*
X142127191Y-74172871D01*
X142237500Y-74156508D01*
X142347809Y-74172871D01*
X142448619Y-74220551D01*
X142488391Y-74256599D01*
X142489157Y-74255666D01*
X142557700Y-74311917D01*
X142672263Y-74405936D01*
X142848158Y-74499954D01*
X142894679Y-74514066D01*
X143039013Y-74557850D01*
X143237500Y-74577399D01*
X143435986Y-74557850D01*
X143540169Y-74526246D01*
X143626842Y-74499954D01*
X143802737Y-74405936D01*
X143917300Y-74311917D01*
X143956832Y-74279475D01*
X144062386Y-74218205D01*
X144181918Y-74193556D01*
X144303099Y-74208072D01*
X144413428Y-74260254D01*
X144501524Y-74344720D01*
X144558301Y-74452757D01*
X144577900Y-74573220D01*
X144577900Y-75068417D01*
X144574649Y-75118018D01*
X144572650Y-75133199D01*
X144574649Y-75148382D01*
X144574650Y-75148399D01*
X144582370Y-75207037D01*
X144582370Y-75207038D01*
X144593562Y-75292051D01*
X144654875Y-75440076D01*
X144727919Y-75535268D01*
X144727923Y-75535271D01*
X144727923Y-75535272D01*
X144727925Y-75535274D01*
X144731244Y-75539600D01*
X144752414Y-75567188D01*
X144764562Y-75576510D01*
X144801933Y-75609282D01*
X147605917Y-78413266D01*
X147638688Y-78450635D01*
X147648012Y-78462786D01*
X147660167Y-78472113D01*
X147660170Y-78472116D01*
X147679927Y-78487276D01*
X147679929Y-78487278D01*
X147775124Y-78560324D01*
X147923149Y-78621638D01*
X147924639Y-78621834D01*
X147932085Y-78622815D01*
X147932090Y-78622815D01*
X148042115Y-78637300D01*
X148042120Y-78637300D01*
X148082000Y-78642550D01*
X148097187Y-78640550D01*
X148146783Y-78637300D01*
X157578549Y-78637300D01*
X157676900Y-78650248D01*
X157768549Y-78688210D01*
X157847250Y-78748599D01*
X167829408Y-88730757D01*
X167898723Y-88825835D01*
X167935632Y-88937559D01*
X167936594Y-89055218D01*
X167901517Y-89167530D01*
X167833765Y-89263729D01*
X167739834Y-89334590D01*
X167628728Y-89373320D01*
X167511101Y-89376206D01*
X167474681Y-89371410D01*
X167474657Y-89371408D01*
X167474656Y-89371408D01*
X167447948Y-89367892D01*
X167350401Y-89355050D01*
X167350386Y-89355049D01*
X167335200Y-89353050D01*
X167320012Y-89355049D01*
X167270417Y-89358300D01*
X152058391Y-89358300D01*
X152008793Y-89355049D01*
X151993600Y-89353049D01*
X151993599Y-89353049D01*
X151834748Y-89373962D01*
X151686722Y-89435276D01*
X151593205Y-89507034D01*
X151593186Y-89507050D01*
X151559612Y-89532813D01*
X151550285Y-89544968D01*
X151517519Y-89582330D01*
X146884729Y-94215120D01*
X146847369Y-94247884D01*
X146835215Y-94257210D01*
X146803027Y-94299157D01*
X146803022Y-94299164D01*
X146737675Y-94384324D01*
X146681540Y-94519847D01*
X146676362Y-94532348D01*
X146669638Y-94583424D01*
X146645529Y-94675404D01*
X146599339Y-94758519D01*
X146533961Y-94827565D01*
X146489161Y-94864332D01*
X146488394Y-94863398D01*
X146448609Y-94899456D01*
X146347800Y-94947132D01*
X146237493Y-94963492D01*
X146127186Y-94947128D01*
X146026379Y-94899448D01*
X145986608Y-94863400D01*
X145985843Y-94864334D01*
X145836776Y-94741999D01*
X145802737Y-94714064D01*
X145626842Y-94620046D01*
X145626839Y-94620045D01*
X145626837Y-94620044D01*
X145435986Y-94562149D01*
X145237500Y-94542600D01*
X145039013Y-94562149D01*
X144848162Y-94620044D01*
X144848158Y-94620045D01*
X144848158Y-94620046D01*
X144672263Y-94714064D01*
X144672261Y-94714065D01*
X144672260Y-94714066D01*
X144489157Y-94864334D01*
X144488390Y-94863400D01*
X144448611Y-94899453D01*
X144347805Y-94947129D01*
X144237500Y-94963491D01*
X144127195Y-94947129D01*
X144026389Y-94899453D01*
X143986609Y-94863400D01*
X143985843Y-94864334D01*
X143836776Y-94741999D01*
X143802737Y-94714064D01*
X143626842Y-94620046D01*
X143626839Y-94620045D01*
X143626837Y-94620044D01*
X143435986Y-94562149D01*
X143237500Y-94542600D01*
X143039013Y-94562149D01*
X142848162Y-94620044D01*
X142848158Y-94620045D01*
X142848158Y-94620046D01*
X142675609Y-94712276D01*
X142672256Y-94714068D01*
X142637765Y-94742374D01*
X142532030Y-94803713D01*
X142412292Y-94828307D01*
X142290940Y-94813613D01*
X142180531Y-94761151D01*
X142126059Y-94708682D01*
X141987703Y-94605110D01*
X141850702Y-94554011D01*
X141816852Y-94550372D01*
X141790138Y-94547500D01*
X140684862Y-94547500D01*
X140664674Y-94549670D01*
X140624297Y-94554011D01*
X140487296Y-94605110D01*
X140370238Y-94692738D01*
X140282610Y-94809796D01*
X140231511Y-94946797D01*
X140231475Y-94947132D01*
X140225000Y-95007362D01*
X140225000Y-96112638D01*
X140227040Y-96131615D01*
X140231511Y-96173202D01*
X140282610Y-96310203D01*
X140370238Y-96427261D01*
X140487296Y-96514889D01*
X140624299Y-96565989D01*
X140684862Y-96572500D01*
X141790137Y-96572500D01*
X141790138Y-96572500D01*
X141850701Y-96565989D01*
X141987704Y-96514889D01*
X142104761Y-96427261D01*
X142104761Y-96427260D01*
X142126058Y-96411318D01*
X142180528Y-96358851D01*
X142290937Y-96306387D01*
X142412291Y-96291692D01*
X142532032Y-96316287D01*
X142637768Y-96377627D01*
X142672263Y-96405936D01*
X142848158Y-96499954D01*
X142897392Y-96514889D01*
X143039013Y-96557850D01*
X143237500Y-96577399D01*
X143435986Y-96557850D01*
X143528987Y-96529638D01*
X143626842Y-96499954D01*
X143802737Y-96405936D01*
X143956910Y-96279410D01*
X143956909Y-96279410D01*
X143985843Y-96255666D01*
X143986608Y-96256599D01*
X144026381Y-96220551D01*
X144127191Y-96172871D01*
X144237500Y-96156508D01*
X144347809Y-96172871D01*
X144448619Y-96220551D01*
X144488391Y-96256599D01*
X144489157Y-96255666D01*
X144579124Y-96329499D01*
X144672263Y-96405936D01*
X144848158Y-96499954D01*
X144897392Y-96514889D01*
X145039014Y-96557850D01*
X145274747Y-96581068D01*
X145274469Y-96583881D01*
X145317249Y-96585981D01*
X145422255Y-96623549D01*
X145511833Y-96689982D01*
X146057650Y-97235799D01*
X146124079Y-97325369D01*
X146161647Y-97430366D01*
X146167119Y-97541747D01*
X146140023Y-97649920D01*
X146082693Y-97745569D01*
X146000066Y-97820458D01*
X145899257Y-97868137D01*
X145788949Y-97884500D01*
X144103362Y-97884500D01*
X144083174Y-97886670D01*
X144042797Y-97891011D01*
X143905796Y-97942110D01*
X143788738Y-98029738D01*
X143781671Y-98039180D01*
X143697887Y-98120994D01*
X143593170Y-98173411D01*
X143477465Y-98191455D01*
X142677992Y-98191455D01*
X142655047Y-98190762D01*
X142605929Y-98187790D01*
X142557530Y-98196660D01*
X142534843Y-98200113D01*
X142477526Y-98207072D01*
X142454790Y-98213411D01*
X142402132Y-98237110D01*
X142380941Y-98245887D01*
X142371937Y-98249303D01*
X142326940Y-98266368D01*
X142306386Y-98277960D01*
X142260923Y-98313577D01*
X142242454Y-98327167D01*
X142201954Y-98355123D01*
X142169321Y-98391958D01*
X142153593Y-98408665D01*
X140627905Y-99934355D01*
X140549204Y-99994745D01*
X140457555Y-100032707D01*
X140359204Y-100045655D01*
X139128000Y-100045655D01*
X139010574Y-100027056D01*
X138904642Y-99973081D01*
X138820574Y-99889013D01*
X138766599Y-99783081D01*
X138748000Y-99665655D01*
X138748000Y-99519363D01*
X138746460Y-99505040D01*
X138741489Y-99458799D01*
X138690389Y-99321796D01*
X138678939Y-99306500D01*
X138602761Y-99204738D01*
X138485703Y-99117110D01*
X138348702Y-99066011D01*
X138318419Y-99062755D01*
X138288138Y-99059500D01*
X133110862Y-99059500D01*
X133090674Y-99061670D01*
X133050297Y-99066011D01*
X132913296Y-99117110D01*
X132796238Y-99204738D01*
X132708610Y-99321796D01*
X132657511Y-99458797D01*
X132651000Y-99519363D01*
X132651000Y-101902637D01*
X132657511Y-101963202D01*
X132708610Y-102100203D01*
X132796238Y-102217261D01*
X132913295Y-102304888D01*
X132913296Y-102304889D01*
X133050299Y-102355989D01*
X133110862Y-102362500D01*
X138288137Y-102362500D01*
X138288138Y-102362500D01*
X138348701Y-102355989D01*
X138485704Y-102304889D01*
X138602761Y-102217261D01*
X138690389Y-102100204D01*
X138741489Y-101963201D01*
X138748000Y-101902638D01*
X138748000Y-101756345D01*
X138766599Y-101638919D01*
X138820574Y-101532987D01*
X138904642Y-101448919D01*
X139010574Y-101394944D01*
X139128000Y-101376345D01*
X140760609Y-101376345D01*
X140783553Y-101377038D01*
X140832668Y-101380009D01*
X140881071Y-101371137D01*
X140903756Y-101367685D01*
X140952597Y-101361756D01*
X140952597Y-101361755D01*
X140961089Y-101360725D01*
X140983787Y-101354397D01*
X140991590Y-101350885D01*
X140991596Y-101350884D01*
X141036474Y-101330685D01*
X141057636Y-101321919D01*
X141103672Y-101304461D01*
X141103675Y-101304458D01*
X141111682Y-101301422D01*
X141132194Y-101289854D01*
X141150287Y-101275679D01*
X141177676Y-101254220D01*
X141196124Y-101240645D01*
X141236646Y-101212676D01*
X141269288Y-101175829D01*
X141284991Y-101159147D01*
X142810695Y-99633444D01*
X142889396Y-99573055D01*
X142981045Y-99535093D01*
X143079396Y-99522145D01*
X143385838Y-99522145D01*
X143501544Y-99540189D01*
X143606262Y-99592608D01*
X143690047Y-99674423D01*
X143701110Y-99689202D01*
X143701111Y-99689204D01*
X143702228Y-99690696D01*
X143758573Y-99798415D01*
X143778018Y-99918417D01*
X143758572Y-100038419D01*
X143702226Y-100146139D01*
X143701553Y-100147036D01*
X143650505Y-100283904D01*
X143644000Y-100344412D01*
X143644000Y-101491588D01*
X143650505Y-101552095D01*
X143701553Y-101688963D01*
X143702223Y-101689857D01*
X143758571Y-101797577D01*
X143778018Y-101917580D01*
X143758573Y-102037583D01*
X143702227Y-102145304D01*
X143701111Y-102146794D01*
X143650011Y-102283797D01*
X143650010Y-102283799D01*
X143650011Y-102283799D01*
X143644173Y-102338107D01*
X143643500Y-102344363D01*
X143643500Y-103491637D01*
X143650011Y-103552202D01*
X143701111Y-103689206D01*
X143701914Y-103690278D01*
X143758261Y-103797998D01*
X143777706Y-103918000D01*
X143758261Y-104038002D01*
X143701914Y-104145722D01*
X143701111Y-104146793D01*
X143650011Y-104283797D01*
X143649188Y-104291457D01*
X143643708Y-104342432D01*
X143643500Y-104344363D01*
X143643500Y-104659993D01*
X143624661Y-104778156D01*
X143570013Y-104884604D01*
X143484973Y-104968781D01*
X143377974Y-105022341D01*
X143259624Y-105039973D01*
X143141659Y-105019930D01*
X143035775Y-104964199D01*
X142971803Y-104916310D01*
X142834802Y-104865211D01*
X142798999Y-104861362D01*
X142774238Y-104858700D01*
X141576962Y-104858700D01*
X141556774Y-104860870D01*
X141516397Y-104865211D01*
X141457678Y-104887112D01*
X141369996Y-104908383D01*
X141279771Y-104908383D01*
X141192089Y-104887112D01*
X141134693Y-104865704D01*
X141074188Y-104859200D01*
X139877012Y-104859200D01*
X139816504Y-104865705D01*
X139679636Y-104916753D01*
X139562695Y-105004295D01*
X139458175Y-105143917D01*
X139426200Y-105200854D01*
X139340493Y-105280651D01*
X139234559Y-105330561D01*
X139118457Y-105345846D01*
X139003214Y-105325054D01*
X138899775Y-105270160D01*
X138817961Y-105186376D01*
X138765544Y-105081659D01*
X138747500Y-104965954D01*
X138747500Y-103837412D01*
X138740994Y-103776904D01*
X138689946Y-103640036D01*
X138602404Y-103523095D01*
X138485463Y-103435553D01*
X138348595Y-103384505D01*
X138288088Y-103378000D01*
X133110912Y-103378000D01*
X133050404Y-103384505D01*
X132913536Y-103435553D01*
X132796595Y-103523095D01*
X132709053Y-103640036D01*
X132658005Y-103776904D01*
X132651500Y-103837412D01*
X132651500Y-106347588D01*
X132658005Y-106408095D01*
X132709053Y-106544963D01*
X132796595Y-106661904D01*
X132913536Y-106749446D01*
X133050404Y-106800494D01*
X133110912Y-106807000D01*
X138288088Y-106807000D01*
X138348595Y-106800494D01*
X138485463Y-106749446D01*
X138602404Y-106661904D01*
X138689944Y-106544964D01*
X138713789Y-106481035D01*
X138769737Y-106380712D01*
X138853107Y-106301690D01*
X138956280Y-106251191D01*
X139069830Y-106233829D01*
X139183379Y-106251190D01*
X139286553Y-106301689D01*
X139369924Y-106380710D01*
X139425872Y-106481033D01*
X139475153Y-106613163D01*
X139562695Y-106730104D01*
X139679636Y-106817646D01*
X139816504Y-106868694D01*
X139877012Y-106875200D01*
X141074188Y-106875200D01*
X141134695Y-106868694D01*
X141192086Y-106847289D01*
X141279770Y-106826016D01*
X141369997Y-106826016D01*
X141457680Y-106847287D01*
X141516399Y-106869189D01*
X141576962Y-106875700D01*
X142774237Y-106875700D01*
X142774238Y-106875700D01*
X142834801Y-106869189D01*
X142971804Y-106818089D01*
X142994468Y-106801122D01*
X143089391Y-106749289D01*
X143195079Y-106726297D01*
X143302964Y-106734013D01*
X143404305Y-106771811D01*
X143490892Y-106836628D01*
X143532201Y-106877937D01*
X143592590Y-106956638D01*
X143630552Y-107048287D01*
X143643500Y-107146638D01*
X143643500Y-107491637D01*
X143650011Y-107552202D01*
X143701111Y-107689206D01*
X143701914Y-107690278D01*
X143758261Y-107797998D01*
X143777706Y-107918000D01*
X143758261Y-108038002D01*
X143701914Y-108145722D01*
X143701111Y-108146793D01*
X143650011Y-108283797D01*
X143648353Y-108299217D01*
X143643500Y-108344362D01*
X143643500Y-109491638D01*
X143645839Y-109513391D01*
X143650011Y-109552202D01*
X143701110Y-109689203D01*
X143701912Y-109690274D01*
X143758259Y-109797993D01*
X143777706Y-109917995D01*
X143758262Y-110037997D01*
X143701917Y-110145718D01*
X143701111Y-110146793D01*
X143650011Y-110283797D01*
X143643500Y-110344363D01*
X143643500Y-111491637D01*
X143650011Y-111552202D01*
X143701110Y-111689203D01*
X143701912Y-111690274D01*
X143758259Y-111797993D01*
X143777706Y-111917995D01*
X143758262Y-112037997D01*
X143701917Y-112145718D01*
X143701111Y-112146793D01*
X143650011Y-112283797D01*
X143643500Y-112344363D01*
X143643500Y-113491637D01*
X143650011Y-113552202D01*
X143701110Y-113689203D01*
X143788738Y-113806261D01*
X143905796Y-113893889D01*
X144042799Y-113944989D01*
X144103362Y-113951500D01*
X146150637Y-113951500D01*
X146150638Y-113951500D01*
X146211201Y-113944989D01*
X146348204Y-113893889D01*
X146465261Y-113806261D01*
X146552889Y-113689204D01*
X146552889Y-113689203D01*
X146560696Y-113678775D01*
X146644480Y-113596961D01*
X146749197Y-113544544D01*
X146864902Y-113526500D01*
X150608549Y-113526500D01*
X150706900Y-113539448D01*
X150798549Y-113577410D01*
X150877250Y-113637799D01*
X152033250Y-114793799D01*
X152099679Y-114883369D01*
X152137247Y-114988366D01*
X152142719Y-115099747D01*
X152115623Y-115207920D01*
X152058293Y-115303569D01*
X151975666Y-115378458D01*
X151874857Y-115426137D01*
X151764549Y-115442500D01*
X131571500Y-115442500D01*
X131454074Y-115423901D01*
X131348142Y-115369926D01*
X131264074Y-115285858D01*
X131210099Y-115179926D01*
X131191500Y-115062500D01*
X131191500Y-111174899D01*
X135136793Y-111174899D01*
X135146673Y-111482980D01*
X135194343Y-111777838D01*
X135195867Y-111787261D01*
X135283569Y-112082756D01*
X135408337Y-112364609D01*
X135568123Y-112628193D01*
X135568125Y-112628196D01*
X135568126Y-112628197D01*
X135753465Y-112860606D01*
X135760304Y-112869181D01*
X135981724Y-113083614D01*
X136228747Y-113267972D01*
X136497318Y-113419228D01*
X136783025Y-113534899D01*
X136783026Y-113534899D01*
X136783028Y-113534900D01*
X136849005Y-113552201D01*
X137081179Y-113613084D01*
X137341631Y-113646665D01*
X137386882Y-113652500D01*
X137386883Y-113652500D01*
X137617974Y-113652500D01*
X137617977Y-113652500D01*
X137716814Y-113646154D01*
X137848601Y-113637693D01*
X138151151Y-113578772D01*
X138443683Y-113481644D01*
X138721393Y-113347907D01*
X138979720Y-113179754D01*
X139214424Y-112979948D01*
X139421650Y-112751769D01*
X139597996Y-112498963D01*
X139740567Y-112225683D01*
X139847020Y-111936415D01*
X139915609Y-111635908D01*
X139945206Y-111329098D01*
X139935327Y-111021022D01*
X139886133Y-110716739D01*
X139798431Y-110421244D01*
X139673663Y-110139391D01*
X139513877Y-109875807D01*
X139321696Y-109634819D01*
X139207319Y-109524051D01*
X139100275Y-109420385D01*
X138894983Y-109267172D01*
X138853253Y-109236028D01*
X138729596Y-109166386D01*
X138584683Y-109084772D01*
X138298971Y-108969099D01*
X138000822Y-108890916D01*
X137695118Y-108851500D01*
X137695117Y-108851500D01*
X137464026Y-108851500D01*
X137464023Y-108851500D01*
X137233402Y-108866306D01*
X136930845Y-108925228D01*
X136638314Y-109022356D01*
X136360610Y-109156090D01*
X136102279Y-109324246D01*
X135867576Y-109524051D01*
X135660351Y-109752229D01*
X135484003Y-110005038D01*
X135341433Y-110278316D01*
X135234980Y-110567582D01*
X135228551Y-110595751D01*
X135166391Y-110868092D01*
X135165686Y-110875404D01*
X135136793Y-111174899D01*
X131191500Y-111174899D01*
X131191500Y-97584588D01*
X132651500Y-97584588D01*
X132658005Y-97645095D01*
X132709053Y-97781963D01*
X132796595Y-97898904D01*
X132913536Y-97986446D01*
X133050404Y-98037494D01*
X133110912Y-98044000D01*
X138288088Y-98044000D01*
X138348595Y-98037494D01*
X138485463Y-97986446D01*
X138602404Y-97898904D01*
X138689946Y-97781963D01*
X138740994Y-97645095D01*
X138747500Y-97584588D01*
X138747500Y-95074412D01*
X138740994Y-95013904D01*
X138689946Y-94877036D01*
X138602404Y-94760095D01*
X138485463Y-94672553D01*
X138348595Y-94621505D01*
X138288088Y-94615000D01*
X133110912Y-94615000D01*
X133050404Y-94621505D01*
X132913536Y-94672553D01*
X132796595Y-94760095D01*
X132709053Y-94877036D01*
X132658005Y-95013904D01*
X132651500Y-95074412D01*
X132651500Y-97584588D01*
X131191500Y-97584588D01*
X131191500Y-76376899D01*
X132977793Y-76376899D01*
X132987673Y-76684980D01*
X133026051Y-76922365D01*
X133036867Y-76989261D01*
X133124569Y-77284756D01*
X133249337Y-77566609D01*
X133409123Y-77830193D01*
X133409125Y-77830196D01*
X133409126Y-77830197D01*
X133557649Y-78016440D01*
X133601304Y-78071181D01*
X133822724Y-78285614D01*
X134069747Y-78469972D01*
X134338318Y-78621228D01*
X134624025Y-78736899D01*
X134624026Y-78736899D01*
X134624028Y-78736900D01*
X134668642Y-78748599D01*
X134922179Y-78815084D01*
X135182631Y-78848665D01*
X135227882Y-78854500D01*
X135227883Y-78854500D01*
X135458974Y-78854500D01*
X135458977Y-78854500D01*
X135557814Y-78848154D01*
X135689601Y-78839693D01*
X135992151Y-78780772D01*
X136284683Y-78683644D01*
X136487158Y-78586138D01*
X136562389Y-78549909D01*
X136562389Y-78549908D01*
X136562393Y-78549907D01*
X136820720Y-78381754D01*
X137055424Y-78181948D01*
X137262650Y-77953769D01*
X137438996Y-77700963D01*
X137581567Y-77427683D01*
X137688020Y-77138415D01*
X137756609Y-76837908D01*
X137784121Y-76552708D01*
X137786206Y-76531100D01*
X137783948Y-76460688D01*
X137776327Y-76223022D01*
X137727133Y-75918739D01*
X137639431Y-75623244D01*
X137514663Y-75341391D01*
X137354877Y-75077807D01*
X137162696Y-74836819D01*
X136941276Y-74622386D01*
X136863313Y-74564201D01*
X136796137Y-74514066D01*
X136694253Y-74438028D01*
X136470330Y-74311917D01*
X136425683Y-74286772D01*
X136139971Y-74171099D01*
X135841822Y-74092916D01*
X135536118Y-74053500D01*
X135536117Y-74053500D01*
X135305026Y-74053500D01*
X135305023Y-74053500D01*
X135074402Y-74068306D01*
X134771845Y-74127228D01*
X134479314Y-74224356D01*
X134201610Y-74358090D01*
X133943279Y-74526246D01*
X133708576Y-74726051D01*
X133501351Y-74954229D01*
X133325004Y-75207037D01*
X133182433Y-75480316D01*
X133075980Y-75769582D01*
X133051871Y-75875213D01*
X133007391Y-76070092D01*
X133001965Y-76126333D01*
X132977793Y-76376899D01*
X131191500Y-76376899D01*
X131191500Y-72643500D01*
X131210099Y-72526074D01*
X131264074Y-72420142D01*
X131348142Y-72336074D01*
X131454074Y-72282099D01*
X131571500Y-72263500D01*
X140188253Y-72263500D01*
X140308716Y-72283099D01*
G37*
%TD.AperFunction*%
%TA.AperFunction,Conductor*%
G36*
X162674926Y-91959099D02*
G01*
X162780858Y-92013074D01*
X162864926Y-92097142D01*
X162918901Y-92203074D01*
X162937500Y-92320500D01*
X162937500Y-93004638D01*
X162944011Y-93065201D01*
X162953336Y-93090201D01*
X162964254Y-93119474D01*
X162987971Y-93238707D01*
X162972821Y-93359327D01*
X162920355Y-93468991D01*
X162835941Y-93556474D01*
X162826241Y-93563735D01*
X162738610Y-93680796D01*
X162687511Y-93817797D01*
X162684620Y-93844689D01*
X162681000Y-93878362D01*
X162681000Y-95075638D01*
X162687511Y-95136201D01*
X162700363Y-95170658D01*
X162727794Y-95244203D01*
X162749066Y-95331887D01*
X162749066Y-95422113D01*
X162727794Y-95509797D01*
X162687511Y-95617799D01*
X162681000Y-95678363D01*
X162681000Y-96875637D01*
X162687511Y-96936202D01*
X162738610Y-97073203D01*
X162826238Y-97190261D01*
X162835938Y-97197522D01*
X162920352Y-97285005D01*
X162972820Y-97394669D01*
X162987971Y-97515290D01*
X162964254Y-97634524D01*
X162944011Y-97688797D01*
X162937500Y-97749363D01*
X162937500Y-98846637D01*
X162944011Y-98907202D01*
X162995110Y-99044203D01*
X163082738Y-99161261D01*
X163182433Y-99235891D01*
X163199796Y-99248889D01*
X163336799Y-99299989D01*
X163397362Y-99306500D01*
X164594637Y-99306500D01*
X164594638Y-99306500D01*
X164655201Y-99299989D01*
X164713915Y-99278089D01*
X164801600Y-99256817D01*
X164891828Y-99256816D01*
X164979512Y-99278088D01*
X165035051Y-99298803D01*
X165137356Y-99356303D01*
X165217238Y-99442276D01*
X165267077Y-99548524D01*
X165282121Y-99664913D01*
X165273652Y-99711048D01*
X165275032Y-99711204D01*
X165270238Y-99753749D01*
X165270238Y-99753750D01*
X165266933Y-99783081D01*
X165265436Y-99796370D01*
X165246501Y-99879329D01*
X165209581Y-99955994D01*
X165156527Y-100022522D01*
X164980852Y-100198199D01*
X164902151Y-100258589D01*
X164810502Y-100296552D01*
X164712150Y-100309500D01*
X161664902Y-100309500D01*
X161549197Y-100291456D01*
X161444481Y-100239039D01*
X161360697Y-100157226D01*
X161351776Y-100145309D01*
X161295427Y-100037586D01*
X161275981Y-99917580D01*
X161295429Y-99797575D01*
X161351779Y-99689852D01*
X161352447Y-99688958D01*
X161403494Y-99552095D01*
X161410000Y-99491588D01*
X161410000Y-98344412D01*
X161403494Y-98283904D01*
X161352446Y-98147036D01*
X161264904Y-98030095D01*
X161147963Y-97942553D01*
X161011095Y-97891505D01*
X160950588Y-97885000D01*
X158903412Y-97885000D01*
X158842904Y-97891505D01*
X158706036Y-97942553D01*
X158589095Y-98030095D01*
X158501553Y-98147036D01*
X158450505Y-98283904D01*
X158444000Y-98344412D01*
X158444000Y-99491588D01*
X158450505Y-99552095D01*
X158501553Y-99688963D01*
X158502223Y-99689857D01*
X158558571Y-99797577D01*
X158578018Y-99917580D01*
X158558573Y-100037583D01*
X158502227Y-100145304D01*
X158501111Y-100146794D01*
X158450011Y-100283797D01*
X158443500Y-100344363D01*
X158443500Y-100865500D01*
X158424901Y-100982926D01*
X158370926Y-101088858D01*
X158286858Y-101172926D01*
X158180926Y-101226901D01*
X158063500Y-101245500D01*
X151945851Y-101245500D01*
X151847500Y-101232552D01*
X151755851Y-101194590D01*
X151677150Y-101134201D01*
X147608605Y-97065656D01*
X147539290Y-96970578D01*
X147502382Y-96858855D01*
X147501419Y-96741197D01*
X147536494Y-96628885D01*
X147604245Y-96532687D01*
X147698176Y-96461825D01*
X147743174Y-96437773D01*
X147802737Y-96405936D01*
X147919387Y-96310204D01*
X147985843Y-96255666D01*
X147986608Y-96256599D01*
X148026381Y-96220551D01*
X148127191Y-96172871D01*
X148237500Y-96156508D01*
X148347809Y-96172871D01*
X148448619Y-96220551D01*
X148488391Y-96256599D01*
X148489157Y-96255666D01*
X148579124Y-96329499D01*
X148672263Y-96405936D01*
X148848158Y-96499954D01*
X148897392Y-96514889D01*
X149039013Y-96557850D01*
X149237500Y-96577399D01*
X149435986Y-96557850D01*
X149528987Y-96529638D01*
X149626842Y-96499954D01*
X149802737Y-96405936D01*
X149956910Y-96279410D01*
X149956909Y-96279410D01*
X149985843Y-96255666D01*
X149986608Y-96256599D01*
X150026381Y-96220551D01*
X150127191Y-96172871D01*
X150237500Y-96156508D01*
X150347809Y-96172871D01*
X150448619Y-96220551D01*
X150488391Y-96256599D01*
X150489157Y-96255666D01*
X150579124Y-96329499D01*
X150672263Y-96405936D01*
X150848158Y-96499954D01*
X150897392Y-96514889D01*
X151039013Y-96557850D01*
X151237500Y-96577399D01*
X151435986Y-96557850D01*
X151528987Y-96529638D01*
X151626842Y-96499954D01*
X151802737Y-96405936D01*
X151956910Y-96279410D01*
X151956909Y-96279410D01*
X151985843Y-96255666D01*
X151986608Y-96256599D01*
X152026381Y-96220551D01*
X152127191Y-96172871D01*
X152237500Y-96156508D01*
X152347809Y-96172871D01*
X152448619Y-96220551D01*
X152488391Y-96256599D01*
X152489157Y-96255666D01*
X152579124Y-96329499D01*
X152672263Y-96405936D01*
X152848158Y-96499954D01*
X152897392Y-96514889D01*
X153039013Y-96557850D01*
X153237500Y-96577399D01*
X153435986Y-96557850D01*
X153528987Y-96529638D01*
X153626842Y-96499954D01*
X153802737Y-96405936D01*
X153956910Y-96279410D01*
X153956909Y-96279410D01*
X153985843Y-96255666D01*
X153986608Y-96256599D01*
X154026381Y-96220551D01*
X154127191Y-96172871D01*
X154237500Y-96156508D01*
X154347809Y-96172871D01*
X154448619Y-96220551D01*
X154488391Y-96256599D01*
X154489157Y-96255666D01*
X154579124Y-96329499D01*
X154672263Y-96405936D01*
X154848158Y-96499954D01*
X154897392Y-96514889D01*
X155039013Y-96557850D01*
X155237500Y-96577399D01*
X155435986Y-96557850D01*
X155528987Y-96529638D01*
X155626842Y-96499954D01*
X155802737Y-96405936D01*
X155956910Y-96279410D01*
X155956909Y-96279410D01*
X155985843Y-96255666D01*
X155986608Y-96256599D01*
X156026381Y-96220551D01*
X156127191Y-96172871D01*
X156237500Y-96156508D01*
X156347809Y-96172871D01*
X156448619Y-96220551D01*
X156488391Y-96256599D01*
X156489157Y-96255666D01*
X156579124Y-96329499D01*
X156672263Y-96405936D01*
X156848158Y-96499954D01*
X156897392Y-96514889D01*
X157039013Y-96557850D01*
X157237500Y-96577399D01*
X157435986Y-96557850D01*
X157528987Y-96529638D01*
X157626842Y-96499954D01*
X157802737Y-96405936D01*
X157956910Y-96279410D01*
X157956909Y-96279410D01*
X157985843Y-96255666D01*
X157986561Y-96256541D01*
X158026700Y-96220160D01*
X158127510Y-96172478D01*
X158237820Y-96156114D01*
X158348131Y-96172477D01*
X158448941Y-96220156D01*
X158488751Y-96256239D01*
X158489513Y-96255311D01*
X158672544Y-96405519D01*
X158848350Y-96499490D01*
X159039114Y-96557358D01*
X159237499Y-96576897D01*
X159435885Y-96557358D01*
X159626649Y-96499490D01*
X159802455Y-96405519D01*
X159956554Y-96279054D01*
X160083019Y-96124955D01*
X160176990Y-95949149D01*
X160234858Y-95758385D01*
X160254397Y-95560000D01*
X160234858Y-95361614D01*
X160176990Y-95170850D01*
X160083019Y-94995044D01*
X159956554Y-94840945D01*
X159802453Y-94714478D01*
X159683727Y-94651017D01*
X159589797Y-94580155D01*
X159522047Y-94483957D01*
X159486972Y-94371645D01*
X159487935Y-94253987D01*
X159524843Y-94142264D01*
X159594152Y-94047195D01*
X161589549Y-92051799D01*
X161668250Y-91991410D01*
X161759899Y-91953448D01*
X161858250Y-91940500D01*
X162557500Y-91940500D01*
X162674926Y-91959099D01*
G37*
%TD.AperFunction*%
%TA.AperFunction,Conductor*%
G36*
X195177519Y-98159978D02*
G01*
X195277651Y-98213710D01*
X195316039Y-98242446D01*
X195452904Y-98293494D01*
X195513412Y-98300000D01*
X195747778Y-98300000D01*
X195867782Y-98319446D01*
X195975504Y-98375795D01*
X196059919Y-98463278D01*
X196112386Y-98572943D01*
X196127536Y-98693565D01*
X196103818Y-98812796D01*
X196091196Y-98846638D01*
X196068011Y-98908799D01*
X196061500Y-98969363D01*
X196061500Y-99542500D01*
X196042901Y-99659926D01*
X195988926Y-99765858D01*
X195904858Y-99849926D01*
X195798926Y-99903901D01*
X195681500Y-99922500D01*
X195190267Y-99922500D01*
X195085070Y-99907649D01*
X194988095Y-99864255D01*
X194906923Y-99795712D01*
X194847899Y-99707376D01*
X194815636Y-99606153D01*
X194812656Y-99499958D01*
X194819299Y-99441000D01*
X194800162Y-99271150D01*
X194743709Y-99109817D01*
X194652771Y-98965091D01*
X194652769Y-98965089D01*
X194651473Y-98963026D01*
X194606175Y-98859204D01*
X194593493Y-98746642D01*
X194614552Y-98635344D01*
X194616706Y-98629187D01*
X194616709Y-98629183D01*
X194673162Y-98467850D01*
X194673162Y-98467845D01*
X194678197Y-98453458D01*
X194701777Y-98365624D01*
X194762375Y-98269491D01*
X194848688Y-98195575D01*
X194952998Y-98150485D01*
X195065976Y-98138255D01*
X195177519Y-98159978D01*
G37*
%TD.AperFunction*%
%TA.AperFunction,Conductor*%
G36*
X167208134Y-92314853D02*
G01*
X167313131Y-92352421D01*
X167402701Y-92418850D01*
X168450150Y-93466299D01*
X168516579Y-93555869D01*
X168554147Y-93660866D01*
X168559619Y-93772247D01*
X168532523Y-93880420D01*
X168475193Y-93976069D01*
X168392566Y-94050958D01*
X168291757Y-94098637D01*
X168181449Y-94115000D01*
X167842412Y-94115000D01*
X167752096Y-94124709D01*
X167687651Y-94138126D01*
X167573337Y-94126864D01*
X167467611Y-94081959D01*
X167380134Y-94007513D01*
X167318898Y-93910330D01*
X167301519Y-93844689D01*
X167240389Y-93680796D01*
X167152761Y-93563738D01*
X167035703Y-93476110D01*
X166992700Y-93460071D01*
X166884427Y-93397774D01*
X166802204Y-93303733D01*
X166754917Y-93188113D01*
X166747676Y-93063407D01*
X166754000Y-93004591D01*
X166754000Y-92687551D01*
X166770363Y-92577243D01*
X166818042Y-92476434D01*
X166892931Y-92393807D01*
X166988580Y-92336477D01*
X167096753Y-92309381D01*
X167208134Y-92314853D01*
G37*
%TD.AperFunction*%
%TA.AperFunction,Conductor*%
G36*
X194040518Y-72282946D02*
G01*
X194148240Y-72339295D01*
X194232655Y-72426778D01*
X194285122Y-72536443D01*
X194300272Y-72657065D01*
X194276554Y-72776298D01*
X194215011Y-72941297D01*
X194208500Y-73001863D01*
X194208500Y-75249137D01*
X194215011Y-75309702D01*
X194266110Y-75446703D01*
X194353738Y-75563761D01*
X194458259Y-75642004D01*
X194470796Y-75651389D01*
X194607799Y-75702489D01*
X194668362Y-75709000D01*
X195199500Y-75709000D01*
X195316926Y-75727599D01*
X195422858Y-75781574D01*
X195506926Y-75865642D01*
X195560901Y-75971574D01*
X195579500Y-76089000D01*
X195579500Y-76412000D01*
X195560901Y-76529426D01*
X195506926Y-76635358D01*
X195422858Y-76719426D01*
X195316926Y-76773401D01*
X195199500Y-76792000D01*
X193696774Y-76792000D01*
X193610485Y-76782073D01*
X193528704Y-76752812D01*
X193455705Y-76705744D01*
X193455071Y-76705224D01*
X193455072Y-76705224D01*
X193455069Y-76705222D01*
X193278480Y-76610833D01*
X193278479Y-76610832D01*
X193278476Y-76610831D01*
X193086868Y-76552707D01*
X192887600Y-76533081D01*
X192688331Y-76552707D01*
X192496723Y-76610831D01*
X192450837Y-76635358D01*
X192320131Y-76705222D01*
X192320129Y-76705223D01*
X192320128Y-76705224D01*
X192319495Y-76705744D01*
X192246496Y-76752812D01*
X192164715Y-76782073D01*
X192078426Y-76792000D01*
X191904031Y-76792000D01*
X191848959Y-76787988D01*
X191828935Y-76785055D01*
X191748375Y-76780950D01*
X191649254Y-76747302D01*
X191563074Y-76687887D01*
X191496375Y-76607213D01*
X191454217Y-76511402D01*
X191439800Y-76407723D01*
X191439800Y-75702512D01*
X191433294Y-75642004D01*
X191382246Y-75505136D01*
X191294704Y-75388195D01*
X191177763Y-75300653D01*
X191040895Y-75249605D01*
X190980388Y-75243100D01*
X189105212Y-75243100D01*
X189044704Y-75249605D01*
X188907836Y-75300653D01*
X188790895Y-75388195D01*
X188703353Y-75505136D01*
X188652305Y-75642004D01*
X188645800Y-75702512D01*
X188645800Y-77069688D01*
X188652305Y-77130195D01*
X188714428Y-77296755D01*
X188739853Y-77344118D01*
X188761603Y-77455543D01*
X188749468Y-77568420D01*
X188704529Y-77672675D01*
X188630799Y-77759002D01*
X188534858Y-77819696D01*
X188425269Y-77849340D01*
X188311813Y-77845288D01*
X188204618Y-77807902D01*
X188113251Y-77740518D01*
X187563799Y-77191066D01*
X187503410Y-77112365D01*
X187465448Y-77020716D01*
X187452500Y-76922365D01*
X187452500Y-76669650D01*
X187470544Y-76553945D01*
X187522961Y-76449228D01*
X187604775Y-76365444D01*
X187662861Y-76321961D01*
X187695838Y-76277909D01*
X187750489Y-76204904D01*
X187801589Y-76067901D01*
X187808100Y-76007338D01*
X187808100Y-74614662D01*
X187801589Y-74554099D01*
X187750489Y-74417096D01*
X187742135Y-74405936D01*
X187662861Y-74300038D01*
X187545803Y-74212410D01*
X187408802Y-74161311D01*
X187364125Y-74156508D01*
X187348238Y-74154800D01*
X186285762Y-74154800D01*
X186269875Y-74156508D01*
X186225197Y-74161311D01*
X186088196Y-74212410D01*
X185971138Y-74300038D01*
X185883510Y-74417096D01*
X185832411Y-74554097D01*
X185825900Y-74614663D01*
X185825900Y-76007337D01*
X185832411Y-76067902D01*
X185883510Y-76204903D01*
X185971138Y-76321961D01*
X186029225Y-76365444D01*
X186111039Y-76449228D01*
X186163456Y-76553945D01*
X186181500Y-76669650D01*
X186181500Y-77230890D01*
X186178513Y-77257937D01*
X186181313Y-77347035D01*
X186181500Y-77358968D01*
X186181500Y-77387719D01*
X186183316Y-77410812D01*
X186184334Y-77443205D01*
X186184437Y-77443558D01*
X186196525Y-77501925D01*
X186196572Y-77502297D01*
X186208498Y-77532420D01*
X186220090Y-77566278D01*
X186229130Y-77597393D01*
X186229320Y-77597714D01*
X186255546Y-77651247D01*
X186255680Y-77651587D01*
X186274725Y-77677800D01*
X186294375Y-77707715D01*
X186310863Y-77735594D01*
X186310864Y-77735595D01*
X186310866Y-77735598D01*
X186311124Y-77735856D01*
X186349840Y-77781188D01*
X186350058Y-77781487D01*
X186361432Y-77790896D01*
X186375020Y-77802137D01*
X186401501Y-77826233D01*
X187669367Y-79094100D01*
X187735796Y-79183669D01*
X187773364Y-79288666D01*
X187778836Y-79400047D01*
X187751740Y-79508220D01*
X187694410Y-79603869D01*
X187611783Y-79678758D01*
X187510974Y-79726437D01*
X187400666Y-79742800D01*
X186539762Y-79742800D01*
X186519574Y-79744970D01*
X186479197Y-79749311D01*
X186342196Y-79800410D01*
X186225138Y-79888038D01*
X186137510Y-80005096D01*
X186086411Y-80142097D01*
X186079900Y-80202663D01*
X186079900Y-81398684D01*
X186059893Y-81520360D01*
X186001979Y-81629224D01*
X185912255Y-81713811D01*
X185856729Y-81739276D01*
X185883996Y-81733427D01*
X186006368Y-81747468D01*
X186117821Y-81799914D01*
X186206643Y-81885254D01*
X186225138Y-81909961D01*
X186321520Y-81982111D01*
X186342196Y-81997589D01*
X186479199Y-82048689D01*
X186539762Y-82055200D01*
X187602237Y-82055200D01*
X187602238Y-82055200D01*
X187662801Y-82048689D01*
X187799804Y-81997589D01*
X187916861Y-81909961D01*
X187916861Y-81909960D01*
X187950290Y-81884936D01*
X187974086Y-81861429D01*
X188074030Y-81809211D01*
X188184896Y-81788622D01*
X188296924Y-81801474D01*
X188400248Y-81846635D01*
X188419999Y-81859045D01*
X188500849Y-81927227D01*
X188559776Y-82015052D01*
X188592215Y-82115716D01*
X188595654Y-82221422D01*
X188592000Y-82255410D01*
X188592000Y-83352588D01*
X188598505Y-83413095D01*
X188649553Y-83549963D01*
X188737095Y-83666904D01*
X188854036Y-83754446D01*
X188990904Y-83805494D01*
X189051412Y-83812000D01*
X190268959Y-83812000D01*
X190268959Y-83815896D01*
X190348495Y-83819804D01*
X190459335Y-83861818D01*
X190551837Y-83935939D01*
X190617001Y-84034955D01*
X190628629Y-84077160D01*
X190630697Y-84076437D01*
X190644837Y-84116849D01*
X190644838Y-84116850D01*
X190654415Y-84144219D01*
X190664066Y-84171800D01*
X190683281Y-84257328D01*
X190682387Y-84344984D01*
X190661431Y-84430103D01*
X190654842Y-84447768D01*
X190607611Y-84574399D01*
X190601100Y-84634962D01*
X190601100Y-85291038D01*
X190607611Y-85351601D01*
X190607689Y-85351809D01*
X190621476Y-85388774D01*
X190645193Y-85508007D01*
X190630042Y-85628629D01*
X190577575Y-85738293D01*
X190493161Y-85825776D01*
X190385439Y-85882125D01*
X190265435Y-85901571D01*
X190145431Y-85882125D01*
X190037710Y-85825777D01*
X189975963Y-85779553D01*
X189839095Y-85728505D01*
X189778588Y-85722000D01*
X188681412Y-85722000D01*
X188620904Y-85728505D01*
X188484036Y-85779553D01*
X188367095Y-85867095D01*
X188279553Y-85984036D01*
X188228505Y-86120904D01*
X188222000Y-86181412D01*
X188222000Y-87378588D01*
X188228504Y-87439093D01*
X188249912Y-87496489D01*
X188271183Y-87584171D01*
X188271183Y-87674396D01*
X188249912Y-87762078D01*
X188228011Y-87820797D01*
X188221500Y-87881363D01*
X188221500Y-88187575D01*
X188206319Y-88293910D01*
X188161989Y-88391748D01*
X188092052Y-88473274D01*
X188002096Y-88531971D01*
X187899308Y-88563152D01*
X187791902Y-88564324D01*
X187677401Y-88549250D01*
X187677386Y-88549249D01*
X187662200Y-88547250D01*
X187647012Y-88549249D01*
X187597417Y-88552500D01*
X187550524Y-88552500D01*
X187436975Y-88535138D01*
X187333802Y-88484640D01*
X187250432Y-88405620D01*
X187194484Y-88305298D01*
X187130889Y-88134796D01*
X187043261Y-88017738D01*
X186926203Y-87930110D01*
X186789202Y-87879011D01*
X186758919Y-87875755D01*
X186728638Y-87872500D01*
X186351362Y-87872500D01*
X186351359Y-87872500D01*
X186330615Y-87874730D01*
X186249381Y-87874730D01*
X186228638Y-87872500D01*
X185851362Y-87872500D01*
X185851359Y-87872500D01*
X185830615Y-87874730D01*
X185749381Y-87874730D01*
X185728638Y-87872500D01*
X185351362Y-87872500D01*
X185351359Y-87872500D01*
X185330615Y-87874730D01*
X185249381Y-87874730D01*
X185228638Y-87872500D01*
X184851362Y-87872500D01*
X184851359Y-87872500D01*
X184830615Y-87874730D01*
X184749381Y-87874730D01*
X184728638Y-87872500D01*
X184528500Y-87872500D01*
X184411074Y-87853901D01*
X184305142Y-87799926D01*
X184221074Y-87715858D01*
X184167099Y-87609926D01*
X184148500Y-87492500D01*
X184148500Y-86234500D01*
X184167099Y-86117074D01*
X184221074Y-86011142D01*
X184305142Y-85927074D01*
X184411074Y-85873099D01*
X184528500Y-85854500D01*
X185402637Y-85854500D01*
X185402638Y-85854500D01*
X185463201Y-85847989D01*
X185541923Y-85818626D01*
X185629598Y-85797357D01*
X185719826Y-85797356D01*
X185807511Y-85818628D01*
X185884906Y-85847495D01*
X185945412Y-85854000D01*
X186982588Y-85854000D01*
X187043095Y-85847494D01*
X187179963Y-85796446D01*
X187296904Y-85708904D01*
X187384446Y-85591963D01*
X187435494Y-85455095D01*
X187442000Y-85394588D01*
X187442000Y-84277412D01*
X187435494Y-84216904D01*
X187384446Y-84080036D01*
X187296904Y-83963095D01*
X187179963Y-83875553D01*
X187043095Y-83824505D01*
X186982588Y-83818000D01*
X185945413Y-83818000D01*
X185940121Y-83818569D01*
X185834257Y-83815103D01*
X185733462Y-83782552D01*
X185645567Y-83723444D01*
X185577402Y-83642371D01*
X185534262Y-83545633D01*
X185519500Y-83440746D01*
X185519500Y-82126118D01*
X185528652Y-82043221D01*
X185531589Y-82030082D01*
X185577587Y-81915818D01*
X185657717Y-81822269D01*
X185743645Y-81771119D01*
X185677528Y-81778025D01*
X185557241Y-81750889D01*
X185451976Y-81686666D01*
X185424992Y-81654437D01*
X185424081Y-81655349D01*
X185390136Y-81621404D01*
X185390135Y-81621402D01*
X185389870Y-81621137D01*
X185351151Y-81575800D01*
X185350942Y-81575513D01*
X185325989Y-81554870D01*
X185299509Y-81530776D01*
X185125399Y-81356666D01*
X185065010Y-81277965D01*
X185027048Y-81186316D01*
X185014100Y-81087965D01*
X185014100Y-80202663D01*
X185014100Y-80202662D01*
X185007589Y-80142099D01*
X184956489Y-80005096D01*
X184934819Y-79976148D01*
X184868861Y-79888038D01*
X184751803Y-79800410D01*
X184614802Y-79749311D01*
X184584519Y-79746055D01*
X184554238Y-79742800D01*
X183491762Y-79742800D01*
X183471574Y-79744970D01*
X183431197Y-79749311D01*
X183294196Y-79800410D01*
X183177138Y-79888038D01*
X183089510Y-80005096D01*
X183038411Y-80142097D01*
X183031900Y-80202663D01*
X183031900Y-80238815D01*
X183017049Y-80344012D01*
X182973656Y-80440986D01*
X182905113Y-80522158D01*
X182816778Y-80581182D01*
X182715555Y-80613446D01*
X182653686Y-80615182D01*
X182626001Y-80618301D01*
X182548920Y-80626985D01*
X182456147Y-80637438D01*
X182294816Y-80693890D01*
X182276605Y-80705334D01*
X182176700Y-80749558D01*
X182068341Y-80763529D01*
X181960486Y-80746091D01*
X181862051Y-80698686D01*
X181781172Y-80625233D01*
X181724535Y-80531804D01*
X181696823Y-80426121D01*
X181694876Y-80408838D01*
X181693762Y-80398950D01*
X181637309Y-80237617D01*
X181577289Y-80142097D01*
X181546373Y-80092894D01*
X181546372Y-80092893D01*
X181546371Y-80092891D01*
X181425509Y-79972029D01*
X181425506Y-79972027D01*
X181425505Y-79972026D01*
X181280784Y-79881091D01*
X181119452Y-79824638D01*
X180949600Y-79805501D01*
X180779747Y-79824638D01*
X180618415Y-79881091D01*
X180473694Y-79972026D01*
X180352826Y-80092894D01*
X180261891Y-80237614D01*
X180195262Y-80428029D01*
X180158342Y-80504693D01*
X180105288Y-80571221D01*
X180038761Y-80624275D01*
X179864093Y-80734027D01*
X179743226Y-80854894D01*
X179652291Y-80999615D01*
X179595837Y-81160951D01*
X179587802Y-81232262D01*
X179558486Y-81341672D01*
X179498223Y-81437581D01*
X179412368Y-81511467D01*
X179356093Y-81546827D01*
X179235226Y-81667694D01*
X179144291Y-81812415D01*
X179087838Y-81973747D01*
X179083184Y-82015057D01*
X179072255Y-82112047D01*
X179044067Y-82218848D01*
X178986352Y-82313032D01*
X178903988Y-82386637D01*
X178803934Y-82433445D01*
X178694646Y-82449500D01*
X172987991Y-82449500D01*
X172938393Y-82446249D01*
X172923200Y-82444249D01*
X172923199Y-82444249D01*
X172764348Y-82465162D01*
X172616322Y-82526476D01*
X172522805Y-82598234D01*
X172522786Y-82598250D01*
X172489212Y-82624012D01*
X172479882Y-82636172D01*
X172447116Y-82673533D01*
X172122051Y-82998600D01*
X172043351Y-83058989D01*
X171951702Y-83096952D01*
X171853350Y-83109900D01*
X171457919Y-83109900D01*
X171352722Y-83095049D01*
X171255749Y-83051656D01*
X171222383Y-83030691D01*
X171222382Y-83030690D01*
X171222381Y-83030690D01*
X171061052Y-82974238D01*
X170891200Y-82955101D01*
X170721347Y-82974238D01*
X170560015Y-83030691D01*
X170415294Y-83121626D01*
X170294426Y-83242494D01*
X170203491Y-83387215D01*
X170147038Y-83548547D01*
X170127901Y-83718400D01*
X170147038Y-83888252D01*
X170203491Y-84049584D01*
X170281982Y-84174500D01*
X170294429Y-84194309D01*
X170415291Y-84315171D01*
X170543346Y-84395634D01*
X170621657Y-84461013D01*
X170679754Y-84544871D01*
X170713448Y-84641163D01*
X170720310Y-84742949D01*
X170699847Y-84842893D01*
X170655038Y-84970949D01*
X170636621Y-85134406D01*
X170603977Y-85251226D01*
X170536185Y-85351809D01*
X170440152Y-85425906D01*
X170325663Y-85465968D01*
X170204382Y-85467912D01*
X170088668Y-85431541D01*
X169990309Y-85360560D01*
X160028599Y-75398850D01*
X159968210Y-75320149D01*
X159930248Y-75228500D01*
X159917300Y-75130149D01*
X159917300Y-74853588D01*
X177810000Y-74853588D01*
X177816505Y-74914095D01*
X177867553Y-75050963D01*
X177955095Y-75167904D01*
X178072036Y-75255446D01*
X178208904Y-75306494D01*
X178269412Y-75313000D01*
X179306588Y-75313000D01*
X179367093Y-75306495D01*
X179444485Y-75277629D01*
X179532170Y-75256357D01*
X179622398Y-75256356D01*
X179710082Y-75277629D01*
X179733609Y-75286404D01*
X179788799Y-75306989D01*
X179849362Y-75313500D01*
X180302367Y-75313500D01*
X180400718Y-75326448D01*
X180492367Y-75364410D01*
X180571062Y-75424794D01*
X180827366Y-75681099D01*
X180844383Y-75702340D01*
X180909330Y-75763329D01*
X180917900Y-75771633D01*
X180934906Y-75788639D01*
X180934909Y-75788641D01*
X180938267Y-75791999D01*
X180955882Y-75807044D01*
X180979494Y-75829217D01*
X180979819Y-75829396D01*
X181029643Y-75862124D01*
X181029934Y-75862350D01*
X181059670Y-75875217D01*
X181091806Y-75890960D01*
X181120197Y-75906569D01*
X181120544Y-75906658D01*
X181176960Y-75925973D01*
X181177292Y-75926117D01*
X181209294Y-75931185D01*
X181244346Y-75938444D01*
X181275718Y-75946500D01*
X181276080Y-75946500D01*
X181335526Y-75951179D01*
X181335879Y-75951235D01*
X181335879Y-75951234D01*
X181335880Y-75951235D01*
X181353223Y-75949595D01*
X181368124Y-75948187D01*
X181403886Y-75946500D01*
X182475293Y-75946500D01*
X182588842Y-75963862D01*
X182692016Y-76014360D01*
X182775386Y-76093381D01*
X182831334Y-76193704D01*
X182835511Y-76204905D01*
X182923138Y-76321961D01*
X182981225Y-76365444D01*
X183040196Y-76409589D01*
X183177199Y-76460689D01*
X183237762Y-76467200D01*
X184300237Y-76467200D01*
X184300238Y-76467200D01*
X184360801Y-76460689D01*
X184497804Y-76409589D01*
X184614861Y-76321961D01*
X184702489Y-76204904D01*
X184753589Y-76067901D01*
X184760100Y-76007338D01*
X184760100Y-74614662D01*
X184753589Y-74554099D01*
X184702489Y-74417096D01*
X184694135Y-74405936D01*
X184614861Y-74300038D01*
X184497803Y-74212410D01*
X184360802Y-74161311D01*
X184316125Y-74156508D01*
X184300238Y-74154800D01*
X183237762Y-74154800D01*
X183221875Y-74156508D01*
X183177197Y-74161311D01*
X183040196Y-74212410D01*
X182923138Y-74300038D01*
X182835511Y-74417094D01*
X182831334Y-74428296D01*
X182775386Y-74528619D01*
X182692016Y-74607640D01*
X182588842Y-74658138D01*
X182475293Y-74675500D01*
X181776635Y-74675500D01*
X181678284Y-74662552D01*
X181586635Y-74624590D01*
X181507934Y-74564201D01*
X181457799Y-74514066D01*
X181397410Y-74435365D01*
X181359448Y-74343716D01*
X181346500Y-74245365D01*
X181346500Y-73736363D01*
X181340000Y-73675904D01*
X181339989Y-73675799D01*
X181288889Y-73538796D01*
X181201261Y-73421738D01*
X181084203Y-73334110D01*
X180947202Y-73283011D01*
X180916919Y-73279755D01*
X180886638Y-73276500D01*
X179849362Y-73276500D01*
X179829174Y-73278670D01*
X179788797Y-73283011D01*
X179710081Y-73312371D01*
X179622399Y-73333643D01*
X179532173Y-73333643D01*
X179444490Y-73312371D01*
X179367097Y-73283505D01*
X179306588Y-73277000D01*
X178269412Y-73277000D01*
X178208904Y-73283505D01*
X178072036Y-73334553D01*
X177955095Y-73422095D01*
X177867553Y-73539036D01*
X177816505Y-73675904D01*
X177810000Y-73736412D01*
X177810000Y-74853588D01*
X159917300Y-74853588D01*
X159917300Y-74463641D01*
X159927227Y-74377353D01*
X159956488Y-74295572D01*
X160003555Y-74222573D01*
X160027368Y-74193556D01*
X160083436Y-74125237D01*
X160177454Y-73949342D01*
X160235350Y-73758485D01*
X160243484Y-73675904D01*
X160254899Y-73560000D01*
X160235350Y-73361513D01*
X160177455Y-73170662D01*
X160177454Y-73170658D01*
X160083436Y-72994763D01*
X159993002Y-72884568D01*
X159931732Y-72779015D01*
X159907083Y-72659483D01*
X159921599Y-72538302D01*
X159973781Y-72427972D01*
X160058247Y-72339876D01*
X160166284Y-72283099D01*
X160286747Y-72263500D01*
X193920514Y-72263500D01*
X194040518Y-72282946D01*
G37*
%TD.AperFunction*%
%TD*%
M02*
