%TF.GenerationSoftware,KiCad,Pcbnew,7.0.1*%
%TF.CreationDate,2023-04-09T14:50:30-07:00*%
%TF.ProjectId,Ground-Station-Telemetry,47726f75-6e64-42d5-9374-6174696f6e2d,rev?*%
%TF.SameCoordinates,Original*%
%TF.FileFunction,Legend,Bot*%
%TF.FilePolarity,Positive*%
%FSLAX46Y46*%
G04 Gerber Fmt 4.6, Leading zero omitted, Abs format (unit mm)*
G04 Created by KiCad (PCBNEW 7.0.1) date 2023-04-09 14:50:30*
%MOMM*%
%LPD*%
G01*
G04 APERTURE LIST*
%ADD10C,0.150000*%
%ADD11C,0.508000*%
G04 APERTURE END LIST*
D10*
X181331809Y-114397669D02*
X180727047Y-114397669D01*
X181452761Y-114760526D02*
X181029428Y-113490526D01*
X181029428Y-113490526D02*
X180606094Y-114760526D01*
X179940857Y-113490526D02*
X179819904Y-113490526D01*
X179819904Y-113490526D02*
X179698952Y-113551002D01*
X179698952Y-113551002D02*
X179638476Y-113611478D01*
X179638476Y-113611478D02*
X179578000Y-113732430D01*
X179578000Y-113732430D02*
X179517523Y-113974335D01*
X179517523Y-113974335D02*
X179517523Y-114276716D01*
X179517523Y-114276716D02*
X179578000Y-114518621D01*
X179578000Y-114518621D02*
X179638476Y-114639573D01*
X179638476Y-114639573D02*
X179698952Y-114700050D01*
X179698952Y-114700050D02*
X179819904Y-114760526D01*
X179819904Y-114760526D02*
X179940857Y-114760526D01*
X179940857Y-114760526D02*
X180061809Y-114700050D01*
X180061809Y-114700050D02*
X180122285Y-114639573D01*
X180122285Y-114639573D02*
X180182762Y-114518621D01*
X180182762Y-114518621D02*
X180243238Y-114276716D01*
X180243238Y-114276716D02*
X180243238Y-113974335D01*
X180243238Y-113974335D02*
X180182762Y-113732430D01*
X180182762Y-113732430D02*
X180122285Y-113611478D01*
X180122285Y-113611478D02*
X180061809Y-113551002D01*
X180061809Y-113551002D02*
X179940857Y-113490526D01*
X178731333Y-113490526D02*
X178610380Y-113490526D01*
X178610380Y-113490526D02*
X178489428Y-113551002D01*
X178489428Y-113551002D02*
X178428952Y-113611478D01*
X178428952Y-113611478D02*
X178368476Y-113732430D01*
X178368476Y-113732430D02*
X178307999Y-113974335D01*
X178307999Y-113974335D02*
X178307999Y-114276716D01*
X178307999Y-114276716D02*
X178368476Y-114518621D01*
X178368476Y-114518621D02*
X178428952Y-114639573D01*
X178428952Y-114639573D02*
X178489428Y-114700050D01*
X178489428Y-114700050D02*
X178610380Y-114760526D01*
X178610380Y-114760526D02*
X178731333Y-114760526D01*
X178731333Y-114760526D02*
X178852285Y-114700050D01*
X178852285Y-114700050D02*
X178912761Y-114639573D01*
X178912761Y-114639573D02*
X178973238Y-114518621D01*
X178973238Y-114518621D02*
X179033714Y-114276716D01*
X179033714Y-114276716D02*
X179033714Y-113974335D01*
X179033714Y-113974335D02*
X178973238Y-113732430D01*
X178973238Y-113732430D02*
X178912761Y-113611478D01*
X178912761Y-113611478D02*
X178852285Y-113551002D01*
X178852285Y-113551002D02*
X178731333Y-113490526D01*
X177521809Y-113490526D02*
X177400856Y-113490526D01*
X177400856Y-113490526D02*
X177279904Y-113551002D01*
X177279904Y-113551002D02*
X177219428Y-113611478D01*
X177219428Y-113611478D02*
X177158952Y-113732430D01*
X177158952Y-113732430D02*
X177098475Y-113974335D01*
X177098475Y-113974335D02*
X177098475Y-114276716D01*
X177098475Y-114276716D02*
X177158952Y-114518621D01*
X177158952Y-114518621D02*
X177219428Y-114639573D01*
X177219428Y-114639573D02*
X177279904Y-114700050D01*
X177279904Y-114700050D02*
X177400856Y-114760526D01*
X177400856Y-114760526D02*
X177521809Y-114760526D01*
X177521809Y-114760526D02*
X177642761Y-114700050D01*
X177642761Y-114700050D02*
X177703237Y-114639573D01*
X177703237Y-114639573D02*
X177763714Y-114518621D01*
X177763714Y-114518621D02*
X177824190Y-114276716D01*
X177824190Y-114276716D02*
X177824190Y-113974335D01*
X177824190Y-113974335D02*
X177763714Y-113732430D01*
X177763714Y-113732430D02*
X177703237Y-113611478D01*
X177703237Y-113611478D02*
X177642761Y-113551002D01*
X177642761Y-113551002D02*
X177521809Y-113490526D01*
X175949428Y-113490526D02*
X176554190Y-113490526D01*
X176554190Y-113490526D02*
X176614666Y-114095288D01*
X176614666Y-114095288D02*
X176554190Y-114034811D01*
X176554190Y-114034811D02*
X176433237Y-113974335D01*
X176433237Y-113974335D02*
X176130856Y-113974335D01*
X176130856Y-113974335D02*
X176009904Y-114034811D01*
X176009904Y-114034811D02*
X175949428Y-114095288D01*
X175949428Y-114095288D02*
X175888951Y-114216240D01*
X175888951Y-114216240D02*
X175888951Y-114518621D01*
X175888951Y-114518621D02*
X175949428Y-114639573D01*
X175949428Y-114639573D02*
X176009904Y-114700050D01*
X176009904Y-114700050D02*
X176130856Y-114760526D01*
X176130856Y-114760526D02*
X176433237Y-114760526D01*
X176433237Y-114760526D02*
X176554190Y-114700050D01*
X176554190Y-114700050D02*
X176614666Y-114639573D01*
X173711808Y-113551002D02*
X173832761Y-113490526D01*
X173832761Y-113490526D02*
X174014189Y-113490526D01*
X174014189Y-113490526D02*
X174195618Y-113551002D01*
X174195618Y-113551002D02*
X174316570Y-113671954D01*
X174316570Y-113671954D02*
X174377047Y-113792907D01*
X174377047Y-113792907D02*
X174437523Y-114034811D01*
X174437523Y-114034811D02*
X174437523Y-114216240D01*
X174437523Y-114216240D02*
X174377047Y-114458145D01*
X174377047Y-114458145D02*
X174316570Y-114579097D01*
X174316570Y-114579097D02*
X174195618Y-114700050D01*
X174195618Y-114700050D02*
X174014189Y-114760526D01*
X174014189Y-114760526D02*
X173893237Y-114760526D01*
X173893237Y-114760526D02*
X173711808Y-114700050D01*
X173711808Y-114700050D02*
X173651332Y-114639573D01*
X173651332Y-114639573D02*
X173651332Y-114216240D01*
X173651332Y-114216240D02*
X173893237Y-114216240D01*
X173107047Y-114760526D02*
X173107047Y-113913859D01*
X173107047Y-114155764D02*
X173046570Y-114034811D01*
X173046570Y-114034811D02*
X172986094Y-113974335D01*
X172986094Y-113974335D02*
X172865142Y-113913859D01*
X172865142Y-113913859D02*
X172744189Y-113913859D01*
X172139428Y-114760526D02*
X172260380Y-114700050D01*
X172260380Y-114700050D02*
X172320857Y-114639573D01*
X172320857Y-114639573D02*
X172381333Y-114518621D01*
X172381333Y-114518621D02*
X172381333Y-114155764D01*
X172381333Y-114155764D02*
X172320857Y-114034811D01*
X172320857Y-114034811D02*
X172260380Y-113974335D01*
X172260380Y-113974335D02*
X172139428Y-113913859D01*
X172139428Y-113913859D02*
X171957999Y-113913859D01*
X171957999Y-113913859D02*
X171837047Y-113974335D01*
X171837047Y-113974335D02*
X171776571Y-114034811D01*
X171776571Y-114034811D02*
X171716095Y-114155764D01*
X171716095Y-114155764D02*
X171716095Y-114518621D01*
X171716095Y-114518621D02*
X171776571Y-114639573D01*
X171776571Y-114639573D02*
X171837047Y-114700050D01*
X171837047Y-114700050D02*
X171957999Y-114760526D01*
X171957999Y-114760526D02*
X172139428Y-114760526D01*
X170627523Y-113913859D02*
X170627523Y-114760526D01*
X171171809Y-113913859D02*
X171171809Y-114579097D01*
X171171809Y-114579097D02*
X171111332Y-114700050D01*
X171111332Y-114700050D02*
X170990380Y-114760526D01*
X170990380Y-114760526D02*
X170808951Y-114760526D01*
X170808951Y-114760526D02*
X170687999Y-114700050D01*
X170687999Y-114700050D02*
X170627523Y-114639573D01*
X170022761Y-113913859D02*
X170022761Y-114760526D01*
X170022761Y-114034811D02*
X169962284Y-113974335D01*
X169962284Y-113974335D02*
X169841332Y-113913859D01*
X169841332Y-113913859D02*
X169659903Y-113913859D01*
X169659903Y-113913859D02*
X169538951Y-113974335D01*
X169538951Y-113974335D02*
X169478475Y-114095288D01*
X169478475Y-114095288D02*
X169478475Y-114760526D01*
X168329427Y-114760526D02*
X168329427Y-113490526D01*
X168329427Y-114700050D02*
X168450379Y-114760526D01*
X168450379Y-114760526D02*
X168692284Y-114760526D01*
X168692284Y-114760526D02*
X168813236Y-114700050D01*
X168813236Y-114700050D02*
X168873713Y-114639573D01*
X168873713Y-114639573D02*
X168934189Y-114518621D01*
X168934189Y-114518621D02*
X168934189Y-114155764D01*
X168934189Y-114155764D02*
X168873713Y-114034811D01*
X168873713Y-114034811D02*
X168813236Y-113974335D01*
X168813236Y-113974335D02*
X168692284Y-113913859D01*
X168692284Y-113913859D02*
X168450379Y-113913859D01*
X168450379Y-113913859D02*
X168329427Y-113974335D01*
X166817522Y-114700050D02*
X166636093Y-114760526D01*
X166636093Y-114760526D02*
X166333712Y-114760526D01*
X166333712Y-114760526D02*
X166212760Y-114700050D01*
X166212760Y-114700050D02*
X166152284Y-114639573D01*
X166152284Y-114639573D02*
X166091807Y-114518621D01*
X166091807Y-114518621D02*
X166091807Y-114397669D01*
X166091807Y-114397669D02*
X166152284Y-114276716D01*
X166152284Y-114276716D02*
X166212760Y-114216240D01*
X166212760Y-114216240D02*
X166333712Y-114155764D01*
X166333712Y-114155764D02*
X166575617Y-114095288D01*
X166575617Y-114095288D02*
X166696569Y-114034811D01*
X166696569Y-114034811D02*
X166757046Y-113974335D01*
X166757046Y-113974335D02*
X166817522Y-113853383D01*
X166817522Y-113853383D02*
X166817522Y-113732430D01*
X166817522Y-113732430D02*
X166757046Y-113611478D01*
X166757046Y-113611478D02*
X166696569Y-113551002D01*
X166696569Y-113551002D02*
X166575617Y-113490526D01*
X166575617Y-113490526D02*
X166273236Y-113490526D01*
X166273236Y-113490526D02*
X166091807Y-113551002D01*
X165728950Y-113913859D02*
X165245141Y-113913859D01*
X165547522Y-113490526D02*
X165547522Y-114579097D01*
X165547522Y-114579097D02*
X165487045Y-114700050D01*
X165487045Y-114700050D02*
X165366093Y-114760526D01*
X165366093Y-114760526D02*
X165245141Y-114760526D01*
X164277522Y-114760526D02*
X164277522Y-114095288D01*
X164277522Y-114095288D02*
X164337998Y-113974335D01*
X164337998Y-113974335D02*
X164458950Y-113913859D01*
X164458950Y-113913859D02*
X164700855Y-113913859D01*
X164700855Y-113913859D02*
X164821808Y-113974335D01*
X164277522Y-114700050D02*
X164398474Y-114760526D01*
X164398474Y-114760526D02*
X164700855Y-114760526D01*
X164700855Y-114760526D02*
X164821808Y-114700050D01*
X164821808Y-114700050D02*
X164882284Y-114579097D01*
X164882284Y-114579097D02*
X164882284Y-114458145D01*
X164882284Y-114458145D02*
X164821808Y-114337192D01*
X164821808Y-114337192D02*
X164700855Y-114276716D01*
X164700855Y-114276716D02*
X164398474Y-114276716D01*
X164398474Y-114276716D02*
X164277522Y-114216240D01*
X163854188Y-113913859D02*
X163370379Y-113913859D01*
X163672760Y-113490526D02*
X163672760Y-114579097D01*
X163672760Y-114579097D02*
X163612283Y-114700050D01*
X163612283Y-114700050D02*
X163491331Y-114760526D01*
X163491331Y-114760526D02*
X163370379Y-114760526D01*
X162947046Y-114760526D02*
X162947046Y-113913859D01*
X162947046Y-113490526D02*
X163007522Y-113551002D01*
X163007522Y-113551002D02*
X162947046Y-113611478D01*
X162947046Y-113611478D02*
X162886569Y-113551002D01*
X162886569Y-113551002D02*
X162947046Y-113490526D01*
X162947046Y-113490526D02*
X162947046Y-113611478D01*
X162160855Y-114760526D02*
X162281807Y-114700050D01*
X162281807Y-114700050D02*
X162342284Y-114639573D01*
X162342284Y-114639573D02*
X162402760Y-114518621D01*
X162402760Y-114518621D02*
X162402760Y-114155764D01*
X162402760Y-114155764D02*
X162342284Y-114034811D01*
X162342284Y-114034811D02*
X162281807Y-113974335D01*
X162281807Y-113974335D02*
X162160855Y-113913859D01*
X162160855Y-113913859D02*
X161979426Y-113913859D01*
X161979426Y-113913859D02*
X161858474Y-113974335D01*
X161858474Y-113974335D02*
X161797998Y-114034811D01*
X161797998Y-114034811D02*
X161737522Y-114155764D01*
X161737522Y-114155764D02*
X161737522Y-114518621D01*
X161737522Y-114518621D02*
X161797998Y-114639573D01*
X161797998Y-114639573D02*
X161858474Y-114700050D01*
X161858474Y-114700050D02*
X161979426Y-114760526D01*
X161979426Y-114760526D02*
X162160855Y-114760526D01*
X161193236Y-113913859D02*
X161193236Y-114760526D01*
X161193236Y-114034811D02*
X161132759Y-113974335D01*
X161132759Y-113974335D02*
X161011807Y-113913859D01*
X161011807Y-113913859D02*
X160830378Y-113913859D01*
X160830378Y-113913859D02*
X160709426Y-113974335D01*
X160709426Y-113974335D02*
X160648950Y-114095288D01*
X160648950Y-114095288D02*
X160648950Y-114760526D01*
X159257997Y-113490526D02*
X158532283Y-113490526D01*
X158895140Y-114760526D02*
X158895140Y-113490526D01*
X157625140Y-114700050D02*
X157746092Y-114760526D01*
X157746092Y-114760526D02*
X157987997Y-114760526D01*
X157987997Y-114760526D02*
X158108950Y-114700050D01*
X158108950Y-114700050D02*
X158169426Y-114579097D01*
X158169426Y-114579097D02*
X158169426Y-114095288D01*
X158169426Y-114095288D02*
X158108950Y-113974335D01*
X158108950Y-113974335D02*
X157987997Y-113913859D01*
X157987997Y-113913859D02*
X157746092Y-113913859D01*
X157746092Y-113913859D02*
X157625140Y-113974335D01*
X157625140Y-113974335D02*
X157564664Y-114095288D01*
X157564664Y-114095288D02*
X157564664Y-114216240D01*
X157564664Y-114216240D02*
X158169426Y-114337192D01*
X156838950Y-114760526D02*
X156959902Y-114700050D01*
X156959902Y-114700050D02*
X157020379Y-114579097D01*
X157020379Y-114579097D02*
X157020379Y-113490526D01*
X155871331Y-114700050D02*
X155992283Y-114760526D01*
X155992283Y-114760526D02*
X156234188Y-114760526D01*
X156234188Y-114760526D02*
X156355141Y-114700050D01*
X156355141Y-114700050D02*
X156415617Y-114579097D01*
X156415617Y-114579097D02*
X156415617Y-114095288D01*
X156415617Y-114095288D02*
X156355141Y-113974335D01*
X156355141Y-113974335D02*
X156234188Y-113913859D01*
X156234188Y-113913859D02*
X155992283Y-113913859D01*
X155992283Y-113913859D02*
X155871331Y-113974335D01*
X155871331Y-113974335D02*
X155810855Y-114095288D01*
X155810855Y-114095288D02*
X155810855Y-114216240D01*
X155810855Y-114216240D02*
X156415617Y-114337192D01*
X155266570Y-114760526D02*
X155266570Y-113913859D01*
X155266570Y-114034811D02*
X155206093Y-113974335D01*
X155206093Y-113974335D02*
X155085141Y-113913859D01*
X155085141Y-113913859D02*
X154903712Y-113913859D01*
X154903712Y-113913859D02*
X154782760Y-113974335D01*
X154782760Y-113974335D02*
X154722284Y-114095288D01*
X154722284Y-114095288D02*
X154722284Y-114760526D01*
X154722284Y-114095288D02*
X154661808Y-113974335D01*
X154661808Y-113974335D02*
X154540855Y-113913859D01*
X154540855Y-113913859D02*
X154359427Y-113913859D01*
X154359427Y-113913859D02*
X154238474Y-113974335D01*
X154238474Y-113974335D02*
X154177998Y-114095288D01*
X154177998Y-114095288D02*
X154177998Y-114760526D01*
X153089427Y-114700050D02*
X153210379Y-114760526D01*
X153210379Y-114760526D02*
X153452284Y-114760526D01*
X153452284Y-114760526D02*
X153573237Y-114700050D01*
X153573237Y-114700050D02*
X153633713Y-114579097D01*
X153633713Y-114579097D02*
X153633713Y-114095288D01*
X153633713Y-114095288D02*
X153573237Y-113974335D01*
X153573237Y-113974335D02*
X153452284Y-113913859D01*
X153452284Y-113913859D02*
X153210379Y-113913859D01*
X153210379Y-113913859D02*
X153089427Y-113974335D01*
X153089427Y-113974335D02*
X153028951Y-114095288D01*
X153028951Y-114095288D02*
X153028951Y-114216240D01*
X153028951Y-114216240D02*
X153633713Y-114337192D01*
X152666094Y-113913859D02*
X152182285Y-113913859D01*
X152484666Y-113490526D02*
X152484666Y-114579097D01*
X152484666Y-114579097D02*
X152424189Y-114700050D01*
X152424189Y-114700050D02*
X152303237Y-114760526D01*
X152303237Y-114760526D02*
X152182285Y-114760526D01*
X151758952Y-114760526D02*
X151758952Y-113913859D01*
X151758952Y-114155764D02*
X151698475Y-114034811D01*
X151698475Y-114034811D02*
X151637999Y-113974335D01*
X151637999Y-113974335D02*
X151517047Y-113913859D01*
X151517047Y-113913859D02*
X151396094Y-113913859D01*
X151093714Y-113913859D02*
X150791333Y-114760526D01*
X150488952Y-113913859D02*
X150791333Y-114760526D01*
X150791333Y-114760526D02*
X150912285Y-115062907D01*
X150912285Y-115062907D02*
X150972762Y-115123383D01*
X150972762Y-115123383D02*
X151093714Y-115183859D01*
X148311809Y-114760526D02*
X148735143Y-114155764D01*
X149037524Y-114760526D02*
X149037524Y-113490526D01*
X149037524Y-113490526D02*
X148553714Y-113490526D01*
X148553714Y-113490526D02*
X148432762Y-113551002D01*
X148432762Y-113551002D02*
X148372285Y-113611478D01*
X148372285Y-113611478D02*
X148311809Y-113732430D01*
X148311809Y-113732430D02*
X148311809Y-113913859D01*
X148311809Y-113913859D02*
X148372285Y-114034811D01*
X148372285Y-114034811D02*
X148432762Y-114095288D01*
X148432762Y-114095288D02*
X148553714Y-114155764D01*
X148553714Y-114155764D02*
X149037524Y-114155764D01*
X147283714Y-114700050D02*
X147404666Y-114760526D01*
X147404666Y-114760526D02*
X147646571Y-114760526D01*
X147646571Y-114760526D02*
X147767524Y-114700050D01*
X147767524Y-114700050D02*
X147828000Y-114579097D01*
X147828000Y-114579097D02*
X147828000Y-114095288D01*
X147828000Y-114095288D02*
X147767524Y-113974335D01*
X147767524Y-113974335D02*
X147646571Y-113913859D01*
X147646571Y-113913859D02*
X147404666Y-113913859D01*
X147404666Y-113913859D02*
X147283714Y-113974335D01*
X147283714Y-113974335D02*
X147223238Y-114095288D01*
X147223238Y-114095288D02*
X147223238Y-114216240D01*
X147223238Y-114216240D02*
X147828000Y-114337192D01*
X146799905Y-113913859D02*
X146497524Y-114760526D01*
X146497524Y-114760526D02*
X146195143Y-113913859D01*
X144804191Y-113611478D02*
X144743715Y-113551002D01*
X144743715Y-113551002D02*
X144622762Y-113490526D01*
X144622762Y-113490526D02*
X144320381Y-113490526D01*
X144320381Y-113490526D02*
X144199429Y-113551002D01*
X144199429Y-113551002D02*
X144138953Y-113611478D01*
X144138953Y-113611478D02*
X144078476Y-113732430D01*
X144078476Y-113732430D02*
X144078476Y-113853383D01*
X144078476Y-113853383D02*
X144138953Y-114034811D01*
X144138953Y-114034811D02*
X144864667Y-114760526D01*
X144864667Y-114760526D02*
X144078476Y-114760526D01*
X143534191Y-114639573D02*
X143473714Y-114700050D01*
X143473714Y-114700050D02*
X143534191Y-114760526D01*
X143534191Y-114760526D02*
X143594667Y-114700050D01*
X143594667Y-114700050D02*
X143534191Y-114639573D01*
X143534191Y-114639573D02*
X143534191Y-114760526D01*
X142687524Y-113490526D02*
X142566571Y-113490526D01*
X142566571Y-113490526D02*
X142445619Y-113551002D01*
X142445619Y-113551002D02*
X142385143Y-113611478D01*
X142385143Y-113611478D02*
X142324667Y-113732430D01*
X142324667Y-113732430D02*
X142264190Y-113974335D01*
X142264190Y-113974335D02*
X142264190Y-114276716D01*
X142264190Y-114276716D02*
X142324667Y-114518621D01*
X142324667Y-114518621D02*
X142385143Y-114639573D01*
X142385143Y-114639573D02*
X142445619Y-114700050D01*
X142445619Y-114700050D02*
X142566571Y-114760526D01*
X142566571Y-114760526D02*
X142687524Y-114760526D01*
X142687524Y-114760526D02*
X142808476Y-114700050D01*
X142808476Y-114700050D02*
X142868952Y-114639573D01*
X142868952Y-114639573D02*
X142929429Y-114518621D01*
X142929429Y-114518621D02*
X142989905Y-114276716D01*
X142989905Y-114276716D02*
X142989905Y-113974335D01*
X142989905Y-113974335D02*
X142929429Y-113732430D01*
X142929429Y-113732430D02*
X142868952Y-113611478D01*
X142868952Y-113611478D02*
X142808476Y-113551002D01*
X142808476Y-113551002D02*
X142687524Y-113490526D01*
D11*
%TO.C,P3*%
X215265000Y-92329000D02*
G75*
G03*
X215265000Y-92329000I-381000J0D01*
G01*
%TD*%
M02*
