%TF.GenerationSoftware,KiCad,Pcbnew,7.0.1*%
%TF.CreationDate,2023-04-09T14:50:30-07:00*%
%TF.ProjectId,Ground-Station-Telemetry,47726f75-6e64-42d5-9374-6174696f6e2d,rev?*%
%TF.SameCoordinates,Original*%
%TF.FileFunction,Copper,L4,Bot*%
%TF.FilePolarity,Positive*%
%FSLAX46Y46*%
G04 Gerber Fmt 4.6, Leading zero omitted, Abs format (unit mm)*
G04 Created by KiCad (PCBNEW 7.0.1) date 2023-04-09 14:50:30*
%MOMM*%
%LPD*%
G01*
G04 APERTURE LIST*
%TA.AperFunction,ComponentPad*%
%ADD10R,1.008000X1.008000*%
%TD*%
%TA.AperFunction,ComponentPad*%
%ADD11C,1.008000*%
%TD*%
%TA.AperFunction,ComponentPad*%
%ADD12C,1.270000*%
%TD*%
%TA.AperFunction,ComponentPad*%
%ADD13C,3.810000*%
%TD*%
%TA.AperFunction,ComponentPad*%
%ADD14C,1.066800*%
%TD*%
%TA.AperFunction,ComponentPad*%
%ADD15R,1.478000X1.478000*%
%TD*%
%TA.AperFunction,ComponentPad*%
%ADD16C,1.478000*%
%TD*%
%TA.AperFunction,ComponentPad*%
%ADD17C,3.366000*%
%TD*%
%TA.AperFunction,SMDPad,CuDef*%
%ADD18R,5.080000X2.413000*%
%TD*%
%TA.AperFunction,ViaPad*%
%ADD19C,0.500000*%
%TD*%
%TA.AperFunction,ViaPad*%
%ADD20C,1.016000*%
%TD*%
%TA.AperFunction,Conductor*%
%ADD21C,0.508000*%
%TD*%
%TA.AperFunction,Conductor*%
%ADD22C,0.200000*%
%TD*%
%TA.AperFunction,Conductor*%
%ADD23C,0.254000*%
%TD*%
%TA.AperFunction,Conductor*%
%ADD24C,0.381000*%
%TD*%
%TA.AperFunction,Conductor*%
%ADD25C,0.250000*%
%TD*%
G04 APERTURE END LIST*
D10*
%TO.P,U5,1,VCC*%
%TO.N,3.3V*%
X141237500Y-95560000D03*
D11*
%TO.P,U5,2,TX*%
%TO.N,XBEE_TX*%
X143237500Y-95560000D03*
%TO.P,U5,3,RX*%
%TO.N,XBEE_RX*%
X145237500Y-95560000D03*
%TO.P,U5,4,MISO*%
%TO.N,XBEE_MISO*%
X147237500Y-95560000D03*
%TO.P,U5,5,~{RESET}*%
%TO.N,~{XBEE_RST}*%
X149237500Y-95560000D03*
%TO.P,U5,6,PWM0*%
%TO.N,XBEE_PWM0*%
X151237500Y-95560000D03*
%TO.P,U5,7,PWM1*%
%TO.N,XBEE_PWM1*%
X153237500Y-95560000D03*
%TO.P,U5,8,NC*%
%TO.N,unconnected-(U5-NC-Pad8)*%
X155237500Y-95560000D03*
%TO.P,U5,9,DI8*%
%TO.N,XBEE_DIO8*%
X157237500Y-95560000D03*
%TO.P,U5,10,GND*%
%TO.N,Earth*%
X159237500Y-95560000D03*
%TO.P,U5,11,MOSI*%
%TO.N,XBEE_MOSI*%
X159237500Y-73560000D03*
%TO.P,U5,12,DI07*%
%TO.N,XBEE_DIO7*%
X157237500Y-73560000D03*
%TO.P,U5,13,~{SLEEP}*%
%TO.N,~{XBEE_SLEEP}*%
X155237500Y-73560000D03*
%TO.P,U5,14,VREF*%
%TO.N,unconnected-(U5-VREF-Pad14)*%
X153237500Y-73560000D03*
%TO.P,U5,15,DI05*%
%TO.N,XBEE_DIO5*%
X151237500Y-73560000D03*
%TO.P,U5,16,DIO6*%
%TO.N,XBEE_DIO6*%
X149237500Y-73560000D03*
%TO.P,U5,17,SPI_SS*%
%TO.N,XBEE_SS*%
X147237500Y-73560000D03*
%TO.P,U5,18,SCK*%
%TO.N,XBEE_SCK*%
X145237500Y-73560000D03*
%TO.P,U5,19,DIO1*%
%TO.N,XBEE_DIO1*%
X143237500Y-73560000D03*
%TO.P,U5,20,DIO0*%
%TO.N,XBEE_DIO0*%
X141237500Y-73560000D03*
%TD*%
D12*
%TO.P,P3,1*%
%TO.N,B*%
X214630000Y-86741000D03*
%TO.P,P3,2*%
%TO.N,A*%
X212090000Y-85471000D03*
%TO.P,P3,3*%
%TO.N,unconnected-(P3-Pad3)*%
X214630000Y-84201000D03*
%TO.P,P3,4*%
%TO.N,unconnected-(P3-Pad4)*%
X212090000Y-82931000D03*
%TO.P,P3,5*%
%TO.N,unconnected-(P3-Pad5)*%
X214630000Y-81661000D03*
%TO.P,P3,6*%
%TO.N,unconnected-(P3-Pad6)*%
X212090000Y-80391000D03*
%TO.P,P3,7*%
%TO.N,Z*%
X214630000Y-79121000D03*
%TO.P,P3,8*%
%TO.N,Y*%
X212090000Y-77851000D03*
D13*
%TO.P,P3,9*%
%TO.N,N/C*%
X220980000Y-88011000D03*
%TO.P,P3,10*%
X220980000Y-76581000D03*
%TD*%
D14*
%TO.P,P1,1,1*%
%TO.N,3.3V*%
X207899000Y-107303950D03*
%TO.P,P1,2,2*%
X207899000Y-108573950D03*
%TO.P,P1,3,3*%
%TO.N,Earth*%
X206629000Y-107303950D03*
%TO.P,P1,4,4*%
X206629000Y-108573950D03*
%TO.P,P1,5,5*%
X205359000Y-107303950D03*
%TO.P,P1,6,6*%
X205359000Y-108573950D03*
%TO.P,P1,7,7*%
%TO.N,SWDIO*%
X204089000Y-107303950D03*
%TO.P,P1,8,8*%
%TO.N,Earth*%
X204089000Y-108573950D03*
%TO.P,P1,9,9*%
%TO.N,SWCLK*%
X202819000Y-107303950D03*
%TO.P,P1,10,10*%
%TO.N,Earth*%
X202819000Y-108573950D03*
%TO.P,P1,11,11*%
%TO.N,unconnected-(P1-Pad11)*%
X201549000Y-107303950D03*
%TO.P,P1,12,12*%
%TO.N,Earth*%
X201549000Y-108573950D03*
%TO.P,P1,13,13*%
%TO.N,SWO*%
X200279000Y-107303950D03*
%TO.P,P1,14,14*%
%TO.N,Earth*%
X200279000Y-108573950D03*
%TO.P,P1,15,15*%
%TO.N,NRST*%
X199009000Y-107303950D03*
%TO.P,P1,16,16*%
%TO.N,Earth*%
X199009000Y-108573950D03*
%TO.P,P1,17,17*%
%TO.N,unconnected-(P1-Pad17)*%
X197739000Y-107303950D03*
%TO.P,P1,18,18*%
%TO.N,Earth*%
X197739000Y-108573950D03*
%TO.P,P1,19,19*%
%TO.N,unconnected-(P1-Pad19)*%
X196469000Y-107303950D03*
%TO.P,P1,20,20*%
%TO.N,Earth*%
X196469000Y-108573950D03*
%TD*%
D15*
%TO.P,P2,1,VCC*%
%TO.N,5V*%
X212926500Y-98953000D03*
D16*
%TO.P,P2,2,D-*%
%TO.N,/Connectivity/D-*%
X212926500Y-101453000D03*
%TO.P,P2,3,D+*%
%TO.N,/Connectivity/D+*%
X214926500Y-101453000D03*
%TO.P,P2,4,GND*%
%TO.N,Earth*%
X214926500Y-98953000D03*
D17*
%TO.P,P2,S1,SHIELD*%
X217636500Y-106223000D03*
%TO.P,P2,S2,SHIELD*%
X217636500Y-94183000D03*
%TD*%
D18*
%TO.P,AE1,2,Shield*%
%TO.N,Earth*%
X135699500Y-105105200D03*
X135699500Y-96329500D03*
%TD*%
D19*
%TO.N,Earth*%
X163830000Y-99568000D03*
X206629000Y-110617000D03*
X197739000Y-110490000D03*
X202819000Y-110363000D03*
D20*
X217678000Y-98933000D03*
D19*
%TO.N,3.3V*%
X193548000Y-85217000D03*
%TO.N,Earth*%
X195453000Y-98933000D03*
X199009000Y-101219000D03*
X197231000Y-101219000D03*
%TO.N,5V*%
X188722000Y-81153000D03*
%TO.N,RS485_RX*%
X193548000Y-86233000D03*
%TO.N,RS485_TX*%
X193548000Y-87630000D03*
%TO.N,RS485_RX*%
X194056000Y-99441000D03*
%TO.N,RS485_TX*%
X193929000Y-98298000D03*
%TO.N,3.3V*%
X194564000Y-95631000D03*
%TO.N,Y*%
X209169000Y-90678000D03*
%TO.N,Z*%
X209550000Y-86868000D03*
%TO.N,Earth*%
X210312000Y-89154000D03*
X209931000Y-83566000D03*
X192659000Y-89535000D03*
D20*
X191820800Y-74608100D03*
D19*
X186625600Y-106361600D03*
X192620000Y-90590000D03*
D20*
X192312200Y-79925500D03*
D19*
X203964000Y-102489000D03*
X171284900Y-98513900D03*
X200152000Y-96520000D03*
X187579000Y-84836000D03*
D20*
X199136000Y-76581000D03*
X132080000Y-100736400D03*
X142443200Y-100939600D03*
X157388800Y-112918000D03*
D19*
X186563000Y-86106000D03*
X177228500Y-87566500D03*
X168402000Y-94107000D03*
X178562000Y-76327000D03*
X173648000Y-108419000D03*
X189992000Y-84455000D03*
%TO.N,NRST*%
X171652999Y-105715001D03*
D20*
%TO.N,5V*%
X200406000Y-79883000D03*
D19*
%TO.N,3.3V*%
X170929300Y-99936300D03*
X190246000Y-80391000D03*
X186374600Y-90841000D03*
X174377800Y-95841000D03*
X173532800Y-88595200D03*
X191389000Y-83947000D03*
D20*
X192887600Y-77554500D03*
D19*
X181813200Y-110337600D03*
X187274200Y-104521000D03*
D20*
X147640800Y-106918000D03*
D19*
X175040000Y-103344000D03*
X214630000Y-112522000D03*
%TO.N,SWDIO*%
X192379600Y-93827600D03*
%TO.N,SWCLK*%
X188010800Y-89509600D03*
%TO.N,SWO*%
X180086000Y-91135200D03*
%TO.N,XBEE_TX*%
X163271200Y-102362000D03*
%TO.N,XBEE_PWM0*%
X177850800Y-101650800D03*
%TO.N,XBEE_PWM1*%
X177596800Y-100482400D03*
%TO.N,XBEE_SS*%
X179527200Y-82854800D03*
%TO.N,LORA_SCK*%
X183134000Y-102108000D03*
X167182800Y-104495600D03*
%TO.N,LORA_MISO*%
X168452800Y-105359200D03*
X184708800Y-102311200D03*
%TO.N,LORA_MOSI*%
X184708800Y-101396800D03*
X169113200Y-104648000D03*
%TO.N,XBEE_DIO1*%
X170891200Y-83718400D03*
%TO.N,XBEE_DIO5*%
X180340000Y-81330800D03*
%TO.N,XBEE_DIO6*%
X179832000Y-82143600D03*
%TO.N,XBEE_DIO7*%
X182626000Y-81381600D03*
%TO.N,~{XBEE_SLEEP}*%
X180949600Y-80568800D03*
%TO.N,USB_RX*%
X189992000Y-95402400D03*
X192786000Y-103759000D03*
%TO.N,USB_TX*%
X194564000Y-105537000D03*
X190500000Y-94742000D03*
%TO.N,LORA_IO5*%
X168148000Y-97790000D03*
X166014400Y-99923600D03*
%TO.N,XBEE_DIO0*%
X171399200Y-85140800D03*
%TD*%
D21*
%TO.N,5V*%
X200406000Y-91567000D02*
X200406000Y-81026000D01*
X200406000Y-81026000D02*
X200406000Y-79883000D01*
D22*
X188722000Y-81153000D02*
X200279000Y-81153000D01*
X200279000Y-81153000D02*
X200406000Y-81026000D01*
%TO.N,RS485_RX*%
X195114000Y-98383000D02*
X195114000Y-87799000D01*
X194056000Y-99441000D02*
X195114000Y-98383000D01*
X195114000Y-87799000D02*
X193548000Y-86233000D01*
%TO.N,RS485_TX*%
X193929000Y-98298000D02*
X193929000Y-88011000D01*
X193929000Y-88011000D02*
X193548000Y-87630000D01*
D21*
%TO.N,5V*%
X212926500Y-98953000D02*
X207792000Y-98953000D01*
X207792000Y-98953000D02*
X200406000Y-91567000D01*
D23*
%TO.N,Z*%
X213360000Y-83312000D02*
X213360000Y-80391000D01*
X213360000Y-80391000D02*
X214630000Y-79121000D01*
X209550000Y-86868000D02*
X209550000Y-86233000D01*
X211582000Y-84201000D02*
X212471000Y-84201000D01*
X209550000Y-86233000D02*
X211582000Y-84201000D01*
X212471000Y-84201000D02*
X213360000Y-83312000D01*
%TO.N,Y*%
X208973000Y-90482000D02*
X208973000Y-80968000D01*
X209169000Y-90678000D02*
X208973000Y-90482000D01*
X208973000Y-80968000D02*
X212217000Y-77724000D01*
D24*
%TO.N,Earth*%
X134366000Y-104749600D02*
X134518400Y-104749600D01*
X131978400Y-98806000D02*
X134454900Y-96329500D01*
X131978400Y-102666800D02*
X131978400Y-98806000D01*
X134416800Y-105105200D02*
X131978400Y-102666800D01*
X135699500Y-105105200D02*
X134416800Y-105105200D01*
X134454900Y-96329500D02*
X135699500Y-96329500D01*
D25*
%TO.N,NRST*%
X192353999Y-106299000D02*
X191770000Y-105715001D01*
X198004050Y-106299000D02*
X192353999Y-106299000D01*
D22*
X171652999Y-105715001D02*
X191770000Y-105715001D01*
D25*
X199009000Y-107303950D02*
X198004050Y-106299000D01*
D22*
%TO.N,SWDIO*%
X204063600Y-106629200D02*
X204063600Y-107238800D01*
X192379600Y-93827600D02*
X193243200Y-94691200D01*
X195834000Y-102565200D02*
X199999600Y-102565200D01*
X193243200Y-99974400D02*
X195834000Y-102565200D01*
X193243200Y-94691200D02*
X193243200Y-99974400D01*
X199999600Y-102565200D02*
X204063600Y-106629200D01*
%TO.N,SWCLK*%
X188976000Y-91338400D02*
X192735200Y-95097600D01*
X202793600Y-106019600D02*
X202793600Y-107340400D01*
X197358000Y-103073200D02*
X199847200Y-103073200D01*
X199847200Y-103073200D02*
X202793600Y-106019600D01*
X188010800Y-89509600D02*
X188976000Y-90474800D01*
X192735200Y-95097600D02*
X192735200Y-100279200D01*
X188976000Y-90474800D02*
X188976000Y-91338400D01*
X195529200Y-103073200D02*
X197358000Y-103073200D01*
X192735200Y-100279200D02*
X195529200Y-103073200D01*
%TO.N,SWO*%
X192227200Y-100336885D02*
X192227200Y-95155286D01*
X200279000Y-107303950D02*
X200279000Y-104470200D01*
X195363514Y-103473200D02*
X192227200Y-100336885D01*
X188867514Y-91795600D02*
X180746400Y-91795600D01*
X180746400Y-91795600D02*
X180086000Y-91135200D01*
X199282000Y-103473200D02*
X195363514Y-103473200D01*
X192227200Y-95155286D02*
X188867514Y-91795600D01*
X200279000Y-104470200D02*
X199282000Y-103473200D01*
%TO.N,XBEE_TX*%
X163271200Y-102362000D02*
X150063200Y-102362000D01*
X150063200Y-102362000D02*
X143306800Y-95605600D01*
%TO.N,XBEE_PWM0*%
X177850800Y-101650800D02*
X157327600Y-101650800D01*
X157327600Y-101650800D02*
X151180800Y-95504000D01*
%TO.N,XBEE_PWM1*%
X177139600Y-100939600D02*
X177596800Y-100482400D01*
X153237500Y-95560000D02*
X158617100Y-100939600D01*
X158617100Y-100939600D02*
X177139600Y-100939600D01*
%TO.N,XBEE_SS*%
X163365914Y-76758800D02*
X169461914Y-82854800D01*
X169461914Y-82854800D02*
X179527200Y-82854800D01*
X150436300Y-76758800D02*
X163365914Y-76758800D01*
X147237500Y-73560000D02*
X150436300Y-76758800D01*
%TO.N,LORA_SCK*%
X183134000Y-102108000D02*
X178171418Y-102108000D01*
X178171418Y-102108000D02*
X178003200Y-102276218D01*
X169402182Y-102276218D02*
X167182800Y-104495600D01*
X178003200Y-102276218D02*
X169402182Y-102276218D01*
%TO.N,LORA_MISO*%
X171196000Y-104190800D02*
X182829200Y-104190800D01*
X168452800Y-105359200D02*
X170027600Y-105359200D01*
X182829200Y-104190800D02*
X184708800Y-102311200D01*
X170027600Y-105359200D02*
X171196000Y-104190800D01*
%TO.N,LORA_MOSI*%
X183515000Y-102590600D02*
X183743600Y-102362000D01*
X169113200Y-104648000D02*
X169926000Y-104648000D01*
X169926000Y-104648000D02*
X171897782Y-102676218D01*
X171897782Y-102676218D02*
X183429382Y-102676218D01*
X183743600Y-102362000D02*
X183870600Y-102235000D01*
X183870600Y-102235000D02*
X184708800Y-101396800D01*
X183429382Y-102676218D02*
X183743600Y-102362000D01*
%TO.N,XBEE_DIO1*%
X169316400Y-83718400D02*
X170891200Y-83718400D01*
X147960300Y-78282800D02*
X163880800Y-78282800D01*
X143237500Y-73560000D02*
X147960300Y-78282800D01*
X163880800Y-78282800D02*
X169316400Y-83718400D01*
%TO.N,XBEE_DIO5*%
X153267900Y-75590400D02*
X163474400Y-75590400D01*
X169214800Y-81330800D02*
X180340000Y-81330800D01*
X151237500Y-73560000D02*
X153267900Y-75590400D01*
X163474400Y-75590400D02*
X169214800Y-81330800D01*
%TO.N,XBEE_DIO6*%
X149237500Y-73560000D02*
X152029900Y-76352400D01*
X169316400Y-82143600D02*
X179832000Y-82143600D01*
X152029900Y-76352400D02*
X163525200Y-76352400D01*
X163525200Y-76352400D02*
X169316400Y-82143600D01*
%TO.N,XBEE_DIO7*%
X181102000Y-79857600D02*
X182626000Y-81381600D01*
X157237500Y-73560000D02*
X158404300Y-74726800D01*
X163830000Y-74726800D02*
X168960800Y-79857600D01*
X158404300Y-74726800D02*
X163830000Y-74726800D01*
X168960800Y-79857600D02*
X181102000Y-79857600D01*
%TO.N,~{XBEE_SLEEP}*%
X155237500Y-73560000D02*
X156861500Y-75184000D01*
X156861500Y-75184000D02*
X163677600Y-75184000D01*
X169062400Y-80568800D02*
X180949600Y-80568800D01*
X163677600Y-75184000D02*
X169062400Y-80568800D01*
%TO.N,USB_RX*%
X191008000Y-101981000D02*
X192786000Y-103759000D01*
X191008000Y-96926400D02*
X191008000Y-101981000D01*
X189992000Y-95402400D02*
X189992000Y-95910400D01*
X189992000Y-95910400D02*
X191008000Y-96926400D01*
%TO.N,USB_TX*%
X191566800Y-100634800D02*
X194564000Y-103632000D01*
X191566800Y-95808800D02*
X191566800Y-100634800D01*
X190500000Y-94742000D02*
X191566800Y-95808800D01*
X194564000Y-104902000D02*
X194564000Y-105537000D01*
X194564000Y-103632000D02*
X194564000Y-104902000D01*
%TO.N,LORA_IO5*%
X168148000Y-97790000D02*
X166014400Y-99923600D01*
%TO.N,XBEE_DIO0*%
X169976800Y-85140800D02*
X171399200Y-85140800D01*
X147484300Y-79806800D02*
X164642800Y-79806800D01*
X164642800Y-79806800D02*
X169976800Y-85140800D01*
X141237500Y-73560000D02*
X147484300Y-79806800D01*
%TD*%
%TA.AperFunction,Conductor*%
%TO.N,Earth*%
G36*
X210761264Y-80415140D02*
G01*
X210857062Y-80474019D01*
X210931435Y-80558356D01*
X210977870Y-80660766D01*
X211019150Y-80805851D01*
X211113609Y-80995551D01*
X211113610Y-80995552D01*
X211113611Y-80995554D01*
X211155040Y-81050415D01*
X211232508Y-81152999D01*
X211241323Y-81164671D01*
X211397935Y-81307442D01*
X211447157Y-81337919D01*
X211531289Y-81408726D01*
X211591625Y-81500658D01*
X211623111Y-81606018D01*
X211623111Y-81715982D01*
X211591625Y-81821342D01*
X211531289Y-81913274D01*
X211447157Y-81984080D01*
X211415594Y-82003623D01*
X211397933Y-82014559D01*
X211241322Y-82157329D01*
X211113609Y-82326448D01*
X211019150Y-82516148D01*
X210961155Y-82719981D01*
X210941601Y-82930999D01*
X210961155Y-83142018D01*
X211014840Y-83330705D01*
X211019150Y-83345850D01*
X211069892Y-83447755D01*
X211105454Y-83560291D01*
X211104773Y-83678312D01*
X211067913Y-83790432D01*
X210998431Y-83885834D01*
X210257201Y-84627065D01*
X210167631Y-84693495D01*
X210062635Y-84731063D01*
X209951254Y-84736535D01*
X209843080Y-84709439D01*
X209747431Y-84652109D01*
X209672542Y-84569482D01*
X209624863Y-84468673D01*
X209608500Y-84358365D01*
X209608500Y-81388634D01*
X209621448Y-81290283D01*
X209659410Y-81198634D01*
X209719799Y-81119934D01*
X210343675Y-80496057D01*
X210434075Y-80429185D01*
X210540087Y-80391696D01*
X210652429Y-80386874D01*
X210761264Y-80415140D01*
G37*
%TD.AperFunction*%
%TA.AperFunction,Conductor*%
G36*
X140308716Y-72283099D02*
G01*
X140416753Y-72339876D01*
X140501219Y-72427972D01*
X140553401Y-72538302D01*
X140567917Y-72659483D01*
X140543268Y-72779015D01*
X140481998Y-72884568D01*
X140391566Y-72994760D01*
X140297544Y-73170662D01*
X140239649Y-73361513D01*
X140220100Y-73560000D01*
X140239649Y-73758486D01*
X140297544Y-73949337D01*
X140297546Y-73949342D01*
X140391564Y-74125237D01*
X140417227Y-74156508D01*
X140518089Y-74279410D01*
X140594762Y-74342333D01*
X140672263Y-74405936D01*
X140848158Y-74499954D01*
X140926975Y-74523863D01*
X141039014Y-74557850D01*
X141274747Y-74581068D01*
X141274405Y-74584534D01*
X141312644Y-74586392D01*
X141417729Y-74623953D01*
X141507372Y-74690421D01*
X147008217Y-80191266D01*
X147040988Y-80228635D01*
X147050313Y-80240787D01*
X147062467Y-80250113D01*
X147062470Y-80250116D01*
X147124237Y-80297512D01*
X147159694Y-80324719D01*
X147177425Y-80338324D01*
X147325450Y-80399638D01*
X147444415Y-80415300D01*
X147444422Y-80415300D01*
X147484300Y-80420550D01*
X147499486Y-80418550D01*
X147549083Y-80415300D01*
X164233349Y-80415300D01*
X164331700Y-80428248D01*
X164423349Y-80466210D01*
X164502050Y-80526599D01*
X169500717Y-85525266D01*
X169533488Y-85562635D01*
X169542812Y-85574786D01*
X169554967Y-85584113D01*
X169554969Y-85584115D01*
X169561062Y-85588790D01*
X169574725Y-85599274D01*
X169574728Y-85599277D01*
X169669924Y-85672324D01*
X169817949Y-85733638D01*
X169821181Y-85734063D01*
X169837338Y-85736191D01*
X169837343Y-85736191D01*
X169936915Y-85749300D01*
X169936920Y-85749300D01*
X169976800Y-85754550D01*
X169991987Y-85752550D01*
X170041583Y-85749300D01*
X170832481Y-85749300D01*
X170937678Y-85764151D01*
X171034650Y-85807543D01*
X171068017Y-85828509D01*
X171229350Y-85884962D01*
X171399200Y-85904099D01*
X171569050Y-85884962D01*
X171730383Y-85828509D01*
X171875109Y-85737571D01*
X171995971Y-85616709D01*
X172086909Y-85471983D01*
X172143362Y-85310650D01*
X172162499Y-85140800D01*
X172143362Y-84970950D01*
X172086909Y-84809617D01*
X171995971Y-84664891D01*
X171875109Y-84544029D01*
X171874702Y-84543773D01*
X171747054Y-84463566D01*
X171668742Y-84398185D01*
X171610645Y-84314327D01*
X171576951Y-84218034D01*
X171570089Y-84116248D01*
X171590551Y-84016309D01*
X171614804Y-83947000D01*
X190625701Y-83947000D01*
X190644838Y-84116852D01*
X190701291Y-84278184D01*
X190792226Y-84422905D01*
X190792229Y-84422909D01*
X190913091Y-84543771D01*
X190913093Y-84543772D01*
X190913094Y-84543773D01*
X191045651Y-84627065D01*
X191057817Y-84634709D01*
X191219150Y-84691162D01*
X191389000Y-84710299D01*
X191558850Y-84691162D01*
X191720183Y-84634709D01*
X191864909Y-84543771D01*
X191985771Y-84422909D01*
X192076709Y-84278183D01*
X192133162Y-84116850D01*
X192152299Y-83947000D01*
X192133162Y-83777150D01*
X192076709Y-83615817D01*
X192064537Y-83596446D01*
X191985773Y-83471094D01*
X191985772Y-83471093D01*
X191985771Y-83471091D01*
X191864909Y-83350229D01*
X191864906Y-83350227D01*
X191864905Y-83350226D01*
X191720184Y-83259291D01*
X191558852Y-83202838D01*
X191389000Y-83183701D01*
X191219147Y-83202838D01*
X191057815Y-83259291D01*
X190913094Y-83350226D01*
X190792226Y-83471094D01*
X190701291Y-83615815D01*
X190644838Y-83777147D01*
X190625701Y-83947000D01*
X171614804Y-83947000D01*
X171635362Y-83888250D01*
X171645220Y-83800752D01*
X171673410Y-83693951D01*
X171731126Y-83599768D01*
X171813490Y-83526162D01*
X171913543Y-83479355D01*
X172022831Y-83463300D01*
X178960481Y-83463300D01*
X179065678Y-83478151D01*
X179162650Y-83521543D01*
X179196017Y-83542509D01*
X179357350Y-83598962D01*
X179527200Y-83618099D01*
X179697050Y-83598962D01*
X179858383Y-83542509D01*
X180003109Y-83451571D01*
X180123971Y-83330709D01*
X180214909Y-83185983D01*
X180271362Y-83024650D01*
X180287931Y-82877589D01*
X180306865Y-82794634D01*
X180343786Y-82717966D01*
X180396839Y-82651440D01*
X180428771Y-82619509D01*
X180432808Y-82613085D01*
X180455204Y-82577442D01*
X180519709Y-82474783D01*
X180576162Y-82313450D01*
X180584196Y-82242138D01*
X180613513Y-82132727D01*
X180673777Y-82036816D01*
X180759628Y-81962934D01*
X180815909Y-81927571D01*
X180936771Y-81806709D01*
X181027709Y-81661983D01*
X181084162Y-81500650D01*
X181084162Y-81500645D01*
X181091877Y-81478599D01*
X181142412Y-81381733D01*
X181218419Y-81303249D01*
X181313615Y-81249635D01*
X181420131Y-81225324D01*
X181529162Y-81232324D01*
X181631695Y-81270057D01*
X181719254Y-81335403D01*
X181791732Y-81407881D01*
X181844786Y-81474409D01*
X181881706Y-81551075D01*
X181938291Y-81712783D01*
X182018672Y-81840709D01*
X182029229Y-81857509D01*
X182150091Y-81978371D01*
X182150093Y-81978372D01*
X182150094Y-81978373D01*
X182262175Y-82048799D01*
X182294817Y-82069309D01*
X182456150Y-82125762D01*
X182626000Y-82144899D01*
X182795850Y-82125762D01*
X182957183Y-82069309D01*
X183101909Y-81978371D01*
X183222771Y-81857509D01*
X183313709Y-81712783D01*
X183370162Y-81551450D01*
X183389299Y-81381600D01*
X183370162Y-81211750D01*
X183349604Y-81152999D01*
X187958701Y-81152999D01*
X187977838Y-81322852D01*
X188034291Y-81484184D01*
X188125226Y-81628905D01*
X188125229Y-81628909D01*
X188246091Y-81749771D01*
X188246093Y-81749772D01*
X188246094Y-81749773D01*
X188380257Y-81834074D01*
X188390817Y-81840709D01*
X188552150Y-81897162D01*
X188722000Y-81916299D01*
X188891850Y-81897162D01*
X189053183Y-81840709D01*
X189086549Y-81819743D01*
X189183522Y-81776351D01*
X189288719Y-81761500D01*
X199263500Y-81761500D01*
X199380926Y-81780099D01*
X199486858Y-81834074D01*
X199570926Y-81918142D01*
X199624901Y-82024074D01*
X199643500Y-82141500D01*
X199643500Y-91483767D01*
X199639488Y-91538839D01*
X199638633Y-91544670D01*
X199642054Y-91583763D01*
X199643118Y-91608149D01*
X199646728Y-91639041D01*
X199647848Y-91650012D01*
X199655150Y-91733461D01*
X199683811Y-91812209D01*
X199687438Y-91822643D01*
X199713776Y-91902127D01*
X199719965Y-91911537D01*
X199719966Y-91911539D01*
X199758065Y-91969466D01*
X199759800Y-91972103D01*
X199765738Y-91981423D01*
X199809724Y-92052733D01*
X199817913Y-92060459D01*
X199817915Y-92060462D01*
X199870652Y-92110217D01*
X199878580Y-92117917D01*
X207193979Y-99433317D01*
X207230080Y-99475091D01*
X207233602Y-99479822D01*
X207233603Y-99479823D01*
X207263656Y-99505040D01*
X207281664Y-99521541D01*
X207306054Y-99540826D01*
X207314620Y-99547804D01*
X207370147Y-99594396D01*
X207370148Y-99594396D01*
X207378775Y-99601635D01*
X207388976Y-99606391D01*
X207388980Y-99606395D01*
X207454723Y-99637051D01*
X207464646Y-99641855D01*
X207529434Y-99674394D01*
X207529437Y-99674394D01*
X207539495Y-99679446D01*
X207550520Y-99681722D01*
X207550526Y-99681725D01*
X207621578Y-99696395D01*
X207632260Y-99698763D01*
X207702877Y-99715500D01*
X207702881Y-99715500D01*
X207713835Y-99718096D01*
X207725089Y-99717768D01*
X207725091Y-99717769D01*
X207795013Y-99715734D01*
X207797543Y-99715661D01*
X207808595Y-99715500D01*
X211389708Y-99715500D01*
X211503256Y-99732861D01*
X211606429Y-99783359D01*
X211689798Y-99862378D01*
X211718866Y-99914499D01*
X211824237Y-100055259D01*
X211824238Y-100055259D01*
X211824239Y-100055261D01*
X211892219Y-100106150D01*
X211895672Y-100108735D01*
X211977135Y-100192028D01*
X212029533Y-100296088D01*
X212047942Y-100411132D01*
X212030630Y-100526345D01*
X211979224Y-100630899D01*
X211842008Y-100826864D01*
X211749756Y-101024699D01*
X211693260Y-101235545D01*
X211674234Y-101452999D01*
X211690788Y-101642201D01*
X211693260Y-101670454D01*
X211731040Y-101811452D01*
X211749757Y-101881302D01*
X211842007Y-102079135D01*
X211967203Y-102257933D01*
X211967206Y-102257936D01*
X211967209Y-102257940D01*
X212121560Y-102412291D01*
X212121563Y-102412293D01*
X212121566Y-102412296D01*
X212300364Y-102537492D01*
X212379284Y-102574292D01*
X212498200Y-102629744D01*
X212709046Y-102686240D01*
X212926500Y-102705265D01*
X213143954Y-102686240D01*
X213354800Y-102629744D01*
X213552633Y-102537493D01*
X213708546Y-102428321D01*
X213812231Y-102377190D01*
X213926500Y-102359602D01*
X214040769Y-102377190D01*
X214144453Y-102428321D01*
X214300367Y-102537493D01*
X214498200Y-102629744D01*
X214709046Y-102686240D01*
X214926500Y-102705265D01*
X215143954Y-102686240D01*
X215354800Y-102629744D01*
X215552633Y-102537493D01*
X215552633Y-102537492D01*
X215552635Y-102537492D01*
X215731433Y-102412296D01*
X215731433Y-102412295D01*
X215731440Y-102412291D01*
X215885791Y-102257940D01*
X215885796Y-102257933D01*
X216010992Y-102079135D01*
X216038154Y-102020885D01*
X216103244Y-101881300D01*
X216159740Y-101670454D01*
X216178765Y-101453000D01*
X216159740Y-101235546D01*
X216103244Y-101024700D01*
X216010993Y-100826868D01*
X215885791Y-100648060D01*
X215731440Y-100493709D01*
X215731436Y-100493706D01*
X215709077Y-100471347D01*
X215639195Y-100375162D01*
X215602456Y-100262091D01*
X215602457Y-100143200D01*
X215639196Y-100030129D01*
X215709078Y-99933945D01*
X215885405Y-99757618D01*
X216010558Y-99578882D01*
X216102770Y-99381129D01*
X216159245Y-99170364D01*
X216178263Y-98952999D01*
X216159245Y-98735635D01*
X216102770Y-98524867D01*
X216010560Y-98327121D01*
X215885407Y-98148384D01*
X215731115Y-97994092D01*
X215552382Y-97868941D01*
X215354629Y-97776729D01*
X215143864Y-97720254D01*
X214926500Y-97701236D01*
X214709135Y-97720254D01*
X214498370Y-97776729D01*
X214354279Y-97843919D01*
X214256700Y-97874260D01*
X214154564Y-97877502D01*
X214055258Y-97853410D01*
X213965961Y-97803727D01*
X213911703Y-97763110D01*
X213774702Y-97712011D01*
X213744419Y-97708755D01*
X213714138Y-97705500D01*
X212138862Y-97705500D01*
X212118674Y-97707670D01*
X212078297Y-97712011D01*
X211941296Y-97763110D01*
X211824238Y-97850738D01*
X211718866Y-97991500D01*
X211689798Y-98043622D01*
X211606429Y-98122641D01*
X211503256Y-98173139D01*
X211389708Y-98190500D01*
X208265240Y-98190500D01*
X208166889Y-98177552D01*
X208075240Y-98139590D01*
X207996539Y-98079201D01*
X204100338Y-94183000D01*
X215440379Y-94183000D01*
X215460835Y-94482039D01*
X215521817Y-94775506D01*
X215622193Y-95057936D01*
X215760091Y-95324068D01*
X215932943Y-95568943D01*
X216137530Y-95788002D01*
X216370044Y-95977166D01*
X216626140Y-96132901D01*
X216901061Y-96252317D01*
X217189684Y-96333185D01*
X217486634Y-96374000D01*
X217786366Y-96374000D01*
X218083315Y-96333185D01*
X218371938Y-96252317D01*
X218646859Y-96132901D01*
X218902955Y-95977166D01*
X219135469Y-95788002D01*
X219340056Y-95568943D01*
X219512908Y-95324068D01*
X219650806Y-95057936D01*
X219751182Y-94775506D01*
X219812164Y-94482039D01*
X219832620Y-94183000D01*
X219812164Y-93883960D01*
X219751182Y-93590493D01*
X219650806Y-93308063D01*
X219512908Y-93041931D01*
X219340056Y-92797056D01*
X219135469Y-92577997D01*
X218902955Y-92388833D01*
X218646859Y-92233098D01*
X218371938Y-92113682D01*
X218083315Y-92032814D01*
X217786366Y-91992000D01*
X217486634Y-91992000D01*
X217189684Y-92032814D01*
X216901061Y-92113682D01*
X216626140Y-92233098D01*
X216370044Y-92388833D01*
X216137530Y-92577997D01*
X215932943Y-92797056D01*
X215760091Y-93041931D01*
X215622193Y-93308063D01*
X215521817Y-93590493D01*
X215460835Y-93883960D01*
X215440379Y-94183000D01*
X204100338Y-94183000D01*
X201279799Y-91362461D01*
X201219410Y-91283760D01*
X201181448Y-91192111D01*
X201168500Y-91093760D01*
X201168500Y-80947878D01*
X208332764Y-80947878D01*
X208335813Y-80980123D01*
X208337500Y-81015885D01*
X208337500Y-90369890D01*
X208334513Y-90396937D01*
X208337313Y-90486035D01*
X208337500Y-90497968D01*
X208337500Y-90526719D01*
X208339316Y-90549812D01*
X208340334Y-90582205D01*
X208340437Y-90582558D01*
X208352525Y-90640925D01*
X208352572Y-90641297D01*
X208364498Y-90671420D01*
X208376090Y-90705278D01*
X208388257Y-90747157D01*
X208410501Y-90795836D01*
X208417140Y-90825853D01*
X208481291Y-91009184D01*
X208553585Y-91124238D01*
X208572229Y-91153909D01*
X208693091Y-91274771D01*
X208693093Y-91274772D01*
X208693094Y-91274773D01*
X208832647Y-91362461D01*
X208837817Y-91365709D01*
X208999150Y-91422162D01*
X209169000Y-91441299D01*
X209338850Y-91422162D01*
X209500183Y-91365709D01*
X209644909Y-91274771D01*
X209765771Y-91153909D01*
X209856709Y-91009183D01*
X209913162Y-90847850D01*
X209932299Y-90678000D01*
X209913162Y-90508150D01*
X209856709Y-90346817D01*
X209854855Y-90343867D01*
X209765773Y-90202094D01*
X209765772Y-90202093D01*
X209765771Y-90202091D01*
X209719795Y-90156115D01*
X209659410Y-90077419D01*
X209621448Y-89985770D01*
X209608500Y-89887419D01*
X209608500Y-88011000D01*
X218561728Y-88011000D01*
X218580796Y-88314090D01*
X218634421Y-88595200D01*
X218637702Y-88612400D01*
X218731548Y-88901225D01*
X218860852Y-89176011D01*
X219023577Y-89432425D01*
X219217156Y-89666421D01*
X219438535Y-89874311D01*
X219684225Y-90052815D01*
X219950350Y-90199118D01*
X219950352Y-90199119D01*
X219970227Y-90206988D01*
X220232713Y-90310913D01*
X220526861Y-90386438D01*
X220828155Y-90424500D01*
X221131842Y-90424500D01*
X221131845Y-90424500D01*
X221433139Y-90386438D01*
X221727287Y-90310913D01*
X222009650Y-90199118D01*
X222275775Y-90052815D01*
X222521465Y-89874311D01*
X222742844Y-89666421D01*
X222936423Y-89432425D01*
X223099148Y-89176011D01*
X223228452Y-88901225D01*
X223322298Y-88612400D01*
X223379203Y-88314090D01*
X223398272Y-88011000D01*
X223379203Y-87707910D01*
X223369575Y-87657440D01*
X223338040Y-87492125D01*
X223322298Y-87409600D01*
X223228452Y-87120775D01*
X223099148Y-86845989D01*
X222936423Y-86589575D01*
X222742844Y-86355579D01*
X222521465Y-86147689D01*
X222275775Y-85969185D01*
X222113303Y-85879865D01*
X222009647Y-85822880D01*
X221727285Y-85711086D01*
X221433144Y-85635563D01*
X221433141Y-85635562D01*
X221433139Y-85635562D01*
X221131845Y-85597500D01*
X220828155Y-85597500D01*
X220526861Y-85635562D01*
X220526859Y-85635562D01*
X220526855Y-85635563D01*
X220232714Y-85711086D01*
X219950352Y-85822880D01*
X219684225Y-85969185D01*
X219438533Y-86147690D01*
X219217155Y-86355579D01*
X219023578Y-86589573D01*
X219023577Y-86589575D01*
X218860852Y-86845989D01*
X218731548Y-87120775D01*
X218706071Y-87199184D01*
X218637701Y-87409603D01*
X218580796Y-87707909D01*
X218561728Y-88011000D01*
X209608500Y-88011000D01*
X209608500Y-87920749D01*
X209626445Y-87805352D01*
X209678587Y-87700854D01*
X209760000Y-87617125D01*
X209862990Y-87562074D01*
X209881183Y-87555709D01*
X210025909Y-87464771D01*
X210146771Y-87343909D01*
X210237709Y-87199183D01*
X210294162Y-87037850D01*
X210313299Y-86868000D01*
X210294162Y-86698150D01*
X210292516Y-86693445D01*
X210271790Y-86589246D01*
X210280719Y-86483382D01*
X210318607Y-86384127D01*
X210382487Y-86299243D01*
X210586504Y-86095226D01*
X210672854Y-86030540D01*
X210773907Y-85992728D01*
X210881514Y-85984842D01*
X210986999Y-86007518D01*
X211081860Y-86058928D01*
X211158447Y-86134927D01*
X211232509Y-86233000D01*
X211241323Y-86244671D01*
X211397935Y-86387442D01*
X211578115Y-86499005D01*
X211775726Y-86575560D01*
X211984039Y-86614500D01*
X212195961Y-86614500D01*
X212404274Y-86575560D01*
X212601885Y-86499005D01*
X212782065Y-86387442D01*
X212857044Y-86319088D01*
X212951566Y-86255931D01*
X213060544Y-86223558D01*
X213174222Y-86224871D01*
X213282425Y-86259751D01*
X213375467Y-86325077D01*
X213445022Y-86415003D01*
X213484863Y-86521479D01*
X213491425Y-86634975D01*
X213481600Y-86740998D01*
X213501155Y-86952018D01*
X213559150Y-87155851D01*
X213653609Y-87345551D01*
X213743641Y-87464773D01*
X213781323Y-87514671D01*
X213937935Y-87657442D01*
X214118115Y-87769005D01*
X214315726Y-87845560D01*
X214524039Y-87884500D01*
X214735961Y-87884500D01*
X214944274Y-87845560D01*
X215141885Y-87769005D01*
X215322065Y-87657442D01*
X215478677Y-87514671D01*
X215606389Y-87345554D01*
X215700850Y-87155850D01*
X215758845Y-86952018D01*
X215778399Y-86741000D01*
X215758845Y-86529982D01*
X215700850Y-86326150D01*
X215606389Y-86136446D01*
X215478677Y-85967329D01*
X215322065Y-85824558D01*
X215322064Y-85824557D01*
X215272842Y-85794080D01*
X215188709Y-85723272D01*
X215128373Y-85631338D01*
X215096887Y-85525978D01*
X215096888Y-85416013D01*
X215128376Y-85310653D01*
X215188714Y-85218721D01*
X215272839Y-85147921D01*
X215322065Y-85117442D01*
X215478677Y-84974671D01*
X215606389Y-84805554D01*
X215700850Y-84615850D01*
X215758845Y-84412018D01*
X215778399Y-84201000D01*
X215758845Y-83989982D01*
X215700850Y-83786150D01*
X215606389Y-83596446D01*
X215478677Y-83427329D01*
X215322065Y-83284558D01*
X215322064Y-83284557D01*
X215272842Y-83254080D01*
X215188709Y-83183272D01*
X215128373Y-83091338D01*
X215096887Y-82985978D01*
X215096888Y-82876013D01*
X215128376Y-82770653D01*
X215188714Y-82678721D01*
X215272839Y-82607921D01*
X215322065Y-82577442D01*
X215478677Y-82434671D01*
X215606389Y-82265554D01*
X215700850Y-82075850D01*
X215758845Y-81872018D01*
X215778399Y-81661000D01*
X215758845Y-81449982D01*
X215700850Y-81246150D01*
X215606389Y-81056446D01*
X215478677Y-80887329D01*
X215322065Y-80744558D01*
X215322064Y-80744557D01*
X215272842Y-80714080D01*
X215188709Y-80643272D01*
X215128373Y-80551338D01*
X215096887Y-80445978D01*
X215096888Y-80336013D01*
X215128376Y-80230653D01*
X215188714Y-80138721D01*
X215272839Y-80067921D01*
X215322065Y-80037442D01*
X215478677Y-79894671D01*
X215606389Y-79725554D01*
X215700850Y-79535850D01*
X215758845Y-79332018D01*
X215778399Y-79121000D01*
X215758845Y-78909982D01*
X215700850Y-78706150D01*
X215606389Y-78516446D01*
X215478677Y-78347329D01*
X215322065Y-78204558D01*
X215141885Y-78092995D01*
X215083863Y-78070517D01*
X214944273Y-78016439D01*
X214735961Y-77977500D01*
X214524039Y-77977500D01*
X214315726Y-78016439D01*
X214118117Y-78092994D01*
X214118116Y-78092994D01*
X214118115Y-78092995D01*
X213989618Y-78172556D01*
X213937930Y-78204561D01*
X213862956Y-78272909D01*
X213768430Y-78336069D01*
X213659451Y-78368441D01*
X213545773Y-78367128D01*
X213437571Y-78332246D01*
X213344529Y-78266919D01*
X213274976Y-78176993D01*
X213235135Y-78070517D01*
X213228574Y-77957022D01*
X213238399Y-77851000D01*
X213218845Y-77639982D01*
X213160850Y-77436150D01*
X213066389Y-77246446D01*
X212938677Y-77077329D01*
X212782065Y-76934558D01*
X212601885Y-76822995D01*
X212560512Y-76806966D01*
X212404273Y-76746439D01*
X212195961Y-76707500D01*
X211984039Y-76707500D01*
X211775726Y-76746439D01*
X211578117Y-76822994D01*
X211578116Y-76822994D01*
X211578115Y-76822995D01*
X211397935Y-76934558D01*
X211397933Y-76934559D01*
X211397934Y-76934559D01*
X211241322Y-77077329D01*
X211113609Y-77246448D01*
X211019150Y-77436148D01*
X210961155Y-77639981D01*
X210941601Y-77851000D01*
X210946314Y-77901869D01*
X210940345Y-78012499D01*
X210902719Y-78116705D01*
X210836636Y-78205630D01*
X208602896Y-80439369D01*
X208581655Y-80456388D01*
X208520654Y-80521346D01*
X208512359Y-80529907D01*
X208492005Y-80550261D01*
X208476970Y-80567864D01*
X208454783Y-80591491D01*
X208454605Y-80591817D01*
X208421882Y-80641633D01*
X208421648Y-80641933D01*
X208408780Y-80671670D01*
X208393040Y-80703800D01*
X208377431Y-80732193D01*
X208377340Y-80732551D01*
X208358030Y-80788952D01*
X208357882Y-80789292D01*
X208352815Y-80821287D01*
X208345556Y-80856339D01*
X208337500Y-80887716D01*
X208337500Y-80888079D01*
X208332821Y-80947525D01*
X208332764Y-80947878D01*
X201168500Y-80947878D01*
X201168500Y-80692174D01*
X201178427Y-80605885D01*
X201207688Y-80524104D01*
X201254756Y-80451105D01*
X201255278Y-80450469D01*
X201349667Y-80273880D01*
X201407792Y-80082269D01*
X201427418Y-79883000D01*
X201417876Y-79786122D01*
X201407792Y-79683731D01*
X201349667Y-79492120D01*
X201255279Y-79315532D01*
X201213613Y-79264762D01*
X201128252Y-79160748D01*
X200973469Y-79033722D01*
X200973470Y-79033722D01*
X200973467Y-79033720D01*
X200796879Y-78939332D01*
X200605268Y-78881207D01*
X200406000Y-78861581D01*
X200206731Y-78881207D01*
X200015120Y-78939332D01*
X199838532Y-79033720D01*
X199683748Y-79160748D01*
X199556720Y-79315532D01*
X199462332Y-79492120D01*
X199404207Y-79683731D01*
X199384581Y-79882999D01*
X199407876Y-80119516D01*
X199404875Y-80119811D01*
X199412002Y-80170729D01*
X199391884Y-80286655D01*
X199337268Y-80390871D01*
X199253391Y-80473384D01*
X199148294Y-80526284D01*
X199032053Y-80544500D01*
X191366184Y-80544500D01*
X191256897Y-80528445D01*
X191156844Y-80481639D01*
X191074480Y-80408034D01*
X191016764Y-80313852D01*
X190998844Y-80245963D01*
X190975756Y-80179982D01*
X190933709Y-80059817D01*
X190842771Y-79915091D01*
X190721909Y-79794229D01*
X190721906Y-79794227D01*
X190721905Y-79794226D01*
X190577184Y-79703291D01*
X190415852Y-79646838D01*
X190246000Y-79627701D01*
X190076147Y-79646838D01*
X189914815Y-79703291D01*
X189770094Y-79794226D01*
X189649226Y-79915094D01*
X189558291Y-80059816D01*
X189502292Y-80219850D01*
X189445954Y-80324544D01*
X189360020Y-80406704D01*
X189252904Y-80458289D01*
X189135090Y-80474247D01*
X189018113Y-80453019D01*
X188891850Y-80408838D01*
X188722000Y-80389701D01*
X188552147Y-80408838D01*
X188390815Y-80465291D01*
X188246094Y-80556226D01*
X188125226Y-80677094D01*
X188034291Y-80821815D01*
X187977838Y-80983147D01*
X187958701Y-81152999D01*
X183349604Y-81152999D01*
X183313709Y-81050417D01*
X183222771Y-80905691D01*
X183101909Y-80784829D01*
X183101906Y-80784827D01*
X183101905Y-80784826D01*
X182957183Y-80693891D01*
X182795475Y-80637306D01*
X182718809Y-80600386D01*
X182652281Y-80547332D01*
X181578082Y-79473133D01*
X181545309Y-79435762D01*
X181535985Y-79423611D01*
X181523831Y-79414285D01*
X181456989Y-79362995D01*
X181408876Y-79326076D01*
X181260851Y-79264762D01*
X181260850Y-79264761D01*
X181260848Y-79264761D01*
X181241483Y-79262210D01*
X181241457Y-79262208D01*
X181241456Y-79262208D01*
X181214748Y-79258692D01*
X181117201Y-79245850D01*
X181117186Y-79245849D01*
X181102000Y-79243850D01*
X181086812Y-79245849D01*
X181037217Y-79249100D01*
X169370250Y-79249100D01*
X169271899Y-79236152D01*
X169180250Y-79198190D01*
X169101549Y-79137801D01*
X167518247Y-77554499D01*
X191866181Y-77554499D01*
X191885807Y-77753768D01*
X191943932Y-77945379D01*
X192038320Y-78121967D01*
X192038322Y-78121969D01*
X192165348Y-78276752D01*
X192293293Y-78381753D01*
X192320132Y-78403779D01*
X192443967Y-78469970D01*
X192496720Y-78498167D01*
X192688331Y-78556292D01*
X192887600Y-78575918D01*
X193086869Y-78556292D01*
X193278480Y-78498167D01*
X193455069Y-78403778D01*
X193609852Y-78276752D01*
X193736878Y-78121969D01*
X193831267Y-77945380D01*
X193889392Y-77753769D01*
X193909018Y-77554500D01*
X193889392Y-77355231D01*
X193831267Y-77163620D01*
X193805369Y-77115169D01*
X193736879Y-76987032D01*
X193652397Y-76884090D01*
X193609852Y-76832248D01*
X193455069Y-76705222D01*
X193455070Y-76705222D01*
X193455067Y-76705220D01*
X193278479Y-76610832D01*
X193180134Y-76580999D01*
X218561728Y-76580999D01*
X218580796Y-76884090D01*
X218637701Y-77182396D01*
X218637702Y-77182400D01*
X218731548Y-77471225D01*
X218860852Y-77746011D01*
X219023577Y-78002425D01*
X219035171Y-78016440D01*
X219190796Y-78204558D01*
X219217156Y-78236421D01*
X219438535Y-78444311D01*
X219684225Y-78622815D01*
X219950350Y-78769118D01*
X219950352Y-78769119D01*
X220047646Y-78807640D01*
X220232713Y-78880913D01*
X220526861Y-78956438D01*
X220828155Y-78994500D01*
X221131842Y-78994500D01*
X221131845Y-78994500D01*
X221433139Y-78956438D01*
X221727287Y-78880913D01*
X222009650Y-78769118D01*
X222275775Y-78622815D01*
X222521465Y-78444311D01*
X222742844Y-78236421D01*
X222936423Y-78002425D01*
X223099148Y-77746011D01*
X223228452Y-77471225D01*
X223322298Y-77182400D01*
X223379203Y-76884090D01*
X223398272Y-76581000D01*
X223379203Y-76277910D01*
X223322298Y-75979600D01*
X223228452Y-75690775D01*
X223099148Y-75415989D01*
X222936423Y-75159575D01*
X222742844Y-74925579D01*
X222521465Y-74717689D01*
X222275775Y-74539185D01*
X222091771Y-74438028D01*
X222009647Y-74392880D01*
X221727285Y-74281086D01*
X221433144Y-74205563D01*
X221433141Y-74205562D01*
X221433139Y-74205562D01*
X221131845Y-74167500D01*
X220828155Y-74167500D01*
X220526861Y-74205562D01*
X220526859Y-74205562D01*
X220526855Y-74205563D01*
X220232714Y-74281086D01*
X219950352Y-74392880D01*
X219684225Y-74539185D01*
X219438533Y-74717690D01*
X219217155Y-74925579D01*
X219023578Y-75159573D01*
X219023577Y-75159575D01*
X218860852Y-75415989D01*
X218731548Y-75690775D01*
X218705942Y-75769582D01*
X218637701Y-75979603D01*
X218580796Y-76277909D01*
X218561728Y-76580999D01*
X193180134Y-76580999D01*
X193086868Y-76552707D01*
X192887600Y-76533081D01*
X192688331Y-76552707D01*
X192496720Y-76610832D01*
X192320132Y-76705220D01*
X192165348Y-76832248D01*
X192038320Y-76987032D01*
X191943932Y-77163620D01*
X191885807Y-77355231D01*
X191866181Y-77554499D01*
X167518247Y-77554499D01*
X166710188Y-76746440D01*
X164306082Y-74342333D01*
X164273309Y-74304962D01*
X164263985Y-74292811D01*
X164251831Y-74283485D01*
X164215577Y-74255666D01*
X164136876Y-74195276D01*
X163988851Y-74133962D01*
X163988850Y-74133961D01*
X163988848Y-74133961D01*
X163969483Y-74131410D01*
X163969457Y-74131408D01*
X163969456Y-74131408D01*
X163937704Y-74127228D01*
X163845201Y-74115050D01*
X163845186Y-74115049D01*
X163830000Y-74113050D01*
X163814812Y-74115049D01*
X163765217Y-74118300D01*
X160619177Y-74118300D01*
X160514833Y-74103693D01*
X160418511Y-74060997D01*
X160337616Y-73993492D01*
X160278365Y-73906370D01*
X160245316Y-73806326D01*
X160241007Y-73701054D01*
X160254899Y-73560000D01*
X160235350Y-73361513D01*
X160177455Y-73170662D01*
X160177454Y-73170658D01*
X160083436Y-72994763D01*
X159993002Y-72884568D01*
X159931732Y-72779015D01*
X159907083Y-72659483D01*
X159921599Y-72538302D01*
X159973781Y-72427972D01*
X160058247Y-72339876D01*
X160166284Y-72283099D01*
X160286747Y-72263500D01*
X225679500Y-72263500D01*
X225796926Y-72282099D01*
X225902858Y-72336074D01*
X225986926Y-72420142D01*
X226040901Y-72526074D01*
X226059500Y-72643500D01*
X226059500Y-115062500D01*
X226040901Y-115179926D01*
X225986926Y-115285858D01*
X225902858Y-115369926D01*
X225796926Y-115423901D01*
X225679500Y-115442500D01*
X131571500Y-115442500D01*
X131454074Y-115423901D01*
X131348142Y-115369926D01*
X131264074Y-115285858D01*
X131210099Y-115179926D01*
X131191500Y-115062500D01*
X131191500Y-111174899D01*
X135136793Y-111174899D01*
X135146673Y-111482980D01*
X135194343Y-111777838D01*
X135195867Y-111787261D01*
X135283569Y-112082756D01*
X135408337Y-112364609D01*
X135568123Y-112628193D01*
X135568125Y-112628196D01*
X135568126Y-112628197D01*
X135618887Y-112691850D01*
X135760304Y-112869181D01*
X135981724Y-113083614D01*
X136228747Y-113267972D01*
X136497318Y-113419228D01*
X136783025Y-113534899D01*
X136783026Y-113534899D01*
X136783028Y-113534900D01*
X136875352Y-113559110D01*
X137081179Y-113613084D01*
X137341631Y-113646665D01*
X137386882Y-113652500D01*
X137386883Y-113652500D01*
X137617974Y-113652500D01*
X137617977Y-113652500D01*
X137716814Y-113646154D01*
X137848601Y-113637693D01*
X138151151Y-113578772D01*
X138443683Y-113481644D01*
X138721393Y-113347907D01*
X138979720Y-113179754D01*
X139214424Y-112979948D01*
X139421650Y-112751769D01*
X139581926Y-112522000D01*
X213866701Y-112522000D01*
X213885838Y-112691852D01*
X213942291Y-112853184D01*
X214021943Y-112979948D01*
X214033229Y-112997909D01*
X214154091Y-113118771D01*
X214154093Y-113118772D01*
X214154094Y-113118773D01*
X214251142Y-113179753D01*
X214298817Y-113209709D01*
X214460150Y-113266162D01*
X214630000Y-113285299D01*
X214799850Y-113266162D01*
X214961183Y-113209709D01*
X215105909Y-113118771D01*
X215226771Y-112997909D01*
X215317709Y-112853183D01*
X215374162Y-112691850D01*
X215393299Y-112522000D01*
X215374162Y-112352150D01*
X215317709Y-112190817D01*
X215226771Y-112046091D01*
X215105909Y-111925229D01*
X215105906Y-111925227D01*
X215105905Y-111925226D01*
X214961184Y-111834291D01*
X214799852Y-111777838D01*
X214630000Y-111758701D01*
X214460147Y-111777838D01*
X214298815Y-111834291D01*
X214154094Y-111925226D01*
X214033226Y-112046094D01*
X213942291Y-112190815D01*
X213885838Y-112352147D01*
X213866701Y-112522000D01*
X139581926Y-112522000D01*
X139597996Y-112498963D01*
X139740567Y-112225683D01*
X139847020Y-111936415D01*
X139915609Y-111635908D01*
X139945206Y-111329098D01*
X139935327Y-111021022D01*
X139886133Y-110716739D01*
X139798431Y-110421244D01*
X139761404Y-110337599D01*
X181049901Y-110337599D01*
X181069038Y-110507452D01*
X181125491Y-110668784D01*
X181187217Y-110767019D01*
X181216429Y-110813509D01*
X181337291Y-110934371D01*
X181337293Y-110934372D01*
X181337294Y-110934373D01*
X181475189Y-111021019D01*
X181482017Y-111025309D01*
X181643350Y-111081762D01*
X181813200Y-111100899D01*
X181983050Y-111081762D01*
X182144383Y-111025309D01*
X182289109Y-110934371D01*
X182302581Y-110920899D01*
X218448793Y-110920899D01*
X218458673Y-111228980D01*
X218499737Y-111482978D01*
X218507867Y-111533261D01*
X218595569Y-111828756D01*
X218720337Y-112110609D01*
X218880123Y-112374193D01*
X219072304Y-112615181D01*
X219293724Y-112829614D01*
X219540747Y-113013972D01*
X219809318Y-113165228D01*
X220095025Y-113280899D01*
X220095026Y-113280899D01*
X220095028Y-113280900D01*
X220187352Y-113305110D01*
X220393179Y-113359084D01*
X220653631Y-113392665D01*
X220698882Y-113398500D01*
X220698883Y-113398500D01*
X220929974Y-113398500D01*
X220929977Y-113398500D01*
X221028814Y-113392154D01*
X221160601Y-113383693D01*
X221463151Y-113324772D01*
X221755683Y-113227644D01*
X221855128Y-113179754D01*
X222033389Y-113093909D01*
X222033389Y-113093908D01*
X222033393Y-113093907D01*
X222291720Y-112925754D01*
X222526424Y-112725948D01*
X222733650Y-112497769D01*
X222909996Y-112244963D01*
X223052567Y-111971683D01*
X223159020Y-111682415D01*
X223227609Y-111381908D01*
X223257206Y-111075098D01*
X223247327Y-110767022D01*
X223198133Y-110462739D01*
X223110431Y-110167244D01*
X222985663Y-109885391D01*
X222825877Y-109621807D01*
X222633696Y-109380819D01*
X222412276Y-109166386D01*
X222398484Y-109156093D01*
X222165254Y-108982029D01*
X222165255Y-108982029D01*
X222165253Y-108982028D01*
X222003474Y-108890916D01*
X221896683Y-108830772D01*
X221610971Y-108715099D01*
X221312822Y-108636916D01*
X221007118Y-108597500D01*
X221007117Y-108597500D01*
X220776026Y-108597500D01*
X220776023Y-108597500D01*
X220545402Y-108612306D01*
X220242845Y-108671228D01*
X219950314Y-108768356D01*
X219672610Y-108902090D01*
X219414279Y-109070246D01*
X219179576Y-109270051D01*
X218972351Y-109498229D01*
X218796003Y-109751038D01*
X218653433Y-110024316D01*
X218546980Y-110313582D01*
X218522407Y-110421244D01*
X218478391Y-110614092D01*
X218478391Y-110614095D01*
X218448793Y-110920899D01*
X182302581Y-110920899D01*
X182409971Y-110813509D01*
X182500909Y-110668783D01*
X182557362Y-110507450D01*
X182576499Y-110337600D01*
X182557362Y-110167750D01*
X182500909Y-110006417D01*
X182409971Y-109861691D01*
X182289109Y-109740829D01*
X182289106Y-109740827D01*
X182289105Y-109740826D01*
X182144384Y-109649891D01*
X181983052Y-109593438D01*
X181813200Y-109574301D01*
X181643347Y-109593438D01*
X181482015Y-109649891D01*
X181337294Y-109740826D01*
X181216426Y-109861694D01*
X181125491Y-110006415D01*
X181069038Y-110167747D01*
X181049901Y-110337599D01*
X139761404Y-110337599D01*
X139673663Y-110139391D01*
X139513877Y-109875807D01*
X139321696Y-109634819D01*
X139125124Y-109444450D01*
X139100275Y-109420385D01*
X138853254Y-109236029D01*
X138853255Y-109236029D01*
X138853253Y-109236028D01*
X138729596Y-109166386D01*
X138584683Y-109084772D01*
X138298971Y-108969099D01*
X138000822Y-108890916D01*
X137695118Y-108851500D01*
X137695117Y-108851500D01*
X137464026Y-108851500D01*
X137464023Y-108851500D01*
X137233402Y-108866306D01*
X136930845Y-108925228D01*
X136638314Y-109022356D01*
X136360610Y-109156090D01*
X136102279Y-109324246D01*
X135867576Y-109524051D01*
X135660351Y-109752229D01*
X135484003Y-110005038D01*
X135341433Y-110278316D01*
X135234980Y-110567582D01*
X135224365Y-110614092D01*
X135166391Y-110868092D01*
X135166391Y-110868095D01*
X135136793Y-111174899D01*
X131191500Y-111174899D01*
X131191500Y-106918000D01*
X146619381Y-106918000D01*
X146639007Y-107117268D01*
X146697132Y-107308879D01*
X146791520Y-107485467D01*
X146791522Y-107485469D01*
X146918548Y-107640252D01*
X147049795Y-107747963D01*
X147073332Y-107767279D01*
X147186937Y-107828002D01*
X147249920Y-107861667D01*
X147441531Y-107919792D01*
X147640800Y-107939418D01*
X147840069Y-107919792D01*
X148031680Y-107861667D01*
X148208269Y-107767278D01*
X148363052Y-107640252D01*
X148490078Y-107485469D01*
X148584467Y-107308880D01*
X148642592Y-107117269D01*
X148662218Y-106918000D01*
X148642592Y-106718731D01*
X148584467Y-106527120D01*
X148523576Y-106413201D01*
X148490079Y-106350532D01*
X148458271Y-106311774D01*
X148363052Y-106195748D01*
X148208269Y-106068722D01*
X148208270Y-106068722D01*
X148208267Y-106068720D01*
X148031679Y-105974332D01*
X147840068Y-105916207D01*
X147640800Y-105896581D01*
X147441531Y-105916207D01*
X147249920Y-105974332D01*
X147073332Y-106068720D01*
X146918548Y-106195748D01*
X146791520Y-106350532D01*
X146697132Y-106527120D01*
X146639007Y-106718731D01*
X146619381Y-106918000D01*
X131191500Y-106918000D01*
X131191500Y-106360288D01*
X132651500Y-106360288D01*
X132658005Y-106420795D01*
X132709053Y-106557663D01*
X132796595Y-106674604D01*
X132913536Y-106762146D01*
X133050404Y-106813194D01*
X133110912Y-106819700D01*
X138288088Y-106819700D01*
X138348595Y-106813194D01*
X138485463Y-106762146D01*
X138602404Y-106674604D01*
X138689946Y-106557663D01*
X138740994Y-106420795D01*
X138747500Y-106360288D01*
X138747500Y-103850112D01*
X138740994Y-103789604D01*
X138689946Y-103652736D01*
X138602404Y-103535795D01*
X138485463Y-103448253D01*
X138348595Y-103397205D01*
X138288088Y-103390700D01*
X133110912Y-103390700D01*
X133050404Y-103397205D01*
X132913536Y-103448253D01*
X132796595Y-103535795D01*
X132709053Y-103652736D01*
X132658005Y-103789604D01*
X132651500Y-103850112D01*
X132651500Y-106360288D01*
X131191500Y-106360288D01*
X131191500Y-97584588D01*
X132651500Y-97584588D01*
X132658005Y-97645095D01*
X132709053Y-97781963D01*
X132796595Y-97898904D01*
X132913536Y-97986446D01*
X133050404Y-98037494D01*
X133110912Y-98044000D01*
X138288088Y-98044000D01*
X138348595Y-98037494D01*
X138485463Y-97986446D01*
X138602404Y-97898904D01*
X138689946Y-97781963D01*
X138740994Y-97645095D01*
X138747500Y-97584588D01*
X138747500Y-96112638D01*
X140225000Y-96112638D01*
X140227178Y-96132901D01*
X140231511Y-96173202D01*
X140282610Y-96310203D01*
X140370238Y-96427261D01*
X140487296Y-96514889D01*
X140624299Y-96565989D01*
X140684862Y-96572500D01*
X141790137Y-96572500D01*
X141790138Y-96572500D01*
X141850701Y-96565989D01*
X141987704Y-96514889D01*
X142104761Y-96427261D01*
X142104761Y-96427260D01*
X142126058Y-96411318D01*
X142180528Y-96358851D01*
X142290937Y-96306387D01*
X142412291Y-96291692D01*
X142532032Y-96316287D01*
X142637768Y-96377627D01*
X142672263Y-96405936D01*
X142848158Y-96499954D01*
X142897392Y-96514889D01*
X143039014Y-96557850D01*
X143274747Y-96581068D01*
X143274717Y-96581367D01*
X143334372Y-96584297D01*
X143439373Y-96621865D01*
X143528947Y-96688296D01*
X149587117Y-102746466D01*
X149619888Y-102783835D01*
X149629212Y-102795986D01*
X149641367Y-102805313D01*
X149641370Y-102805316D01*
X149661127Y-102820476D01*
X149661129Y-102820478D01*
X149756324Y-102893524D01*
X149904350Y-102954838D01*
X150010249Y-102968779D01*
X150063199Y-102975751D01*
X150063199Y-102975750D01*
X150063200Y-102975751D01*
X150078393Y-102973750D01*
X150127991Y-102970500D01*
X162704481Y-102970500D01*
X162809678Y-102985351D01*
X162906650Y-103028743D01*
X162940017Y-103049709D01*
X163101350Y-103106162D01*
X163271200Y-103125299D01*
X163441050Y-103106162D01*
X163602383Y-103049709D01*
X163747109Y-102958771D01*
X163867971Y-102837909D01*
X163958909Y-102693183D01*
X164013387Y-102537495D01*
X164021681Y-102513793D01*
X164076732Y-102410799D01*
X164160461Y-102329387D01*
X164264959Y-102277245D01*
X164380356Y-102259300D01*
X167641150Y-102259300D01*
X167751458Y-102275663D01*
X167852267Y-102323342D01*
X167934894Y-102398231D01*
X167992224Y-102493881D01*
X168019320Y-102602054D01*
X168013848Y-102713435D01*
X167976280Y-102818431D01*
X167909851Y-102907999D01*
X167711689Y-103106161D01*
X167156516Y-103661333D01*
X167089988Y-103714387D01*
X167013323Y-103751307D01*
X166851615Y-103807891D01*
X166706894Y-103898826D01*
X166586026Y-104019694D01*
X166495091Y-104164415D01*
X166438638Y-104325747D01*
X166419501Y-104495599D01*
X166438638Y-104665452D01*
X166495091Y-104826784D01*
X166585257Y-104970281D01*
X166586029Y-104971509D01*
X166706891Y-105092371D01*
X166706893Y-105092372D01*
X166706894Y-105092373D01*
X166729378Y-105106501D01*
X166851617Y-105183309D01*
X167012950Y-105239762D01*
X167182800Y-105258899D01*
X167296618Y-105246075D01*
X167398606Y-105248365D01*
X167496313Y-105277705D01*
X167582693Y-105331981D01*
X167651520Y-105407281D01*
X167697835Y-105498179D01*
X167765091Y-105690384D01*
X167856026Y-105835105D01*
X167856029Y-105835109D01*
X167976891Y-105955971D01*
X167976893Y-105955972D01*
X167976894Y-105955973D01*
X168120461Y-106046183D01*
X168121617Y-106046909D01*
X168282950Y-106103362D01*
X168452800Y-106122499D01*
X168622650Y-106103362D01*
X168783983Y-106046909D01*
X168817349Y-106025943D01*
X168914322Y-105982551D01*
X169019519Y-105967700D01*
X169962817Y-105967700D01*
X170012412Y-105970950D01*
X170027600Y-105972950D01*
X170067480Y-105967700D01*
X170067485Y-105967700D01*
X170167056Y-105954591D01*
X170167058Y-105954591D01*
X170179986Y-105952888D01*
X170186451Y-105952038D01*
X170334476Y-105890724D01*
X170372303Y-105861697D01*
X170477006Y-105804889D01*
X170594156Y-105783289D01*
X170712236Y-105799021D01*
X170819644Y-105850538D01*
X170905824Y-105932779D01*
X170962307Y-106037661D01*
X170965289Y-106046183D01*
X171053070Y-106185885D01*
X171056228Y-106190910D01*
X171177090Y-106311772D01*
X171177092Y-106311773D01*
X171177093Y-106311774D01*
X171288450Y-106381745D01*
X171321816Y-106402710D01*
X171483149Y-106459163D01*
X171652999Y-106478300D01*
X171822849Y-106459163D01*
X171984182Y-106402710D01*
X172017548Y-106381744D01*
X172114521Y-106338352D01*
X172219718Y-106323501D01*
X191325194Y-106323501D01*
X191423545Y-106336449D01*
X191515194Y-106374411D01*
X191593895Y-106434800D01*
X191826928Y-106667833D01*
X191843914Y-106689036D01*
X191908730Y-106749901D01*
X191917301Y-106758206D01*
X191937601Y-106778506D01*
X191955166Y-106793508D01*
X191978676Y-106815585D01*
X191978909Y-106815713D01*
X192028751Y-106848453D01*
X192028956Y-106848612D01*
X192058535Y-106861412D01*
X192090686Y-106877162D01*
X192118939Y-106892695D01*
X192119202Y-106892762D01*
X192175612Y-106912076D01*
X192175854Y-106912181D01*
X192207693Y-106917223D01*
X192242746Y-106924483D01*
X192273968Y-106932500D01*
X192273969Y-106932500D01*
X192274233Y-106932500D01*
X192333675Y-106937178D01*
X192333940Y-106937220D01*
X192333941Y-106937219D01*
X192333942Y-106937220D01*
X192356233Y-106935112D01*
X192366039Y-106934186D01*
X192401798Y-106932500D01*
X195041062Y-106932500D01*
X195151370Y-106948863D01*
X195252178Y-106996541D01*
X195334806Y-107071430D01*
X195392136Y-107167080D01*
X195419232Y-107275253D01*
X195442175Y-107508197D01*
X195501753Y-107704597D01*
X195531553Y-107760350D01*
X195571347Y-107877580D01*
X195571346Y-108001379D01*
X195531552Y-108118609D01*
X195502218Y-108173488D01*
X195442667Y-108369803D01*
X195422560Y-108573949D01*
X195442667Y-108778096D01*
X195502217Y-108974409D01*
X195598917Y-109155320D01*
X195729055Y-109313894D01*
X195887629Y-109444032D01*
X196068540Y-109540732D01*
X196264853Y-109600282D01*
X196469000Y-109620389D01*
X196673146Y-109600282D01*
X196869454Y-109540733D01*
X196924866Y-109511115D01*
X197042099Y-109471320D01*
X197165901Y-109471320D01*
X197283134Y-109511115D01*
X197338545Y-109540733D01*
X197534853Y-109600282D01*
X197739000Y-109620389D01*
X197943146Y-109600282D01*
X198139454Y-109540733D01*
X198194866Y-109511115D01*
X198312099Y-109471320D01*
X198435901Y-109471320D01*
X198553134Y-109511115D01*
X198608545Y-109540733D01*
X198804853Y-109600282D01*
X199009000Y-109620389D01*
X199213146Y-109600282D01*
X199409454Y-109540733D01*
X199464866Y-109511115D01*
X199582099Y-109471320D01*
X199705901Y-109471320D01*
X199823134Y-109511115D01*
X199878545Y-109540733D01*
X200074853Y-109600282D01*
X200279000Y-109620389D01*
X200483146Y-109600282D01*
X200679454Y-109540733D01*
X200734866Y-109511115D01*
X200852099Y-109471320D01*
X200975901Y-109471320D01*
X201093134Y-109511115D01*
X201148545Y-109540733D01*
X201344853Y-109600282D01*
X201549000Y-109620389D01*
X201753146Y-109600282D01*
X201949454Y-109540733D01*
X202004866Y-109511115D01*
X202122099Y-109471320D01*
X202245901Y-109471320D01*
X202363134Y-109511115D01*
X202418545Y-109540733D01*
X202614853Y-109600282D01*
X202819000Y-109620389D01*
X203023146Y-109600282D01*
X203219454Y-109540733D01*
X203274866Y-109511115D01*
X203392099Y-109471320D01*
X203515901Y-109471320D01*
X203633134Y-109511115D01*
X203688545Y-109540733D01*
X203884853Y-109600282D01*
X204089000Y-109620389D01*
X204293146Y-109600282D01*
X204489454Y-109540733D01*
X204544866Y-109511115D01*
X204662099Y-109471320D01*
X204785901Y-109471320D01*
X204903134Y-109511115D01*
X204958545Y-109540733D01*
X205154853Y-109600282D01*
X205359000Y-109620389D01*
X205563146Y-109600282D01*
X205759454Y-109540733D01*
X205814866Y-109511115D01*
X205932099Y-109471320D01*
X206055901Y-109471320D01*
X206173134Y-109511115D01*
X206228545Y-109540733D01*
X206424853Y-109600282D01*
X206629000Y-109620389D01*
X206833146Y-109600282D01*
X207029455Y-109540733D01*
X207084335Y-109511399D01*
X207201567Y-109471603D01*
X207325368Y-109471602D01*
X207442600Y-109511397D01*
X207497483Y-109540732D01*
X207498353Y-109541197D01*
X207694752Y-109600774D01*
X207899000Y-109620891D01*
X208103248Y-109600774D01*
X208299647Y-109541197D01*
X208480649Y-109444450D01*
X208639299Y-109314249D01*
X208769500Y-109155599D01*
X208866247Y-108974597D01*
X208925824Y-108778198D01*
X208945941Y-108573950D01*
X208925824Y-108369702D01*
X208866247Y-108173303D01*
X208836729Y-108118078D01*
X208796936Y-108000850D01*
X208796936Y-107877050D01*
X208836730Y-107759819D01*
X208866247Y-107704597D01*
X208925824Y-107508198D01*
X208945941Y-107303950D01*
X208925824Y-107099702D01*
X208866247Y-106903303D01*
X208769500Y-106722301D01*
X208724799Y-106667833D01*
X208639299Y-106563650D01*
X208480648Y-106433449D01*
X208299648Y-106336703D01*
X208103247Y-106277125D01*
X207899000Y-106257008D01*
X207694752Y-106277125D01*
X207498351Y-106336703D01*
X207442597Y-106366504D01*
X207325367Y-106406297D01*
X207201568Y-106406296D01*
X207084338Y-106366502D01*
X207029455Y-106337166D01*
X206833146Y-106277617D01*
X206629000Y-106257510D01*
X206424853Y-106277617D01*
X206228541Y-106337167D01*
X206173131Y-106366785D01*
X206055900Y-106406579D01*
X205932100Y-106406579D01*
X205814869Y-106366785D01*
X205759458Y-106337167D01*
X205563146Y-106277617D01*
X205359000Y-106257510D01*
X205154851Y-106277617D01*
X204924656Y-106347446D01*
X204811239Y-106363795D01*
X204698104Y-106345591D01*
X204595540Y-106294489D01*
X204521066Y-106223000D01*
X215440379Y-106223000D01*
X215460835Y-106522039D01*
X215521817Y-106815506D01*
X215622193Y-107097936D01*
X215760091Y-107364068D01*
X215932943Y-107608943D01*
X216137530Y-107828002D01*
X216370044Y-108017166D01*
X216626140Y-108172901D01*
X216901061Y-108292317D01*
X217189684Y-108373185D01*
X217486634Y-108414000D01*
X217786366Y-108414000D01*
X218083315Y-108373185D01*
X218371938Y-108292317D01*
X218646859Y-108172901D01*
X218902955Y-108017166D01*
X219135469Y-107828002D01*
X219340056Y-107608943D01*
X219512908Y-107364068D01*
X219650806Y-107097936D01*
X219751182Y-106815506D01*
X219812164Y-106522039D01*
X219832620Y-106223000D01*
X219812164Y-105923960D01*
X219751182Y-105630493D01*
X219650806Y-105348063D01*
X219512908Y-105081931D01*
X219340056Y-104837056D01*
X219135469Y-104617997D01*
X218902955Y-104428833D01*
X218646859Y-104273098D01*
X218371938Y-104153682D01*
X218083315Y-104072814D01*
X217786366Y-104032000D01*
X217486634Y-104032000D01*
X217189684Y-104072814D01*
X216901061Y-104153682D01*
X216626140Y-104273098D01*
X216370044Y-104428833D01*
X216137530Y-104617997D01*
X215932943Y-104837056D01*
X215760091Y-105081931D01*
X215622193Y-105348063D01*
X215521817Y-105630493D01*
X215460835Y-105923960D01*
X215440379Y-106223000D01*
X204521066Y-106223000D01*
X204512875Y-106215137D01*
X204497587Y-106195213D01*
X204497585Y-106195212D01*
X204497585Y-106195211D01*
X204485431Y-106185885D01*
X204448062Y-106153114D01*
X200475682Y-102180733D01*
X200442909Y-102143362D01*
X200441365Y-102141350D01*
X200433587Y-102131213D01*
X200433585Y-102131212D01*
X200433585Y-102131211D01*
X200421431Y-102121885D01*
X200306474Y-102033674D01*
X200158451Y-101972362D01*
X200158450Y-101972361D01*
X200135511Y-101969342D01*
X200135509Y-101969341D01*
X200014799Y-101953450D01*
X200014787Y-101953449D01*
X199999600Y-101951450D01*
X199984412Y-101953449D01*
X199934817Y-101956700D01*
X196243451Y-101956700D01*
X196145100Y-101943752D01*
X196053451Y-101905790D01*
X195974750Y-101845401D01*
X194618215Y-100488866D01*
X194548334Y-100392681D01*
X194511594Y-100279610D01*
X194511594Y-100160720D01*
X194548334Y-100047649D01*
X194618212Y-99951467D01*
X194652771Y-99916909D01*
X194743709Y-99772183D01*
X194800162Y-99610850D01*
X194800162Y-99610846D01*
X194800293Y-99610473D01*
X194837214Y-99533806D01*
X194890256Y-99467291D01*
X195498469Y-98859077D01*
X195535826Y-98826317D01*
X195547987Y-98816987D01*
X195612568Y-98732824D01*
X195645524Y-98689876D01*
X195706838Y-98541851D01*
X195718042Y-98456747D01*
X195722500Y-98422885D01*
X195722500Y-98422880D01*
X195727750Y-98383000D01*
X195725750Y-98367812D01*
X195722500Y-98318217D01*
X195722500Y-87863784D01*
X195725751Y-87814184D01*
X195727750Y-87799000D01*
X195725751Y-87783816D01*
X195725751Y-87783809D01*
X195722500Y-87759115D01*
X195706838Y-87640150D01*
X195695245Y-87612162D01*
X195645525Y-87492125D01*
X195620989Y-87460149D01*
X195620989Y-87460148D01*
X195557324Y-87377180D01*
X195557313Y-87377167D01*
X195547986Y-87365012D01*
X195535835Y-87355688D01*
X195498466Y-87322917D01*
X194382266Y-86206717D01*
X194329212Y-86140188D01*
X194292291Y-86063521D01*
X194292162Y-86063153D01*
X194292162Y-86063150D01*
X194235709Y-85901817D01*
X194235708Y-85901815D01*
X194221567Y-85861402D01*
X194222123Y-85861207D01*
X194208245Y-85830193D01*
X194193395Y-85724983D01*
X194208254Y-85619775D01*
X194222122Y-85588789D01*
X194221568Y-85588596D01*
X194262372Y-85471984D01*
X194292162Y-85386850D01*
X194311299Y-85217000D01*
X194292162Y-85047150D01*
X194235709Y-84885817D01*
X194223537Y-84866446D01*
X194144773Y-84741094D01*
X194144772Y-84741093D01*
X194144771Y-84741091D01*
X194023909Y-84620229D01*
X194023906Y-84620227D01*
X194023905Y-84620226D01*
X193879184Y-84529291D01*
X193717852Y-84472838D01*
X193548000Y-84453701D01*
X193378147Y-84472838D01*
X193216815Y-84529291D01*
X193072094Y-84620226D01*
X192951226Y-84741094D01*
X192860291Y-84885815D01*
X192803838Y-85047147D01*
X192784701Y-85217000D01*
X192803838Y-85386852D01*
X192874432Y-85588596D01*
X192873876Y-85588790D01*
X192887748Y-85619787D01*
X192902604Y-85724983D01*
X192887757Y-85830181D01*
X192873874Y-85861208D01*
X192874432Y-85861404D01*
X192803838Y-86063147D01*
X192784701Y-86232999D01*
X192803838Y-86402852D01*
X192860289Y-86564180D01*
X192860291Y-86564183D01*
X192941512Y-86693445D01*
X192964059Y-86729327D01*
X193007452Y-86826302D01*
X193022304Y-86931500D01*
X193007452Y-87036698D01*
X192964059Y-87133673D01*
X192860289Y-87298819D01*
X192803838Y-87460147D01*
X192784701Y-87630000D01*
X192803838Y-87799852D01*
X192860291Y-87961184D01*
X192883692Y-87998426D01*
X192951229Y-88105909D01*
X193072091Y-88226771D01*
X193142675Y-88271122D01*
X193216632Y-88331819D01*
X193273086Y-88409064D01*
X193308456Y-88497962D01*
X193320500Y-88592876D01*
X193320500Y-92835444D01*
X193303014Y-92949390D01*
X193252165Y-93052849D01*
X193172633Y-93136300D01*
X193071737Y-93192063D01*
X192958763Y-93215005D01*
X192844109Y-93203015D01*
X192738330Y-93157200D01*
X192710783Y-93139891D01*
X192710778Y-93139889D01*
X192549452Y-93083438D01*
X192379600Y-93064301D01*
X192209747Y-93083438D01*
X192040790Y-93142559D01*
X191960102Y-93179210D01*
X191859341Y-93195168D01*
X191757965Y-93183746D01*
X191663282Y-93145766D01*
X191582114Y-93083965D01*
X189695799Y-91197650D01*
X189635410Y-91118949D01*
X189597448Y-91027300D01*
X189584500Y-90928949D01*
X189584500Y-90539583D01*
X189587751Y-90489982D01*
X189589750Y-90474800D01*
X189584500Y-90434920D01*
X189584500Y-90434915D01*
X189568838Y-90315950D01*
X189560195Y-90295085D01*
X189507524Y-90167924D01*
X189434477Y-90072729D01*
X189409987Y-90040813D01*
X189397827Y-90031482D01*
X189360458Y-89998710D01*
X188845067Y-89483318D01*
X188792013Y-89416790D01*
X188755092Y-89340124D01*
X188754962Y-89339753D01*
X188754962Y-89339750D01*
X188698509Y-89178417D01*
X188698508Y-89178415D01*
X188698507Y-89178412D01*
X188607573Y-89033694D01*
X188607572Y-89033693D01*
X188607571Y-89033691D01*
X188486709Y-88912829D01*
X188486706Y-88912827D01*
X188486705Y-88912826D01*
X188341984Y-88821891D01*
X188180652Y-88765438D01*
X188010800Y-88746301D01*
X187840947Y-88765438D01*
X187679615Y-88821891D01*
X187534894Y-88912826D01*
X187414026Y-89033694D01*
X187323091Y-89178415D01*
X187266638Y-89339747D01*
X187247501Y-89509599D01*
X187266638Y-89679452D01*
X187278561Y-89713525D01*
X187299736Y-89828373D01*
X187285035Y-89944228D01*
X187235845Y-90050148D01*
X187156813Y-90136127D01*
X187055404Y-90194046D01*
X186941195Y-90218434D01*
X186824973Y-90206988D01*
X186717716Y-90160788D01*
X186705785Y-90153291D01*
X186544452Y-90096838D01*
X186374600Y-90077701D01*
X186204747Y-90096838D01*
X186043415Y-90153291D01*
X185898694Y-90244226D01*
X185777826Y-90365094D01*
X185686891Y-90509815D01*
X185630438Y-90671147D01*
X185610327Y-90849646D01*
X185582137Y-90956449D01*
X185524421Y-91050632D01*
X185442057Y-91124238D01*
X185342004Y-91171045D01*
X185232716Y-91187100D01*
X181177380Y-91187100D01*
X181061983Y-91169155D01*
X180957485Y-91117013D01*
X180873756Y-91035601D01*
X180818705Y-90932607D01*
X180789675Y-90849646D01*
X180773709Y-90804017D01*
X180747587Y-90762445D01*
X180682773Y-90659294D01*
X180682772Y-90659293D01*
X180682771Y-90659291D01*
X180561909Y-90538429D01*
X180561906Y-90538427D01*
X180561905Y-90538426D01*
X180417184Y-90447491D01*
X180255852Y-90391038D01*
X180086000Y-90371901D01*
X179916147Y-90391038D01*
X179754815Y-90447491D01*
X179610094Y-90538426D01*
X179489226Y-90659294D01*
X179398291Y-90804015D01*
X179341838Y-90965347D01*
X179322701Y-91135200D01*
X179341838Y-91305052D01*
X179398291Y-91466384D01*
X179487369Y-91608149D01*
X179489229Y-91611109D01*
X179610091Y-91731971D01*
X179754817Y-91822909D01*
X179916150Y-91879362D01*
X179916153Y-91879362D01*
X179916521Y-91879491D01*
X179993188Y-91916412D01*
X180059717Y-91969466D01*
X180270317Y-92180066D01*
X180303088Y-92217435D01*
X180312412Y-92229586D01*
X180324567Y-92238913D01*
X180324570Y-92238916D01*
X180344327Y-92254076D01*
X180344329Y-92254078D01*
X180439524Y-92327124D01*
X180587549Y-92388438D01*
X180725485Y-92406597D01*
X180746399Y-92409351D01*
X180746399Y-92409350D01*
X180746400Y-92409351D01*
X180761593Y-92407350D01*
X180811191Y-92404100D01*
X188458063Y-92404100D01*
X188556414Y-92417048D01*
X188648063Y-92455010D01*
X188726764Y-92515399D01*
X189921642Y-93710277D01*
X189991523Y-93806462D01*
X190028263Y-93919533D01*
X190028263Y-94038423D01*
X189991523Y-94151494D01*
X189921644Y-94247675D01*
X189903229Y-94266091D01*
X189903226Y-94266094D01*
X189812291Y-94410816D01*
X189762599Y-94552826D01*
X189725679Y-94629491D01*
X189672625Y-94696019D01*
X189606098Y-94749073D01*
X189516093Y-94805627D01*
X189395226Y-94926494D01*
X189304291Y-95071215D01*
X189247838Y-95232547D01*
X189228701Y-95402399D01*
X189247838Y-95572252D01*
X189304291Y-95733583D01*
X189324246Y-95765342D01*
X189359968Y-95838637D01*
X189379232Y-95917865D01*
X189380243Y-95925537D01*
X189380246Y-95925592D01*
X189380249Y-95925592D01*
X189396608Y-96049855D01*
X189396610Y-96049883D01*
X189399161Y-96069248D01*
X189460475Y-96217275D01*
X189537827Y-96318081D01*
X189537824Y-96318078D01*
X189558012Y-96344386D01*
X189570162Y-96353710D01*
X189607533Y-96386482D01*
X190288201Y-97067150D01*
X190348590Y-97145851D01*
X190386552Y-97237500D01*
X190399500Y-97335851D01*
X190399500Y-101916217D01*
X190396249Y-101965818D01*
X190394250Y-101980999D01*
X190396249Y-101996182D01*
X190396250Y-101996201D01*
X190407728Y-102083381D01*
X190407729Y-102083385D01*
X190415162Y-102139852D01*
X190476476Y-102287877D01*
X190549519Y-102383068D01*
X190549523Y-102383071D01*
X190549523Y-102383072D01*
X190549525Y-102383074D01*
X190570799Y-102410799D01*
X190574014Y-102414988D01*
X190586162Y-102424310D01*
X190623533Y-102457082D01*
X191951732Y-103785281D01*
X192004786Y-103851809D01*
X192041706Y-103928475D01*
X192098291Y-104090183D01*
X192168180Y-104201411D01*
X192189229Y-104234909D01*
X192310091Y-104355771D01*
X192310093Y-104355772D01*
X192310094Y-104355773D01*
X192426367Y-104428833D01*
X192454817Y-104446709D01*
X192616150Y-104503162D01*
X192786000Y-104522299D01*
X192955850Y-104503162D01*
X193117183Y-104446709D01*
X193261909Y-104355771D01*
X193306802Y-104310877D01*
X193396369Y-104244451D01*
X193501366Y-104206883D01*
X193612747Y-104201411D01*
X193720920Y-104228507D01*
X193816569Y-104285837D01*
X193891458Y-104368464D01*
X193939137Y-104469273D01*
X193955500Y-104579581D01*
X193955500Y-104970281D01*
X193940649Y-105075478D01*
X193897256Y-105172452D01*
X193876290Y-105205818D01*
X193805696Y-105407564D01*
X193803461Y-105406782D01*
X193796051Y-105434855D01*
X193738335Y-105529036D01*
X193655971Y-105602639D01*
X193555919Y-105649446D01*
X193446633Y-105665500D01*
X192773806Y-105665500D01*
X192675455Y-105652552D01*
X192583806Y-105614590D01*
X192505106Y-105554201D01*
X192189773Y-105238869D01*
X192189770Y-105238866D01*
X192095041Y-105165387D01*
X191986067Y-105118230D01*
X191948146Y-105101820D01*
X191808846Y-105079757D01*
X191790057Y-105076781D01*
X191790056Y-105076781D01*
X191618643Y-105092984D01*
X191589010Y-105100842D01*
X191523677Y-105106501D01*
X188396750Y-105106501D01*
X188291553Y-105091650D01*
X188194579Y-105048257D01*
X188113407Y-104979714D01*
X188054383Y-104891378D01*
X188022119Y-104790155D01*
X188019139Y-104683957D01*
X188026904Y-104615038D01*
X188037499Y-104521000D01*
X188018362Y-104351150D01*
X187961909Y-104189817D01*
X187899304Y-104090183D01*
X187870973Y-104045094D01*
X187870972Y-104045093D01*
X187870971Y-104045091D01*
X187750109Y-103924229D01*
X187750106Y-103924227D01*
X187750105Y-103924226D01*
X187605384Y-103833291D01*
X187444052Y-103776838D01*
X187274200Y-103757701D01*
X187104347Y-103776838D01*
X186943015Y-103833291D01*
X186798294Y-103924226D01*
X186677426Y-104045094D01*
X186586491Y-104189815D01*
X186530038Y-104351147D01*
X186510901Y-104521000D01*
X186529261Y-104683957D01*
X186526281Y-104790155D01*
X186494017Y-104891378D01*
X186434993Y-104979714D01*
X186353821Y-105048257D01*
X186256847Y-105091650D01*
X186151650Y-105106501D01*
X183691449Y-105106501D01*
X183581141Y-105090138D01*
X183480332Y-105042459D01*
X183397705Y-104967571D01*
X183340375Y-104871921D01*
X183313279Y-104763748D01*
X183318751Y-104652367D01*
X183356319Y-104547370D01*
X183422748Y-104457801D01*
X183747939Y-104132610D01*
X184735083Y-103145464D01*
X184801607Y-103092414D01*
X184878273Y-103055493D01*
X184878646Y-103055362D01*
X184878650Y-103055362D01*
X185039983Y-102998909D01*
X185039985Y-102998907D01*
X185039987Y-102998907D01*
X185140693Y-102935628D01*
X185184709Y-102907971D01*
X185305571Y-102787109D01*
X185396509Y-102642383D01*
X185452962Y-102481050D01*
X185472099Y-102311200D01*
X185452962Y-102141350D01*
X185396509Y-101980017D01*
X185396330Y-101979505D01*
X185377395Y-101896545D01*
X185377395Y-101811452D01*
X185396331Y-101728492D01*
X185452961Y-101566652D01*
X185452962Y-101566650D01*
X185472099Y-101396800D01*
X185452962Y-101226950D01*
X185396509Y-101065617D01*
X185383170Y-101044389D01*
X185305573Y-100920894D01*
X185305572Y-100920893D01*
X185305571Y-100920891D01*
X185184709Y-100800029D01*
X185184706Y-100800027D01*
X185184705Y-100800026D01*
X185039984Y-100709091D01*
X184878652Y-100652638D01*
X184765416Y-100639879D01*
X184708800Y-100633501D01*
X184708799Y-100633501D01*
X184538947Y-100652638D01*
X184377615Y-100709091D01*
X184232894Y-100800026D01*
X184112026Y-100920894D01*
X184021091Y-101065615D01*
X183975387Y-101196229D01*
X183919048Y-101300923D01*
X183833115Y-101383083D01*
X183725999Y-101434667D01*
X183608185Y-101450625D01*
X183491206Y-101429397D01*
X183303850Y-101363838D01*
X183134000Y-101344701D01*
X183133999Y-101344701D01*
X182964147Y-101363838D01*
X182802818Y-101420290D01*
X182788325Y-101429397D01*
X182769450Y-101441256D01*
X182672478Y-101484649D01*
X182567281Y-101499500D01*
X178861555Y-101499500D01*
X178766640Y-101487455D01*
X178677742Y-101452085D01*
X178600497Y-101395631D01*
X178539800Y-101321673D01*
X178538510Y-101319620D01*
X178538509Y-101319617D01*
X178447571Y-101174891D01*
X178401952Y-101129272D01*
X178338072Y-101044389D01*
X178300184Y-100945133D01*
X178291255Y-100839267D01*
X178311981Y-100735072D01*
X178340962Y-100652250D01*
X178360099Y-100482400D01*
X178340962Y-100312550D01*
X178284509Y-100151217D01*
X178262370Y-100115984D01*
X178193573Y-100006494D01*
X178193572Y-100006493D01*
X178193571Y-100006491D01*
X178072709Y-99885629D01*
X178072706Y-99885627D01*
X178072705Y-99885626D01*
X177927984Y-99794691D01*
X177766652Y-99738238D01*
X177596800Y-99719101D01*
X177426947Y-99738238D01*
X177265615Y-99794691D01*
X177120894Y-99885626D01*
X177120891Y-99885628D01*
X177120891Y-99885629D01*
X177000029Y-100006491D01*
X176909091Y-100151217D01*
X176909089Y-100151220D01*
X176907800Y-100153273D01*
X176847103Y-100227231D01*
X176769858Y-100283685D01*
X176680960Y-100319055D01*
X176586045Y-100331100D01*
X172073336Y-100331100D01*
X171968141Y-100316249D01*
X171871168Y-100272858D01*
X171789997Y-100204317D01*
X171730972Y-100115984D01*
X171698707Y-100014764D01*
X171697697Y-99978810D01*
X171697392Y-99978845D01*
X171692598Y-99936302D01*
X171692599Y-99936300D01*
X171673462Y-99766450D01*
X171617009Y-99605117D01*
X171600524Y-99578882D01*
X171526073Y-99460394D01*
X171526072Y-99460393D01*
X171526071Y-99460391D01*
X171405209Y-99339529D01*
X171405206Y-99339527D01*
X171405205Y-99339526D01*
X171260484Y-99248591D01*
X171099152Y-99192138D01*
X170929300Y-99173001D01*
X170759447Y-99192138D01*
X170598115Y-99248591D01*
X170453394Y-99339526D01*
X170332526Y-99460394D01*
X170241591Y-99605115D01*
X170185138Y-99766447D01*
X170175980Y-99847726D01*
X170166267Y-99933945D01*
X170161208Y-99978845D01*
X170160902Y-99978810D01*
X170159893Y-100014764D01*
X170127628Y-100115984D01*
X170068603Y-100204317D01*
X169987432Y-100272858D01*
X169890459Y-100316249D01*
X169785264Y-100331100D01*
X167384850Y-100331100D01*
X167274542Y-100314737D01*
X167173733Y-100267058D01*
X167091106Y-100192170D01*
X167033776Y-100096520D01*
X167006680Y-99988347D01*
X167012152Y-99876966D01*
X167049720Y-99771969D01*
X167116149Y-99682400D01*
X168174279Y-98624269D01*
X168240808Y-98571214D01*
X168317474Y-98534293D01*
X168317847Y-98534162D01*
X168317850Y-98534162D01*
X168479183Y-98477709D01*
X168623909Y-98386771D01*
X168744771Y-98265909D01*
X168835709Y-98121183D01*
X168892162Y-97959850D01*
X168911299Y-97790000D01*
X168892162Y-97620150D01*
X168835709Y-97458817D01*
X168744771Y-97314091D01*
X168623909Y-97193229D01*
X168623906Y-97193227D01*
X168623905Y-97193226D01*
X168479184Y-97102291D01*
X168317852Y-97045838D01*
X168148000Y-97026701D01*
X167978147Y-97045838D01*
X167816815Y-97102291D01*
X167672094Y-97193226D01*
X167551226Y-97314094D01*
X167460291Y-97458816D01*
X167403707Y-97620522D01*
X167366787Y-97697188D01*
X167313733Y-97763716D01*
X165988116Y-99089333D01*
X165921588Y-99142387D01*
X165844922Y-99179307D01*
X165683216Y-99235891D01*
X165538494Y-99326826D01*
X165417626Y-99447694D01*
X165326691Y-99592415D01*
X165270238Y-99753747D01*
X165257999Y-99862378D01*
X165252127Y-99914499D01*
X165248281Y-99948631D01*
X165246425Y-100014758D01*
X165214161Y-100115980D01*
X165155137Y-100204314D01*
X165073965Y-100272856D01*
X164976991Y-100316249D01*
X164871795Y-100331100D01*
X159026551Y-100331100D01*
X158928200Y-100318152D01*
X158836551Y-100280190D01*
X158757850Y-100219801D01*
X155605412Y-97067363D01*
X155536097Y-96972286D01*
X155499189Y-96860562D01*
X155498226Y-96742905D01*
X155533301Y-96630592D01*
X155601052Y-96534394D01*
X155694980Y-96463533D01*
X155802737Y-96405936D01*
X155847896Y-96368875D01*
X155985843Y-96255666D01*
X155986608Y-96256599D01*
X156026381Y-96220551D01*
X156127191Y-96172871D01*
X156237500Y-96156508D01*
X156347809Y-96172871D01*
X156448619Y-96220551D01*
X156488391Y-96256599D01*
X156489157Y-96255666D01*
X156555613Y-96310204D01*
X156672263Y-96405936D01*
X156848158Y-96499954D01*
X156897392Y-96514889D01*
X157039013Y-96557850D01*
X157237500Y-96577399D01*
X157435986Y-96557850D01*
X157513309Y-96534394D01*
X157626842Y-96499954D01*
X157802737Y-96405936D01*
X157956910Y-96279410D01*
X157956909Y-96279410D01*
X157985843Y-96255666D01*
X157986561Y-96256541D01*
X158026700Y-96220160D01*
X158127510Y-96172478D01*
X158237820Y-96156114D01*
X158348131Y-96172477D01*
X158448941Y-96220156D01*
X158488751Y-96256239D01*
X158489513Y-96255311D01*
X158672544Y-96405519D01*
X158848350Y-96499490D01*
X159039114Y-96557358D01*
X159237499Y-96576897D01*
X159435885Y-96557358D01*
X159626649Y-96499490D01*
X159802455Y-96405519D01*
X159956554Y-96279054D01*
X160083019Y-96124955D01*
X160176990Y-95949149D01*
X160209797Y-95841000D01*
X173614501Y-95841000D01*
X173633638Y-96010852D01*
X173690091Y-96172184D01*
X173778241Y-96312472D01*
X173781029Y-96316909D01*
X173901891Y-96437771D01*
X173901893Y-96437772D01*
X173901894Y-96437773D01*
X174042523Y-96526137D01*
X174046617Y-96528709D01*
X174171764Y-96572500D01*
X174197104Y-96581367D01*
X174207950Y-96585162D01*
X174377800Y-96604299D01*
X174547650Y-96585162D01*
X174708983Y-96528709D01*
X174853709Y-96437771D01*
X174974571Y-96316909D01*
X175065509Y-96172183D01*
X175121962Y-96010850D01*
X175141099Y-95841000D01*
X175121962Y-95671150D01*
X175065509Y-95509817D01*
X174974571Y-95365091D01*
X174853709Y-95244229D01*
X174853706Y-95244227D01*
X174853705Y-95244226D01*
X174708984Y-95153291D01*
X174547652Y-95096838D01*
X174377800Y-95077701D01*
X174207947Y-95096838D01*
X174046615Y-95153291D01*
X173901894Y-95244226D01*
X173781026Y-95365094D01*
X173690091Y-95509815D01*
X173633638Y-95671147D01*
X173614501Y-95841000D01*
X160209797Y-95841000D01*
X160234858Y-95758385D01*
X160254397Y-95560000D01*
X160234858Y-95361614D01*
X160176990Y-95170850D01*
X160083019Y-94995044D01*
X159956554Y-94840945D01*
X159802455Y-94714480D01*
X159626649Y-94620509D01*
X159435885Y-94562641D01*
X159237499Y-94543102D01*
X159039114Y-94562641D01*
X158848350Y-94620509D01*
X158672544Y-94714480D01*
X158489513Y-94864689D01*
X158488751Y-94863760D01*
X158448933Y-94899848D01*
X158348126Y-94947524D01*
X158237820Y-94963885D01*
X158127514Y-94947522D01*
X158026708Y-94899844D01*
X157986561Y-94863458D01*
X157985843Y-94864334D01*
X157803501Y-94714691D01*
X157802737Y-94714064D01*
X157626842Y-94620046D01*
X157626839Y-94620045D01*
X157626837Y-94620044D01*
X157435986Y-94562149D01*
X157237500Y-94542600D01*
X157039013Y-94562149D01*
X156848162Y-94620044D01*
X156848158Y-94620045D01*
X156848158Y-94620046D01*
X156672263Y-94714064D01*
X156672261Y-94714065D01*
X156672260Y-94714066D01*
X156489157Y-94864334D01*
X156488390Y-94863400D01*
X156448611Y-94899453D01*
X156347805Y-94947129D01*
X156237500Y-94963491D01*
X156127195Y-94947129D01*
X156026389Y-94899453D01*
X155986609Y-94863400D01*
X155985843Y-94864334D01*
X155803501Y-94714691D01*
X155802737Y-94714064D01*
X155626842Y-94620046D01*
X155626839Y-94620045D01*
X155626837Y-94620044D01*
X155435986Y-94562149D01*
X155237500Y-94542600D01*
X155039013Y-94562149D01*
X154848162Y-94620044D01*
X154848158Y-94620045D01*
X154848158Y-94620046D01*
X154672263Y-94714064D01*
X154672261Y-94714065D01*
X154672260Y-94714066D01*
X154489157Y-94864334D01*
X154488390Y-94863400D01*
X154448611Y-94899453D01*
X154347805Y-94947129D01*
X154237500Y-94963491D01*
X154127195Y-94947129D01*
X154026389Y-94899453D01*
X153986609Y-94863400D01*
X153985843Y-94864334D01*
X153803501Y-94714691D01*
X153802737Y-94714064D01*
X153626842Y-94620046D01*
X153626839Y-94620045D01*
X153626837Y-94620044D01*
X153435986Y-94562149D01*
X153237500Y-94542600D01*
X153039013Y-94562149D01*
X152848162Y-94620044D01*
X152848158Y-94620045D01*
X152848158Y-94620046D01*
X152672263Y-94714064D01*
X152672261Y-94714065D01*
X152672260Y-94714066D01*
X152489157Y-94864334D01*
X152488390Y-94863400D01*
X152448611Y-94899453D01*
X152347805Y-94947129D01*
X152237500Y-94963491D01*
X152127195Y-94947129D01*
X152026389Y-94899453D01*
X151986609Y-94863400D01*
X151985843Y-94864334D01*
X151803501Y-94714691D01*
X151802737Y-94714064D01*
X151626842Y-94620046D01*
X151626839Y-94620045D01*
X151626837Y-94620044D01*
X151435986Y-94562149D01*
X151237500Y-94542600D01*
X151039013Y-94562149D01*
X150848162Y-94620044D01*
X150848158Y-94620045D01*
X150848158Y-94620046D01*
X150672263Y-94714064D01*
X150672261Y-94714065D01*
X150672260Y-94714066D01*
X150489157Y-94864334D01*
X150488390Y-94863400D01*
X150448611Y-94899453D01*
X150347805Y-94947129D01*
X150237500Y-94963491D01*
X150127195Y-94947129D01*
X150026389Y-94899453D01*
X149986609Y-94863400D01*
X149985843Y-94864334D01*
X149803501Y-94714691D01*
X149802737Y-94714064D01*
X149626842Y-94620046D01*
X149626839Y-94620045D01*
X149626837Y-94620044D01*
X149435986Y-94562149D01*
X149237500Y-94542600D01*
X149039013Y-94562149D01*
X148848162Y-94620044D01*
X148848158Y-94620045D01*
X148848158Y-94620046D01*
X148672263Y-94714064D01*
X148672261Y-94714065D01*
X148672260Y-94714066D01*
X148489157Y-94864334D01*
X148488390Y-94863400D01*
X148448611Y-94899453D01*
X148347805Y-94947129D01*
X148237500Y-94963491D01*
X148127195Y-94947129D01*
X148026389Y-94899453D01*
X147986609Y-94863400D01*
X147985843Y-94864334D01*
X147803501Y-94714691D01*
X147802737Y-94714064D01*
X147626842Y-94620046D01*
X147626839Y-94620045D01*
X147626837Y-94620044D01*
X147435986Y-94562149D01*
X147237500Y-94542600D01*
X147039013Y-94562149D01*
X146848162Y-94620044D01*
X146848158Y-94620045D01*
X146848158Y-94620046D01*
X146672263Y-94714064D01*
X146672261Y-94714065D01*
X146672260Y-94714066D01*
X146489157Y-94864334D01*
X146488390Y-94863400D01*
X146448611Y-94899453D01*
X146347805Y-94947129D01*
X146237500Y-94963491D01*
X146127195Y-94947129D01*
X146026389Y-94899453D01*
X145986609Y-94863400D01*
X145985843Y-94864334D01*
X145803501Y-94714691D01*
X145802737Y-94714064D01*
X145626842Y-94620046D01*
X145626839Y-94620045D01*
X145626837Y-94620044D01*
X145435986Y-94562149D01*
X145237500Y-94542600D01*
X145039013Y-94562149D01*
X144848162Y-94620044D01*
X144848158Y-94620045D01*
X144848158Y-94620046D01*
X144672263Y-94714064D01*
X144672261Y-94714065D01*
X144672260Y-94714066D01*
X144489157Y-94864334D01*
X144488390Y-94863400D01*
X144448611Y-94899453D01*
X144347805Y-94947129D01*
X144237500Y-94963491D01*
X144127195Y-94947129D01*
X144026389Y-94899453D01*
X143986609Y-94863400D01*
X143985843Y-94864334D01*
X143803501Y-94714691D01*
X143802737Y-94714064D01*
X143626842Y-94620046D01*
X143626839Y-94620045D01*
X143626837Y-94620044D01*
X143435986Y-94562149D01*
X143237500Y-94542600D01*
X143039013Y-94562149D01*
X142848162Y-94620044D01*
X142848158Y-94620045D01*
X142848158Y-94620046D01*
X142712160Y-94692739D01*
X142672256Y-94714068D01*
X142637765Y-94742374D01*
X142532030Y-94803713D01*
X142412292Y-94828307D01*
X142290940Y-94813613D01*
X142180531Y-94761151D01*
X142126059Y-94708682D01*
X141987703Y-94605110D01*
X141850702Y-94554011D01*
X141820419Y-94550755D01*
X141790138Y-94547500D01*
X140684862Y-94547500D01*
X140664674Y-94549670D01*
X140624297Y-94554011D01*
X140487296Y-94605110D01*
X140370238Y-94692738D01*
X140282610Y-94809796D01*
X140231511Y-94946797D01*
X140231433Y-94947522D01*
X140225000Y-95007362D01*
X140225000Y-96112638D01*
X138747500Y-96112638D01*
X138747500Y-95074412D01*
X138740994Y-95013904D01*
X138689946Y-94877036D01*
X138602404Y-94760095D01*
X138485463Y-94672553D01*
X138348595Y-94621505D01*
X138288088Y-94615000D01*
X133110912Y-94615000D01*
X133050404Y-94621505D01*
X132913536Y-94672553D01*
X132796595Y-94760095D01*
X132709053Y-94877036D01*
X132658005Y-95013904D01*
X132651500Y-95074412D01*
X132651500Y-97584588D01*
X131191500Y-97584588D01*
X131191500Y-88595200D01*
X172769501Y-88595200D01*
X172771439Y-88612400D01*
X172788638Y-88765052D01*
X172845091Y-88926384D01*
X172912519Y-89033694D01*
X172936029Y-89071109D01*
X173056891Y-89191971D01*
X173201617Y-89282909D01*
X173362950Y-89339362D01*
X173532800Y-89358499D01*
X173702650Y-89339362D01*
X173863983Y-89282909D01*
X174008709Y-89191971D01*
X174129571Y-89071109D01*
X174220509Y-88926383D01*
X174276962Y-88765050D01*
X174296099Y-88595200D01*
X174276962Y-88425350D01*
X174220509Y-88264017D01*
X174129571Y-88119291D01*
X174008709Y-87998429D01*
X174008706Y-87998427D01*
X174008705Y-87998426D01*
X173863984Y-87907491D01*
X173702652Y-87851038D01*
X173532800Y-87831901D01*
X173362947Y-87851038D01*
X173201615Y-87907491D01*
X173056894Y-87998426D01*
X172936026Y-88119294D01*
X172845091Y-88264015D01*
X172788638Y-88425347D01*
X172788638Y-88425350D01*
X172769501Y-88595200D01*
X131191500Y-88595200D01*
X131191500Y-76376899D01*
X132977793Y-76376899D01*
X132987673Y-76684980D01*
X133036506Y-76987032D01*
X133036867Y-76989261D01*
X133124569Y-77284756D01*
X133249337Y-77566609D01*
X133409123Y-77830193D01*
X133409125Y-77830196D01*
X133409126Y-77830197D01*
X133557649Y-78016440D01*
X133601304Y-78071181D01*
X133822724Y-78285614D01*
X134069747Y-78469972D01*
X134338318Y-78621228D01*
X134624025Y-78736899D01*
X134624026Y-78736899D01*
X134624028Y-78736900D01*
X134716352Y-78761110D01*
X134922179Y-78815084D01*
X135182631Y-78848665D01*
X135227882Y-78854500D01*
X135227883Y-78854500D01*
X135458974Y-78854500D01*
X135458977Y-78854500D01*
X135557814Y-78848154D01*
X135689601Y-78839693D01*
X135992151Y-78780772D01*
X136284683Y-78683644D01*
X136562393Y-78549907D01*
X136820720Y-78381754D01*
X137055424Y-78181948D01*
X137262650Y-77953769D01*
X137438996Y-77700963D01*
X137581567Y-77427683D01*
X137688020Y-77138415D01*
X137756609Y-76837908D01*
X137784121Y-76552708D01*
X137786206Y-76531100D01*
X137781261Y-76376899D01*
X137776327Y-76223022D01*
X137727133Y-75918739D01*
X137639431Y-75623244D01*
X137514663Y-75341391D01*
X137354877Y-75077807D01*
X137162696Y-74836819D01*
X136941276Y-74622386D01*
X136893047Y-74586392D01*
X136812457Y-74526246D01*
X136694253Y-74438028D01*
X136552315Y-74358090D01*
X136425683Y-74286772D01*
X136139971Y-74171099D01*
X135841822Y-74092916D01*
X135536118Y-74053500D01*
X135536117Y-74053500D01*
X135305026Y-74053500D01*
X135305023Y-74053500D01*
X135074402Y-74068306D01*
X134771845Y-74127228D01*
X134479314Y-74224356D01*
X134201610Y-74358090D01*
X133943279Y-74526246D01*
X133708576Y-74726051D01*
X133501351Y-74954229D01*
X133325003Y-75207038D01*
X133182433Y-75480316D01*
X133075980Y-75769582D01*
X133041936Y-75918739D01*
X133007391Y-76070092D01*
X133007391Y-76070095D01*
X132977793Y-76376899D01*
X131191500Y-76376899D01*
X131191500Y-72643500D01*
X131210099Y-72526074D01*
X131264074Y-72420142D01*
X131348142Y-72336074D01*
X131454074Y-72282099D01*
X131571500Y-72263500D01*
X140188253Y-72263500D01*
X140308716Y-72283099D01*
G37*
%TD.AperFunction*%
%TD*%
M02*
