%TF.GenerationSoftware,KiCad,Pcbnew,(6.0.8)*%
%TF.CreationDate,2022-10-11T12:40:35-07:00*%
%TF.ProjectId,Ground-Station-Telemetry,47726f75-6e64-42d5-9374-6174696f6e2d,rev?*%
%TF.SameCoordinates,Original*%
%TF.FileFunction,Soldermask,Top*%
%TF.FilePolarity,Negative*%
%FSLAX46Y46*%
G04 Gerber Fmt 4.6, Leading zero omitted, Abs format (unit mm)*
G04 Created by KiCad (PCBNEW (6.0.8)) date 2022-10-11 12:40:35*
%MOMM*%
%LPD*%
G01*
G04 APERTURE LIST*
%ADD10R,0.940000X1.020000*%
%ADD11R,0.965200X1.295400*%
%ADD12R,5.080000X2.286000*%
%ADD13R,5.080000X2.413000*%
%ADD14R,1.300000X1.100000*%
%ADD15R,1.008000X1.008000*%
%ADD16C,1.008000*%
%ADD17R,1.950000X1.050000*%
%ADD18R,0.900000X0.254000*%
%ADD19R,0.254000X0.900000*%
%ADD20R,3.100000X3.100000*%
%ADD21R,0.950000X2.150000*%
%ADD22R,3.250000X2.150000*%
%ADD23R,1.560000X0.280000*%
%ADD24R,0.280000X1.560000*%
%ADD25R,1.020000X0.940000*%
%ADD26R,1.478000X1.478000*%
%ADD27C,1.478000*%
%ADD28C,3.366000*%
%ADD29C,1.066800*%
%ADD30C,4.300000*%
%ADD31R,0.979300X0.558800*%
%ADD32R,1.000000X0.800000*%
%ADD33R,1.100000X1.000000*%
%ADD34R,1.000000X1.100000*%
%ADD35R,1.778000X1.270000*%
%ADD36R,1.700000X0.990600*%
G04 APERTURE END LIST*
D10*
%TO.C,R6*%
X214348000Y-79121000D03*
X215928000Y-79121000D03*
%TD*%
D11*
%TO.C,D2*%
X213360000Y-83058000D03*
X216408000Y-83058000D03*
%TD*%
D12*
%TO.C,AE1*%
X135699500Y-100711000D03*
D13*
X135699500Y-105092500D03*
X135699500Y-96329500D03*
%TD*%
D14*
%TO.C,Y1*%
X166139500Y-94477000D03*
X163839500Y-94477000D03*
X163839500Y-96277000D03*
X166139500Y-96277000D03*
%TD*%
D15*
%TO.C,U5*%
X141237500Y-95560000D03*
D16*
X143237500Y-95560000D03*
X145237500Y-95560000D03*
X147237500Y-95560000D03*
X149237500Y-95560000D03*
X151237500Y-95560000D03*
X153237500Y-95560000D03*
X155237500Y-95560000D03*
X157237500Y-95560000D03*
X159237500Y-95560000D03*
X159237500Y-73560000D03*
X157237500Y-73560000D03*
X155237500Y-73560000D03*
X153237500Y-73560000D03*
X151237500Y-73560000D03*
X149237500Y-73560000D03*
X147237500Y-73560000D03*
X145237500Y-73560000D03*
X143237500Y-73560000D03*
X141237500Y-73560000D03*
%TD*%
D17*
%TO.C,U4*%
X159927000Y-112918000D03*
X159927000Y-110918000D03*
X159927000Y-108918000D03*
X159927000Y-106918000D03*
X159927000Y-104918000D03*
X159927000Y-102918000D03*
X159927000Y-100918000D03*
X159927000Y-98918000D03*
X145127000Y-98918000D03*
X145127000Y-100918000D03*
X145127000Y-102918000D03*
X145127000Y-104918000D03*
X145127000Y-106918000D03*
X145127000Y-108918000D03*
X145127000Y-110918000D03*
X145127000Y-112918000D03*
%TD*%
D18*
%TO.C,U3*%
X200327000Y-101068000D03*
X200327000Y-100568000D03*
X200327000Y-100068000D03*
X200327000Y-99568000D03*
X200327000Y-99068000D03*
X200327000Y-98568000D03*
X200327000Y-98068000D03*
D19*
X199237000Y-96978000D03*
X198737000Y-96978000D03*
X198237000Y-96978000D03*
X197737000Y-96978000D03*
X197237000Y-96978000D03*
X196737000Y-96978000D03*
X196237000Y-96978000D03*
D18*
X195147000Y-98068000D03*
X195147000Y-98568000D03*
X195147000Y-99068000D03*
X195147000Y-99568000D03*
X195147000Y-100068000D03*
X195147000Y-100568000D03*
X195147000Y-101068000D03*
D19*
X196237000Y-102158000D03*
X196737000Y-102158000D03*
X197237000Y-102158000D03*
X197737000Y-102158000D03*
X198237000Y-102158000D03*
X198737000Y-102158000D03*
X199237000Y-102158000D03*
D20*
X197737000Y-99568000D03*
%TD*%
D21*
%TO.C,U2*%
X198614000Y-85683000D03*
D22*
X200914000Y-79883000D03*
D21*
X200914000Y-85683000D03*
X203214000Y-85683000D03*
%TD*%
D23*
%TO.C,U1*%
X172860000Y-90841000D03*
X172860000Y-91341000D03*
X172860000Y-91841000D03*
X172860000Y-92341000D03*
X172860000Y-92841000D03*
X172860000Y-93341000D03*
X172860000Y-93841000D03*
X172860000Y-94341000D03*
X172860000Y-94841000D03*
X172860000Y-95341000D03*
X172860000Y-95841000D03*
X172860000Y-96341000D03*
X172860000Y-96841000D03*
X172860000Y-97341000D03*
X172860000Y-97841000D03*
X172860000Y-98341000D03*
X172860000Y-98841000D03*
X172860000Y-99341000D03*
X172860000Y-99841000D03*
X172860000Y-100341000D03*
X172860000Y-100841000D03*
X172860000Y-101341000D03*
X172860000Y-101841000D03*
X172860000Y-102341000D03*
X172860000Y-102841000D03*
D24*
X174540000Y-104521000D03*
X175040000Y-104521000D03*
X175540000Y-104521000D03*
X176040000Y-104521000D03*
X176540000Y-104521000D03*
X177040000Y-104521000D03*
X177540000Y-104521000D03*
X178040000Y-104521000D03*
X178540000Y-104521000D03*
X179040000Y-104521000D03*
X179540000Y-104521000D03*
X180040000Y-104521000D03*
X180540000Y-104521000D03*
X181040000Y-104521000D03*
X181540000Y-104521000D03*
X182040000Y-104521000D03*
X182540000Y-104521000D03*
X183040000Y-104521000D03*
X183540000Y-104521000D03*
X184040000Y-104521000D03*
X184540000Y-104521000D03*
X185040000Y-104521000D03*
X185540000Y-104521000D03*
X186040000Y-104521000D03*
X186540000Y-104521000D03*
D23*
X188220000Y-102841000D03*
X188220000Y-102341000D03*
X188220000Y-101841000D03*
X188220000Y-101341000D03*
X188220000Y-100841000D03*
X188220000Y-100341000D03*
X188220000Y-99841000D03*
X188220000Y-99341000D03*
X188220000Y-98841000D03*
X188220000Y-98341000D03*
X188220000Y-97841000D03*
X188220000Y-97341000D03*
X188220000Y-96841000D03*
X188220000Y-96341000D03*
X188220000Y-95841000D03*
X188220000Y-95341000D03*
X188220000Y-94841000D03*
X188220000Y-94341000D03*
X188220000Y-93841000D03*
X188220000Y-93341000D03*
X188220000Y-92841000D03*
X188220000Y-92341000D03*
X188220000Y-91841000D03*
X188220000Y-91341000D03*
X188220000Y-90841000D03*
D24*
X186540000Y-89161000D03*
X186040000Y-89161000D03*
X185540000Y-89161000D03*
X185040000Y-89161000D03*
X184540000Y-89161000D03*
X184040000Y-89161000D03*
X183540000Y-89161000D03*
X183040000Y-89161000D03*
X182540000Y-89161000D03*
X182040000Y-89161000D03*
X181540000Y-89161000D03*
X181040000Y-89161000D03*
X180540000Y-89161000D03*
X180040000Y-89161000D03*
X179540000Y-89161000D03*
X179040000Y-89161000D03*
X178540000Y-89161000D03*
X178040000Y-89161000D03*
X177540000Y-89161000D03*
X177040000Y-89161000D03*
X176540000Y-89161000D03*
X176040000Y-89161000D03*
X175540000Y-89161000D03*
X175040000Y-89161000D03*
X174540000Y-89161000D03*
%TD*%
D10*
%TO.C,R9*%
X196060000Y-94996000D03*
X197640000Y-94996000D03*
%TD*%
%TO.C,R8*%
X196060000Y-93091000D03*
X197640000Y-93091000D03*
%TD*%
%TO.C,R7*%
X185646000Y-78867000D03*
X187226000Y-78867000D03*
%TD*%
D25*
%TO.C,R5*%
X204724000Y-104549000D03*
X204724000Y-102969000D03*
%TD*%
%TO.C,R4*%
X207137000Y-104676000D03*
X207137000Y-103096000D03*
%TD*%
%TO.C,R3*%
X180543200Y-108181200D03*
X180543200Y-106601200D03*
%TD*%
%TO.C,R2*%
X184454800Y-106753600D03*
X184454800Y-108333600D03*
%TD*%
%TO.C,R1*%
X182422800Y-106753600D03*
X182422800Y-108333600D03*
%TD*%
D26*
%TO.C,P2*%
X212545500Y-94508000D03*
D27*
X212545500Y-97008000D03*
X214545500Y-97008000D03*
X214545500Y-94508000D03*
D28*
X217255500Y-101778000D03*
X217255500Y-89738000D03*
%TD*%
D29*
%TO.C,P1*%
X207899000Y-107303950D03*
X207899000Y-108573950D03*
X206629000Y-107303950D03*
X206629000Y-108573950D03*
X205359000Y-107303950D03*
X205359000Y-108573950D03*
X204089000Y-107303950D03*
X204089000Y-108573950D03*
X202819000Y-107303950D03*
X202819000Y-108573950D03*
X201549000Y-107303950D03*
X201549000Y-108573950D03*
X200279000Y-107303950D03*
X200279000Y-108573950D03*
X199009000Y-107303950D03*
X199009000Y-108573950D03*
X197739000Y-107303950D03*
X197739000Y-108573950D03*
X196469000Y-107303950D03*
X196469000Y-108573950D03*
%TD*%
D25*
%TO.C,J1*%
X178435000Y-85316000D03*
X178435000Y-86896000D03*
%TD*%
D30*
%TO.C,H4*%
X137541000Y-111252000D03*
%TD*%
%TO.C,H3*%
X221869000Y-76454000D03*
%TD*%
%TO.C,H2*%
X135382000Y-76454000D03*
%TD*%
%TO.C,H1*%
X220853000Y-110998000D03*
%TD*%
D31*
%TO.C,D4*%
X204753052Y-98363999D03*
X204753052Y-99314000D03*
X204753052Y-100264001D03*
X207484948Y-100264001D03*
X207484948Y-98363999D03*
%TD*%
D11*
%TO.C,D3*%
X184912000Y-82931000D03*
X187960000Y-82931000D03*
%TD*%
D32*
%TO.C,D1*%
X183349200Y-111057600D03*
X184849200Y-111057600D03*
X184849200Y-112157600D03*
X183349200Y-112157600D03*
%TD*%
D33*
%TO.C,C18*%
X142175600Y-105867200D03*
X140475600Y-105867200D03*
%TD*%
D34*
%TO.C,C17*%
X200152000Y-95084000D03*
X200152000Y-93384000D03*
%TD*%
%TO.C,C16*%
X202031600Y-95033200D03*
X202031600Y-93333200D03*
%TD*%
D33*
%TO.C,C15*%
X168998000Y-100838000D03*
X167298000Y-100838000D03*
%TD*%
%TO.C,C14*%
X170014000Y-99060000D03*
X168314000Y-99060000D03*
%TD*%
%TO.C,C13*%
X163996000Y-98298000D03*
X165696000Y-98298000D03*
%TD*%
%TO.C,C12*%
X189777000Y-89027000D03*
X191477000Y-89027000D03*
%TD*%
%TO.C,C11*%
X170141000Y-95123000D03*
X168441000Y-95123000D03*
%TD*%
D34*
%TO.C,C10*%
X174371000Y-86956000D03*
X174371000Y-85256000D03*
%TD*%
%TO.C,C9*%
X174625000Y-106719000D03*
X174625000Y-108419000D03*
%TD*%
D33*
%TO.C,C8*%
X163996000Y-92456000D03*
X165696000Y-92456000D03*
%TD*%
D34*
%TO.C,C6*%
X176149000Y-86956000D03*
X176149000Y-85256000D03*
%TD*%
D33*
%TO.C,C5*%
X188227600Y-105410000D03*
X189927600Y-105410000D03*
%TD*%
D35*
%TO.C,C7*%
X194614800Y-84785200D03*
X194614800Y-82143600D03*
%TD*%
%TO.C,C4*%
X208153000Y-81864200D03*
X208153000Y-84505800D03*
%TD*%
D33*
%TO.C,C3*%
X190920000Y-91821000D03*
X192620000Y-91821000D03*
%TD*%
%TO.C,C2*%
X187922800Y-107340400D03*
X189622800Y-107340400D03*
%TD*%
D34*
%TO.C,C1*%
X172720000Y-106084000D03*
X172720000Y-107784000D03*
%TD*%
D36*
%TO.C,B1*%
X170213000Y-108914999D03*
X164813000Y-108914999D03*
X170213000Y-105715001D03*
X164813000Y-105715001D03*
%TD*%
M02*
