%TF.GenerationSoftware,KiCad,Pcbnew,7.0.1*%
%TF.CreationDate,2023-04-09T14:50:31-07:00*%
%TF.ProjectId,Ground-Station-Telemetry,47726f75-6e64-42d5-9374-6174696f6e2d,rev?*%
%TF.SameCoordinates,Original*%
%TF.FileFunction,Soldermask,Bot*%
%TF.FilePolarity,Negative*%
%FSLAX46Y46*%
G04 Gerber Fmt 4.6, Leading zero omitted, Abs format (unit mm)*
G04 Created by KiCad (PCBNEW 7.0.1) date 2023-04-09 14:50:31*
%MOMM*%
%LPD*%
G01*
G04 APERTURE LIST*
%ADD10C,4.300000*%
%ADD11R,1.008000X1.008000*%
%ADD12C,1.008000*%
%ADD13C,1.270000*%
%ADD14C,3.810000*%
%ADD15C,1.066800*%
%ADD16R,1.478000X1.478000*%
%ADD17C,1.478000*%
%ADD18C,3.366000*%
%ADD19R,5.080000X2.413000*%
G04 APERTURE END LIST*
D10*
%TO.C,H4*%
X137541000Y-111252000D03*
%TD*%
D11*
%TO.C,U5*%
X141237500Y-95560000D03*
D12*
X143237500Y-95560000D03*
X145237500Y-95560000D03*
X147237500Y-95560000D03*
X149237500Y-95560000D03*
X151237500Y-95560000D03*
X153237500Y-95560000D03*
X155237500Y-95560000D03*
X157237500Y-95560000D03*
X159237500Y-95560000D03*
X159237500Y-73560000D03*
X157237500Y-73560000D03*
X155237500Y-73560000D03*
X153237500Y-73560000D03*
X151237500Y-73560000D03*
X149237500Y-73560000D03*
X147237500Y-73560000D03*
X145237500Y-73560000D03*
X143237500Y-73560000D03*
X141237500Y-73560000D03*
%TD*%
D13*
%TO.C,P3*%
X214630000Y-86741000D03*
X212090000Y-85471000D03*
X214630000Y-84201000D03*
X212090000Y-82931000D03*
X214630000Y-81661000D03*
X212090000Y-80391000D03*
X214630000Y-79121000D03*
X212090000Y-77851000D03*
D14*
X220980000Y-88011000D03*
X220980000Y-76581000D03*
%TD*%
D10*
%TO.C,H2*%
X135382000Y-76454000D03*
%TD*%
D15*
%TO.C,P1*%
X207899000Y-107303950D03*
X207899000Y-108573950D03*
X206629000Y-107303950D03*
X206629000Y-108573950D03*
X205359000Y-107303950D03*
X205359000Y-108573950D03*
X204089000Y-107303950D03*
X204089000Y-108573950D03*
X202819000Y-107303950D03*
X202819000Y-108573950D03*
X201549000Y-107303950D03*
X201549000Y-108573950D03*
X200279000Y-107303950D03*
X200279000Y-108573950D03*
X199009000Y-107303950D03*
X199009000Y-108573950D03*
X197739000Y-107303950D03*
X197739000Y-108573950D03*
X196469000Y-107303950D03*
X196469000Y-108573950D03*
%TD*%
D10*
%TO.C,H1*%
X220853000Y-110998000D03*
%TD*%
D16*
%TO.C,P2*%
X212926500Y-98953000D03*
D17*
X212926500Y-101453000D03*
X214926500Y-101453000D03*
X214926500Y-98953000D03*
D18*
X217636500Y-106223000D03*
X217636500Y-94183000D03*
%TD*%
D19*
%TO.C,AE1*%
X135699500Y-105105200D03*
X135699500Y-96329500D03*
%TD*%
M02*
