M48
; DRILL file {KiCad (6.0.8)} date Tue Oct 11 12:40:38 2022
; FORMAT={-:-/ absolute / inch / decimal}
; #@! TF.CreationDate,2022-10-11T12:40:38-07:00
; #@! TF.GenerationSoftware,Kicad,Pcbnew,(6.0.8)
; #@! TF.FileFunction,Plated,1,4,PTH
FMAT,2
INCH
; #@! TA.AperFunction,Plated,PTH,ViaDrill
T1C0.0118
; #@! TA.AperFunction,Plated,PTH,ViaDrill
T2C0.0150
; #@! TA.AperFunction,Plated,PTH,ComponentDrill
T3C0.0197
; #@! TA.AperFunction,Plated,PTH,ComponentDrill
T4C0.0290
; #@! TA.AperFunction,Plated,PTH,ComponentDrill
T5C0.0382
; #@! TA.AperFunction,Plated,PTH,ComponentDrill
T6C0.0925
%
G90
G05
T1
X6.428Y-4.03
X6.536Y-3.934
X6.582Y-4.114
X6.62Y-3.85
X6.63Y-3.705
X6.632Y-4.148
X6.658Y-4.12
X6.728Y-3.296
X6.7295Y-3.9345
X6.7435Y-3.8785
X6.748Y-3.352
X6.758Y-4.162
X6.832Y-3.488
X6.8365Y-4.2685
X6.8653Y-3.7733
X6.8913Y-4.0687
X6.9775Y-3.4475
X6.992Y-3.956
X7.002Y-4.002
X7.068Y-3.262
X7.08Y-3.234
X7.09Y-3.588
X7.1Y-3.202
X7.124Y-3.172
X7.158Y-4.344
X7.19Y-3.204
X7.21Y-4.02
X7.272Y-3.992
X7.272Y-4.028
X7.3376Y-3.5764
X7.3475Y-4.1875
X7.373Y-4.115
X7.402Y-3.524
X7.48Y-3.756
X7.5Y-3.73
X7.574Y-3.694
X7.5835Y-3.5665
X7.652Y-3.692
X7.67Y-3.74
X7.75Y-3.89
X7.75Y-3.96
X7.78Y-4.138
X7.81Y-4.116
X7.82Y-3.89
X7.82Y-3.96
X8.0195Y-3.6745
X8.025Y-3.91
X8.1061Y-4.0539
X8.245Y-3.995
T2
X5.2Y-3.966
X5.608Y-3.974
X5.8126Y-4.2094
X6.1964Y-4.4456
X7.732Y-3.164
X7.7513Y-3.3733
X7.774Y-3.28
X8.194Y-3.138
T3
X5.5605Y-2.8961
X5.5605Y-3.7622
X5.6393Y-2.8961
X5.6393Y-3.7622
X5.718Y-2.8961
X5.718Y-3.7622
X5.7968Y-2.8961
X5.7968Y-3.7622
X5.8755Y-2.8961
X5.8755Y-3.7622
X5.9542Y-2.8961
X5.9542Y-3.7622
X6.033Y-2.8961
X6.033Y-3.7622
X6.1117Y-2.8961
X6.1117Y-3.7622
X6.1905Y-2.8961
X6.1905Y-3.7622
X6.2692Y-2.8961
X6.2692Y-3.7622
T4
X7.735Y-4.2246
X7.735Y-4.2746
X7.785Y-4.2246
X7.785Y-4.2746
X7.835Y-4.2246
X7.835Y-4.2746
X7.885Y-4.2246
X7.885Y-4.2746
X7.935Y-4.2246
X7.935Y-4.2746
X7.985Y-4.2246
X7.985Y-4.2746
X8.035Y-4.2246
X8.035Y-4.2746
X8.085Y-4.2246
X8.085Y-4.2746
X8.135Y-4.2246
X8.135Y-4.2746
X8.185Y-4.2246
X8.185Y-4.2746
T5
X8.3679Y-3.7208
X8.3679Y-3.8192
X8.4467Y-3.7208
X8.4467Y-3.8192
T6
X8.5534Y-3.533
X8.5534Y-4.007
T0
M30
