M48
; DRILL file {KiCad 7.0.1} date Sun Apr  9 14:50:32 2023
; FORMAT={-:-/ absolute / inch / decimal}
; #@! TF.CreationDate,2023-04-09T14:50:32-07:00
; #@! TF.GenerationSoftware,Kicad,Pcbnew,7.0.1
; #@! TF.FileFunction,Plated,1,4,PTH
FMAT,2
INCH
; #@! TA.AperFunction,Plated,PTH,ViaDrill
T1C0.0118
; #@! TA.AperFunction,Plated,PTH,ViaDrill
T2C0.0150
; #@! TA.AperFunction,Plated,PTH,ComponentDrill
T3C0.0197
; #@! TA.AperFunction,Plated,PTH,ComponentDrill
T4C0.0290
; #@! TA.AperFunction,Plated,PTH,ComponentDrill
T5C0.0300
; #@! TA.AperFunction,Plated,PTH,ComponentDrill
T6C0.0382
; #@! TA.AperFunction,Plated,PTH,ComponentDrill
T7C0.0925
; #@! TA.AperFunction,Plated,PTH,ComponentDrill
T8C0.1300
%
G90
G05
T1
X6.428Y-4.03
X6.45Y-3.92
X6.536Y-3.934
X6.582Y-4.114
X6.62Y-3.85
X6.63Y-3.705
X6.632Y-4.148
X6.658Y-4.12
X6.728Y-3.296
X6.7295Y-3.9345
X6.7435Y-3.8785
X6.748Y-3.352
X6.758Y-4.162
X6.832Y-3.488
X6.8365Y-4.2685
X6.8653Y-3.7733
X6.8913Y-4.0687
X6.9775Y-3.4475
X6.992Y-3.956
X7.002Y-4.002
X7.03Y-3.005
X7.068Y-3.262
X7.08Y-3.234
X7.09Y-3.588
X7.1Y-3.202
X7.124Y-3.172
X7.158Y-4.344
X7.19Y-3.204
X7.21Y-4.02
X7.272Y-3.992
X7.272Y-4.028
X7.3376Y-3.5764
X7.345Y-3.39
X7.3475Y-4.1875
X7.373Y-4.115
X7.385Y-3.34
X7.402Y-3.524
X7.43Y-3.195
X7.48Y-3.325
X7.48Y-3.756
X7.49Y-3.165
X7.5Y-3.73
X7.535Y-3.305
X7.574Y-3.694
X7.5835Y-3.5665
X7.585Y-3.525
X7.59Y-4.085
X7.62Y-3.355
X7.62Y-3.395
X7.62Y-3.45
X7.635Y-3.87
X7.64Y-3.915
X7.66Y-3.765
X7.66Y-4.155
X7.695Y-3.895
X7.765Y-3.985
X7.785Y-4.35
X7.835Y-3.985
X7.88Y-3.8
X7.985Y-4.345
X8.0301Y-4.035
X8.135Y-4.355
X8.235Y-3.57
X8.25Y-3.42
X8.265Y-3.29
X8.28Y-3.51
X8.45Y-4.43
T2
X5.2Y-3.966
X5.608Y-3.974
X5.8126Y-4.2094
X6.1964Y-4.4456
X7.552Y-2.9373
X7.5713Y-3.1467
X7.594Y-3.0533
X7.84Y-3.015
X7.89Y-3.145
X8.57Y-3.895
T3
X5.5605Y-2.8961
X5.5605Y-3.7622
X5.6393Y-2.8961
X5.6393Y-3.7622
X5.718Y-2.8961
X5.718Y-3.7622
X5.7968Y-2.8961
X5.7968Y-3.7622
X5.8755Y-2.8961
X5.8755Y-3.7622
X5.9542Y-2.8961
X5.9542Y-3.7622
X6.033Y-2.8961
X6.033Y-3.7622
X6.1117Y-2.8961
X6.1117Y-3.7622
X6.1905Y-2.8961
X6.1905Y-3.7622
X6.2692Y-2.8961
X6.2692Y-3.7622
T4
X7.735Y-4.2246
X7.735Y-4.2746
X7.785Y-4.2246
X7.785Y-4.2746
X7.835Y-4.2246
X7.835Y-4.2746
X7.885Y-4.2246
X7.885Y-4.2746
X7.935Y-4.2246
X7.935Y-4.2746
X7.985Y-4.2246
X7.985Y-4.2746
X8.035Y-4.2246
X8.035Y-4.2746
X8.085Y-4.2246
X8.085Y-4.2746
X8.135Y-4.2246
X8.135Y-4.2746
X8.185Y-4.2246
X8.185Y-4.2746
T5
X8.35Y-3.065
X8.35Y-3.165
X8.35Y-3.265
X8.35Y-3.365
X8.45Y-3.115
X8.45Y-3.215
X8.45Y-3.315
X8.45Y-3.415
T6
X8.3829Y-3.8958
X8.3829Y-3.9942
X8.4617Y-3.8958
X8.4617Y-3.9942
T7
X8.5684Y-3.708
X8.5684Y-4.182
T8
X8.7Y-3.015
X8.7Y-3.465
T0
M30
